G04*
G04 #@! TF.GenerationSoftware,Altium Limited,Altium Designer,21.2.0 (30)*
G04*
G04 Layer_Color=16711935*
%FSLAX25Y25*%
%MOIN*%
G70*
G04*
G04 #@! TF.SameCoordinates,089E0905-415C-403D-8C52-DB91437206DE*
G04*
G04*
G04 #@! TF.FilePolarity,Negative*
G04*
G01*
G75*
%ADD10C,0.01000*%
%ADD63C,0.03800*%
%ADD106C,0.06706*%
%ADD107R,0.06706X0.06706*%
%ADD108C,0.07887*%
%ADD109C,0.10249*%
%ADD110C,0.08800*%
%ADD111C,0.12611*%
%ADD112C,0.10958*%
%ADD113C,0.15800*%
%ADD114C,0.07800*%
%ADD115C,0.15600*%
%ADD116C,0.17729*%
%ADD117C,0.09855*%
%ADD118C,0.09461*%
%ADD119C,0.12200*%
%ADD120C,0.13398*%
%ADD121C,0.05800*%
D10*
X347000Y868500D02*
Y958500D01*
Y868500D02*
X428500D01*
Y958500D01*
X700000D01*
Y58500D02*
Y958500D01*
X100000Y58500D02*
X700000D01*
X100000D02*
Y958500D01*
X347000D01*
D63*
X477900Y583100D02*
D03*
X507200Y574300D02*
D03*
X552500Y576800D02*
D03*
X589900Y577200D02*
D03*
X688600Y314000D02*
D03*
X691500Y91300D02*
D03*
X531000Y71300D02*
D03*
X418700Y70400D02*
D03*
X179800Y323800D02*
D03*
X262600Y322400D02*
D03*
X288500Y713500D02*
D03*
X325000Y329000D02*
D03*
X449500Y412813D02*
D03*
Y419878D02*
D03*
Y426950D02*
D03*
X568000Y317500D02*
D03*
X601728Y356887D02*
D03*
X175000Y184000D02*
D03*
X185500Y180000D02*
D03*
X195000Y179500D02*
D03*
X169000Y182000D02*
D03*
X161500Y189500D02*
D03*
X241935Y722935D02*
D03*
X238370Y726500D02*
D03*
X245370Y719870D02*
D03*
X235435Y729435D02*
D03*
X277000Y661500D02*
D03*
X269500Y613000D02*
D03*
X585500Y310500D02*
D03*
X563158Y320500D02*
D03*
X493500Y405000D02*
D03*
X497000Y398000D02*
D03*
X506760Y353437D02*
D03*
X392705Y432205D02*
D03*
X413000Y474000D02*
D03*
X416500Y459500D02*
D03*
X385500Y432500D02*
D03*
X390500Y366000D02*
D03*
X381449D02*
D03*
X404500Y397000D02*
D03*
X407814Y470500D02*
D03*
X595752Y122000D02*
D03*
X506000Y118500D02*
D03*
X436874Y117000D02*
D03*
X538668Y543051D02*
D03*
X230700Y665500D02*
D03*
X216500Y669500D02*
D03*
X205000Y674000D02*
D03*
X321000Y650500D02*
D03*
X322500Y670000D02*
D03*
X493500Y628000D02*
D03*
X453500Y627000D02*
D03*
X415500Y647000D02*
D03*
X379500D02*
D03*
X207996Y524000D02*
D03*
X416500Y342500D02*
D03*
X329500Y368500D02*
D03*
X217080Y493113D02*
D03*
X209000Y509500D02*
D03*
X192580Y491550D02*
D03*
X214740Y542000D02*
D03*
X182500Y539050D02*
D03*
X193500Y544550D02*
D03*
X402476Y485998D02*
D03*
X114500Y382500D02*
D03*
X113222Y339722D02*
D03*
X111500Y392000D02*
D03*
X104500Y186000D02*
D03*
X522000Y83000D02*
D03*
X444100Y86600D02*
D03*
X490500Y102500D02*
D03*
X633000Y71500D02*
D03*
X528000Y91500D02*
D03*
X206500Y176500D02*
D03*
X212000Y159000D02*
D03*
X200080Y171000D02*
D03*
X199000Y191748D02*
D03*
X222563Y204000D02*
D03*
X162000Y202500D02*
D03*
X198000Y248939D02*
D03*
X359914Y83000D02*
D03*
X284000Y93500D02*
D03*
X360000Y89500D02*
D03*
X296250Y92250D02*
D03*
X341831Y69500D02*
D03*
X674000Y318000D02*
D03*
X662000Y223500D02*
D03*
X644500Y258500D02*
D03*
X650027Y265473D02*
D03*
X641500Y373500D02*
D03*
X634500D02*
D03*
X601390Y538857D02*
D03*
X580890D02*
D03*
X591618Y539000D02*
D03*
X606500Y352500D02*
D03*
Y360500D02*
D03*
X613063Y352378D02*
D03*
X597000Y352568D02*
D03*
X596500Y360500D02*
D03*
X642000Y356000D02*
D03*
X635000D02*
D03*
X666000Y381878D02*
D03*
X621232Y385378D02*
D03*
X600772Y441811D02*
D03*
X602925Y413563D02*
D03*
X575362Y401500D02*
D03*
X575531Y408012D02*
D03*
X596228Y544437D02*
D03*
Y553437D02*
D03*
Y562500D02*
D03*
X131500Y225500D02*
D03*
X630000Y319500D02*
D03*
X402500Y282500D02*
D03*
X452500Y508996D02*
D03*
X510000Y176500D02*
D03*
X560252Y199500D02*
D03*
X429000Y283000D02*
D03*
X378200Y285500D02*
D03*
X375500Y443057D02*
D03*
X106000Y199500D02*
D03*
X115000D02*
D03*
X141500Y347500D02*
D03*
X291000Y353000D02*
D03*
X446000Y621500D02*
D03*
X400500Y356887D02*
D03*
X463000Y265500D02*
D03*
X469278Y787500D02*
D03*
X409000Y407500D02*
D03*
X490000Y322850D02*
D03*
X449000Y323500D02*
D03*
X461000Y331500D02*
D03*
X445500Y349000D02*
D03*
X586890Y544500D02*
D03*
X575728D02*
D03*
X514063Y576500D02*
D03*
X429500Y249100D02*
D03*
X380000Y249287D02*
D03*
X356500Y248939D02*
D03*
X328878Y241878D02*
D03*
X367000Y308000D02*
D03*
X147000Y922000D02*
D03*
X315000Y456463D02*
D03*
X358000Y545551D02*
D03*
Y558456D02*
D03*
X416000Y559000D02*
D03*
X366000Y546283D02*
D03*
X366200Y557000D02*
D03*
X351000Y558000D02*
D03*
X321229D02*
D03*
X558000Y519000D02*
D03*
X506216Y587716D02*
D03*
X594000Y497000D02*
D03*
X412500Y509500D02*
D03*
X427500Y496563D02*
D03*
X452500Y528000D02*
D03*
X388500Y464500D02*
D03*
X372500Y456551D02*
D03*
X335109Y182600D02*
D03*
X183500Y197500D02*
D03*
X173000Y119500D02*
D03*
X166500D02*
D03*
X173000Y126571D02*
D03*
X166500D02*
D03*
X425500Y626500D02*
D03*
X327000Y429500D02*
D03*
X653500Y473000D02*
D03*
X632000Y442807D02*
D03*
X482000Y203500D02*
D03*
X491000Y200500D02*
D03*
X408500Y345387D02*
D03*
X377000Y337000D02*
D03*
X342437Y326500D02*
D03*
X172500Y251500D02*
D03*
X591728Y549000D02*
D03*
X581228D02*
D03*
X586728Y553500D02*
D03*
X575728D02*
D03*
X591728Y558000D02*
D03*
X581228D02*
D03*
X586728Y562500D02*
D03*
X575728D02*
D03*
X451500Y492000D02*
D03*
X477284Y523900D02*
D03*
X349803Y446697D02*
D03*
X330000Y356500D02*
D03*
X326500Y337500D02*
D03*
X469000Y384340D02*
D03*
X528000Y323000D02*
D03*
X573500Y321500D02*
D03*
X522000Y323000D02*
D03*
X494000Y318850D02*
D03*
X580000Y315700D02*
D03*
X573500Y315500D02*
D03*
X580000Y322500D02*
D03*
X493000Y327500D02*
D03*
X486216Y339609D02*
D03*
X550000Y329500D02*
D03*
X493500Y373000D02*
D03*
X493000Y361500D02*
D03*
X486000Y347969D02*
D03*
X445500Y355000D02*
D03*
X467000Y232000D02*
D03*
Y255000D02*
D03*
X423000Y258000D02*
D03*
Y275000D02*
D03*
X442000Y274500D02*
D03*
Y255000D02*
D03*
X454500Y254000D02*
D03*
X432000Y256500D02*
D03*
X234000Y261500D02*
D03*
X233000Y252000D02*
D03*
X320000Y261000D02*
D03*
X453000Y378437D02*
D03*
X479500Y415500D02*
D03*
X474500Y424000D02*
D03*
Y430500D02*
D03*
X401600Y407924D02*
D03*
X392500Y408012D02*
D03*
X379500Y415512D02*
D03*
X461500Y345000D02*
D03*
X462500Y363000D02*
D03*
X294000Y313000D02*
D03*
X423500Y312500D02*
D03*
Y235500D02*
D03*
X410000Y218500D02*
D03*
X396472Y214500D02*
D03*
X420000Y101000D02*
D03*
X695000Y566500D02*
D03*
X686000Y553000D02*
D03*
X375500Y401000D02*
D03*
X381449Y397563D02*
D03*
X454000Y616000D02*
D03*
X493000Y621500D02*
D03*
X315100Y448550D02*
D03*
X279000Y450000D02*
D03*
X244059Y449590D02*
D03*
X171740Y154000D02*
D03*
X165500D02*
D03*
X172039Y148000D02*
D03*
X165539D02*
D03*
X172000Y134500D02*
D03*
X165539D02*
D03*
Y141500D02*
D03*
X172000D02*
D03*
X123000Y353000D02*
D03*
X136500Y351500D02*
D03*
X322000Y661000D02*
D03*
X499000Y569000D02*
D03*
X494000Y564000D02*
D03*
X489000Y569000D02*
D03*
X484500Y564000D02*
D03*
X434000Y565500D02*
D03*
X321000Y413563D02*
D03*
X407000Y432500D02*
D03*
X416000Y369787D02*
D03*
X111500Y743500D02*
D03*
X435000Y389000D02*
D03*
Y394878D02*
D03*
X454500Y384500D02*
D03*
X485000Y268000D02*
D03*
X471000Y261500D02*
D03*
X480000Y273000D02*
D03*
X201000Y258500D02*
D03*
X163890Y213051D02*
D03*
X175490Y279051D02*
D03*
X154500Y351300D02*
D03*
X430500Y444000D02*
D03*
Y436000D02*
D03*
X429500Y429000D02*
D03*
X282000Y407050D02*
D03*
X244000Y406666D02*
D03*
X207600Y406550D02*
D03*
X280000Y457550D02*
D03*
X244000D02*
D03*
X206500Y451550D02*
D03*
X282000Y426050D02*
D03*
X246500Y426626D02*
D03*
X211000D02*
D03*
X342600Y410943D02*
D03*
X366995Y406500D02*
D03*
X367000Y396827D02*
D03*
X367500Y383500D02*
D03*
Y377000D02*
D03*
Y368000D02*
D03*
X324262Y350850D02*
D03*
X314500Y322750D02*
D03*
X247000Y312350D02*
D03*
X231500Y323350D02*
D03*
X239541Y366350D02*
D03*
X276000Y335300D02*
D03*
X193500Y336800D02*
D03*
X244500Y326300D02*
D03*
X162500Y326800D02*
D03*
X186000Y424050D02*
D03*
X262500Y380291D02*
D03*
X225724Y380000D02*
D03*
X187500Y379000D02*
D03*
X518500Y176500D02*
D03*
X465000Y472500D02*
D03*
X477000Y517000D02*
D03*
X493500D02*
D03*
X483500Y507000D02*
D03*
X519000Y522500D02*
D03*
X522000Y533000D02*
D03*
X483500Y499500D02*
D03*
X573051Y532437D02*
D03*
X555551Y493937D02*
D03*
X583551Y505437D02*
D03*
X530794Y496260D02*
D03*
X545621Y502000D02*
D03*
X538000Y453126D02*
D03*
X454500Y278000D02*
D03*
X503878Y249850D02*
D03*
X426000Y215000D02*
D03*
X344664Y237364D02*
D03*
X329500Y250000D02*
D03*
X202000Y294500D02*
D03*
X247000Y158000D02*
D03*
X290500Y159000D02*
D03*
X301500Y184000D02*
D03*
X294500D02*
D03*
X402500Y310500D02*
D03*
X396937D02*
D03*
X565000Y124331D02*
D03*
X538500Y129000D02*
D03*
X447815Y255575D02*
D03*
X479500Y248939D02*
D03*
X364028Y282500D02*
D03*
X387874D02*
D03*
X412374D02*
D03*
X453000Y290302D02*
D03*
X282767Y291000D02*
D03*
X331136Y289739D02*
D03*
X234600Y290000D02*
D03*
X257367Y290500D02*
D03*
X505488Y289965D02*
D03*
X480320Y289551D02*
D03*
X436874Y282000D02*
D03*
X308000Y291000D02*
D03*
X600000Y320000D02*
D03*
X593425D02*
D03*
X599760Y326000D02*
D03*
X593500D02*
D03*
X506563Y328500D02*
D03*
X514716Y328109D02*
D03*
X499168Y328105D02*
D03*
X506500Y381000D02*
D03*
X541500Y379000D02*
D03*
X553539Y433000D02*
D03*
X558500D02*
D03*
X553520Y427020D02*
D03*
X520000Y367500D02*
D03*
X491000Y421488D02*
D03*
X507614Y443057D02*
D03*
X491000Y455780D02*
D03*
X480776Y393224D02*
D03*
X463000Y356500D02*
D03*
X615500Y308437D02*
D03*
X609500Y311500D02*
D03*
X634000Y298500D02*
D03*
X617000D02*
D03*
X599000Y299500D02*
D03*
X582000Y299000D02*
D03*
X563158Y298500D02*
D03*
X545621Y297500D02*
D03*
X528000D02*
D03*
X498087Y391000D02*
D03*
X523500Y416169D02*
D03*
X532055Y406488D02*
D03*
X532224Y414988D02*
D03*
X524000Y422780D02*
D03*
X542500Y442126D02*
D03*
X533626Y442038D02*
D03*
X568500Y330500D02*
D03*
X532268Y335843D02*
D03*
X630094Y326000D02*
D03*
X550522Y346500D02*
D03*
X561668Y372213D02*
D03*
X578500Y376203D02*
D03*
X591500Y389500D02*
D03*
X558500Y427020D02*
D03*
Y438713D02*
D03*
X553539Y438500D02*
D03*
X640500Y441000D02*
D03*
X646634Y447063D02*
D03*
X640634Y447000D02*
D03*
X592000Y514500D02*
D03*
X630000Y498900D02*
D03*
X384000Y558000D02*
D03*
X527528Y548000D02*
D03*
X685500Y564500D02*
D03*
X461500Y565000D02*
D03*
X225953Y811000D02*
D03*
D106*
X298400Y645200D02*
D03*
X308400D02*
D03*
X298400Y655200D02*
D03*
X308400D02*
D03*
X298400Y665200D02*
D03*
X308400D02*
D03*
X298400Y675200D02*
D03*
X308400D02*
D03*
X298400Y685200D02*
D03*
X308400D02*
D03*
X298400Y695200D02*
D03*
X308400D02*
D03*
X298400Y705200D02*
D03*
X308400D02*
D03*
X298400Y715200D02*
D03*
X308400D02*
D03*
X298400Y725200D02*
D03*
X308400D02*
D03*
X298400Y735200D02*
D03*
X308400D02*
D03*
X298400Y745200D02*
D03*
X308400D02*
D03*
X298400Y755200D02*
D03*
X308400D02*
D03*
X298400Y765200D02*
D03*
X308400D02*
D03*
X298400Y775200D02*
D03*
X308400D02*
D03*
X298400Y785200D02*
D03*
X308400D02*
D03*
X298400Y795200D02*
D03*
X308400D02*
D03*
X298400Y805200D02*
D03*
X308400D02*
D03*
X298400Y815200D02*
D03*
X308400D02*
D03*
X298400Y825200D02*
D03*
X308400D02*
D03*
X298400Y835200D02*
D03*
X308400D02*
D03*
X298400Y845200D02*
D03*
X308400D02*
D03*
X298400Y855200D02*
D03*
X308400D02*
D03*
X298400Y865200D02*
D03*
X488400D02*
D03*
X498400Y855200D02*
D03*
X488400D02*
D03*
X498400Y845200D02*
D03*
X488400D02*
D03*
X498400Y835200D02*
D03*
X488400D02*
D03*
X498400Y825200D02*
D03*
X488400D02*
D03*
X498400Y815200D02*
D03*
X488400D02*
D03*
X498400Y805200D02*
D03*
X488400D02*
D03*
X498400Y795200D02*
D03*
X488400D02*
D03*
X498400Y785200D02*
D03*
X488400D02*
D03*
X498400Y775200D02*
D03*
X488400D02*
D03*
X498400Y765200D02*
D03*
X488400D02*
D03*
X498400Y755200D02*
D03*
X488400D02*
D03*
X498400Y745200D02*
D03*
X488400D02*
D03*
X498400Y735200D02*
D03*
X488400D02*
D03*
X498400Y725200D02*
D03*
X488400D02*
D03*
X498400Y715200D02*
D03*
X488400D02*
D03*
X498400Y705200D02*
D03*
X488400D02*
D03*
X498400Y695200D02*
D03*
X488400D02*
D03*
X498400Y685200D02*
D03*
X488400D02*
D03*
X498400Y675200D02*
D03*
X488400D02*
D03*
X498400Y665200D02*
D03*
X488400D02*
D03*
X498400Y655200D02*
D03*
X488400D02*
D03*
X498400Y645200D02*
D03*
X488400D02*
D03*
D107*
X308400Y865200D02*
D03*
X498400D02*
D03*
D108*
X180000Y220000D02*
D03*
X190000D02*
D03*
X258000Y366321D02*
D03*
X248000D02*
D03*
X174600Y366989D02*
D03*
X164600D02*
D03*
X635500Y596500D02*
D03*
Y606500D02*
D03*
X490000Y533000D02*
D03*
Y543000D02*
D03*
X502500Y533051D02*
D03*
Y543051D02*
D03*
X179439Y288500D02*
D03*
X189439D02*
D03*
X189500Y300000D02*
D03*
X179500D02*
D03*
X169000Y240500D02*
D03*
Y230500D02*
D03*
X201000Y239500D02*
D03*
Y229500D02*
D03*
X364000Y470000D02*
D03*
Y480000D02*
D03*
X337676Y469689D02*
D03*
Y479689D02*
D03*
X310630Y469352D02*
D03*
Y479352D02*
D03*
X325500Y308000D02*
D03*
X335500D02*
D03*
X635000Y254000D02*
D03*
Y264000D02*
D03*
X618445D02*
D03*
Y254000D02*
D03*
X601000Y254500D02*
D03*
Y264500D02*
D03*
X583551Y254500D02*
D03*
Y264500D02*
D03*
X565370Y254500D02*
D03*
Y264500D02*
D03*
X547500Y254500D02*
D03*
Y264500D02*
D03*
X529500Y254500D02*
D03*
Y264500D02*
D03*
X655000Y482760D02*
D03*
Y492760D02*
D03*
D109*
X566844Y595413D02*
D03*
Y704075D02*
D03*
X519600Y689114D02*
D03*
Y602500D02*
D03*
D110*
X519500Y918500D02*
D03*
X558500D02*
D03*
X519500Y905000D02*
D03*
X558500D02*
D03*
X601728Y635500D02*
D03*
Y596500D02*
D03*
X588228D02*
D03*
Y635500D02*
D03*
X601500Y699000D02*
D03*
Y660000D02*
D03*
X588000D02*
D03*
Y699000D02*
D03*
X624000Y905000D02*
D03*
X585000D02*
D03*
Y918500D02*
D03*
X624000D02*
D03*
Y935000D02*
D03*
X585000D02*
D03*
Y948500D02*
D03*
X624000D02*
D03*
X558500Y935000D02*
D03*
X519500D02*
D03*
Y948500D02*
D03*
X558500D02*
D03*
X239500Y948000D02*
D03*
X278500D02*
D03*
Y934500D02*
D03*
X239500D02*
D03*
X239437Y916000D02*
D03*
X278437D02*
D03*
Y902500D02*
D03*
X239437D02*
D03*
X175437Y916000D02*
D03*
X214437D02*
D03*
Y902500D02*
D03*
X175437D02*
D03*
X175500Y948000D02*
D03*
X214500D02*
D03*
Y934500D02*
D03*
X175500D02*
D03*
D111*
X389000Y528000D02*
D03*
Y512000D02*
D03*
X249500Y692000D02*
D03*
X265500D02*
D03*
X260500Y561728D02*
D03*
X244500D02*
D03*
X257000Y514116D02*
D03*
Y530117D02*
D03*
X198445Y740862D02*
D03*
Y727870D02*
D03*
X198541Y828862D02*
D03*
Y815870D02*
D03*
X523169Y831000D02*
D03*
Y818008D02*
D03*
X523000Y742000D02*
D03*
Y729008D02*
D03*
D112*
X162820Y740799D02*
D03*
X175339Y770299D02*
D03*
Y740799D02*
D03*
X162820Y770299D02*
D03*
X636020Y679500D02*
D03*
X623500Y650000D02*
D03*
Y679500D02*
D03*
X636020Y650000D02*
D03*
X636000Y770500D02*
D03*
X623480Y741000D02*
D03*
Y770500D02*
D03*
X636000Y741000D02*
D03*
X635803Y860000D02*
D03*
X623283Y830500D02*
D03*
Y860000D02*
D03*
X635803Y830500D02*
D03*
X162803Y830299D02*
D03*
X175323Y859799D02*
D03*
Y830299D02*
D03*
X162803Y859799D02*
D03*
D113*
X111127Y722098D02*
D03*
Y789000D02*
D03*
X687713Y698201D02*
D03*
Y631299D02*
D03*
X687693Y789201D02*
D03*
Y722299D02*
D03*
X687496Y878701D02*
D03*
Y811799D02*
D03*
X111110Y811598D02*
D03*
Y878500D02*
D03*
D114*
X307149Y108300D02*
D03*
X319049D02*
D03*
X354449D02*
D03*
X342649D02*
D03*
X366249D02*
D03*
X330849D02*
D03*
Y96500D02*
D03*
X366249D02*
D03*
X342649D02*
D03*
X354449D02*
D03*
X319049D02*
D03*
X378249D02*
D03*
X378049Y108300D02*
D03*
X389849D02*
D03*
Y96500D02*
D03*
X307149D02*
D03*
X401649D02*
D03*
X413449D02*
D03*
Y108300D02*
D03*
X401649D02*
D03*
X511752D02*
D03*
Y96500D02*
D03*
X622500D02*
D03*
Y108300D02*
D03*
X662000Y324700D02*
D03*
Y336500D02*
D03*
X650200D02*
D03*
Y324700D02*
D03*
X187100Y683700D02*
D03*
X175300D02*
D03*
Y695500D02*
D03*
X187100D02*
D03*
X198900D02*
D03*
Y683700D02*
D03*
X210700D02*
D03*
X210500Y695500D02*
D03*
X222500Y680000D02*
D03*
X163500D02*
D03*
X139500Y556500D02*
D03*
X151300D02*
D03*
X150300Y151000D02*
D03*
X138500D02*
D03*
Y139000D02*
D03*
X150300Y139200D02*
D03*
Y127400D02*
D03*
X138500D02*
D03*
Y115600D02*
D03*
Y103300D02*
D03*
X150300D02*
D03*
Y115600D02*
D03*
X149749Y193900D02*
D03*
Y182100D02*
D03*
X137949D02*
D03*
Y193900D02*
D03*
Y217500D02*
D03*
Y205700D02*
D03*
X149749D02*
D03*
Y217500D02*
D03*
X149363Y260900D02*
D03*
Y249100D02*
D03*
X137563D02*
D03*
Y260900D02*
D03*
X149000Y303900D02*
D03*
Y292100D02*
D03*
X137200D02*
D03*
Y303900D02*
D03*
Y327500D02*
D03*
Y315700D02*
D03*
X149000D02*
D03*
Y327500D02*
D03*
X150300Y371000D02*
D03*
Y359200D02*
D03*
X138500D02*
D03*
Y371000D02*
D03*
X150300Y414312D02*
D03*
Y402512D02*
D03*
X138500D02*
D03*
Y414312D02*
D03*
X150300Y457024D02*
D03*
Y445224D02*
D03*
X138500D02*
D03*
Y457024D02*
D03*
Y480624D02*
D03*
Y468824D02*
D03*
X150300D02*
D03*
Y480624D02*
D03*
X150800Y523900D02*
D03*
Y512100D02*
D03*
X139000D02*
D03*
Y523900D02*
D03*
X175323Y97200D02*
D03*
Y109000D02*
D03*
X231200Y108500D02*
D03*
X243000D02*
D03*
Y96700D02*
D03*
X231200D02*
D03*
X207600D02*
D03*
X219400D02*
D03*
Y108500D02*
D03*
X207600D02*
D03*
X274500Y108800D02*
D03*
Y97000D02*
D03*
X468100Y107800D02*
D03*
X479900D02*
D03*
Y96000D02*
D03*
X468100D02*
D03*
X444500D02*
D03*
X456300D02*
D03*
Y107800D02*
D03*
X444500D02*
D03*
X543500Y108300D02*
D03*
Y96500D02*
D03*
X555500D02*
D03*
X555300Y108300D02*
D03*
X567100D02*
D03*
Y96500D02*
D03*
X578900D02*
D03*
X591200D02*
D03*
Y108300D02*
D03*
X578900D02*
D03*
X650200Y248500D02*
D03*
X662000D02*
D03*
X649527Y102000D02*
D03*
X661327D02*
D03*
Y114000D02*
D03*
X649527Y113800D02*
D03*
Y125600D02*
D03*
X661327D02*
D03*
Y137400D02*
D03*
Y149700D02*
D03*
X649527D02*
D03*
Y137400D02*
D03*
X650027Y203600D02*
D03*
Y215400D02*
D03*
X661827D02*
D03*
Y203600D02*
D03*
Y180000D02*
D03*
Y191800D02*
D03*
X650027D02*
D03*
Y180000D02*
D03*
X650200Y281549D02*
D03*
Y293349D02*
D03*
X662000D02*
D03*
Y281549D02*
D03*
X650200Y600500D02*
D03*
X662000D02*
D03*
X119500Y908200D02*
D03*
Y920000D02*
D03*
D115*
X315649Y79500D02*
D03*
X405049D02*
D03*
X511752D02*
D03*
X622500D02*
D03*
X679000Y330600D02*
D03*
X122500Y556500D02*
D03*
X121000Y142000D02*
D03*
X121500Y111700D02*
D03*
X120949Y190500D02*
D03*
Y209000D02*
D03*
X120563Y255000D02*
D03*
X120200Y300500D02*
D03*
Y319000D02*
D03*
X121500Y365100D02*
D03*
Y408412D02*
D03*
Y453624D02*
D03*
Y472124D02*
D03*
X122000Y518000D02*
D03*
X175323Y80200D02*
D03*
X234600Y79700D02*
D03*
X216100D02*
D03*
X274500Y80000D02*
D03*
X471500Y79000D02*
D03*
X453000D02*
D03*
X552500D02*
D03*
X582800Y79500D02*
D03*
X679000Y248500D02*
D03*
X678827Y111000D02*
D03*
X678327Y141300D02*
D03*
X678827Y207000D02*
D03*
Y188500D02*
D03*
X679000Y287449D02*
D03*
Y600500D02*
D03*
X119500Y937000D02*
D03*
D116*
X115500Y73500D02*
D03*
X684500D02*
D03*
X679500Y941000D02*
D03*
X148500Y939500D02*
D03*
D117*
X601780Y129528D02*
D03*
X631307D02*
D03*
X601780Y149213D02*
D03*
X631307D02*
D03*
X601780Y168898D02*
D03*
X631307D02*
D03*
Y227953D02*
D03*
X601780D02*
D03*
X551279Y129528D02*
D03*
X580807D02*
D03*
X551279Y149213D02*
D03*
X580807D02*
D03*
X551279Y168898D02*
D03*
X580807D02*
D03*
Y227953D02*
D03*
X551279D02*
D03*
X499780Y129575D02*
D03*
X529307D02*
D03*
X499780Y149260D02*
D03*
X529307D02*
D03*
X499780Y168945D02*
D03*
X529307D02*
D03*
Y228000D02*
D03*
X499780D02*
D03*
X447780Y129528D02*
D03*
X477307D02*
D03*
X447780Y149213D02*
D03*
X477307D02*
D03*
X447780Y168898D02*
D03*
X477307D02*
D03*
Y227953D02*
D03*
X447780D02*
D03*
X396472Y129500D02*
D03*
X426000D02*
D03*
X396472Y149185D02*
D03*
X426000D02*
D03*
X396472Y168870D02*
D03*
X426000D02*
D03*
Y227925D02*
D03*
X396472D02*
D03*
X344972Y129575D02*
D03*
X374500D02*
D03*
X344972Y149260D02*
D03*
X374500D02*
D03*
X344972Y168945D02*
D03*
X374500D02*
D03*
Y228000D02*
D03*
X344972D02*
D03*
D118*
X238602Y740862D02*
D03*
X222067D02*
D03*
X238699Y828862D02*
D03*
X222163D02*
D03*
X563327Y831000D02*
D03*
X546791D02*
D03*
X563158Y742000D02*
D03*
X546622D02*
D03*
D119*
X261437Y732201D02*
D03*
X261533Y820201D02*
D03*
X586161Y822339D02*
D03*
X585992Y733339D02*
D03*
D120*
X250807Y788500D02*
D03*
X207500D02*
D03*
X250903Y876500D02*
D03*
X207596D02*
D03*
X575531Y878638D02*
D03*
X532224D02*
D03*
X575362Y789638D02*
D03*
X532055D02*
D03*
D121*
X469949Y812000D02*
D03*
X418386Y712000D02*
D03*
X406886D02*
D03*
X395386D02*
D03*
X421449Y757500D02*
D03*
X409949D02*
D03*
X398386D02*
D03*
X380449Y757000D02*
D03*
M02*
