G04*
G04 #@! TF.GenerationSoftware,Altium Limited,Altium Designer,18.1.11 (251)*
G04*
G04 Layer_Color=8421504*
%FSLAX25Y25*%
%MOIN*%
G70*
G01*
G75*
%ADD19C,0.03000*%
%ADD20R,0.05709X0.06890*%
%ADD21R,0.04134X0.05512*%
%ADD22R,0.03543X0.05315*%
%ADD23R,0.05512X0.04134*%
%ADD24C,0.07874*%
%ADD25R,0.14961X0.21654*%
%ADD26R,0.05315X0.03543*%
%ADD27R,0.07087X0.05709*%
%ADD28R,0.22047X0.12598*%
%ADD29R,0.03740X0.02362*%
%ADD30R,0.10630X0.06693*%
%ADD31R,0.02362X0.05709*%
%ADD32R,0.05709X0.07087*%
%ADD33R,0.03740X0.03543*%
%ADD34R,0.19685X0.19685*%
%ADD35R,0.06890X0.05709*%
%ADD36R,0.05906X0.01772*%
%ADD37R,0.03543X0.03740*%
%ADD38R,0.06102X0.02559*%
%ADD39R,0.09000X0.02400*%
%ADD40R,0.07008X0.01654*%
%ADD41R,0.08898X0.11024*%
%ADD42R,0.05709X0.02362*%
%ADD43R,0.11024X0.08898*%
%ADD44R,0.09449X0.12795*%
%ADD45R,0.16535X0.12598*%
%ADD46R,0.02559X0.03543*%
%ADD47R,0.03543X0.02559*%
%ADD48R,0.04724X0.11811*%
%ADD49R,0.24606X0.28347*%
%ADD50R,0.08268X0.09252*%
%ADD51O,0.08268X0.09252*%
%ADD52R,0.21260X0.23622*%
%ADD53R,0.04921X0.06299*%
%ADD54R,0.03150X0.04724*%
%ADD55O,0.07480X0.02362*%
%ADD56R,0.09449X0.06102*%
%ADD57R,0.07874X0.11811*%
%ADD58R,0.03937X0.01968*%
%ADD59R,0.08071X0.06299*%
%ADD60R,0.20079X0.13780*%
%ADD61R,0.19685X0.19685*%
%ADD62R,0.08032X0.04528*%
D19*
X348014Y359931D02*
D03*
X522000Y247500D02*
D03*
X588500Y525000D02*
D03*
X672500Y378437D02*
D03*
X180106Y479740D02*
D03*
X217488Y487500D02*
D03*
X615000Y590000D02*
D03*
X301495Y420000D02*
D03*
X403000Y290000D02*
D03*
X538228Y496500D02*
D03*
X514500Y369000D02*
D03*
X498996Y362303D02*
D03*
X519779Y332165D02*
D03*
X429000Y290402D02*
D03*
X378500Y291500D02*
D03*
X332024Y454032D02*
D03*
Y449031D02*
D03*
X333500Y442807D02*
D03*
X296000Y456591D02*
D03*
X185500Y454000D02*
D03*
X266291Y421500D02*
D03*
X230567Y419435D02*
D03*
X209683Y420000D02*
D03*
X260974Y409236D02*
D03*
X282000Y391000D02*
D03*
X222974Y409500D02*
D03*
X210000Y375500D02*
D03*
X245500Y385000D02*
D03*
X392000Y256500D02*
D03*
X368000Y260000D02*
D03*
X241000Y242378D02*
D03*
X436874Y241500D02*
D03*
X592500Y311000D02*
D03*
X640000Y346500D02*
D03*
X563500Y383500D02*
D03*
X587000Y424524D02*
D03*
X602925Y452000D02*
D03*
X692000Y474000D02*
D03*
X687693Y454500D02*
D03*
X641000Y489024D02*
D03*
X595000Y491000D02*
D03*
X646500Y473000D02*
D03*
X645500Y546000D02*
D03*
X366995Y296500D02*
D03*
X552260Y536500D02*
D03*
X526500Y441528D02*
D03*
X569307Y336989D02*
D03*
X505500Y949000D02*
D03*
X284000Y228800D02*
D03*
X416500Y260000D02*
D03*
X597000Y331500D02*
D03*
X558000Y422024D02*
D03*
X187000Y409000D02*
D03*
X223437Y457413D02*
D03*
X260500Y458500D02*
D03*
X665000Y582000D02*
D03*
X314579Y949000D02*
D03*
X626000Y596000D02*
D03*
D20*
X455512Y797000D02*
D03*
X444488D02*
D03*
X455362Y789000D02*
D03*
X444339D02*
D03*
X605488Y526500D02*
D03*
X616512D02*
D03*
X185488Y151500D02*
D03*
X196512D02*
D03*
X637012Y340000D02*
D03*
X625988D02*
D03*
X444315Y777000D02*
D03*
X455339D02*
D03*
Y767000D02*
D03*
X444315D02*
D03*
X565500Y420500D02*
D03*
X576524D02*
D03*
X659339Y574000D02*
D03*
X648315D02*
D03*
D21*
X295684Y425799D02*
D03*
X288204D02*
D03*
X307740Y323000D02*
D03*
X300260D02*
D03*
X185760Y324500D02*
D03*
X193240D02*
D03*
X268260Y322500D02*
D03*
X275740D02*
D03*
X514240Y363000D02*
D03*
X506760D02*
D03*
X331760Y333000D02*
D03*
X339240D02*
D03*
X364764Y458532D02*
D03*
X357283D02*
D03*
X260429Y426972D02*
D03*
X252949D02*
D03*
X224969Y425751D02*
D03*
X217488D02*
D03*
X223836Y323450D02*
D03*
X216356D02*
D03*
X323240Y357273D02*
D03*
X315760D02*
D03*
X188740Y278500D02*
D03*
X181260D02*
D03*
X214740Y291895D02*
D03*
X207260D02*
D03*
X214916Y276713D02*
D03*
X207436D02*
D03*
X214740Y250224D02*
D03*
X207260D02*
D03*
X164260Y220000D02*
D03*
X171740D02*
D03*
X628440Y309500D02*
D03*
X620960D02*
D03*
X552260Y501500D02*
D03*
X559740D02*
D03*
X570539Y369335D02*
D03*
X578020D02*
D03*
X553539Y365439D02*
D03*
X561020D02*
D03*
X548020Y336765D02*
D03*
X540539D02*
D03*
X562760Y389500D02*
D03*
X570240D02*
D03*
X599760Y497000D02*
D03*
X607240D02*
D03*
X530747Y504331D02*
D03*
X538228D02*
D03*
X200240Y510000D02*
D03*
X192760D02*
D03*
X345323Y332760D02*
D03*
X352803D02*
D03*
D22*
X342437Y390390D02*
D03*
X334563D02*
D03*
X342437Y397327D02*
D03*
X334563D02*
D03*
X342437Y404827D02*
D03*
X334563D02*
D03*
X362000Y397118D02*
D03*
X354126D02*
D03*
X361937Y390000D02*
D03*
X354063D02*
D03*
X156937Y914500D02*
D03*
X149063D02*
D03*
X613063Y358269D02*
D03*
X620937D02*
D03*
X656063Y355738D02*
D03*
X663937D02*
D03*
X266252Y449921D02*
D03*
X274126D02*
D03*
X230663Y450063D02*
D03*
X238537D02*
D03*
X230567Y457432D02*
D03*
X238441D02*
D03*
X473770Y508996D02*
D03*
X465896D02*
D03*
X473770Y501559D02*
D03*
X465896D02*
D03*
X473924Y492563D02*
D03*
X466050D02*
D03*
X473924Y484531D02*
D03*
X466050D02*
D03*
X467231Y454642D02*
D03*
X475105D02*
D03*
X467063Y446500D02*
D03*
X474937D02*
D03*
X467063Y462500D02*
D03*
X474937D02*
D03*
X467085Y437724D02*
D03*
X474959D02*
D03*
X534063Y384710D02*
D03*
X541937D02*
D03*
X533858Y392368D02*
D03*
X541732D02*
D03*
X528327Y399891D02*
D03*
X520453D02*
D03*
X528437Y384710D02*
D03*
X520563D02*
D03*
X528327Y392391D02*
D03*
X520453D02*
D03*
X511752Y398224D02*
D03*
X503878D02*
D03*
Y390724D02*
D03*
X511752D02*
D03*
X480369Y384273D02*
D03*
X488243D02*
D03*
X480320Y376588D02*
D03*
X488194D02*
D03*
X480063Y369000D02*
D03*
X487937D02*
D03*
X480063Y361626D02*
D03*
X487937D02*
D03*
X506980Y341067D02*
D03*
X514854D02*
D03*
Y334067D02*
D03*
X506980D02*
D03*
X491626Y341478D02*
D03*
X499500D02*
D03*
X499634Y333906D02*
D03*
X491760D02*
D03*
X353543Y296465D02*
D03*
X361417D02*
D03*
X353563Y303000D02*
D03*
X361437D02*
D03*
X314329Y407617D02*
D03*
X322203D02*
D03*
X314258Y400063D02*
D03*
X322132D02*
D03*
X314258Y392563D02*
D03*
X322132D02*
D03*
X308266Y407617D02*
D03*
X300392D02*
D03*
X308288Y400167D02*
D03*
X300414D02*
D03*
X308288Y392494D02*
D03*
X300414D02*
D03*
X301684Y456299D02*
D03*
X309558D02*
D03*
X301684Y448299D02*
D03*
X309558D02*
D03*
Y440799D02*
D03*
X301684D02*
D03*
X301621Y433299D02*
D03*
X309495D02*
D03*
X309369Y425799D02*
D03*
X301495D02*
D03*
X266252Y457421D02*
D03*
X274126D02*
D03*
Y442421D02*
D03*
X266252D02*
D03*
X266291Y434921D02*
D03*
X274165D02*
D03*
Y427421D02*
D03*
X266291D02*
D03*
X238681Y441881D02*
D03*
X230807D02*
D03*
X230744Y433881D02*
D03*
X238618D02*
D03*
X238441Y425759D02*
D03*
X230567D02*
D03*
X192075Y451557D02*
D03*
X199949D02*
D03*
X192063Y444058D02*
D03*
X199937D02*
D03*
X268063Y399305D02*
D03*
X275937D02*
D03*
X268063Y407305D02*
D03*
X275937D02*
D03*
X230063Y406568D02*
D03*
X237937D02*
D03*
X230063Y399068D02*
D03*
X237937D02*
D03*
X194004Y406389D02*
D03*
X201878D02*
D03*
X193831Y398389D02*
D03*
X201705D02*
D03*
X215437Y308000D02*
D03*
X207563D02*
D03*
X207063Y299894D02*
D03*
X214937D02*
D03*
X207176Y284213D02*
D03*
X215050D02*
D03*
X214937Y269930D02*
D03*
X207063D02*
D03*
X215000Y263430D02*
D03*
X207126D02*
D03*
X207063Y257000D02*
D03*
X214937D02*
D03*
X641882Y309500D02*
D03*
X634008D02*
D03*
X477152Y530117D02*
D03*
X469278D02*
D03*
X477215Y537857D02*
D03*
X469341D02*
D03*
X477284Y545551D02*
D03*
X469410D02*
D03*
X477284Y553051D02*
D03*
X469410D02*
D03*
X120563Y897000D02*
D03*
X128437D02*
D03*
X106563Y896500D02*
D03*
X114437D02*
D03*
X258437Y297563D02*
D03*
X250563D02*
D03*
X533921Y399868D02*
D03*
X541795D02*
D03*
X428063Y296740D02*
D03*
X435937D02*
D03*
X403752Y296909D02*
D03*
X411626D02*
D03*
X380063Y297425D02*
D03*
X387937D02*
D03*
X389063Y241878D02*
D03*
X396937D02*
D03*
X379874Y242000D02*
D03*
X372000D02*
D03*
X360437Y241500D02*
D03*
X352563D02*
D03*
X432437D02*
D03*
X424563D02*
D03*
X505648Y298000D02*
D03*
X497774D02*
D03*
X331073Y297762D02*
D03*
X323199D02*
D03*
X234374Y297787D02*
D03*
X226500D02*
D03*
X283300Y297500D02*
D03*
X275426D02*
D03*
X307937Y298000D02*
D03*
X300063D02*
D03*
X480776Y296740D02*
D03*
X472902D02*
D03*
X452965Y297362D02*
D03*
X445090D02*
D03*
X570563Y344500D02*
D03*
X578437D02*
D03*
X570563Y353923D02*
D03*
X578437D02*
D03*
X578217Y361835D02*
D03*
X570342D02*
D03*
X676937Y355738D02*
D03*
X669063D02*
D03*
X539843Y365439D02*
D03*
X547717D02*
D03*
X632377Y449587D02*
D03*
X624503D02*
D03*
X576870Y389500D02*
D03*
X584744D02*
D03*
X606063Y441811D02*
D03*
X613937D02*
D03*
X607279Y449347D02*
D03*
X615154D02*
D03*
X613063Y497000D02*
D03*
X620937D02*
D03*
X530794Y520850D02*
D03*
X538668D02*
D03*
X552330Y530559D02*
D03*
X544456D02*
D03*
X538424Y511862D02*
D03*
X530550D02*
D03*
X557550Y530413D02*
D03*
X565424D02*
D03*
X538668Y528350D02*
D03*
X530794D02*
D03*
D23*
X352414Y383683D02*
D03*
Y376203D02*
D03*
X359914Y383683D02*
D03*
Y376203D02*
D03*
X360040Y370287D02*
D03*
Y362807D02*
D03*
X352395Y370287D02*
D03*
Y362807D02*
D03*
X603500Y374740D02*
D03*
Y367260D02*
D03*
X610500Y374740D02*
D03*
Y367260D02*
D03*
X608437Y393657D02*
D03*
Y401137D02*
D03*
X616000Y393657D02*
D03*
Y401137D02*
D03*
X627000Y385240D02*
D03*
Y377760D02*
D03*
X413000Y503740D02*
D03*
Y496260D02*
D03*
X409236Y490240D02*
D03*
Y482760D02*
D03*
X470000Y523240D02*
D03*
Y515760D02*
D03*
X468231Y423260D02*
D03*
Y430740D02*
D03*
X491000Y435950D02*
D03*
Y428470D02*
D03*
X508000Y426950D02*
D03*
Y419470D02*
D03*
X500437Y426950D02*
D03*
Y419470D02*
D03*
X507988Y412464D02*
D03*
Y404984D02*
D03*
X500500Y412464D02*
D03*
Y404984D02*
D03*
X491563Y355646D02*
D03*
Y348165D02*
D03*
X480500Y347109D02*
D03*
Y354590D02*
D03*
X333524Y437272D02*
D03*
Y429791D02*
D03*
X200080Y437397D02*
D03*
Y429917D02*
D03*
X276000Y392545D02*
D03*
Y385065D02*
D03*
X238500Y391809D02*
D03*
Y384328D02*
D03*
X201941Y391491D02*
D03*
Y384011D02*
D03*
X316584Y350554D02*
D03*
Y343074D02*
D03*
Y337554D02*
D03*
Y330074D02*
D03*
X233000Y339740D02*
D03*
Y332260D02*
D03*
Y353240D02*
D03*
Y345760D02*
D03*
Y366240D02*
D03*
Y358760D02*
D03*
X170500Y263240D02*
D03*
Y255760D02*
D03*
X609500Y478284D02*
D03*
Y485765D02*
D03*
X491000Y441970D02*
D03*
Y449450D02*
D03*
X233000Y304760D02*
D03*
Y312240D02*
D03*
X611500Y324240D02*
D03*
Y316760D02*
D03*
X664000Y369653D02*
D03*
Y362173D02*
D03*
X656500Y362172D02*
D03*
Y369653D02*
D03*
X591618Y402240D02*
D03*
Y394760D02*
D03*
X641465Y432265D02*
D03*
Y424784D02*
D03*
X630094Y505260D02*
D03*
Y512740D02*
D03*
X189000Y520760D02*
D03*
Y528240D02*
D03*
X209683Y480791D02*
D03*
Y488272D02*
D03*
D24*
X658000Y936000D02*
D03*
X133000Y66500D02*
D03*
X668500Y66000D02*
D03*
D25*
X173299Y585500D02*
D03*
X210701D02*
D03*
D26*
X209683Y501937D02*
D03*
Y494063D02*
D03*
X185760Y164933D02*
D03*
Y172807D02*
D03*
X193500Y164933D02*
D03*
Y172807D02*
D03*
X169000Y164961D02*
D03*
Y172835D02*
D03*
X177000Y164933D02*
D03*
Y172807D02*
D03*
X642500Y83437D02*
D03*
Y75563D02*
D03*
X671500Y361976D02*
D03*
Y369850D02*
D03*
X181000Y520563D02*
D03*
Y528437D02*
D03*
X198760Y520563D02*
D03*
Y528437D02*
D03*
X207000Y541937D02*
D03*
Y534063D02*
D03*
X532224Y341720D02*
D03*
Y349594D02*
D03*
X396000Y470063D02*
D03*
Y477937D02*
D03*
X402476D02*
D03*
Y470063D02*
D03*
X321769Y470827D02*
D03*
Y462953D02*
D03*
X469527Y418039D02*
D03*
Y410165D02*
D03*
X514063Y347969D02*
D03*
Y355842D02*
D03*
X499063Y347969D02*
D03*
Y355842D02*
D03*
X347000Y295563D02*
D03*
Y303437D02*
D03*
X409069Y376411D02*
D03*
Y368537D02*
D03*
X401569Y376411D02*
D03*
Y368537D02*
D03*
X390569Y378411D02*
D03*
Y370537D02*
D03*
X381449Y378437D02*
D03*
Y370563D02*
D03*
X409236Y389937D02*
D03*
Y382063D02*
D03*
X401500Y389937D02*
D03*
Y382063D02*
D03*
X390569Y391780D02*
D03*
Y383906D02*
D03*
X381500Y391937D02*
D03*
Y384063D02*
D03*
X409000Y413551D02*
D03*
Y421425D02*
D03*
X401600Y413563D02*
D03*
Y421437D02*
D03*
X394000Y413551D02*
D03*
Y421425D02*
D03*
X386500Y413551D02*
D03*
Y421425D02*
D03*
X408000Y445437D02*
D03*
Y437563D02*
D03*
X401500Y445437D02*
D03*
Y437563D02*
D03*
X392705Y445870D02*
D03*
Y437996D02*
D03*
X385313Y445732D02*
D03*
Y437858D02*
D03*
X409000Y458937D02*
D03*
Y451063D02*
D03*
X401500Y458937D02*
D03*
Y451063D02*
D03*
X392705Y459512D02*
D03*
Y451638D02*
D03*
X385500Y459500D02*
D03*
Y451626D02*
D03*
X192580Y429720D02*
D03*
Y437594D02*
D03*
X268626Y384868D02*
D03*
Y392742D02*
D03*
X231000Y384132D02*
D03*
Y392005D02*
D03*
X193941Y383889D02*
D03*
Y391763D02*
D03*
X225579Y304563D02*
D03*
Y312437D02*
D03*
X651000Y83437D02*
D03*
Y75563D02*
D03*
X543000Y436425D02*
D03*
Y428551D02*
D03*
X535772Y428773D02*
D03*
Y436647D02*
D03*
X528047Y428773D02*
D03*
Y436647D02*
D03*
X240500Y312437D02*
D03*
Y304563D02*
D03*
X575251Y513350D02*
D03*
Y505476D02*
D03*
X575487Y526937D02*
D03*
Y519063D02*
D03*
X374000Y461063D02*
D03*
Y468937D02*
D03*
X464827Y775063D02*
D03*
Y782937D02*
D03*
X473327Y775063D02*
D03*
Y782937D02*
D03*
Y795563D02*
D03*
Y803437D02*
D03*
X465354Y795563D02*
D03*
Y803437D02*
D03*
X421564Y295941D02*
D03*
Y303815D02*
D03*
X396937Y296063D02*
D03*
Y303937D02*
D03*
X373303Y296425D02*
D03*
Y304299D02*
D03*
X630500Y285563D02*
D03*
Y293437D02*
D03*
X613000Y285563D02*
D03*
Y293437D02*
D03*
X595500Y286063D02*
D03*
Y293937D02*
D03*
X630500Y279937D02*
D03*
Y272063D02*
D03*
X613000Y279937D02*
D03*
Y272063D02*
D03*
X595500Y280437D02*
D03*
Y272563D02*
D03*
X578000Y280437D02*
D03*
Y272563D02*
D03*
X578500Y286063D02*
D03*
Y293937D02*
D03*
X559870Y286063D02*
D03*
Y293937D02*
D03*
Y280437D02*
D03*
Y272563D02*
D03*
X542028Y286063D02*
D03*
Y293937D02*
D03*
X542000Y280500D02*
D03*
Y272626D02*
D03*
X524000Y280437D02*
D03*
Y272563D02*
D03*
Y286063D02*
D03*
Y293937D02*
D03*
X637945Y272063D02*
D03*
Y279937D02*
D03*
X620500Y272063D02*
D03*
Y279937D02*
D03*
X603000Y272563D02*
D03*
Y280437D02*
D03*
X585500Y272563D02*
D03*
Y280437D02*
D03*
X567335Y272563D02*
D03*
Y280437D02*
D03*
X549500Y272563D02*
D03*
Y280437D02*
D03*
X531476Y272563D02*
D03*
Y280437D02*
D03*
X562760Y330130D02*
D03*
Y338004D02*
D03*
X555500D02*
D03*
Y330130D02*
D03*
X524780Y362360D02*
D03*
Y354486D02*
D03*
Y349360D02*
D03*
Y341486D02*
D03*
X532279Y354486D02*
D03*
Y362360D02*
D03*
X347774Y461756D02*
D03*
Y469630D02*
D03*
X678827Y560937D02*
D03*
Y553063D02*
D03*
X670327Y575437D02*
D03*
Y567563D02*
D03*
X543500Y561937D02*
D03*
Y554063D02*
D03*
X514063Y562063D02*
D03*
Y569937D02*
D03*
X551893Y553854D02*
D03*
Y561728D02*
D03*
X560479Y553854D02*
D03*
Y561728D02*
D03*
X678827Y575437D02*
D03*
Y567563D02*
D03*
X584827Y579437D02*
D03*
Y571563D02*
D03*
X375500Y562563D02*
D03*
Y570437D02*
D03*
X402500Y563063D02*
D03*
Y570937D02*
D03*
X341500Y564063D02*
D03*
Y571937D02*
D03*
X312500Y564563D02*
D03*
Y572437D02*
D03*
D27*
X624000Y404409D02*
D03*
Y393385D02*
D03*
X632500Y404409D02*
D03*
Y393385D02*
D03*
X641500Y404632D02*
D03*
Y393609D02*
D03*
X569500Y582012D02*
D03*
Y570988D02*
D03*
X658000Y456013D02*
D03*
Y467036D02*
D03*
X648717Y456115D02*
D03*
Y467139D02*
D03*
X639217Y456115D02*
D03*
Y467139D02*
D03*
X618063Y376781D02*
D03*
Y365757D02*
D03*
X632681Y421013D02*
D03*
Y432036D02*
D03*
X621839Y420513D02*
D03*
Y431536D02*
D03*
X612339Y420513D02*
D03*
Y431536D02*
D03*
X602925Y420513D02*
D03*
Y431536D02*
D03*
X593425Y420513D02*
D03*
Y431536D02*
D03*
D28*
X672000Y393043D02*
D03*
Y438713D02*
D03*
D29*
X188057Y542213D02*
D03*
Y538472D02*
D03*
Y534732D02*
D03*
X198884Y542213D02*
D03*
Y538472D02*
D03*
Y534732D02*
D03*
D30*
X182874Y551500D02*
D03*
X167126D02*
D03*
X620126Y481524D02*
D03*
X635874D02*
D03*
X639126Y382769D02*
D03*
X654874D02*
D03*
D31*
X187606Y480512D02*
D03*
X192606D02*
D03*
X197606D02*
D03*
X202606D02*
D03*
X187606Y501968D02*
D03*
X192606D02*
D03*
X197606D02*
D03*
X202606D02*
D03*
X177500Y248575D02*
D03*
X182500D02*
D03*
X187500D02*
D03*
X192500D02*
D03*
X177500Y270425D02*
D03*
X182500D02*
D03*
X187500D02*
D03*
X192500D02*
D03*
D32*
X164488Y539500D02*
D03*
X175512D02*
D03*
X204957Y552000D02*
D03*
X193933D02*
D03*
D33*
X374329Y481699D02*
D03*
Y475597D02*
D03*
X321769Y475768D02*
D03*
Y481870D02*
D03*
X549500Y286949D02*
D03*
Y293051D02*
D03*
X567413Y287449D02*
D03*
Y293551D02*
D03*
X586000Y286949D02*
D03*
Y293051D02*
D03*
X603000Y286949D02*
D03*
Y293051D02*
D03*
X620500Y286449D02*
D03*
Y292551D02*
D03*
X637945Y286449D02*
D03*
Y292551D02*
D03*
X532055Y286449D02*
D03*
Y292551D02*
D03*
X670327Y561051D02*
D03*
Y554949D02*
D03*
X348274Y481240D02*
D03*
Y475138D02*
D03*
X139000Y917051D02*
D03*
Y910949D02*
D03*
D34*
X504500Y503929D02*
D03*
Y470071D02*
D03*
X225953Y125571D02*
D03*
Y159429D02*
D03*
X268500Y126071D02*
D03*
Y159929D02*
D03*
X311500Y126571D02*
D03*
Y160429D02*
D03*
X269500Y222429D02*
D03*
Y188571D02*
D03*
X226224Y222929D02*
D03*
Y189071D02*
D03*
D35*
X469341Y402613D02*
D03*
Y391590D02*
D03*
X180500Y240849D02*
D03*
Y229825D02*
D03*
X190500Y240849D02*
D03*
Y229825D02*
D03*
X328500Y183012D02*
D03*
Y171988D02*
D03*
X180106Y486228D02*
D03*
Y497252D02*
D03*
D36*
X539311Y405824D02*
D03*
Y408384D02*
D03*
Y410943D02*
D03*
Y413502D02*
D03*
Y416061D02*
D03*
Y418620D02*
D03*
Y421179D02*
D03*
Y423738D02*
D03*
X515689Y405824D02*
D03*
Y408384D02*
D03*
Y410943D02*
D03*
Y413502D02*
D03*
Y416061D02*
D03*
Y418620D02*
D03*
Y421179D02*
D03*
Y423738D02*
D03*
X321229Y382575D02*
D03*
Y380016D02*
D03*
Y377457D02*
D03*
Y374898D02*
D03*
Y372339D02*
D03*
Y369779D02*
D03*
Y367220D02*
D03*
Y364661D02*
D03*
X344851Y382575D02*
D03*
Y380016D02*
D03*
Y377457D02*
D03*
Y374898D02*
D03*
Y372339D02*
D03*
Y369779D02*
D03*
Y367220D02*
D03*
Y364661D02*
D03*
D37*
X354449Y309500D02*
D03*
X360551D02*
D03*
X428449Y303378D02*
D03*
X434551D02*
D03*
X404902Y304173D02*
D03*
X411004D02*
D03*
X380449Y304362D02*
D03*
X386551D02*
D03*
D38*
X357544Y339943D02*
D03*
Y344943D02*
D03*
Y349943D02*
D03*
Y354943D02*
D03*
X336284Y339943D02*
D03*
Y344943D02*
D03*
Y349943D02*
D03*
Y354943D02*
D03*
X499000Y448935D02*
D03*
Y443935D02*
D03*
Y438935D02*
D03*
Y433935D02*
D03*
X520260Y448935D02*
D03*
Y443935D02*
D03*
Y438935D02*
D03*
Y433935D02*
D03*
X566881Y508653D02*
D03*
Y513654D02*
D03*
Y518653D02*
D03*
Y523654D02*
D03*
X545621Y508653D02*
D03*
Y513654D02*
D03*
Y518653D02*
D03*
Y523654D02*
D03*
X541150Y358923D02*
D03*
Y353923D02*
D03*
Y348923D02*
D03*
Y343923D02*
D03*
X562409Y358923D02*
D03*
Y353923D02*
D03*
Y348923D02*
D03*
Y343923D02*
D03*
X630346Y456576D02*
D03*
Y461576D02*
D03*
Y466576D02*
D03*
Y471576D02*
D03*
X609087Y456576D02*
D03*
Y461576D02*
D03*
Y466576D02*
D03*
Y471576D02*
D03*
D39*
X470333Y312261D02*
D03*
Y317261D02*
D03*
Y322261D02*
D03*
Y327261D02*
D03*
Y332261D02*
D03*
Y337261D02*
D03*
Y342261D02*
D03*
Y347261D02*
D03*
Y352261D02*
D03*
Y357261D02*
D03*
Y362261D02*
D03*
Y367261D02*
D03*
Y372261D02*
D03*
Y377261D02*
D03*
X434333D02*
D03*
Y372261D02*
D03*
Y367261D02*
D03*
Y362261D02*
D03*
Y357261D02*
D03*
Y352261D02*
D03*
Y347261D02*
D03*
Y342261D02*
D03*
Y337261D02*
D03*
Y332261D02*
D03*
Y327261D02*
D03*
Y322261D02*
D03*
Y317261D02*
D03*
Y312261D02*
D03*
X421313Y389878D02*
D03*
Y394878D02*
D03*
Y399878D02*
D03*
Y404878D02*
D03*
Y409878D02*
D03*
Y414878D02*
D03*
Y419878D02*
D03*
Y424878D02*
D03*
Y429878D02*
D03*
Y434878D02*
D03*
Y439878D02*
D03*
Y444878D02*
D03*
Y449878D02*
D03*
Y454878D02*
D03*
X457313D02*
D03*
Y449878D02*
D03*
Y444878D02*
D03*
Y439878D02*
D03*
Y434878D02*
D03*
Y429878D02*
D03*
Y424878D02*
D03*
Y419878D02*
D03*
Y414878D02*
D03*
Y409878D02*
D03*
Y404878D02*
D03*
Y399878D02*
D03*
Y394878D02*
D03*
Y389878D02*
D03*
D40*
X341831Y452047D02*
D03*
Y449488D02*
D03*
Y446929D02*
D03*
Y444370D02*
D03*
Y441811D02*
D03*
Y439252D02*
D03*
Y436693D02*
D03*
Y434134D02*
D03*
Y431575D02*
D03*
Y429016D02*
D03*
X365217Y452047D02*
D03*
Y449488D02*
D03*
Y446929D02*
D03*
Y444370D02*
D03*
Y441811D02*
D03*
Y439252D02*
D03*
Y436693D02*
D03*
Y434134D02*
D03*
Y431575D02*
D03*
Y429016D02*
D03*
D41*
X290121Y448398D02*
D03*
Y435799D02*
D03*
X254189Y449272D02*
D03*
Y436673D02*
D03*
X218500Y448799D02*
D03*
Y436201D02*
D03*
X179000Y445392D02*
D03*
Y432794D02*
D03*
X179941Y399694D02*
D03*
Y387096D02*
D03*
X218000Y400468D02*
D03*
Y387869D02*
D03*
X255815Y400903D02*
D03*
Y388305D02*
D03*
X538000Y474799D02*
D03*
Y462201D02*
D03*
D42*
X269000Y365600D02*
D03*
Y360600D02*
D03*
Y355600D02*
D03*
Y350600D02*
D03*
Y345600D02*
D03*
Y340600D02*
D03*
Y335600D02*
D03*
Y330600D02*
D03*
X308567Y365600D02*
D03*
Y360600D02*
D03*
Y355600D02*
D03*
Y350600D02*
D03*
Y345600D02*
D03*
Y340600D02*
D03*
Y335600D02*
D03*
Y330600D02*
D03*
X185894Y366989D02*
D03*
Y361989D02*
D03*
Y356989D02*
D03*
Y351989D02*
D03*
Y346989D02*
D03*
Y341989D02*
D03*
Y336989D02*
D03*
Y331989D02*
D03*
X225461Y366989D02*
D03*
Y361989D02*
D03*
Y356989D02*
D03*
Y351989D02*
D03*
Y346989D02*
D03*
Y341989D02*
D03*
Y336989D02*
D03*
Y331989D02*
D03*
X648665Y357369D02*
D03*
Y362369D02*
D03*
Y367369D02*
D03*
Y372369D02*
D03*
X627209Y357369D02*
D03*
Y362369D02*
D03*
Y367369D02*
D03*
Y372369D02*
D03*
X562791Y412563D02*
D03*
Y407563D02*
D03*
Y402563D02*
D03*
Y397563D02*
D03*
X584248Y412563D02*
D03*
Y407563D02*
D03*
Y402563D02*
D03*
Y397563D02*
D03*
X600772Y519500D02*
D03*
Y514500D02*
D03*
Y509500D02*
D03*
Y504500D02*
D03*
X622228Y519500D02*
D03*
Y514500D02*
D03*
Y509500D02*
D03*
Y504500D02*
D03*
X619366Y332000D02*
D03*
Y327000D02*
D03*
Y322000D02*
D03*
Y317000D02*
D03*
X640823Y332000D02*
D03*
Y327000D02*
D03*
Y322000D02*
D03*
Y317000D02*
D03*
D43*
X245701Y334427D02*
D03*
X258299D02*
D03*
X246201Y352000D02*
D03*
X258799D02*
D03*
X163439Y334814D02*
D03*
X176037D02*
D03*
X163502Y352568D02*
D03*
X176100D02*
D03*
X683228Y466000D02*
D03*
X670630D02*
D03*
X683228Y483500D02*
D03*
X670630D02*
D03*
D44*
X198760Y137500D02*
D03*
X181240D02*
D03*
X198760Y122500D02*
D03*
X181240D02*
D03*
D45*
X367500Y757677D02*
D03*
Y642323D02*
D03*
D46*
X504500Y820972D02*
D03*
Y830028D02*
D03*
X500000Y625028D02*
D03*
Y615972D02*
D03*
X503878Y744028D02*
D03*
Y734972D02*
D03*
D47*
X147972Y905000D02*
D03*
X157028D02*
D03*
X147972Y896500D02*
D03*
X157028D02*
D03*
X457972Y241878D02*
D03*
X467028D02*
D03*
X519307Y242000D02*
D03*
X510252D02*
D03*
X569307Y242500D02*
D03*
X560252D02*
D03*
X612984D02*
D03*
X622039D02*
D03*
X335609Y241878D02*
D03*
X344664D02*
D03*
X414028Y242000D02*
D03*
X404972D02*
D03*
D48*
X421553Y567181D02*
D03*
X439506D02*
D03*
X468476Y567358D02*
D03*
X450524D02*
D03*
X303053Y568181D02*
D03*
X321006D02*
D03*
X332553Y567858D02*
D03*
X350506D02*
D03*
X366053Y567181D02*
D03*
X384006D02*
D03*
X393500Y567858D02*
D03*
X411453D02*
D03*
D49*
X430529Y591000D02*
D03*
X459500Y591177D02*
D03*
X312029Y592000D02*
D03*
X341529Y591677D02*
D03*
X375029Y591000D02*
D03*
X402476Y591677D02*
D03*
D50*
X368838Y337000D02*
D03*
D51*
X407814D02*
D03*
X368838Y355701D02*
D03*
X407814D02*
D03*
D52*
X575000Y480213D02*
D03*
Y442024D02*
D03*
D53*
X513835Y250224D02*
D03*
X498087D02*
D03*
Y290776D02*
D03*
X513835D02*
D03*
X396555Y289776D02*
D03*
X412303D02*
D03*
Y249224D02*
D03*
X396555D02*
D03*
X372252Y289839D02*
D03*
X388000D02*
D03*
Y249287D02*
D03*
X372252D02*
D03*
X488650Y289839D02*
D03*
X472902D02*
D03*
Y249287D02*
D03*
X488650D02*
D03*
X462000Y289839D02*
D03*
X446252D02*
D03*
Y249287D02*
D03*
X462000D02*
D03*
X315874Y290701D02*
D03*
X300126D02*
D03*
Y250150D02*
D03*
X315874D02*
D03*
X290874Y290339D02*
D03*
X275126D02*
D03*
Y249787D02*
D03*
X290874D02*
D03*
X266374Y290402D02*
D03*
X250626D02*
D03*
Y249850D02*
D03*
X266374D02*
D03*
X241327Y290402D02*
D03*
X225579D02*
D03*
Y249850D02*
D03*
X241327D02*
D03*
X339748Y290339D02*
D03*
X324000D02*
D03*
Y249787D02*
D03*
X339748D02*
D03*
X421126Y249224D02*
D03*
X436874D02*
D03*
Y289776D02*
D03*
X421126D02*
D03*
X348000Y249000D02*
D03*
X363748D02*
D03*
Y289551D02*
D03*
X348000D02*
D03*
D54*
X173658Y191748D02*
D03*
X183500D02*
D03*
X193342D02*
D03*
X173658Y210252D02*
D03*
X183500D02*
D03*
X193342D02*
D03*
D55*
X458201Y467000D02*
D03*
Y472000D02*
D03*
Y477000D02*
D03*
Y482000D02*
D03*
Y487000D02*
D03*
Y492000D02*
D03*
Y497000D02*
D03*
Y502000D02*
D03*
X420799Y467000D02*
D03*
Y472000D02*
D03*
Y477000D02*
D03*
Y482000D02*
D03*
Y487000D02*
D03*
Y492000D02*
D03*
Y497000D02*
D03*
Y502000D02*
D03*
D56*
X304121Y210400D02*
D03*
X322121D02*
D03*
X304121Y235500D02*
D03*
X322121D02*
D03*
X304121Y223000D02*
D03*
X322121D02*
D03*
X304121Y197000D02*
D03*
X322121D02*
D03*
D57*
X637937Y364869D02*
D03*
D58*
X522268Y561291D02*
D03*
Y557551D02*
D03*
Y553811D02*
D03*
X533291Y561291D02*
D03*
Y557551D02*
D03*
Y553811D02*
D03*
D59*
X653827Y565776D02*
D03*
Y550224D02*
D03*
D60*
X620327Y540941D02*
D03*
Y571059D02*
D03*
D61*
X686429Y524000D02*
D03*
X652571D02*
D03*
D62*
X418500Y519000D02*
D03*
Y529000D02*
D03*
Y539000D02*
D03*
Y549000D02*
D03*
X459996Y519000D02*
D03*
Y529000D02*
D03*
Y539000D02*
D03*
Y549000D02*
D03*
M02*
