G04*
G04 #@! TF.GenerationSoftware,Altium Limited,Altium Designer,18.1.11 (251)*
G04*
G04 Layer_Physical_Order=3*
G04 Layer_Color=128*
%FSLAX25Y25*%
%MOIN*%
G70*
G01*
G75*
%ADD10C,0.01000*%
%ADD111C,0.15800*%
%ADD113C,0.15600*%
%ADD126C,0.08000*%
%ADD140C,0.04000*%
%ADD141C,0.07937*%
%ADD142C,0.11087*%
%ADD143C,0.10299*%
%ADD144C,0.09906*%
%ADD145C,0.10300*%
%ADD146C,0.11795*%
%ADD147C,0.16500*%
%ADD148C,0.07543*%
%ADD149C,0.09118*%
%ADD150C,0.13449*%
%ADD151C,0.14200*%
%ADD152C,0.05500*%
%ADD153C,0.06800*%
G36*
X1532115Y155500D02*
X1531616D01*
X1530811Y158425D01*
Y158430D01*
X1530805Y158441D01*
X1530800Y158458D01*
X1530794Y158486D01*
X1530777Y158547D01*
X1530761Y158619D01*
X1530739Y158697D01*
X1530717Y158769D01*
X1530700Y158830D01*
X1530694Y158858D01*
X1530689Y158874D01*
Y158869D01*
X1530683Y158863D01*
X1530678Y158830D01*
X1530667Y158780D01*
X1530650Y158719D01*
X1530633Y158652D01*
X1530611Y158575D01*
X1530594Y158497D01*
X1530572Y158425D01*
X1529762Y155500D01*
X1529229D01*
X1528225Y159341D01*
X1528752D01*
X1529323Y156821D01*
Y156815D01*
X1529329Y156804D01*
X1529335Y156782D01*
X1529340Y156754D01*
X1529346Y156716D01*
X1529357Y156677D01*
X1529368Y156627D01*
X1529379Y156571D01*
X1529407Y156455D01*
X1529434Y156321D01*
X1529462Y156177D01*
X1529490Y156033D01*
Y156038D01*
X1529496Y156061D01*
X1529507Y156088D01*
X1529512Y156133D01*
X1529523Y156177D01*
X1529540Y156233D01*
X1529568Y156355D01*
X1529601Y156477D01*
X1529612Y156538D01*
X1529629Y156593D01*
X1529640Y156643D01*
X1529651Y156688D01*
X1529662Y156721D01*
X1529667Y156743D01*
X1530395Y159341D01*
X1531011D01*
X1531555Y157393D01*
Y157387D01*
X1531566Y157359D01*
X1531577Y157320D01*
X1531588Y157271D01*
X1531604Y157204D01*
X1531627Y157132D01*
X1531649Y157048D01*
X1531671Y156954D01*
X1531699Y156849D01*
X1531721Y156743D01*
X1531771Y156516D01*
X1531821Y156277D01*
X1531860Y156033D01*
Y156038D01*
X1531865Y156050D01*
Y156072D01*
X1531876Y156099D01*
X1531882Y156133D01*
X1531893Y156172D01*
X1531899Y156221D01*
X1531915Y156277D01*
X1531943Y156399D01*
X1531976Y156543D01*
X1532010Y156699D01*
X1532054Y156871D01*
X1532653Y159341D01*
X1533170D01*
X1532115Y155500D01*
D02*
G37*
G36*
X1535478Y159335D02*
X1535528D01*
X1535645Y159329D01*
X1535767Y159313D01*
X1535900Y159296D01*
X1536022Y159268D01*
X1536083Y159252D01*
X1536133Y159235D01*
X1536139D01*
X1536144Y159230D01*
X1536178Y159213D01*
X1536228Y159191D01*
X1536289Y159152D01*
X1536355Y159102D01*
X1536427Y159035D01*
X1536494Y158958D01*
X1536561Y158869D01*
Y158863D01*
X1536566Y158858D01*
X1536588Y158825D01*
X1536611Y158769D01*
X1536644Y158697D01*
X1536672Y158614D01*
X1536699Y158514D01*
X1536716Y158408D01*
X1536722Y158292D01*
Y158286D01*
Y158275D01*
Y158253D01*
X1536716Y158225D01*
Y158186D01*
X1536710Y158147D01*
X1536688Y158053D01*
X1536655Y157942D01*
X1536611Y157826D01*
X1536544Y157709D01*
X1536500Y157653D01*
X1536455Y157598D01*
X1536450Y157592D01*
X1536444Y157587D01*
X1536427Y157570D01*
X1536405Y157554D01*
X1536378Y157531D01*
X1536344Y157509D01*
X1536300Y157481D01*
X1536255Y157448D01*
X1536200Y157420D01*
X1536139Y157393D01*
X1536072Y157359D01*
X1536000Y157332D01*
X1535917Y157309D01*
X1535834Y157281D01*
X1535739Y157265D01*
X1535639Y157248D01*
X1535650Y157243D01*
X1535673Y157232D01*
X1535706Y157209D01*
X1535750Y157187D01*
X1535850Y157126D01*
X1535900Y157087D01*
X1535945Y157054D01*
X1535956Y157043D01*
X1535983Y157015D01*
X1536028Y156971D01*
X1536083Y156915D01*
X1536144Y156838D01*
X1536217Y156754D01*
X1536289Y156654D01*
X1536366Y156543D01*
X1537027Y155500D01*
X1536394D01*
X1535889Y156299D01*
Y156305D01*
X1535878Y156316D01*
X1535867Y156333D01*
X1535850Y156355D01*
X1535811Y156416D01*
X1535761Y156493D01*
X1535700Y156577D01*
X1535639Y156666D01*
X1535578Y156749D01*
X1535523Y156826D01*
X1535517Y156832D01*
X1535501Y156854D01*
X1535473Y156887D01*
X1535434Y156926D01*
X1535351Y157010D01*
X1535306Y157048D01*
X1535262Y157082D01*
X1535256Y157087D01*
X1535245Y157093D01*
X1535223Y157104D01*
X1535190Y157121D01*
X1535157Y157137D01*
X1535118Y157154D01*
X1535029Y157182D01*
X1535023D01*
X1535012Y157187D01*
X1534990D01*
X1534962Y157193D01*
X1534923Y157198D01*
X1534879D01*
X1534818Y157204D01*
X1534163D01*
Y155500D01*
X1533652D01*
Y159341D01*
X1535434D01*
X1535478Y159335D01*
D02*
G37*
G36*
X1526659D02*
X1526754Y159329D01*
X1526854Y159324D01*
X1526948Y159313D01*
X1527031Y159302D01*
X1527042D01*
X1527081Y159291D01*
X1527131Y159280D01*
X1527198Y159263D01*
X1527270Y159235D01*
X1527348Y159202D01*
X1527431Y159163D01*
X1527503Y159119D01*
X1527514Y159113D01*
X1527536Y159096D01*
X1527570Y159063D01*
X1527614Y159024D01*
X1527664Y158974D01*
X1527714Y158908D01*
X1527769Y158835D01*
X1527814Y158752D01*
X1527819Y158741D01*
X1527831Y158713D01*
X1527853Y158663D01*
X1527875Y158597D01*
X1527892Y158519D01*
X1527914Y158430D01*
X1527925Y158331D01*
X1527930Y158225D01*
Y158220D01*
Y158203D01*
Y158181D01*
X1527925Y158142D01*
X1527919Y158103D01*
X1527914Y158053D01*
X1527903Y157998D01*
X1527892Y157936D01*
X1527853Y157809D01*
X1527831Y157742D01*
X1527797Y157670D01*
X1527758Y157598D01*
X1527719Y157531D01*
X1527670Y157465D01*
X1527614Y157398D01*
X1527608Y157393D01*
X1527597Y157381D01*
X1527581Y157365D01*
X1527553Y157348D01*
X1527520Y157320D01*
X1527475Y157293D01*
X1527420Y157259D01*
X1527359Y157232D01*
X1527287Y157198D01*
X1527203Y157165D01*
X1527115Y157137D01*
X1527009Y157115D01*
X1526898Y157093D01*
X1526776Y157076D01*
X1526637Y157065D01*
X1526493Y157060D01*
X1525511D01*
Y155500D01*
X1525000D01*
Y159341D01*
X1526576D01*
X1526659Y159335D01*
D02*
G37*
%LPC*%
G36*
X1535373Y158913D02*
X1534163D01*
Y157642D01*
X1535306D01*
X1535373Y157648D01*
X1535451Y157653D01*
X1535540Y157659D01*
X1535628Y157670D01*
X1535717Y157687D01*
X1535795Y157709D01*
X1535806Y157714D01*
X1535828Y157726D01*
X1535861Y157742D01*
X1535906Y157764D01*
X1535956Y157798D01*
X1536006Y157837D01*
X1536056Y157887D01*
X1536094Y157942D01*
X1536100Y157948D01*
X1536111Y157970D01*
X1536128Y158003D01*
X1536150Y158047D01*
X1536167Y158097D01*
X1536183Y158153D01*
X1536194Y158220D01*
X1536200Y158286D01*
Y158292D01*
Y158297D01*
X1536194Y158331D01*
X1536189Y158380D01*
X1536178Y158447D01*
X1536150Y158514D01*
X1536117Y158591D01*
X1536067Y158663D01*
X1536000Y158736D01*
X1535989Y158741D01*
X1535961Y158763D01*
X1535917Y158791D01*
X1535845Y158825D01*
X1535761Y158858D01*
X1535650Y158886D01*
X1535523Y158908D01*
X1535373Y158913D01*
D02*
G37*
G36*
X1526610Y158886D02*
X1525511D01*
Y157515D01*
X1526543D01*
X1526582Y157520D01*
X1526621D01*
X1526665Y157526D01*
X1526770Y157537D01*
X1526887Y157559D01*
X1527003Y157592D01*
X1527109Y157637D01*
X1527159Y157665D01*
X1527198Y157698D01*
X1527209Y157709D01*
X1527231Y157731D01*
X1527264Y157775D01*
X1527303Y157831D01*
X1527342Y157903D01*
X1527375Y157992D01*
X1527398Y158092D01*
X1527409Y158208D01*
Y158214D01*
Y158220D01*
Y158247D01*
X1527403Y158297D01*
X1527392Y158353D01*
X1527381Y158414D01*
X1527359Y158486D01*
X1527325Y158553D01*
X1527287Y158619D01*
X1527281Y158625D01*
X1527264Y158647D01*
X1527237Y158675D01*
X1527203Y158713D01*
X1527153Y158752D01*
X1527098Y158786D01*
X1527037Y158819D01*
X1526965Y158847D01*
X1526959D01*
X1526937Y158852D01*
X1526904Y158858D01*
X1526859Y158869D01*
X1526793Y158874D01*
X1526709Y158880D01*
X1526610Y158886D01*
D02*
G37*
%LPD*%
D10*
X100000Y574500D02*
X110500D01*
X119000Y583000D01*
Y695000D01*
X130500Y706500D01*
X274367D01*
X294000Y726133D01*
Y877500D01*
X296000Y879500D01*
X321500D01*
X325500Y875500D01*
Y852000D02*
Y875500D01*
Y852000D02*
X351500Y826000D01*
X449000D01*
X474000Y851000D01*
Y868000D01*
X482000Y876000D01*
X500000D01*
X510500Y865500D01*
Y585000D02*
Y865500D01*
Y585000D02*
X555500Y540000D01*
X700000D01*
X100000Y437500D02*
X198831D01*
X214955Y453624D01*
X216500D01*
X327000Y423000D02*
Y483000D01*
X322500Y487500D02*
X327000Y483000D01*
X316600Y487500D02*
X322500D01*
X302500D02*
X303500D01*
X296000Y481000D02*
X302500Y487500D01*
X296000Y466234D02*
Y481000D01*
X316000Y487500D02*
X316600D01*
X283390Y453624D02*
X296000Y466234D01*
X303500Y487500D02*
X316000D01*
X165539Y396539D02*
X188000Y419000D01*
X323000D01*
X216500Y453624D02*
X283390Y453624D01*
X547982Y333000D02*
X586000D01*
X614000Y295000D02*
X700000D01*
X323000Y419000D02*
X327000Y423000D01*
X165539Y204500D02*
Y396539D01*
Y204500D02*
X195890D01*
X261390Y270000D01*
X293890Y302500D01*
X514810D01*
X547982Y333000D01*
X585500D02*
X604000D01*
X606000Y331000D01*
Y330000D02*
Y331000D01*
Y303000D02*
X614000Y295000D01*
X606000Y303000D02*
Y330000D01*
D111*
X315649Y79500D02*
D03*
X405049D02*
D03*
X511752D02*
D03*
X622500D02*
D03*
X679000Y330600D02*
D03*
X122500Y556500D02*
D03*
X121000Y142000D02*
D03*
X121500Y111700D02*
D03*
X120949Y190500D02*
D03*
Y209000D02*
D03*
X120563Y255000D02*
D03*
X120200Y300500D02*
D03*
Y319000D02*
D03*
X121500Y365100D02*
D03*
Y408412D02*
D03*
Y453624D02*
D03*
Y472124D02*
D03*
X122000Y518000D02*
D03*
X175323Y80200D02*
D03*
X234600Y79700D02*
D03*
X216100D02*
D03*
X274500Y80000D02*
D03*
X471500Y79000D02*
D03*
X453000D02*
D03*
X552500D02*
D03*
X582800Y79500D02*
D03*
X679000Y248500D02*
D03*
X678827Y111000D02*
D03*
X678327Y141300D02*
D03*
X678827Y207000D02*
D03*
Y188500D02*
D03*
X679000Y287449D02*
D03*
Y600500D02*
D03*
X119500Y937000D02*
D03*
D113*
X115500Y73500D02*
D03*
X684500D02*
D03*
X679500Y941000D02*
D03*
X148500Y939500D02*
D03*
D126*
X307149Y108300D02*
D03*
X319049D02*
D03*
X354449D02*
D03*
X342649D02*
D03*
X366249D02*
D03*
X330849D02*
D03*
Y96500D02*
D03*
X366249D02*
D03*
X342649D02*
D03*
X354449D02*
D03*
X319049D02*
D03*
X378249D02*
D03*
X378049Y108300D02*
D03*
X389849D02*
D03*
Y96500D02*
D03*
X307149D02*
D03*
X401649D02*
D03*
X413449D02*
D03*
Y108300D02*
D03*
X401649D02*
D03*
X511752D02*
D03*
Y96500D02*
D03*
X622500D02*
D03*
Y108300D02*
D03*
X662000Y324700D02*
D03*
Y336500D02*
D03*
X650200D02*
D03*
Y324700D02*
D03*
X187100Y683700D02*
D03*
X175300Y695500D02*
D03*
X187100D02*
D03*
X198900D02*
D03*
Y683700D02*
D03*
X210700D02*
D03*
X210500Y695500D02*
D03*
X222500Y680000D02*
D03*
X163500D02*
D03*
X139500Y556500D02*
D03*
X151300D02*
D03*
X150300Y151000D02*
D03*
X138500D02*
D03*
Y139000D02*
D03*
X150300Y139200D02*
D03*
Y127400D02*
D03*
X138500D02*
D03*
Y115600D02*
D03*
Y103300D02*
D03*
X150300D02*
D03*
Y115600D02*
D03*
X149749Y193900D02*
D03*
Y182100D02*
D03*
X137949D02*
D03*
Y193900D02*
D03*
Y217500D02*
D03*
Y205700D02*
D03*
X149749D02*
D03*
Y217500D02*
D03*
X149363Y260900D02*
D03*
Y249100D02*
D03*
X137563D02*
D03*
Y260900D02*
D03*
X149000Y303900D02*
D03*
Y292100D02*
D03*
X137200D02*
D03*
Y303900D02*
D03*
Y327500D02*
D03*
Y315700D02*
D03*
X149000D02*
D03*
Y327500D02*
D03*
X150300Y371000D02*
D03*
Y359200D02*
D03*
X138500D02*
D03*
Y371000D02*
D03*
X150300Y414312D02*
D03*
Y402512D02*
D03*
X138500D02*
D03*
Y414312D02*
D03*
X150300Y457024D02*
D03*
Y445224D02*
D03*
X138500D02*
D03*
Y457024D02*
D03*
Y480624D02*
D03*
Y468824D02*
D03*
X150300D02*
D03*
Y480624D02*
D03*
X150800Y523900D02*
D03*
Y512100D02*
D03*
X139000D02*
D03*
Y523900D02*
D03*
X175323Y97200D02*
D03*
Y109000D02*
D03*
X231200Y108500D02*
D03*
X243000D02*
D03*
Y96700D02*
D03*
X231200D02*
D03*
X207600D02*
D03*
X219400D02*
D03*
Y108500D02*
D03*
X207600D02*
D03*
X274500Y108800D02*
D03*
Y97000D02*
D03*
X468100Y107800D02*
D03*
X479900D02*
D03*
Y96000D02*
D03*
X468100D02*
D03*
X444500D02*
D03*
X456300D02*
D03*
Y107800D02*
D03*
X444500D02*
D03*
X543500Y108300D02*
D03*
Y96500D02*
D03*
X555500D02*
D03*
X555300Y108300D02*
D03*
X567100D02*
D03*
Y96500D02*
D03*
X578900D02*
D03*
X591200D02*
D03*
Y108300D02*
D03*
X578900D02*
D03*
X650200Y248500D02*
D03*
X662000D02*
D03*
X649527Y102000D02*
D03*
X661327D02*
D03*
Y114000D02*
D03*
X649527Y113800D02*
D03*
Y125600D02*
D03*
X661327D02*
D03*
Y137400D02*
D03*
Y149700D02*
D03*
X649527D02*
D03*
Y137400D02*
D03*
X650027Y203600D02*
D03*
Y215400D02*
D03*
X661827D02*
D03*
Y203600D02*
D03*
Y180000D02*
D03*
Y191800D02*
D03*
X650027D02*
D03*
Y180000D02*
D03*
X650200Y281549D02*
D03*
Y293349D02*
D03*
X662000D02*
D03*
Y281549D02*
D03*
X650200Y600500D02*
D03*
X662000D02*
D03*
X119500Y908200D02*
D03*
Y920000D02*
D03*
D140*
X100000Y958500D02*
X347000D01*
X100000Y58500D02*
Y958500D01*
Y58500D02*
X700000D01*
Y958500D01*
X428500Y958500D02*
X700000Y958500D01*
X428500Y868500D02*
X428500Y958500D01*
X347000Y868500D02*
X428500Y868500D01*
X347000Y868500D02*
Y958500D01*
D141*
X180000Y220000D02*
D03*
X190000D02*
D03*
X258000Y366321D02*
D03*
X248000D02*
D03*
X174600Y366989D02*
D03*
X164600D02*
D03*
X635500Y596500D02*
D03*
Y606500D02*
D03*
X490000Y533000D02*
D03*
Y543000D02*
D03*
X502500Y533051D02*
D03*
Y543051D02*
D03*
X179439Y288500D02*
D03*
X189439D02*
D03*
X189500Y300000D02*
D03*
X179500D02*
D03*
X169000Y240500D02*
D03*
Y230500D02*
D03*
X201000Y239500D02*
D03*
Y229500D02*
D03*
X364000Y470000D02*
D03*
Y480000D02*
D03*
X337676Y479689D02*
D03*
X310630Y479352D02*
D03*
X335500Y308000D02*
D03*
X635000Y254000D02*
D03*
Y264000D02*
D03*
X618445D02*
D03*
Y254000D02*
D03*
X601000Y254500D02*
D03*
Y264500D02*
D03*
X583551Y254500D02*
D03*
Y264500D02*
D03*
X565370Y254500D02*
D03*
Y264500D02*
D03*
X547500Y254500D02*
D03*
Y264500D02*
D03*
X529500Y254500D02*
D03*
Y264500D02*
D03*
X655000Y482760D02*
D03*
Y492760D02*
D03*
D142*
X566244Y595413D02*
D03*
Y704075D02*
D03*
D143*
X519000Y689114D02*
D03*
X239602Y740862D02*
D03*
X239098Y828862D02*
D03*
X563327Y831000D02*
D03*
X563158Y742000D02*
D03*
D144*
X519000Y602500D02*
D03*
X389000Y528000D02*
D03*
Y512000D02*
D03*
X249500Y692000D02*
D03*
X265500D02*
D03*
X260500Y561728D02*
D03*
X257000Y514116D02*
D03*
Y530117D02*
D03*
D145*
X519500Y918500D02*
D03*
X558500D02*
D03*
X519500Y905000D02*
D03*
X558500D02*
D03*
X601728Y635500D02*
D03*
Y596500D02*
D03*
X588228D02*
D03*
Y635500D02*
D03*
X601500Y699000D02*
D03*
Y660000D02*
D03*
X588000D02*
D03*
Y699000D02*
D03*
X624000Y905000D02*
D03*
X585000D02*
D03*
Y918500D02*
D03*
X624000D02*
D03*
Y935000D02*
D03*
X585000D02*
D03*
Y948500D02*
D03*
X624000D02*
D03*
X558500Y935000D02*
D03*
X519500D02*
D03*
Y948500D02*
D03*
X558500D02*
D03*
X239500Y948000D02*
D03*
X278500D02*
D03*
Y934500D02*
D03*
X239500D02*
D03*
X239437Y916000D02*
D03*
X278437D02*
D03*
Y902500D02*
D03*
X239437D02*
D03*
X175437Y916000D02*
D03*
X214437D02*
D03*
Y902500D02*
D03*
X175437D02*
D03*
X175500Y948000D02*
D03*
X214500D02*
D03*
Y934500D02*
D03*
X175500D02*
D03*
D146*
X163020Y740799D02*
D03*
X175539Y770299D02*
D03*
Y740799D02*
D03*
X163020Y770299D02*
D03*
X636020Y679500D02*
D03*
X623500Y650000D02*
D03*
Y679500D02*
D03*
X636020Y650000D02*
D03*
X636000Y770500D02*
D03*
X623480Y741000D02*
D03*
Y770500D02*
D03*
X636000Y741000D02*
D03*
X635803Y860000D02*
D03*
X623283Y830500D02*
D03*
Y860000D02*
D03*
X635803Y830500D02*
D03*
X162803Y830299D02*
D03*
X175323Y859799D02*
D03*
Y830299D02*
D03*
X162803Y859799D02*
D03*
D147*
X111327Y722098D02*
D03*
Y789000D02*
D03*
X687713Y698201D02*
D03*
Y631299D02*
D03*
X687693Y789201D02*
D03*
Y722299D02*
D03*
X687496Y878701D02*
D03*
Y811799D02*
D03*
X111110Y811598D02*
D03*
Y878500D02*
D03*
D148*
X304500Y645000D02*
D03*
X314500D02*
D03*
X304500Y655000D02*
D03*
X314500D02*
D03*
X304500Y665000D02*
D03*
X314500D02*
D03*
X304500Y675000D02*
D03*
X314500D02*
D03*
X304500Y685000D02*
D03*
X314500D02*
D03*
X304500Y695000D02*
D03*
X314500D02*
D03*
X304500Y705000D02*
D03*
X314500D02*
D03*
X304500Y715000D02*
D03*
X314500D02*
D03*
X304500Y725000D02*
D03*
X314500D02*
D03*
X304500Y735000D02*
D03*
X314500D02*
D03*
X304500Y745000D02*
D03*
X314500D02*
D03*
X304500Y755000D02*
D03*
X314500D02*
D03*
X304500Y765000D02*
D03*
X314500D02*
D03*
X304500Y775000D02*
D03*
X314500D02*
D03*
X304500Y785000D02*
D03*
X314500D02*
D03*
X304500Y795000D02*
D03*
X314500D02*
D03*
X304500Y805000D02*
D03*
X314500D02*
D03*
X304500Y815000D02*
D03*
X314500D02*
D03*
X304500Y825000D02*
D03*
X314500D02*
D03*
X304500Y835000D02*
D03*
X314500D02*
D03*
X304500Y845000D02*
D03*
X314500D02*
D03*
X304500Y855000D02*
D03*
X314500D02*
D03*
X304500Y865000D02*
D03*
X314500D02*
D03*
X494500D02*
D03*
X484500D02*
D03*
X494500Y855000D02*
D03*
X484500D02*
D03*
X494500Y835000D02*
D03*
X484500D02*
D03*
X494500Y825000D02*
D03*
X484500D02*
D03*
X494500Y815000D02*
D03*
X484500D02*
D03*
X494500Y805000D02*
D03*
X484500D02*
D03*
X494500Y795000D02*
D03*
X484500D02*
D03*
X494500Y785000D02*
D03*
X484500D02*
D03*
X494500Y775000D02*
D03*
X484500D02*
D03*
X494500Y765000D02*
D03*
X484500D02*
D03*
X494500Y755000D02*
D03*
X484500D02*
D03*
X494500Y745000D02*
D03*
X484500D02*
D03*
X494500Y735000D02*
D03*
X484500D02*
D03*
X494500Y725000D02*
D03*
X484500D02*
D03*
X494500Y715000D02*
D03*
X484500D02*
D03*
X494500Y705000D02*
D03*
X484500D02*
D03*
X494500Y695000D02*
D03*
X484500D02*
D03*
X494500Y685000D02*
D03*
X484500D02*
D03*
X494500Y675000D02*
D03*
X484500D02*
D03*
X494500Y665000D02*
D03*
X484500D02*
D03*
X494500Y655000D02*
D03*
X484500D02*
D03*
X494500Y645000D02*
D03*
X484500D02*
D03*
D149*
X601780Y129528D02*
D03*
X631307D02*
D03*
X601780Y149213D02*
D03*
X631307D02*
D03*
X601780Y168898D02*
D03*
X631307D02*
D03*
Y227953D02*
D03*
X601780D02*
D03*
X551279Y129528D02*
D03*
X580807D02*
D03*
X551279Y149213D02*
D03*
X580807D02*
D03*
X551279Y168898D02*
D03*
X580807D02*
D03*
Y227953D02*
D03*
X551279D02*
D03*
X499780Y129575D02*
D03*
X529307D02*
D03*
X499780Y149260D02*
D03*
X529307D02*
D03*
X499780Y168945D02*
D03*
X529307D02*
D03*
Y228000D02*
D03*
X499780D02*
D03*
X447780Y129528D02*
D03*
X477307D02*
D03*
X447780Y149213D02*
D03*
X477307D02*
D03*
X447780Y168898D02*
D03*
X477307D02*
D03*
Y227953D02*
D03*
X447780D02*
D03*
X396472Y129500D02*
D03*
X426000D02*
D03*
X396472Y149185D02*
D03*
X426000D02*
D03*
X396472Y168870D02*
D03*
X426000D02*
D03*
Y227925D02*
D03*
X396472D02*
D03*
X344972Y129575D02*
D03*
X374500D02*
D03*
X344972Y149260D02*
D03*
X374500D02*
D03*
X344972Y168945D02*
D03*
X374500D02*
D03*
Y228000D02*
D03*
X344972D02*
D03*
D150*
X199445Y740862D02*
D03*
Y727870D02*
D03*
X198941Y828862D02*
D03*
Y815870D02*
D03*
X523169Y831000D02*
D03*
Y818008D02*
D03*
X523000Y742000D02*
D03*
Y729008D02*
D03*
D151*
X262437Y732201D02*
D03*
X251807Y788500D02*
D03*
X208500D02*
D03*
X261933Y820201D02*
D03*
X251303Y876500D02*
D03*
X207996D02*
D03*
X586161Y822339D02*
D03*
X575531Y878638D02*
D03*
X532224D02*
D03*
X585992Y733339D02*
D03*
X575362Y789638D02*
D03*
X532055D02*
D03*
D152*
X449500Y412813D02*
D03*
Y419878D02*
D03*
Y426950D02*
D03*
X568000Y317500D02*
D03*
X601728Y356887D02*
D03*
X175000Y184000D02*
D03*
X185500Y180000D02*
D03*
X195000Y179500D02*
D03*
X169000Y182000D02*
D03*
X161500Y189500D02*
D03*
X556500Y574000D02*
D03*
X277000Y661500D02*
D03*
X269500Y613000D02*
D03*
X585500Y310500D02*
D03*
X563158Y320500D02*
D03*
X493500Y405000D02*
D03*
X506760Y353437D02*
D03*
X413000Y474000D02*
D03*
X416500Y459500D02*
D03*
X385500Y432500D02*
D03*
X381449Y366000D02*
D03*
X404500Y397000D02*
D03*
X595752Y122000D02*
D03*
X506000Y118500D02*
D03*
X436874Y117000D02*
D03*
X575531Y587716D02*
D03*
X538668Y543051D02*
D03*
X230700Y665500D02*
D03*
X216500Y669500D02*
D03*
X205000Y674000D02*
D03*
X321000Y650500D02*
D03*
X322500Y670000D02*
D03*
X288500Y713500D02*
D03*
X493500Y628000D02*
D03*
X453500Y627000D02*
D03*
X415500Y647000D02*
D03*
X379500D02*
D03*
X207996Y524000D02*
D03*
X416500Y342500D02*
D03*
X329500Y368500D02*
D03*
X217080Y493113D02*
D03*
X192580Y491550D02*
D03*
X214740Y542000D02*
D03*
X182500Y539050D02*
D03*
X193500Y544550D02*
D03*
X402476Y485998D02*
D03*
X114500Y382500D02*
D03*
X113222Y339722D02*
D03*
X111500Y392000D02*
D03*
X104500Y186000D02*
D03*
X522000Y83000D02*
D03*
X528327Y71673D02*
D03*
X444100Y86600D02*
D03*
X490500Y102500D02*
D03*
X633000Y71500D02*
D03*
X528000Y91500D02*
D03*
X206500Y176500D02*
D03*
X212000Y159000D02*
D03*
X200080Y171000D02*
D03*
X199000Y191748D02*
D03*
X222563Y204000D02*
D03*
X162000Y202500D02*
D03*
X198000Y248939D02*
D03*
X359914Y83000D02*
D03*
X284000Y93500D02*
D03*
X360000Y89500D02*
D03*
X296250Y92250D02*
D03*
X341831Y69500D02*
D03*
X674000Y318000D02*
D03*
X662000Y223500D02*
D03*
X644500Y258500D02*
D03*
X650027Y265473D02*
D03*
X689500Y314000D02*
D03*
X641500Y373500D02*
D03*
X634500D02*
D03*
X601390Y538857D02*
D03*
X580890D02*
D03*
X591618Y539000D02*
D03*
X606500Y352500D02*
D03*
Y360500D02*
D03*
X613063Y352378D02*
D03*
X597000Y352568D02*
D03*
X596500Y360500D02*
D03*
X642000Y356000D02*
D03*
X635000D02*
D03*
X666000Y381878D02*
D03*
X621232Y385378D02*
D03*
X600772Y441811D02*
D03*
X602925Y413563D02*
D03*
X575531Y408012D02*
D03*
X131500Y225500D02*
D03*
X402500Y282500D02*
D03*
X452500Y508996D02*
D03*
X510000Y176500D02*
D03*
X560252Y199500D02*
D03*
X429000Y283000D02*
D03*
X378200Y285500D02*
D03*
X375500Y443057D02*
D03*
X106000Y199500D02*
D03*
X115000D02*
D03*
X141500Y347500D02*
D03*
X291000Y353000D02*
D03*
X446000Y621500D02*
D03*
X400500Y356887D02*
D03*
X463000Y265500D02*
D03*
X469278Y787500D02*
D03*
X409000Y407500D02*
D03*
X490000Y322850D02*
D03*
X449000Y323500D02*
D03*
X461000Y331500D02*
D03*
X445500Y349000D02*
D03*
X514063Y576500D02*
D03*
X429500Y249100D02*
D03*
X380000Y249287D02*
D03*
X356500Y248939D02*
D03*
X328878Y241878D02*
D03*
X367000Y308000D02*
D03*
X147000Y922000D02*
D03*
X315000Y456463D02*
D03*
X358000Y545551D02*
D03*
Y558456D02*
D03*
X416000Y559000D02*
D03*
X366000Y546283D02*
D03*
X366200Y557000D02*
D03*
X351000Y558000D02*
D03*
X321229D02*
D03*
X558000Y519000D02*
D03*
X506216Y587716D02*
D03*
X594000Y497000D02*
D03*
X412500Y509500D02*
D03*
X427500Y496563D02*
D03*
X452500Y528000D02*
D03*
X388500Y464500D02*
D03*
X372500Y456551D02*
D03*
X335109Y182600D02*
D03*
X183500Y197500D02*
D03*
X173000Y119500D02*
D03*
X166500D02*
D03*
X173000Y126571D02*
D03*
X166500D02*
D03*
X425500Y626500D02*
D03*
X327000Y429500D02*
D03*
X653500Y473000D02*
D03*
X632000Y442807D02*
D03*
X482000Y203500D02*
D03*
X491000Y200500D02*
D03*
X342437Y326500D02*
D03*
X172500Y251500D02*
D03*
X451500Y492000D02*
D03*
X477284Y523900D02*
D03*
X349803Y446697D02*
D03*
X330000Y356500D02*
D03*
X326500Y337500D02*
D03*
X469000Y384340D02*
D03*
X528000Y323000D02*
D03*
X573500Y321500D02*
D03*
X522000Y323000D02*
D03*
X494000Y318850D02*
D03*
X580000Y315700D02*
D03*
X573500Y315500D02*
D03*
X580000Y322500D02*
D03*
X493000Y327500D02*
D03*
X493500Y373000D02*
D03*
X493000Y361500D02*
D03*
X486000Y347969D02*
D03*
X445500Y355000D02*
D03*
X467000Y232000D02*
D03*
Y255000D02*
D03*
X423000Y258000D02*
D03*
Y275000D02*
D03*
X442000Y274500D02*
D03*
Y255000D02*
D03*
X454500Y254000D02*
D03*
X432000Y256500D02*
D03*
X234000Y261500D02*
D03*
X233000Y252000D02*
D03*
X320000Y261000D02*
D03*
X453000Y378437D02*
D03*
X479500Y415500D02*
D03*
X474500Y430500D02*
D03*
X401600Y407924D02*
D03*
X392500Y408012D02*
D03*
X379500Y415512D02*
D03*
X461500Y345000D02*
D03*
X462500Y363000D02*
D03*
X294000Y313000D02*
D03*
X423500Y312500D02*
D03*
Y235500D02*
D03*
X410000Y218500D02*
D03*
X396472Y214500D02*
D03*
X420000Y101000D02*
D03*
X695000Y566500D02*
D03*
X686000Y553000D02*
D03*
X375500Y401000D02*
D03*
X381449Y397563D02*
D03*
X454000Y616000D02*
D03*
X493000Y621500D02*
D03*
X493602Y616000D02*
D03*
X123000Y353000D02*
D03*
X136500Y351500D02*
D03*
X322000Y661000D02*
D03*
X499000Y569000D02*
D03*
X494000Y564000D02*
D03*
X489000Y569000D02*
D03*
X484500Y564000D02*
D03*
X434000Y565500D02*
D03*
X111500Y743500D02*
D03*
X429000Y82000D02*
D03*
X435000Y389000D02*
D03*
Y394878D02*
D03*
X454500Y384500D02*
D03*
X485000Y268000D02*
D03*
X471000Y261500D02*
D03*
X480000Y273000D02*
D03*
X201000Y258500D02*
D03*
X163890Y213051D02*
D03*
X154500Y351300D02*
D03*
X430500Y444000D02*
D03*
Y436000D02*
D03*
X429500Y429000D02*
D03*
X282000Y426050D02*
D03*
X246500Y426626D02*
D03*
X211000D02*
D03*
X366995Y406500D02*
D03*
X367500Y383500D02*
D03*
Y368000D02*
D03*
X324262Y350850D02*
D03*
X314500Y322750D02*
D03*
X247000Y312350D02*
D03*
X231500Y323350D02*
D03*
X239541Y366350D02*
D03*
X276000Y335300D02*
D03*
X193500Y336800D02*
D03*
X244500Y326300D02*
D03*
X162500Y326800D02*
D03*
X186000Y424050D02*
D03*
X262500Y380291D02*
D03*
X225724Y380000D02*
D03*
X187500Y379000D02*
D03*
X518500Y176500D02*
D03*
X465000Y472500D02*
D03*
X477000Y517000D02*
D03*
X493500D02*
D03*
X483500Y507000D02*
D03*
X519000Y522500D02*
D03*
X522000Y533000D02*
D03*
X483500Y499500D02*
D03*
X573051Y532437D02*
D03*
X555551Y493937D02*
D03*
X530794Y496260D02*
D03*
X538000Y453126D02*
D03*
X454500Y278000D02*
D03*
X503878Y249850D02*
D03*
X426000Y215000D02*
D03*
X344664Y237364D02*
D03*
X329500Y250000D02*
D03*
X202000Y294500D02*
D03*
X247000Y158000D02*
D03*
X290500Y159000D02*
D03*
X301500Y184000D02*
D03*
X294500D02*
D03*
X402500Y310500D02*
D03*
X396937D02*
D03*
X565000Y124331D02*
D03*
X538500Y129000D02*
D03*
X447815Y255575D02*
D03*
X479500Y248939D02*
D03*
X364028Y282500D02*
D03*
X387874D02*
D03*
X412374D02*
D03*
X453000Y290302D02*
D03*
X282767Y291000D02*
D03*
X331136Y289739D02*
D03*
X234600Y290000D02*
D03*
X257367Y290500D02*
D03*
X505488Y289965D02*
D03*
X480320Y289551D02*
D03*
X436874Y282000D02*
D03*
X308000Y291000D02*
D03*
X514716Y328109D02*
D03*
X499168Y328105D02*
D03*
X520000Y367500D02*
D03*
X491000Y421488D02*
D03*
Y455780D02*
D03*
X480776Y393224D02*
D03*
X463000Y356500D02*
D03*
X615500Y308437D02*
D03*
X634000Y298500D02*
D03*
X617000D02*
D03*
X599000Y299500D02*
D03*
X582000Y299000D02*
D03*
X563158Y298500D02*
D03*
X545621Y297500D02*
D03*
X528000D02*
D03*
X498087Y391000D02*
D03*
X523500Y416169D02*
D03*
X532055Y406488D02*
D03*
X532224Y414988D02*
D03*
X524000Y422780D02*
D03*
X542500Y442126D02*
D03*
X568500Y330500D02*
D03*
X532268Y335843D02*
D03*
X630094Y326000D02*
D03*
X561668Y372213D02*
D03*
X578500Y376203D02*
D03*
X591500Y389500D02*
D03*
X640500Y441000D02*
D03*
X646634Y447063D02*
D03*
X640634Y447000D02*
D03*
X592000Y514500D02*
D03*
X384000Y558000D02*
D03*
X527528Y548000D02*
D03*
X592900Y574500D02*
D03*
X685500Y564500D02*
D03*
X461500Y565000D02*
D03*
X225953Y811000D02*
D03*
D153*
X469949Y812000D02*
D03*
X418386Y712000D02*
D03*
X406886D02*
D03*
X395386D02*
D03*
X421449Y757500D02*
D03*
X409949D02*
D03*
X398386D02*
D03*
X380449Y757000D02*
D03*
M02*
