G04*
G04 #@! TF.GenerationSoftware,Altium Limited,Altium Designer,18.1.11 (251)*
G04*
G04 Layer_Physical_Order=2*
G04 Layer_Color=32768*
%FSLAX25Y25*%
%MOIN*%
G70*
G01*
G75*
%ADD111C,0.15800*%
%ADD113C,0.15600*%
%ADD126C,0.08000*%
%ADD140C,0.04000*%
%ADD141C,0.07937*%
%ADD142C,0.11087*%
%ADD143C,0.10299*%
%ADD144C,0.09906*%
%ADD145C,0.10300*%
%ADD146C,0.11795*%
%ADD147C,0.16500*%
%ADD148C,0.07543*%
%ADD149C,0.09118*%
%ADD150C,0.13449*%
%ADD151C,0.14200*%
%ADD152C,0.05500*%
%ADD153C,0.06800*%
G36*
X1527026Y159402D02*
X1527070D01*
X1527176Y159391D01*
X1527292Y159374D01*
X1527414Y159346D01*
X1527547Y159313D01*
X1527675Y159268D01*
X1527681D01*
X1527692Y159263D01*
X1527708Y159257D01*
X1527731Y159246D01*
X1527792Y159213D01*
X1527869Y159174D01*
X1527953Y159119D01*
X1528041Y159052D01*
X1528125Y158980D01*
X1528202Y158891D01*
X1528214Y158880D01*
X1528236Y158847D01*
X1528269Y158797D01*
X1528313Y158724D01*
X1528358Y158636D01*
X1528408Y158525D01*
X1528458Y158403D01*
X1528496Y158264D01*
X1528036Y158142D01*
Y158147D01*
X1528030Y158153D01*
X1528025Y158170D01*
X1528019Y158192D01*
X1528002Y158242D01*
X1527980Y158308D01*
X1527947Y158386D01*
X1527908Y158458D01*
X1527869Y158536D01*
X1527819Y158602D01*
X1527814Y158608D01*
X1527797Y158630D01*
X1527764Y158658D01*
X1527725Y158697D01*
X1527675Y158741D01*
X1527608Y158786D01*
X1527536Y158830D01*
X1527453Y158869D01*
X1527442Y158874D01*
X1527414Y158886D01*
X1527364Y158902D01*
X1527298Y158924D01*
X1527220Y158941D01*
X1527131Y158958D01*
X1527031Y158969D01*
X1526926Y158974D01*
X1526865D01*
X1526837Y158969D01*
X1526804D01*
X1526721Y158963D01*
X1526626Y158947D01*
X1526521Y158930D01*
X1526421Y158902D01*
X1526321Y158863D01*
X1526310Y158858D01*
X1526276Y158847D01*
X1526232Y158819D01*
X1526177Y158791D01*
X1526110Y158747D01*
X1526038Y158702D01*
X1525971Y158647D01*
X1525910Y158586D01*
X1525905Y158580D01*
X1525883Y158558D01*
X1525855Y158519D01*
X1525821Y158475D01*
X1525783Y158419D01*
X1525744Y158353D01*
X1525705Y158281D01*
X1525666Y158203D01*
Y158197D01*
X1525660Y158186D01*
X1525655Y158170D01*
X1525644Y158142D01*
X1525633Y158108D01*
X1525622Y158070D01*
X1525605Y158025D01*
X1525594Y157975D01*
X1525566Y157859D01*
X1525544Y157726D01*
X1525527Y157587D01*
X1525522Y157431D01*
Y157426D01*
Y157409D01*
Y157381D01*
X1525527Y157348D01*
Y157304D01*
X1525533Y157248D01*
X1525538Y157193D01*
X1525544Y157132D01*
X1525566Y156993D01*
X1525594Y156849D01*
X1525638Y156704D01*
X1525694Y156566D01*
Y156560D01*
X1525705Y156549D01*
X1525710Y156532D01*
X1525727Y156510D01*
X1525766Y156449D01*
X1525827Y156371D01*
X1525899Y156288D01*
X1525988Y156205D01*
X1526093Y156127D01*
X1526210Y156055D01*
X1526215D01*
X1526227Y156050D01*
X1526243Y156038D01*
X1526271Y156027D01*
X1526299Y156016D01*
X1526338Y156005D01*
X1526426Y155972D01*
X1526537Y155944D01*
X1526659Y155916D01*
X1526793Y155894D01*
X1526931Y155888D01*
X1526987D01*
X1527020Y155894D01*
X1527054D01*
X1527137Y155905D01*
X1527237Y155916D01*
X1527342Y155938D01*
X1527459Y155972D01*
X1527575Y156011D01*
X1527581D01*
X1527592Y156016D01*
X1527603Y156022D01*
X1527625Y156033D01*
X1527686Y156061D01*
X1527753Y156094D01*
X1527831Y156133D01*
X1527914Y156177D01*
X1527991Y156227D01*
X1528058Y156282D01*
Y157004D01*
X1526926D01*
Y157459D01*
X1528558D01*
Y156033D01*
X1528552Y156027D01*
X1528541Y156022D01*
X1528519Y156005D01*
X1528491Y155983D01*
X1528458Y155961D01*
X1528419Y155933D01*
X1528369Y155900D01*
X1528319Y155866D01*
X1528202Y155794D01*
X1528069Y155717D01*
X1527930Y155644D01*
X1527781Y155583D01*
X1527775D01*
X1527764Y155578D01*
X1527742Y155572D01*
X1527714Y155561D01*
X1527675Y155550D01*
X1527631Y155533D01*
X1527581Y155522D01*
X1527531Y155511D01*
X1527409Y155483D01*
X1527270Y155456D01*
X1527120Y155439D01*
X1526965Y155433D01*
X1526909D01*
X1526870Y155439D01*
X1526820D01*
X1526759Y155445D01*
X1526693Y155456D01*
X1526621Y155461D01*
X1526460Y155494D01*
X1526288Y155533D01*
X1526110Y155594D01*
X1526021Y155628D01*
X1525932Y155672D01*
X1525927Y155678D01*
X1525910Y155683D01*
X1525888Y155700D01*
X1525855Y155717D01*
X1525816Y155744D01*
X1525777Y155772D01*
X1525672Y155850D01*
X1525560Y155949D01*
X1525444Y156072D01*
X1525333Y156210D01*
X1525233Y156371D01*
Y156377D01*
X1525222Y156394D01*
X1525211Y156416D01*
X1525194Y156455D01*
X1525178Y156493D01*
X1525161Y156549D01*
X1525139Y156604D01*
X1525117Y156671D01*
X1525094Y156743D01*
X1525072Y156826D01*
X1525056Y156910D01*
X1525039Y156999D01*
X1525011Y157193D01*
X1525000Y157398D01*
Y157404D01*
Y157426D01*
Y157454D01*
X1525006Y157492D01*
Y157542D01*
X1525011Y157603D01*
X1525022Y157665D01*
X1525028Y157737D01*
X1525044Y157814D01*
X1525056Y157898D01*
X1525100Y158075D01*
X1525155Y158258D01*
X1525233Y158441D01*
X1525239Y158447D01*
X1525244Y158464D01*
X1525255Y158486D01*
X1525278Y158519D01*
X1525300Y158564D01*
X1525327Y158608D01*
X1525405Y158713D01*
X1525500Y158835D01*
X1525616Y158952D01*
X1525749Y159069D01*
X1525827Y159119D01*
X1525905Y159169D01*
X1525910Y159174D01*
X1525927Y159180D01*
X1525949Y159191D01*
X1525982Y159207D01*
X1526027Y159224D01*
X1526077Y159246D01*
X1526132Y159268D01*
X1526199Y159291D01*
X1526271Y159313D01*
X1526349Y159329D01*
X1526432Y159352D01*
X1526521Y159368D01*
X1526715Y159396D01*
X1526815Y159407D01*
X1526992D01*
X1527026Y159402D01*
D02*
G37*
G36*
X1532326Y155500D02*
X1531799D01*
X1529790Y158514D01*
Y155500D01*
X1529301D01*
Y159341D01*
X1529823D01*
X1531838Y156321D01*
Y159341D01*
X1532326D01*
Y155500D01*
D02*
G37*
G36*
X1534757Y159335D02*
X1534868Y159329D01*
X1534979Y159318D01*
X1535090Y159302D01*
X1535184Y159285D01*
X1535190D01*
X1535201Y159280D01*
X1535217D01*
X1535240Y159268D01*
X1535301Y159252D01*
X1535378Y159224D01*
X1535467Y159185D01*
X1535562Y159135D01*
X1535656Y159080D01*
X1535745Y159008D01*
X1535750Y159002D01*
X1535756Y158996D01*
X1535773Y158980D01*
X1535795Y158963D01*
X1535850Y158908D01*
X1535917Y158830D01*
X1535989Y158736D01*
X1536067Y158625D01*
X1536139Y158497D01*
X1536200Y158353D01*
Y158347D01*
X1536205Y158336D01*
X1536217Y158314D01*
X1536222Y158281D01*
X1536239Y158242D01*
X1536250Y158197D01*
X1536261Y158147D01*
X1536278Y158086D01*
X1536294Y158025D01*
X1536305Y157953D01*
X1536333Y157798D01*
X1536350Y157626D01*
X1536355Y157437D01*
Y157431D01*
Y157420D01*
Y157393D01*
Y157365D01*
X1536350Y157326D01*
Y157281D01*
X1536344Y157176D01*
X1536327Y157054D01*
X1536311Y156926D01*
X1536283Y156793D01*
X1536250Y156660D01*
Y156654D01*
X1536244Y156643D01*
X1536239Y156627D01*
X1536233Y156604D01*
X1536211Y156543D01*
X1536178Y156466D01*
X1536144Y156377D01*
X1536100Y156288D01*
X1536045Y156194D01*
X1535989Y156105D01*
X1535983Y156094D01*
X1535961Y156066D01*
X1535928Y156027D01*
X1535884Y155977D01*
X1535834Y155922D01*
X1535773Y155866D01*
X1535711Y155805D01*
X1535639Y155755D01*
X1535628Y155750D01*
X1535606Y155733D01*
X1535567Y155711D01*
X1535512Y155683D01*
X1535445Y155650D01*
X1535367Y155622D01*
X1535279Y155589D01*
X1535179Y155561D01*
X1535168D01*
X1535151Y155555D01*
X1535134Y155550D01*
X1535079Y155544D01*
X1535001Y155533D01*
X1534912Y155522D01*
X1534807Y155511D01*
X1534690Y155506D01*
X1534563Y155500D01*
X1533181D01*
Y159341D01*
X1534657D01*
X1534757Y159335D01*
D02*
G37*
%LPC*%
G36*
X1534579Y158886D02*
X1533691D01*
Y155955D01*
X1534601D01*
X1534640Y155961D01*
X1534724Y155966D01*
X1534818Y155972D01*
X1534918Y155983D01*
X1535018Y156000D01*
X1535101Y156022D01*
X1535112Y156027D01*
X1535140Y156033D01*
X1535179Y156050D01*
X1535229Y156072D01*
X1535284Y156105D01*
X1535340Y156138D01*
X1535395Y156177D01*
X1535451Y156221D01*
X1535456Y156233D01*
X1535478Y156255D01*
X1535512Y156294D01*
X1535550Y156349D01*
X1535595Y156421D01*
X1535645Y156504D01*
X1535689Y156599D01*
X1535728Y156704D01*
Y156710D01*
X1535734Y156721D01*
X1535739Y156738D01*
X1535745Y156760D01*
X1535750Y156788D01*
X1535761Y156826D01*
X1535773Y156865D01*
X1535784Y156910D01*
X1535800Y157021D01*
X1535817Y157148D01*
X1535828Y157293D01*
X1535834Y157448D01*
Y157454D01*
Y157476D01*
Y157503D01*
X1535828Y157548D01*
Y157598D01*
X1535822Y157653D01*
X1535817Y157720D01*
X1535811Y157787D01*
X1535784Y157936D01*
X1535750Y158092D01*
X1535700Y158236D01*
X1535667Y158308D01*
X1535634Y158369D01*
Y158375D01*
X1535623Y158386D01*
X1535612Y158403D01*
X1535600Y158425D01*
X1535556Y158480D01*
X1535501Y158547D01*
X1535428Y158619D01*
X1535345Y158691D01*
X1535251Y158752D01*
X1535151Y158802D01*
X1535140Y158808D01*
X1535112Y158813D01*
X1535062Y158830D01*
X1534990Y158847D01*
X1534901Y158858D01*
X1534790Y158874D01*
X1534724Y158880D01*
X1534651D01*
X1534579Y158886D01*
D02*
G37*
%LPD*%
D111*
X315649Y79500D02*
D03*
X405049D02*
D03*
X511752D02*
D03*
X622500D02*
D03*
X679000Y330600D02*
D03*
X122500Y556500D02*
D03*
X121000Y142000D02*
D03*
X121500Y111700D02*
D03*
X120949Y190500D02*
D03*
Y209000D02*
D03*
X120563Y255000D02*
D03*
X120200Y300500D02*
D03*
Y319000D02*
D03*
X121500Y365100D02*
D03*
Y408412D02*
D03*
Y453624D02*
D03*
Y472124D02*
D03*
X122000Y518000D02*
D03*
X175323Y80200D02*
D03*
X234600Y79700D02*
D03*
X216100D02*
D03*
X274500Y80000D02*
D03*
X471500Y79000D02*
D03*
X453000D02*
D03*
X552500D02*
D03*
X582800Y79500D02*
D03*
X679000Y248500D02*
D03*
X678827Y111000D02*
D03*
X678327Y141300D02*
D03*
X678827Y207000D02*
D03*
Y188500D02*
D03*
X679000Y287449D02*
D03*
Y600500D02*
D03*
X119500Y937000D02*
D03*
D113*
X115500Y73500D02*
D03*
X684500D02*
D03*
X679500Y941000D02*
D03*
X148500Y939500D02*
D03*
D126*
X307149Y108300D02*
D03*
X319049D02*
D03*
X354449D02*
D03*
X342649D02*
D03*
X366249D02*
D03*
X330849D02*
D03*
Y96500D02*
D03*
X366249D02*
D03*
X342649D02*
D03*
X354449D02*
D03*
X319049D02*
D03*
X378249D02*
D03*
X378049Y108300D02*
D03*
X389849D02*
D03*
Y96500D02*
D03*
X307149D02*
D03*
X401649D02*
D03*
Y108300D02*
D03*
X511752D02*
D03*
X622500Y96500D02*
D03*
Y108300D02*
D03*
X650200Y336500D02*
D03*
Y324700D02*
D03*
X187100Y683700D02*
D03*
X175300D02*
D03*
X187100Y695500D02*
D03*
X198900D02*
D03*
Y683700D02*
D03*
X210700D02*
D03*
X210500Y695500D02*
D03*
X222500Y680000D02*
D03*
X163500D02*
D03*
X151300Y556500D02*
D03*
X138500Y151000D02*
D03*
Y139000D02*
D03*
Y127400D02*
D03*
Y115600D02*
D03*
Y103300D02*
D03*
X137949Y182100D02*
D03*
Y193900D02*
D03*
Y217500D02*
D03*
Y205700D02*
D03*
X149749Y217500D02*
D03*
X149363Y249100D02*
D03*
X137563D02*
D03*
Y260900D02*
D03*
X149000Y303900D02*
D03*
Y292100D02*
D03*
X137200D02*
D03*
Y303900D02*
D03*
Y327500D02*
D03*
Y315700D02*
D03*
X149000D02*
D03*
Y327500D02*
D03*
X150300Y371000D02*
D03*
Y359200D02*
D03*
Y414312D02*
D03*
Y402512D02*
D03*
Y457024D02*
D03*
X138500D02*
D03*
Y480624D02*
D03*
Y468824D02*
D03*
X150300D02*
D03*
Y480624D02*
D03*
X150800Y523900D02*
D03*
Y512100D02*
D03*
X175323Y97200D02*
D03*
Y109000D02*
D03*
X231200Y108500D02*
D03*
Y96700D02*
D03*
X207600D02*
D03*
X219400D02*
D03*
Y108500D02*
D03*
X207600D02*
D03*
X274500Y108800D02*
D03*
X468100Y107800D02*
D03*
X479900D02*
D03*
Y96000D02*
D03*
X444500D02*
D03*
X456300D02*
D03*
Y107800D02*
D03*
X444500D02*
D03*
X543500Y108300D02*
D03*
Y96500D02*
D03*
X555300Y108300D02*
D03*
X567100D02*
D03*
X591200D02*
D03*
X578900D02*
D03*
X650200Y248500D02*
D03*
X662000D02*
D03*
X661327Y102000D02*
D03*
Y114000D02*
D03*
Y125600D02*
D03*
Y137400D02*
D03*
Y149700D02*
D03*
X661827Y215400D02*
D03*
Y203600D02*
D03*
Y180000D02*
D03*
Y191800D02*
D03*
X650027Y180000D02*
D03*
X650200Y281549D02*
D03*
Y293349D02*
D03*
X662000D02*
D03*
Y281549D02*
D03*
X650200Y600500D02*
D03*
X119500Y908200D02*
D03*
Y920000D02*
D03*
D140*
X100000Y958500D02*
X347000D01*
X100000Y58500D02*
Y958500D01*
Y58500D02*
X700000D01*
Y958500D01*
X428500Y958500D02*
X700000Y958500D01*
X428500Y868500D02*
X428500Y958500D01*
X347000Y868500D02*
X428500Y868500D01*
X347000Y868500D02*
Y958500D01*
D141*
X180000Y220000D02*
D03*
X190000D02*
D03*
X258000Y366321D02*
D03*
X248000D02*
D03*
X174600Y366989D02*
D03*
X164600D02*
D03*
X635500Y596500D02*
D03*
Y606500D02*
D03*
X490000Y533000D02*
D03*
Y543000D02*
D03*
X502500Y533051D02*
D03*
Y543051D02*
D03*
X179439Y288500D02*
D03*
X189500Y300000D02*
D03*
X169000Y240500D02*
D03*
X201000Y239500D02*
D03*
X364000Y470000D02*
D03*
X337676Y469689D02*
D03*
X310630Y469352D02*
D03*
X325500Y308000D02*
D03*
X335500D02*
D03*
X635000Y254000D02*
D03*
Y264000D02*
D03*
X618445D02*
D03*
Y254000D02*
D03*
X601000Y254500D02*
D03*
Y264500D02*
D03*
X583551Y254500D02*
D03*
Y264500D02*
D03*
X565370Y254500D02*
D03*
Y264500D02*
D03*
X547500Y254500D02*
D03*
Y264500D02*
D03*
X529500Y254500D02*
D03*
Y264500D02*
D03*
X655000Y492760D02*
D03*
D142*
X566244Y595413D02*
D03*
Y704075D02*
D03*
D143*
X519000Y689114D02*
D03*
X239602Y740862D02*
D03*
X223067D02*
D03*
X239098Y828862D02*
D03*
X222563D02*
D03*
X563327Y831000D02*
D03*
X546791D02*
D03*
X563158Y742000D02*
D03*
X546622D02*
D03*
D144*
X519000Y602500D02*
D03*
X389000Y528000D02*
D03*
X249500Y692000D02*
D03*
X244500Y561728D02*
D03*
X257000Y530117D02*
D03*
D145*
X519500Y918500D02*
D03*
X558500D02*
D03*
X519500Y905000D02*
D03*
X558500D02*
D03*
X601728Y635500D02*
D03*
Y596500D02*
D03*
X588228D02*
D03*
Y635500D02*
D03*
X601500Y699000D02*
D03*
Y660000D02*
D03*
X588000D02*
D03*
Y699000D02*
D03*
X624000Y905000D02*
D03*
X585000D02*
D03*
Y918500D02*
D03*
X624000D02*
D03*
Y935000D02*
D03*
X585000D02*
D03*
Y948500D02*
D03*
X624000D02*
D03*
X558500Y935000D02*
D03*
X519500D02*
D03*
Y948500D02*
D03*
X558500D02*
D03*
X239500Y948000D02*
D03*
X278500D02*
D03*
Y934500D02*
D03*
X239500D02*
D03*
X239437Y916000D02*
D03*
X278437D02*
D03*
Y902500D02*
D03*
X239437D02*
D03*
X175437Y916000D02*
D03*
X214437D02*
D03*
Y902500D02*
D03*
X175437D02*
D03*
X175500Y948000D02*
D03*
X214500D02*
D03*
Y934500D02*
D03*
X175500D02*
D03*
D146*
X175539Y770299D02*
D03*
X163020D02*
D03*
X636020Y679500D02*
D03*
X623500Y650000D02*
D03*
Y679500D02*
D03*
X636020Y650000D02*
D03*
X636000Y770500D02*
D03*
X623480Y741000D02*
D03*
Y770500D02*
D03*
X636000Y741000D02*
D03*
X635803Y860000D02*
D03*
X623283Y830500D02*
D03*
Y860000D02*
D03*
X635803Y830500D02*
D03*
X175323Y859799D02*
D03*
X162803D02*
D03*
D147*
X111327Y722098D02*
D03*
Y789000D02*
D03*
X687713Y698201D02*
D03*
Y631299D02*
D03*
X687693Y789201D02*
D03*
Y722299D02*
D03*
X687496Y878701D02*
D03*
Y811799D02*
D03*
X111110Y811598D02*
D03*
Y878500D02*
D03*
D148*
X304500Y645000D02*
D03*
X314500D02*
D03*
X304500Y655000D02*
D03*
X314500D02*
D03*
X304500Y665000D02*
D03*
X314500D02*
D03*
X304500Y675000D02*
D03*
X314500D02*
D03*
X304500Y685000D02*
D03*
X314500D02*
D03*
X304500Y695000D02*
D03*
X314500D02*
D03*
X304500Y705000D02*
D03*
X314500D02*
D03*
X304500Y715000D02*
D03*
X314500D02*
D03*
X304500Y725000D02*
D03*
X314500D02*
D03*
X304500Y735000D02*
D03*
X314500D02*
D03*
X304500Y745000D02*
D03*
X314500D02*
D03*
X304500Y755000D02*
D03*
X314500D02*
D03*
X304500Y765000D02*
D03*
X314500D02*
D03*
X304500Y775000D02*
D03*
X314500D02*
D03*
X304500Y785000D02*
D03*
X314500D02*
D03*
X304500Y795000D02*
D03*
X314500D02*
D03*
X304500Y805000D02*
D03*
X314500D02*
D03*
X304500Y815000D02*
D03*
X314500D02*
D03*
X304500Y825000D02*
D03*
X314500D02*
D03*
X304500Y835000D02*
D03*
X314500D02*
D03*
X304500Y845000D02*
D03*
X314500D02*
D03*
X304500Y855000D02*
D03*
X314500D02*
D03*
X494500D02*
D03*
X484500D02*
D03*
X494500Y845000D02*
D03*
X484500D02*
D03*
X494500Y835000D02*
D03*
X484500D02*
D03*
X494500Y825000D02*
D03*
X484500D02*
D03*
X494500Y815000D02*
D03*
X484500D02*
D03*
X494500Y805000D02*
D03*
X484500D02*
D03*
X494500Y795000D02*
D03*
X484500D02*
D03*
X494500Y785000D02*
D03*
X484500D02*
D03*
X494500Y775000D02*
D03*
X484500D02*
D03*
X494500Y765000D02*
D03*
X484500D02*
D03*
X494500Y755000D02*
D03*
X484500D02*
D03*
X494500Y745000D02*
D03*
X484500D02*
D03*
X494500Y735000D02*
D03*
X484500D02*
D03*
X494500Y725000D02*
D03*
X484500D02*
D03*
X494500Y715000D02*
D03*
X484500D02*
D03*
X494500Y705000D02*
D03*
X484500D02*
D03*
X494500Y695000D02*
D03*
X484500D02*
D03*
X494500Y685000D02*
D03*
X484500D02*
D03*
X494500Y675000D02*
D03*
X484500D02*
D03*
X494500Y665000D02*
D03*
X484500D02*
D03*
D149*
X601780Y129528D02*
D03*
X631307D02*
D03*
X601780Y149213D02*
D03*
X631307D02*
D03*
X601780Y168898D02*
D03*
X631307D02*
D03*
Y227953D02*
D03*
X601780D02*
D03*
X551279Y129528D02*
D03*
X580807D02*
D03*
X551279Y149213D02*
D03*
X580807D02*
D03*
X551279Y168898D02*
D03*
X580807D02*
D03*
Y227953D02*
D03*
X551279D02*
D03*
X499780Y129575D02*
D03*
X529307D02*
D03*
X499780Y149260D02*
D03*
X529307D02*
D03*
X499780Y168945D02*
D03*
X529307D02*
D03*
Y228000D02*
D03*
X499780D02*
D03*
X447780Y129528D02*
D03*
X477307D02*
D03*
X447780Y149213D02*
D03*
X477307D02*
D03*
X447780Y168898D02*
D03*
X477307D02*
D03*
Y227953D02*
D03*
X447780D02*
D03*
X396472Y129500D02*
D03*
X426000D02*
D03*
X396472Y149185D02*
D03*
X426000D02*
D03*
X396472Y168870D02*
D03*
X426000D02*
D03*
Y227925D02*
D03*
X396472D02*
D03*
X344972Y149260D02*
D03*
X374500D02*
D03*
X344972Y168945D02*
D03*
X374500D02*
D03*
Y228000D02*
D03*
X344972D02*
D03*
D150*
X199445Y740862D02*
D03*
Y727870D02*
D03*
X198941Y828862D02*
D03*
Y815870D02*
D03*
X523169Y831000D02*
D03*
Y818008D02*
D03*
X523000Y742000D02*
D03*
Y729008D02*
D03*
D151*
X262437Y732201D02*
D03*
X251807Y788500D02*
D03*
X208500D02*
D03*
X261933Y820201D02*
D03*
X251303Y876500D02*
D03*
X207996D02*
D03*
X586161Y822339D02*
D03*
X575531Y878638D02*
D03*
X532224D02*
D03*
X585992Y733339D02*
D03*
X575362Y789638D02*
D03*
X532055D02*
D03*
D152*
X325000Y329000D02*
D03*
X449500Y412813D02*
D03*
Y419878D02*
D03*
Y426950D02*
D03*
X568000Y317500D02*
D03*
X601728Y356887D02*
D03*
X175000Y184000D02*
D03*
X185500Y180000D02*
D03*
X195000Y179500D02*
D03*
X169000Y182000D02*
D03*
X161500Y189500D02*
D03*
X241935Y722935D02*
D03*
X238370Y726500D02*
D03*
X245370Y719870D02*
D03*
X235435Y729435D02*
D03*
X277000Y661500D02*
D03*
X269500Y613000D02*
D03*
X585500Y310500D02*
D03*
X563158Y320500D02*
D03*
X497000Y398000D02*
D03*
X392705Y432205D02*
D03*
X385500Y432500D02*
D03*
X390500Y366000D02*
D03*
X381449D02*
D03*
X407814Y470500D02*
D03*
X595752Y122000D02*
D03*
X506000Y118500D02*
D03*
X436874Y117000D02*
D03*
X575531Y587716D02*
D03*
X230700Y665500D02*
D03*
X216500Y669500D02*
D03*
X205000Y674000D02*
D03*
X321000Y650500D02*
D03*
X322500Y670000D02*
D03*
X288500Y713500D02*
D03*
X493500Y628000D02*
D03*
X453500Y627000D02*
D03*
X415500Y647000D02*
D03*
X379500D02*
D03*
X207996Y524000D02*
D03*
X416500Y342500D02*
D03*
X329500Y368500D02*
D03*
X217080Y493113D02*
D03*
X209000Y509500D02*
D03*
X114500Y382500D02*
D03*
X113222Y339722D02*
D03*
X111500Y392000D02*
D03*
X104500Y186000D02*
D03*
X522000Y83000D02*
D03*
X528327Y71673D02*
D03*
X444100Y86600D02*
D03*
X490500Y102500D02*
D03*
X633000Y71500D02*
D03*
X528000Y91500D02*
D03*
X206500Y176500D02*
D03*
X212000Y159000D02*
D03*
X200080Y171000D02*
D03*
X199000Y191748D02*
D03*
X222563Y204000D02*
D03*
X162000Y202500D02*
D03*
X359914Y83000D02*
D03*
X284000Y93500D02*
D03*
X360000Y89500D02*
D03*
X296250Y92250D02*
D03*
X341831Y69500D02*
D03*
X674000Y318000D02*
D03*
X662000Y223500D02*
D03*
X644500Y258500D02*
D03*
X650027Y265473D02*
D03*
X689500Y314000D02*
D03*
X601390Y538857D02*
D03*
X580890D02*
D03*
X591618Y539000D02*
D03*
X606500Y352500D02*
D03*
Y360500D02*
D03*
X597000Y352568D02*
D03*
X596500Y360500D02*
D03*
X666000Y381878D02*
D03*
X621232Y385378D02*
D03*
X600772Y441811D02*
D03*
X602925Y413563D02*
D03*
X575362Y401500D02*
D03*
X596228Y544437D02*
D03*
Y553437D02*
D03*
Y562500D02*
D03*
X131500Y225500D02*
D03*
X630000Y319500D02*
D03*
X402500Y282500D02*
D03*
X452500Y508996D02*
D03*
X510000Y176500D02*
D03*
X560252Y199500D02*
D03*
X429000Y283000D02*
D03*
X378200Y285500D02*
D03*
X375500Y443057D02*
D03*
X106000Y199500D02*
D03*
X115000D02*
D03*
X141500Y347500D02*
D03*
X291000Y353000D02*
D03*
X446000Y621500D02*
D03*
X400500Y356887D02*
D03*
X463000Y265500D02*
D03*
X469278Y787500D02*
D03*
X409000Y407500D02*
D03*
X490000Y322850D02*
D03*
X449000Y323500D02*
D03*
X461000Y331500D02*
D03*
X445500Y349000D02*
D03*
X586890Y544500D02*
D03*
X575728D02*
D03*
X429500Y249100D02*
D03*
X380000Y249287D02*
D03*
X356500Y248939D02*
D03*
X328878Y241878D02*
D03*
X367000Y308000D02*
D03*
X147000Y922000D02*
D03*
X315000Y456463D02*
D03*
X358000Y545551D02*
D03*
Y558456D02*
D03*
X366000Y546283D02*
D03*
X366200Y557000D02*
D03*
X558000Y519000D02*
D03*
X506216Y587716D02*
D03*
X427500Y496563D02*
D03*
X452500Y528000D02*
D03*
X372500Y456551D02*
D03*
X335109Y182600D02*
D03*
X183500Y197500D02*
D03*
X173000Y119500D02*
D03*
X166500D02*
D03*
X173000Y126571D02*
D03*
X166500D02*
D03*
X425500Y626500D02*
D03*
X653500Y473000D02*
D03*
X632000Y442807D02*
D03*
X482000Y203500D02*
D03*
X491000Y200500D02*
D03*
X408500Y345387D02*
D03*
X377000Y337000D02*
D03*
X172500Y251500D02*
D03*
X591728Y549000D02*
D03*
X581228D02*
D03*
X586728Y553500D02*
D03*
X575728D02*
D03*
X591728Y558000D02*
D03*
X581228D02*
D03*
X586728Y562500D02*
D03*
X575728D02*
D03*
X451500Y492000D02*
D03*
X477284Y523900D02*
D03*
X349803Y446697D02*
D03*
X330000Y356500D02*
D03*
X326500Y337500D02*
D03*
X469000Y384340D02*
D03*
X528000Y323000D02*
D03*
X573500Y321500D02*
D03*
X522000Y323000D02*
D03*
X494000Y318850D02*
D03*
X580000Y315700D02*
D03*
X573500Y315500D02*
D03*
X580000Y322500D02*
D03*
X493000Y327500D02*
D03*
X486216Y339609D02*
D03*
X550000Y329500D02*
D03*
X493500Y373000D02*
D03*
X493000Y361500D02*
D03*
X445500Y355000D02*
D03*
X467000Y232000D02*
D03*
Y255000D02*
D03*
X423000Y258000D02*
D03*
Y275000D02*
D03*
X442000Y274500D02*
D03*
Y255000D02*
D03*
X454500Y254000D02*
D03*
X432000Y256500D02*
D03*
X234000Y261500D02*
D03*
X233000Y252000D02*
D03*
X320000Y261000D02*
D03*
X453000Y378437D02*
D03*
X479500Y415500D02*
D03*
X474500Y424000D02*
D03*
X401600Y407924D02*
D03*
X392500Y408012D02*
D03*
X379500Y415512D02*
D03*
X461500Y345000D02*
D03*
X462500Y363000D02*
D03*
X294000Y313000D02*
D03*
X423500Y312500D02*
D03*
Y235500D02*
D03*
X410000Y218500D02*
D03*
X396472Y214500D02*
D03*
X420000Y101000D02*
D03*
X695000Y566500D02*
D03*
X375500Y401000D02*
D03*
X454000Y616000D02*
D03*
X493000Y621500D02*
D03*
X493602Y616000D02*
D03*
X315100Y448550D02*
D03*
X279000Y450000D02*
D03*
X244059Y449590D02*
D03*
X171740Y154000D02*
D03*
X165500D02*
D03*
X172039Y148000D02*
D03*
X165539D02*
D03*
X172000Y134500D02*
D03*
X165539D02*
D03*
Y141500D02*
D03*
X172000D02*
D03*
X123000Y353000D02*
D03*
X136500Y351500D02*
D03*
X322000Y661000D02*
D03*
X499000Y569000D02*
D03*
X494000Y564000D02*
D03*
X489000Y569000D02*
D03*
X484500Y564000D02*
D03*
X321000Y413563D02*
D03*
X407000Y432500D02*
D03*
X416000Y369787D02*
D03*
X111500Y743500D02*
D03*
X429000Y82000D02*
D03*
X435000Y389000D02*
D03*
Y394878D02*
D03*
X454500Y384500D02*
D03*
X485000Y268000D02*
D03*
X471000Y261500D02*
D03*
X480000Y273000D02*
D03*
X175490Y279051D02*
D03*
X430500Y444000D02*
D03*
Y436000D02*
D03*
X429500Y429000D02*
D03*
X282000Y407050D02*
D03*
X244000Y406666D02*
D03*
X207600Y406550D02*
D03*
X280000Y457550D02*
D03*
X244000D02*
D03*
X206500Y451550D02*
D03*
X342600Y410943D02*
D03*
X367000Y396827D02*
D03*
X367500Y377000D02*
D03*
X262439Y322850D02*
D03*
X179439Y323850D02*
D03*
X518500Y176500D02*
D03*
X493500Y517000D02*
D03*
X483500Y507000D02*
D03*
X519000Y522500D02*
D03*
X522000Y533000D02*
D03*
X483500Y499500D02*
D03*
X583551Y505437D02*
D03*
X545621Y502000D02*
D03*
X454500Y278000D02*
D03*
X426000Y215000D02*
D03*
X344664Y237364D02*
D03*
X402500Y310500D02*
D03*
X396937D02*
D03*
X565000Y124331D02*
D03*
X538500Y129000D02*
D03*
X600000Y320000D02*
D03*
X593425D02*
D03*
X599760Y326000D02*
D03*
X593500D02*
D03*
X506563Y328500D02*
D03*
X514716Y328109D02*
D03*
X499168Y328105D02*
D03*
X506500Y381000D02*
D03*
X541500Y379000D02*
D03*
X553539Y433000D02*
D03*
X558500D02*
D03*
X553520Y427020D02*
D03*
X507614Y443057D02*
D03*
X480776Y393224D02*
D03*
X609500Y311500D02*
D03*
X523500Y416169D02*
D03*
X532055Y406488D02*
D03*
X532224Y414988D02*
D03*
X524000Y422780D02*
D03*
X533626Y442038D02*
D03*
X550522Y346500D02*
D03*
X558500Y427020D02*
D03*
Y438713D02*
D03*
X553539Y438500D02*
D03*
X630000Y498900D02*
D03*
X527528Y548000D02*
D03*
X592900Y574500D02*
D03*
X685500Y564500D02*
D03*
X225953Y811000D02*
D03*
D153*
X469949Y812000D02*
D03*
X418386Y712000D02*
D03*
X406886D02*
D03*
X395386D02*
D03*
X421449Y757500D02*
D03*
X409949D02*
D03*
X398386D02*
D03*
M02*
