G04*
G04 #@! TF.GenerationSoftware,Altium Limited,Altium Designer,21.2.0 (30)*
G04*
G04 Layer_Color=8388736*
%FSLAX25Y25*%
%MOIN*%
G70*
G04*
G04 #@! TF.SameCoordinates,089E0905-415C-403D-8C52-DB91437206DE*
G04*
G04*
G04 #@! TF.FilePolarity,Negative*
G04*
G01*
G75*
%ADD10C,0.01000*%
%ADD39R,0.09000X0.02400*%
%ADD63C,0.03800*%
%ADD64R,0.06509X0.07690*%
%ADD65R,0.04934X0.06312*%
%ADD66R,0.04343X0.06115*%
%ADD67R,0.06312X0.04934*%
%ADD68C,0.08674*%
%ADD69R,0.15761X0.22453*%
%ADD70R,0.06115X0.04343*%
%ADD71R,0.07887X0.06509*%
%ADD72R,0.22847X0.13398*%
%ADD73R,0.04540X0.03162*%
%ADD74R,0.11430X0.07493*%
%ADD75R,0.03162X0.06509*%
%ADD76R,0.06509X0.07887*%
%ADD77R,0.04540X0.04343*%
%ADD78R,0.20485X0.20485*%
%ADD79R,0.07690X0.06509*%
%ADD80R,0.06706X0.02572*%
%ADD81R,0.04343X0.04540*%
%ADD82R,0.06902X0.03359*%
%ADD83R,0.07808X0.02454*%
%ADD84R,0.09698X0.11824*%
%ADD85R,0.06509X0.03162*%
%ADD86R,0.11824X0.09698*%
%ADD87R,0.10249X0.13595*%
%ADD88R,0.17335X0.13398*%
%ADD89R,0.03359X0.04343*%
%ADD90R,0.04343X0.03359*%
%ADD91R,0.05524X0.12611*%
%ADD92R,0.25406X0.29147*%
%ADD93R,0.09068X0.10052*%
%ADD94O,0.09068X0.10052*%
%ADD95R,0.22060X0.24422*%
%ADD96R,0.05721X0.07099*%
%ADD97R,0.03950X0.05524*%
%ADD98O,0.08280X0.03162*%
%ADD99R,0.10249X0.06902*%
%ADD100R,0.08674X0.12611*%
%ADD101R,0.04737X0.02769*%
%ADD102R,0.08871X0.07099*%
%ADD103R,0.20879X0.14580*%
%ADD104R,0.20485X0.20485*%
%ADD105R,0.08832X0.05328*%
%ADD106C,0.06706*%
%ADD107R,0.06706X0.06706*%
%ADD108C,0.07887*%
%ADD109C,0.10249*%
%ADD110C,0.08800*%
%ADD111C,0.12611*%
%ADD112C,0.10958*%
%ADD113C,0.15800*%
%ADD114C,0.07800*%
%ADD115C,0.15600*%
%ADD116C,0.17729*%
%ADD117C,0.09855*%
%ADD118C,0.09461*%
%ADD119C,0.12200*%
%ADD120C,0.13398*%
%ADD121C,0.05800*%
D10*
X347000Y868500D02*
Y958500D01*
Y868500D02*
X428500D01*
Y958500D01*
X700000D01*
Y58500D02*
Y958500D01*
X100000Y58500D02*
X700000D01*
X100000D02*
Y958500D01*
X347000D01*
D39*
X470333Y312261D02*
D03*
Y317261D02*
D03*
Y322261D02*
D03*
Y327261D02*
D03*
Y332261D02*
D03*
Y337261D02*
D03*
Y342261D02*
D03*
Y347261D02*
D03*
Y352261D02*
D03*
Y357261D02*
D03*
Y362261D02*
D03*
Y367261D02*
D03*
Y372261D02*
D03*
Y377261D02*
D03*
X434333D02*
D03*
Y372261D02*
D03*
Y367261D02*
D03*
Y362261D02*
D03*
Y357261D02*
D03*
Y352261D02*
D03*
Y347261D02*
D03*
Y342261D02*
D03*
Y337261D02*
D03*
Y332261D02*
D03*
Y327261D02*
D03*
Y322261D02*
D03*
Y317261D02*
D03*
Y312261D02*
D03*
X421313Y389878D02*
D03*
Y394878D02*
D03*
Y399878D02*
D03*
Y404878D02*
D03*
Y409878D02*
D03*
Y414878D02*
D03*
Y419878D02*
D03*
Y424878D02*
D03*
Y429878D02*
D03*
Y434878D02*
D03*
Y439878D02*
D03*
Y444878D02*
D03*
Y449878D02*
D03*
Y454878D02*
D03*
X457313D02*
D03*
Y449878D02*
D03*
Y444878D02*
D03*
Y439878D02*
D03*
Y434878D02*
D03*
Y429878D02*
D03*
Y424878D02*
D03*
Y419878D02*
D03*
Y414878D02*
D03*
Y409878D02*
D03*
Y404878D02*
D03*
Y399878D02*
D03*
Y394878D02*
D03*
Y389878D02*
D03*
D63*
X348014Y359931D02*
D03*
X522000Y247500D02*
D03*
X588500Y525000D02*
D03*
X672500Y378437D02*
D03*
X180106Y479740D02*
D03*
X217488Y487500D02*
D03*
X615000Y590000D02*
D03*
X301495Y420000D02*
D03*
X403000Y290000D02*
D03*
X538228Y496500D02*
D03*
X514500Y369000D02*
D03*
X498996Y362303D02*
D03*
X519779Y332165D02*
D03*
X429000Y290402D02*
D03*
X378500Y291500D02*
D03*
X332024Y454032D02*
D03*
Y449031D02*
D03*
X333500Y442807D02*
D03*
X296000Y456591D02*
D03*
X185500Y454000D02*
D03*
X266291Y421500D02*
D03*
X230567Y419435D02*
D03*
X209683Y420000D02*
D03*
X260974Y409236D02*
D03*
X282000Y391000D02*
D03*
X222974Y409500D02*
D03*
X210000Y375500D02*
D03*
X245500Y385000D02*
D03*
X392000Y256500D02*
D03*
X368000Y260000D02*
D03*
X241000Y242378D02*
D03*
X436874Y241500D02*
D03*
X592500Y311000D02*
D03*
X640000Y346500D02*
D03*
X563500Y383500D02*
D03*
X587000Y424524D02*
D03*
X602925Y452000D02*
D03*
X678500Y495000D02*
D03*
X687693Y454500D02*
D03*
X641000Y489024D02*
D03*
X595000Y491000D02*
D03*
X646500Y473000D02*
D03*
X645500Y546000D02*
D03*
X366995Y296500D02*
D03*
X552260Y536500D02*
D03*
X526500Y441528D02*
D03*
X569307Y336989D02*
D03*
X505500Y949000D02*
D03*
X284000Y228800D02*
D03*
X416500Y260000D02*
D03*
X597000Y331500D02*
D03*
X558000Y422024D02*
D03*
X187000Y409000D02*
D03*
X223437Y457413D02*
D03*
X260500Y458500D02*
D03*
X665000Y582000D02*
D03*
X314579Y949000D02*
D03*
X626000Y596000D02*
D03*
X477900Y583100D02*
D03*
X507200Y574300D02*
D03*
X552500Y576800D02*
D03*
X589900Y577200D02*
D03*
X688600Y314000D02*
D03*
X691500Y91300D02*
D03*
X531000Y71300D02*
D03*
X418700Y70400D02*
D03*
X179800Y323800D02*
D03*
X262600Y322400D02*
D03*
X288500Y713500D02*
D03*
X325000Y329000D02*
D03*
X449500Y412813D02*
D03*
Y419878D02*
D03*
Y426950D02*
D03*
X568000Y317500D02*
D03*
X601728Y356887D02*
D03*
X175000Y184000D02*
D03*
X185500Y180000D02*
D03*
X195000Y179500D02*
D03*
X169000Y182000D02*
D03*
X161500Y189500D02*
D03*
X241935Y722935D02*
D03*
X238370Y726500D02*
D03*
X245370Y719870D02*
D03*
X235435Y729435D02*
D03*
X277000Y661500D02*
D03*
X269500Y613000D02*
D03*
X585500Y310500D02*
D03*
X563158Y320500D02*
D03*
X493500Y405000D02*
D03*
X497000Y398000D02*
D03*
X506760Y353437D02*
D03*
X392705Y432205D02*
D03*
X413000Y474000D02*
D03*
X416500Y459500D02*
D03*
X385500Y432500D02*
D03*
X390500Y366000D02*
D03*
X381449D02*
D03*
X404500Y397000D02*
D03*
X407814Y470500D02*
D03*
X595752Y122000D02*
D03*
X506000Y118500D02*
D03*
X436874Y117000D02*
D03*
X538668Y543051D02*
D03*
X230700Y665500D02*
D03*
X216500Y669500D02*
D03*
X205000Y674000D02*
D03*
X321000Y650500D02*
D03*
X322500Y670000D02*
D03*
X493500Y628000D02*
D03*
X453500Y627000D02*
D03*
X415500Y647000D02*
D03*
X379500D02*
D03*
X207996Y524000D02*
D03*
X416500Y342500D02*
D03*
X329500Y368500D02*
D03*
X217080Y493113D02*
D03*
X209000Y509500D02*
D03*
X192580Y491550D02*
D03*
X214740Y542000D02*
D03*
X182500Y539050D02*
D03*
X193500Y544550D02*
D03*
X402476Y485998D02*
D03*
X114500Y382500D02*
D03*
X113222Y339722D02*
D03*
X111500Y392000D02*
D03*
X104500Y186000D02*
D03*
X522000Y83000D02*
D03*
X444100Y86600D02*
D03*
X490500Y102500D02*
D03*
X633000Y71500D02*
D03*
X528000Y91500D02*
D03*
X206500Y176500D02*
D03*
X212000Y159000D02*
D03*
X200080Y171000D02*
D03*
X199000Y191748D02*
D03*
X222563Y204000D02*
D03*
X162000Y202500D02*
D03*
X198000Y248939D02*
D03*
X359914Y83000D02*
D03*
X284000Y93500D02*
D03*
X360000Y89500D02*
D03*
X296250Y92250D02*
D03*
X341831Y69500D02*
D03*
X674000Y318000D02*
D03*
X662000Y223500D02*
D03*
X644500Y258500D02*
D03*
X650027Y265473D02*
D03*
X641500Y373500D02*
D03*
X634500D02*
D03*
X601390Y538857D02*
D03*
X580890D02*
D03*
X591618Y539000D02*
D03*
X606500Y352500D02*
D03*
Y360500D02*
D03*
X613063Y352378D02*
D03*
X597000Y352568D02*
D03*
X596500Y360500D02*
D03*
X642000Y356000D02*
D03*
X635000D02*
D03*
X666000Y381878D02*
D03*
X621232Y385378D02*
D03*
X600772Y441811D02*
D03*
X602925Y413563D02*
D03*
X575362Y401500D02*
D03*
X575531Y408012D02*
D03*
X596228Y544437D02*
D03*
Y553437D02*
D03*
Y562500D02*
D03*
X131500Y225500D02*
D03*
X630000Y319500D02*
D03*
X402500Y282500D02*
D03*
X452500Y508996D02*
D03*
X510000Y176500D02*
D03*
X560252Y199500D02*
D03*
X429000Y283000D02*
D03*
X378200Y285500D02*
D03*
X375500Y443057D02*
D03*
X106000Y199500D02*
D03*
X115000D02*
D03*
X141500Y347500D02*
D03*
X291000Y353000D02*
D03*
X446000Y621500D02*
D03*
X400500Y356887D02*
D03*
X463000Y265500D02*
D03*
X469278Y787500D02*
D03*
X409000Y407500D02*
D03*
X490000Y322850D02*
D03*
X449000Y323500D02*
D03*
X461000Y331500D02*
D03*
X445500Y349000D02*
D03*
X586890Y544500D02*
D03*
X575728D02*
D03*
X514063Y576500D02*
D03*
X429500Y249100D02*
D03*
X380000Y249287D02*
D03*
X356500Y248939D02*
D03*
X328878Y241878D02*
D03*
X367000Y308000D02*
D03*
X147000Y922000D02*
D03*
X315000Y456463D02*
D03*
X358000Y545551D02*
D03*
Y558456D02*
D03*
X416000Y559000D02*
D03*
X366000Y546283D02*
D03*
X366200Y557000D02*
D03*
X351000Y558000D02*
D03*
X321229D02*
D03*
X558000Y519000D02*
D03*
X506216Y587716D02*
D03*
X594000Y497000D02*
D03*
X412500Y509500D02*
D03*
X427500Y496563D02*
D03*
X452500Y528000D02*
D03*
X388500Y464500D02*
D03*
X372500Y456551D02*
D03*
X335109Y182600D02*
D03*
X183500Y197500D02*
D03*
X173000Y119500D02*
D03*
X166500D02*
D03*
X173000Y126571D02*
D03*
X166500D02*
D03*
X425500Y626500D02*
D03*
X327000Y429500D02*
D03*
X653500Y473000D02*
D03*
X632000Y442807D02*
D03*
X482000Y203500D02*
D03*
X491000Y200500D02*
D03*
X408500Y345387D02*
D03*
X377000Y337000D02*
D03*
X342437Y326500D02*
D03*
X172500Y251500D02*
D03*
X591728Y549000D02*
D03*
X581228D02*
D03*
X586728Y553500D02*
D03*
X575728D02*
D03*
X591728Y558000D02*
D03*
X581228D02*
D03*
X586728Y562500D02*
D03*
X575728D02*
D03*
X451500Y492000D02*
D03*
X477284Y523900D02*
D03*
X349803Y446697D02*
D03*
X330000Y356500D02*
D03*
X326500Y337500D02*
D03*
X469000Y384340D02*
D03*
X528000Y323000D02*
D03*
X573500Y321500D02*
D03*
X522000Y323000D02*
D03*
X494000Y318850D02*
D03*
X580000Y315700D02*
D03*
X573500Y315500D02*
D03*
X580000Y322500D02*
D03*
X493000Y327500D02*
D03*
X486216Y339609D02*
D03*
X550000Y329500D02*
D03*
X493500Y373000D02*
D03*
X493000Y361500D02*
D03*
X486000Y347969D02*
D03*
X445500Y355000D02*
D03*
X467000Y232000D02*
D03*
Y255000D02*
D03*
X423000Y258000D02*
D03*
Y275000D02*
D03*
X442000Y274500D02*
D03*
Y255000D02*
D03*
X454500Y254000D02*
D03*
X432000Y256500D02*
D03*
X234000Y261500D02*
D03*
X233000Y252000D02*
D03*
X320000Y261000D02*
D03*
X453000Y378437D02*
D03*
X479500Y415500D02*
D03*
X474500Y424000D02*
D03*
Y430500D02*
D03*
X401600Y407924D02*
D03*
X392500Y408012D02*
D03*
X379500Y415512D02*
D03*
X461500Y345000D02*
D03*
X462500Y363000D02*
D03*
X294000Y313000D02*
D03*
X423500Y312500D02*
D03*
Y235500D02*
D03*
X410000Y218500D02*
D03*
X396472Y214500D02*
D03*
X420000Y101000D02*
D03*
X695000Y566500D02*
D03*
X686000Y553000D02*
D03*
X375500Y401000D02*
D03*
X381449Y397563D02*
D03*
X454000Y616000D02*
D03*
X493000Y621500D02*
D03*
X315100Y448550D02*
D03*
X279000Y450000D02*
D03*
X244059Y449590D02*
D03*
X171740Y154000D02*
D03*
X165500D02*
D03*
X172039Y148000D02*
D03*
X165539D02*
D03*
X172000Y134500D02*
D03*
X165539D02*
D03*
Y141500D02*
D03*
X172000D02*
D03*
X123000Y353000D02*
D03*
X136500Y351500D02*
D03*
X322000Y661000D02*
D03*
X499000Y569000D02*
D03*
X494000Y564000D02*
D03*
X489000Y569000D02*
D03*
X484500Y564000D02*
D03*
X434000Y565500D02*
D03*
X321000Y413563D02*
D03*
X407000Y432500D02*
D03*
X416000Y369787D02*
D03*
X111500Y743500D02*
D03*
X435000Y389000D02*
D03*
Y394878D02*
D03*
X454500Y384500D02*
D03*
X485000Y268000D02*
D03*
X471000Y261500D02*
D03*
X480000Y273000D02*
D03*
X201000Y258500D02*
D03*
X163890Y213051D02*
D03*
X175490Y279051D02*
D03*
X154500Y351300D02*
D03*
X430500Y444000D02*
D03*
Y436000D02*
D03*
X429500Y429000D02*
D03*
X282000Y407050D02*
D03*
X244000Y406666D02*
D03*
X207600Y406550D02*
D03*
X280000Y457550D02*
D03*
X244000D02*
D03*
X206500Y451550D02*
D03*
X282000Y426050D02*
D03*
X246500Y426626D02*
D03*
X211000D02*
D03*
X342600Y410943D02*
D03*
X366995Y406500D02*
D03*
X367000Y396827D02*
D03*
X367500Y383500D02*
D03*
Y377000D02*
D03*
Y368000D02*
D03*
X324262Y350850D02*
D03*
X314500Y322750D02*
D03*
X247000Y312350D02*
D03*
X231500Y323350D02*
D03*
X239541Y366350D02*
D03*
X276000Y335300D02*
D03*
X193500Y336800D02*
D03*
X244500Y326300D02*
D03*
X162500Y326800D02*
D03*
X186000Y424050D02*
D03*
X262500Y380291D02*
D03*
X225724Y380000D02*
D03*
X187500Y379000D02*
D03*
X518500Y176500D02*
D03*
X465000Y472500D02*
D03*
X477000Y517000D02*
D03*
X493500D02*
D03*
X483500Y507000D02*
D03*
X519000Y522500D02*
D03*
X522000Y533000D02*
D03*
X483500Y499500D02*
D03*
X573051Y532437D02*
D03*
X555551Y493937D02*
D03*
X583551Y505437D02*
D03*
X530794Y496260D02*
D03*
X545621Y502000D02*
D03*
X538000Y453126D02*
D03*
X454500Y278000D02*
D03*
X503878Y249850D02*
D03*
X426000Y215000D02*
D03*
X344664Y237364D02*
D03*
X329500Y250000D02*
D03*
X202000Y294500D02*
D03*
X247000Y158000D02*
D03*
X290500Y159000D02*
D03*
X301500Y184000D02*
D03*
X294500D02*
D03*
X402500Y310500D02*
D03*
X396937D02*
D03*
X565000Y124331D02*
D03*
X538500Y129000D02*
D03*
X447815Y255575D02*
D03*
X479500Y248939D02*
D03*
X364028Y282500D02*
D03*
X387874D02*
D03*
X412374D02*
D03*
X453000Y290302D02*
D03*
X282767Y291000D02*
D03*
X331136Y289739D02*
D03*
X234600Y290000D02*
D03*
X257367Y290500D02*
D03*
X505488Y289965D02*
D03*
X480320Y289551D02*
D03*
X436874Y282000D02*
D03*
X308000Y291000D02*
D03*
X600000Y320000D02*
D03*
X593425D02*
D03*
X599760Y326000D02*
D03*
X593500D02*
D03*
X506563Y328500D02*
D03*
X514716Y328109D02*
D03*
X499168Y328105D02*
D03*
X506500Y381000D02*
D03*
X541500Y379000D02*
D03*
X553539Y433000D02*
D03*
X558500D02*
D03*
X553520Y427020D02*
D03*
X520000Y367500D02*
D03*
X491000Y421488D02*
D03*
X507614Y443057D02*
D03*
X491000Y455780D02*
D03*
X480776Y393224D02*
D03*
X463000Y356500D02*
D03*
X615500Y308437D02*
D03*
X609500Y311500D02*
D03*
X634000Y298500D02*
D03*
X617000D02*
D03*
X599000Y299500D02*
D03*
X582000Y299000D02*
D03*
X563158Y298500D02*
D03*
X545621Y297500D02*
D03*
X528000D02*
D03*
X498087Y391000D02*
D03*
X523500Y416169D02*
D03*
X532055Y406488D02*
D03*
X532224Y414988D02*
D03*
X524000Y422780D02*
D03*
X542500Y442126D02*
D03*
X533626Y442038D02*
D03*
X568500Y330500D02*
D03*
X532268Y335843D02*
D03*
X630094Y326000D02*
D03*
X550522Y346500D02*
D03*
X561668Y372213D02*
D03*
X578500Y376203D02*
D03*
X591500Y389500D02*
D03*
X558500Y427020D02*
D03*
Y438713D02*
D03*
X553539Y438500D02*
D03*
X640500Y441000D02*
D03*
X646634Y447063D02*
D03*
X640634Y447000D02*
D03*
X592000Y514500D02*
D03*
X630000Y498900D02*
D03*
X384000Y558000D02*
D03*
X527528Y548000D02*
D03*
X685500Y564500D02*
D03*
X461500Y565000D02*
D03*
X225953Y811000D02*
D03*
D64*
X455512Y797000D02*
D03*
X444488D02*
D03*
X455362Y789000D02*
D03*
X444339D02*
D03*
X605488Y526500D02*
D03*
X616512D02*
D03*
X185488Y151500D02*
D03*
X196512D02*
D03*
X637012Y340000D02*
D03*
X625988D02*
D03*
X444315Y777000D02*
D03*
X455339D02*
D03*
Y767000D02*
D03*
X444315D02*
D03*
X565500Y420500D02*
D03*
X576524D02*
D03*
X659339Y574000D02*
D03*
X648315D02*
D03*
D65*
X295684Y425799D02*
D03*
X288204D02*
D03*
X307740Y323000D02*
D03*
X300260D02*
D03*
X185760Y324500D02*
D03*
X193240D02*
D03*
X268260Y322500D02*
D03*
X275740D02*
D03*
X514240Y363000D02*
D03*
X506760D02*
D03*
X331760Y333000D02*
D03*
X339240D02*
D03*
X364764Y458532D02*
D03*
X357283D02*
D03*
X260429Y426972D02*
D03*
X252949D02*
D03*
X224969Y425751D02*
D03*
X217488D02*
D03*
X223836Y323450D02*
D03*
X216356D02*
D03*
X323240Y357273D02*
D03*
X315760D02*
D03*
X188740Y278500D02*
D03*
X181260D02*
D03*
X214740Y291895D02*
D03*
X207260D02*
D03*
X214916Y276713D02*
D03*
X207436D02*
D03*
X214740Y250224D02*
D03*
X207260D02*
D03*
X164260Y220000D02*
D03*
X171740D02*
D03*
X628440Y309500D02*
D03*
X620960D02*
D03*
X552260Y501500D02*
D03*
X559740D02*
D03*
X570539Y369335D02*
D03*
X578020D02*
D03*
X553539Y365439D02*
D03*
X561020D02*
D03*
X548020Y336765D02*
D03*
X540539D02*
D03*
X562760Y389500D02*
D03*
X570240D02*
D03*
X599760Y497000D02*
D03*
X607240D02*
D03*
X530747Y504331D02*
D03*
X538228D02*
D03*
X200240Y510000D02*
D03*
X192760D02*
D03*
X345323Y332760D02*
D03*
X352803D02*
D03*
D66*
X342437Y390390D02*
D03*
X334563D02*
D03*
X342437Y397327D02*
D03*
X334563D02*
D03*
X342437Y404827D02*
D03*
X334563D02*
D03*
X362000Y397118D02*
D03*
X354126D02*
D03*
X361937Y390000D02*
D03*
X354063D02*
D03*
X156937Y914500D02*
D03*
X149063D02*
D03*
X613063Y358269D02*
D03*
X620937D02*
D03*
X656063Y355738D02*
D03*
X663937D02*
D03*
X266252Y449921D02*
D03*
X274126D02*
D03*
X230663Y450063D02*
D03*
X238537D02*
D03*
X230567Y457432D02*
D03*
X238441D02*
D03*
X473770Y508996D02*
D03*
X465896D02*
D03*
X473770Y501559D02*
D03*
X465896D02*
D03*
X473924Y492563D02*
D03*
X466050D02*
D03*
X473924Y484531D02*
D03*
X466050D02*
D03*
X467231Y454642D02*
D03*
X475105D02*
D03*
X467063Y446500D02*
D03*
X474937D02*
D03*
X467063Y462500D02*
D03*
X474937D02*
D03*
X467085Y437724D02*
D03*
X474959D02*
D03*
X534063Y384710D02*
D03*
X541937D02*
D03*
X533858Y392368D02*
D03*
X541732D02*
D03*
X528327Y399891D02*
D03*
X520453D02*
D03*
X528437Y384710D02*
D03*
X520563D02*
D03*
X528327Y392391D02*
D03*
X520453D02*
D03*
X511752Y398224D02*
D03*
X503878D02*
D03*
Y390724D02*
D03*
X511752D02*
D03*
X480369Y384273D02*
D03*
X488243D02*
D03*
X480320Y376588D02*
D03*
X488194D02*
D03*
X480063Y369000D02*
D03*
X487937D02*
D03*
X480063Y361626D02*
D03*
X487937D02*
D03*
X506980Y341067D02*
D03*
X514854D02*
D03*
Y334067D02*
D03*
X506980D02*
D03*
X491626Y341478D02*
D03*
X499500D02*
D03*
X499634Y333906D02*
D03*
X491760D02*
D03*
X353543Y296465D02*
D03*
X361417D02*
D03*
X353563Y303000D02*
D03*
X361437D02*
D03*
X314329Y407617D02*
D03*
X322203D02*
D03*
X314258Y400063D02*
D03*
X322132D02*
D03*
X314258Y392563D02*
D03*
X322132D02*
D03*
X308266Y407617D02*
D03*
X300392D02*
D03*
X308288Y400167D02*
D03*
X300414D02*
D03*
X308288Y392494D02*
D03*
X300414D02*
D03*
X301684Y456299D02*
D03*
X309558D02*
D03*
X301684Y448299D02*
D03*
X309558D02*
D03*
Y440799D02*
D03*
X301684D02*
D03*
X301621Y433299D02*
D03*
X309495D02*
D03*
X309369Y425799D02*
D03*
X301495D02*
D03*
X266252Y457421D02*
D03*
X274126D02*
D03*
Y442421D02*
D03*
X266252D02*
D03*
X266291Y434921D02*
D03*
X274165D02*
D03*
Y427421D02*
D03*
X266291D02*
D03*
X238681Y441881D02*
D03*
X230807D02*
D03*
X230744Y433881D02*
D03*
X238618D02*
D03*
X238441Y425759D02*
D03*
X230567D02*
D03*
X192075Y451557D02*
D03*
X199949D02*
D03*
X192063Y444058D02*
D03*
X199937D02*
D03*
X268063Y399305D02*
D03*
X275937D02*
D03*
X268063Y407305D02*
D03*
X275937D02*
D03*
X230063Y406568D02*
D03*
X237937D02*
D03*
X230063Y399068D02*
D03*
X237937D02*
D03*
X194004Y406389D02*
D03*
X201878D02*
D03*
X193831Y398389D02*
D03*
X201705D02*
D03*
X215437Y308000D02*
D03*
X207563D02*
D03*
X207063Y299894D02*
D03*
X214937D02*
D03*
X207176Y284213D02*
D03*
X215050D02*
D03*
X214937Y269930D02*
D03*
X207063D02*
D03*
X215000Y263430D02*
D03*
X207126D02*
D03*
X207063Y257000D02*
D03*
X214937D02*
D03*
X641882Y309500D02*
D03*
X634008D02*
D03*
X477152Y530117D02*
D03*
X469278D02*
D03*
X477215Y537857D02*
D03*
X469341D02*
D03*
X477284Y545551D02*
D03*
X469410D02*
D03*
X477284Y553051D02*
D03*
X469410D02*
D03*
X120563Y897000D02*
D03*
X128437D02*
D03*
X106563Y896500D02*
D03*
X114437D02*
D03*
X258437Y297563D02*
D03*
X250563D02*
D03*
X533921Y399868D02*
D03*
X541795D02*
D03*
X428063Y296740D02*
D03*
X435937D02*
D03*
X403752Y296909D02*
D03*
X411626D02*
D03*
X380063Y297425D02*
D03*
X387937D02*
D03*
X389063Y241878D02*
D03*
X396937D02*
D03*
X379874Y242000D02*
D03*
X372000D02*
D03*
X360437Y241500D02*
D03*
X352563D02*
D03*
X432437D02*
D03*
X424563D02*
D03*
X505648Y298000D02*
D03*
X497774D02*
D03*
X331073Y297762D02*
D03*
X323199D02*
D03*
X234374Y297787D02*
D03*
X226500D02*
D03*
X283300Y297500D02*
D03*
X275426D02*
D03*
X307937Y298000D02*
D03*
X300063D02*
D03*
X480776Y296740D02*
D03*
X472902D02*
D03*
X452965Y297362D02*
D03*
X445090D02*
D03*
X570563Y344500D02*
D03*
X578437D02*
D03*
X570563Y353923D02*
D03*
X578437D02*
D03*
X578217Y361835D02*
D03*
X570342D02*
D03*
X676937Y355738D02*
D03*
X669063D02*
D03*
X539843Y365439D02*
D03*
X547717D02*
D03*
X632377Y449587D02*
D03*
X624503D02*
D03*
X576870Y389500D02*
D03*
X584744D02*
D03*
X606063Y441811D02*
D03*
X613937D02*
D03*
X607279Y449347D02*
D03*
X615154D02*
D03*
X613063Y497000D02*
D03*
X620937D02*
D03*
X530794Y520850D02*
D03*
X538668D02*
D03*
X552330Y530559D02*
D03*
X544456D02*
D03*
X538424Y511862D02*
D03*
X530550D02*
D03*
X557550Y530413D02*
D03*
X565424D02*
D03*
X538668Y528350D02*
D03*
X530794D02*
D03*
D67*
X352414Y383683D02*
D03*
Y376203D02*
D03*
X359914Y383683D02*
D03*
Y376203D02*
D03*
X360040Y370287D02*
D03*
Y362807D02*
D03*
X352395Y370287D02*
D03*
Y362807D02*
D03*
X603500Y374740D02*
D03*
Y367260D02*
D03*
X610500Y374740D02*
D03*
Y367260D02*
D03*
X608437Y393657D02*
D03*
Y401137D02*
D03*
X616000Y393657D02*
D03*
Y401137D02*
D03*
X627000Y385240D02*
D03*
Y377760D02*
D03*
X413000Y503740D02*
D03*
Y496260D02*
D03*
X409236Y490240D02*
D03*
Y482760D02*
D03*
X470000Y523240D02*
D03*
Y515760D02*
D03*
X468231Y423260D02*
D03*
Y430740D02*
D03*
X491000Y435950D02*
D03*
Y428470D02*
D03*
X508000Y426950D02*
D03*
Y419470D02*
D03*
X500437Y426950D02*
D03*
Y419470D02*
D03*
X507988Y412464D02*
D03*
Y404984D02*
D03*
X500500Y412464D02*
D03*
Y404984D02*
D03*
X491563Y355646D02*
D03*
Y348165D02*
D03*
X480500Y347109D02*
D03*
Y354590D02*
D03*
X333524Y437272D02*
D03*
Y429791D02*
D03*
X200080Y437397D02*
D03*
Y429917D02*
D03*
X276000Y392545D02*
D03*
Y385065D02*
D03*
X238500Y391809D02*
D03*
Y384328D02*
D03*
X201941Y391491D02*
D03*
Y384011D02*
D03*
X316584Y350554D02*
D03*
Y343074D02*
D03*
Y337554D02*
D03*
Y330074D02*
D03*
X233000Y339740D02*
D03*
Y332260D02*
D03*
Y353240D02*
D03*
Y345760D02*
D03*
Y366240D02*
D03*
Y358760D02*
D03*
X170500Y263240D02*
D03*
Y255760D02*
D03*
X609500Y478284D02*
D03*
Y485765D02*
D03*
X491000Y441970D02*
D03*
Y449450D02*
D03*
X233000Y304760D02*
D03*
Y312240D02*
D03*
X611500Y324240D02*
D03*
Y316760D02*
D03*
X664000Y369653D02*
D03*
Y362173D02*
D03*
X656500Y362172D02*
D03*
Y369653D02*
D03*
X591618Y402240D02*
D03*
Y394760D02*
D03*
X641465Y432265D02*
D03*
Y424784D02*
D03*
X630094Y505260D02*
D03*
Y512740D02*
D03*
X189000Y520760D02*
D03*
Y528240D02*
D03*
X209683Y480791D02*
D03*
Y488272D02*
D03*
D68*
X658000Y936000D02*
D03*
X133000Y66500D02*
D03*
X668500Y66000D02*
D03*
D69*
X173299Y585500D02*
D03*
X210701D02*
D03*
D70*
X209683Y501937D02*
D03*
Y494063D02*
D03*
X185760Y164933D02*
D03*
Y172807D02*
D03*
X193500Y164933D02*
D03*
Y172807D02*
D03*
X169000Y164961D02*
D03*
Y172835D02*
D03*
X177000Y164933D02*
D03*
Y172807D02*
D03*
X642500Y83437D02*
D03*
Y75563D02*
D03*
X671500Y361976D02*
D03*
Y369850D02*
D03*
X181000Y520563D02*
D03*
Y528437D02*
D03*
X198760Y520563D02*
D03*
Y528437D02*
D03*
X207000Y541937D02*
D03*
Y534063D02*
D03*
X532224Y341720D02*
D03*
Y349594D02*
D03*
X396000Y470063D02*
D03*
Y477937D02*
D03*
X402476D02*
D03*
Y470063D02*
D03*
X321769Y470827D02*
D03*
Y462953D02*
D03*
X469527Y418039D02*
D03*
Y410165D02*
D03*
X514063Y347969D02*
D03*
Y355842D02*
D03*
X499063Y347969D02*
D03*
Y355842D02*
D03*
X347000Y295563D02*
D03*
Y303437D02*
D03*
X409069Y376411D02*
D03*
Y368537D02*
D03*
X401569Y376411D02*
D03*
Y368537D02*
D03*
X390569Y378411D02*
D03*
Y370537D02*
D03*
X381449Y378437D02*
D03*
Y370563D02*
D03*
X409236Y389937D02*
D03*
Y382063D02*
D03*
X401500Y389937D02*
D03*
Y382063D02*
D03*
X390569Y391780D02*
D03*
Y383906D02*
D03*
X381500Y391937D02*
D03*
Y384063D02*
D03*
X409000Y413551D02*
D03*
Y421425D02*
D03*
X401600Y413563D02*
D03*
Y421437D02*
D03*
X394000Y413551D02*
D03*
Y421425D02*
D03*
X386500Y413551D02*
D03*
Y421425D02*
D03*
X408000Y445437D02*
D03*
Y437563D02*
D03*
X401500Y445437D02*
D03*
Y437563D02*
D03*
X392705Y445870D02*
D03*
Y437996D02*
D03*
X385313Y445732D02*
D03*
Y437858D02*
D03*
X409000Y458937D02*
D03*
Y451063D02*
D03*
X401500Y458937D02*
D03*
Y451063D02*
D03*
X392705Y459512D02*
D03*
Y451638D02*
D03*
X385500Y459500D02*
D03*
Y451626D02*
D03*
X192580Y429720D02*
D03*
Y437594D02*
D03*
X268626Y384868D02*
D03*
Y392742D02*
D03*
X231000Y384132D02*
D03*
Y392005D02*
D03*
X193941Y383889D02*
D03*
Y391763D02*
D03*
X225579Y304563D02*
D03*
Y312437D02*
D03*
X651000Y83437D02*
D03*
Y75563D02*
D03*
X543000Y436425D02*
D03*
Y428551D02*
D03*
X535772Y428773D02*
D03*
Y436647D02*
D03*
X528047Y428773D02*
D03*
Y436647D02*
D03*
X240500Y312437D02*
D03*
Y304563D02*
D03*
X575251Y513350D02*
D03*
Y505476D02*
D03*
X575487Y526937D02*
D03*
Y519063D02*
D03*
X374000Y461063D02*
D03*
Y468937D02*
D03*
X464827Y775063D02*
D03*
Y782937D02*
D03*
X473327Y775063D02*
D03*
Y782937D02*
D03*
Y795563D02*
D03*
Y803437D02*
D03*
X465354Y795563D02*
D03*
Y803437D02*
D03*
X421564Y295941D02*
D03*
Y303815D02*
D03*
X396937Y296063D02*
D03*
Y303937D02*
D03*
X373303Y296425D02*
D03*
Y304299D02*
D03*
X630500Y285563D02*
D03*
Y293437D02*
D03*
X613000Y285563D02*
D03*
Y293437D02*
D03*
X595500Y286063D02*
D03*
Y293937D02*
D03*
X630500Y279937D02*
D03*
Y272063D02*
D03*
X613000Y279937D02*
D03*
Y272063D02*
D03*
X595500Y280437D02*
D03*
Y272563D02*
D03*
X578000Y280437D02*
D03*
Y272563D02*
D03*
X578500Y286063D02*
D03*
Y293937D02*
D03*
X559870Y286063D02*
D03*
Y293937D02*
D03*
Y280437D02*
D03*
Y272563D02*
D03*
X542028Y286063D02*
D03*
Y293937D02*
D03*
X542000Y280500D02*
D03*
Y272626D02*
D03*
X524000Y280437D02*
D03*
Y272563D02*
D03*
Y286063D02*
D03*
Y293937D02*
D03*
X637945Y272063D02*
D03*
Y279937D02*
D03*
X620500Y272063D02*
D03*
Y279937D02*
D03*
X603000Y272563D02*
D03*
Y280437D02*
D03*
X585500Y272563D02*
D03*
Y280437D02*
D03*
X567335Y272563D02*
D03*
Y280437D02*
D03*
X549500Y272563D02*
D03*
Y280437D02*
D03*
X531476Y272563D02*
D03*
Y280437D02*
D03*
X562760Y330130D02*
D03*
Y338004D02*
D03*
X555500D02*
D03*
Y330130D02*
D03*
X524780Y362360D02*
D03*
Y354486D02*
D03*
Y349360D02*
D03*
Y341486D02*
D03*
X532279Y354486D02*
D03*
Y362360D02*
D03*
X347774Y461756D02*
D03*
Y469630D02*
D03*
X678827Y560937D02*
D03*
Y553063D02*
D03*
X670327Y575437D02*
D03*
Y567563D02*
D03*
X543600Y560637D02*
D03*
Y552763D02*
D03*
X514063Y562063D02*
D03*
Y569937D02*
D03*
X559100Y560437D02*
D03*
Y552563D02*
D03*
X551400Y560437D02*
D03*
Y552563D02*
D03*
X678827Y575437D02*
D03*
Y567563D02*
D03*
X575251Y583637D02*
D03*
Y575763D02*
D03*
X375500Y562563D02*
D03*
Y570437D02*
D03*
X402500Y563063D02*
D03*
Y570937D02*
D03*
X341500Y564063D02*
D03*
Y571937D02*
D03*
X312500Y564563D02*
D03*
Y572437D02*
D03*
D71*
X624000Y404409D02*
D03*
Y393385D02*
D03*
X632500Y404409D02*
D03*
Y393385D02*
D03*
X641500Y404632D02*
D03*
Y393609D02*
D03*
X565400Y584012D02*
D03*
Y572988D02*
D03*
X658000Y456013D02*
D03*
Y467036D02*
D03*
X648717Y456115D02*
D03*
Y467139D02*
D03*
X639217Y456115D02*
D03*
Y467139D02*
D03*
X618063Y376781D02*
D03*
Y365757D02*
D03*
X632681Y421013D02*
D03*
Y432036D02*
D03*
X621839Y420513D02*
D03*
Y431536D02*
D03*
X612339Y420513D02*
D03*
Y431536D02*
D03*
X602925Y420513D02*
D03*
Y431536D02*
D03*
X593425Y420513D02*
D03*
Y431536D02*
D03*
D72*
X672000Y393043D02*
D03*
Y438713D02*
D03*
D73*
X188057Y542213D02*
D03*
Y538472D02*
D03*
Y534732D02*
D03*
X198884Y542213D02*
D03*
Y538472D02*
D03*
Y534732D02*
D03*
D74*
X182874Y551500D02*
D03*
X167126D02*
D03*
X620126Y481524D02*
D03*
X635874D02*
D03*
X639126Y382769D02*
D03*
X654874D02*
D03*
D75*
X187606Y480512D02*
D03*
X192606D02*
D03*
X197606D02*
D03*
X202606D02*
D03*
X187606Y501968D02*
D03*
X192606D02*
D03*
X197606D02*
D03*
X202606D02*
D03*
X177500Y248575D02*
D03*
X182500D02*
D03*
X187500D02*
D03*
X192500D02*
D03*
X177500Y270425D02*
D03*
X182500D02*
D03*
X187500D02*
D03*
X192500D02*
D03*
D76*
X164488Y539500D02*
D03*
X175512D02*
D03*
X204957Y552000D02*
D03*
X193933D02*
D03*
D77*
X374329Y481699D02*
D03*
Y475597D02*
D03*
X321769Y475768D02*
D03*
Y481870D02*
D03*
X549500Y286949D02*
D03*
Y293051D02*
D03*
X567413Y287449D02*
D03*
Y293551D02*
D03*
X586000Y286949D02*
D03*
Y293051D02*
D03*
X603000Y286949D02*
D03*
Y293051D02*
D03*
X620500Y286449D02*
D03*
Y292551D02*
D03*
X637945Y286449D02*
D03*
Y292551D02*
D03*
X532055Y286449D02*
D03*
Y292551D02*
D03*
X670327Y561051D02*
D03*
Y554949D02*
D03*
X348274Y481240D02*
D03*
Y475138D02*
D03*
X139000Y917051D02*
D03*
Y910949D02*
D03*
D78*
X504500Y503929D02*
D03*
Y470071D02*
D03*
X225953Y125571D02*
D03*
Y159429D02*
D03*
X268500Y126071D02*
D03*
Y159929D02*
D03*
X311500Y126571D02*
D03*
Y160429D02*
D03*
X269500Y222429D02*
D03*
Y188571D02*
D03*
X226224Y222929D02*
D03*
Y189071D02*
D03*
D79*
X469341Y402613D02*
D03*
Y391590D02*
D03*
X180500Y240849D02*
D03*
Y229825D02*
D03*
X190500Y240849D02*
D03*
Y229825D02*
D03*
X328500Y183012D02*
D03*
Y171988D02*
D03*
X180106Y486228D02*
D03*
Y497252D02*
D03*
D80*
X539311Y405824D02*
D03*
Y408384D02*
D03*
Y410943D02*
D03*
Y413502D02*
D03*
Y416061D02*
D03*
Y418620D02*
D03*
Y421179D02*
D03*
Y423738D02*
D03*
X515689Y405824D02*
D03*
Y408384D02*
D03*
Y410943D02*
D03*
Y413502D02*
D03*
Y416061D02*
D03*
Y418620D02*
D03*
Y421179D02*
D03*
Y423738D02*
D03*
X321229Y382575D02*
D03*
Y380016D02*
D03*
Y377457D02*
D03*
Y374898D02*
D03*
Y372339D02*
D03*
Y369779D02*
D03*
Y367220D02*
D03*
Y364661D02*
D03*
X344851Y382575D02*
D03*
Y380016D02*
D03*
Y377457D02*
D03*
Y374898D02*
D03*
Y372339D02*
D03*
Y369779D02*
D03*
Y367220D02*
D03*
Y364661D02*
D03*
D81*
X354449Y309500D02*
D03*
X360551D02*
D03*
X428449Y303378D02*
D03*
X434551D02*
D03*
X404902Y304173D02*
D03*
X411004D02*
D03*
X380449Y304362D02*
D03*
X386551D02*
D03*
D82*
X357544Y339943D02*
D03*
Y344943D02*
D03*
Y349943D02*
D03*
Y354943D02*
D03*
X336284Y339943D02*
D03*
Y344943D02*
D03*
Y349943D02*
D03*
Y354943D02*
D03*
X499000Y448935D02*
D03*
Y443935D02*
D03*
Y438935D02*
D03*
Y433935D02*
D03*
X520260Y448935D02*
D03*
Y443935D02*
D03*
Y438935D02*
D03*
Y433935D02*
D03*
X566881Y508653D02*
D03*
Y513654D02*
D03*
Y518653D02*
D03*
Y523654D02*
D03*
X545621Y508653D02*
D03*
Y513654D02*
D03*
Y518653D02*
D03*
Y523654D02*
D03*
X541150Y358923D02*
D03*
Y353923D02*
D03*
Y348923D02*
D03*
Y343923D02*
D03*
X562409Y358923D02*
D03*
Y353923D02*
D03*
Y348923D02*
D03*
Y343923D02*
D03*
X630346Y456576D02*
D03*
Y461576D02*
D03*
Y466576D02*
D03*
Y471576D02*
D03*
X609087Y456576D02*
D03*
Y461576D02*
D03*
Y466576D02*
D03*
Y471576D02*
D03*
D83*
X341831Y452047D02*
D03*
Y449488D02*
D03*
Y446929D02*
D03*
Y444370D02*
D03*
Y441811D02*
D03*
Y439252D02*
D03*
Y436693D02*
D03*
Y434134D02*
D03*
Y431575D02*
D03*
Y429016D02*
D03*
X365217Y452047D02*
D03*
Y449488D02*
D03*
Y446929D02*
D03*
Y444370D02*
D03*
Y441811D02*
D03*
Y439252D02*
D03*
Y436693D02*
D03*
Y434134D02*
D03*
Y431575D02*
D03*
Y429016D02*
D03*
D84*
X290121Y448398D02*
D03*
Y435799D02*
D03*
X254189Y449272D02*
D03*
Y436673D02*
D03*
X218500Y448799D02*
D03*
Y436201D02*
D03*
X179000Y445392D02*
D03*
Y432794D02*
D03*
X179941Y399694D02*
D03*
Y387096D02*
D03*
X218000Y400468D02*
D03*
Y387869D02*
D03*
X255815Y400903D02*
D03*
Y388305D02*
D03*
X538000Y474799D02*
D03*
Y462201D02*
D03*
D85*
X269000Y365600D02*
D03*
Y360600D02*
D03*
Y355600D02*
D03*
Y350600D02*
D03*
Y345600D02*
D03*
Y340600D02*
D03*
Y335600D02*
D03*
Y330600D02*
D03*
X308567Y365600D02*
D03*
Y360600D02*
D03*
Y355600D02*
D03*
Y350600D02*
D03*
Y345600D02*
D03*
Y340600D02*
D03*
Y335600D02*
D03*
Y330600D02*
D03*
X185894Y366989D02*
D03*
Y361989D02*
D03*
Y356989D02*
D03*
Y351989D02*
D03*
Y346989D02*
D03*
Y341989D02*
D03*
Y336989D02*
D03*
Y331989D02*
D03*
X225461Y366989D02*
D03*
Y361989D02*
D03*
Y356989D02*
D03*
Y351989D02*
D03*
Y346989D02*
D03*
Y341989D02*
D03*
Y336989D02*
D03*
Y331989D02*
D03*
X648665Y357369D02*
D03*
Y362369D02*
D03*
Y367369D02*
D03*
Y372369D02*
D03*
X627209Y357369D02*
D03*
Y362369D02*
D03*
Y367369D02*
D03*
Y372369D02*
D03*
X562791Y412563D02*
D03*
Y407563D02*
D03*
Y402563D02*
D03*
Y397563D02*
D03*
X584248Y412563D02*
D03*
Y407563D02*
D03*
Y402563D02*
D03*
Y397563D02*
D03*
X600772Y519500D02*
D03*
Y514500D02*
D03*
Y509500D02*
D03*
Y504500D02*
D03*
X622228Y519500D02*
D03*
Y514500D02*
D03*
Y509500D02*
D03*
Y504500D02*
D03*
X619366Y332000D02*
D03*
Y327000D02*
D03*
Y322000D02*
D03*
Y317000D02*
D03*
X640823Y332000D02*
D03*
Y327000D02*
D03*
Y322000D02*
D03*
Y317000D02*
D03*
D86*
X245701Y334427D02*
D03*
X258299D02*
D03*
X246201Y352000D02*
D03*
X258799D02*
D03*
X163439Y334814D02*
D03*
X176037D02*
D03*
X163502Y352568D02*
D03*
X176100D02*
D03*
X683228Y466000D02*
D03*
X670630D02*
D03*
X683228Y483500D02*
D03*
X670630D02*
D03*
D87*
X198760Y137500D02*
D03*
X181240D02*
D03*
X198760Y122500D02*
D03*
X181240D02*
D03*
D88*
X367500Y757677D02*
D03*
Y642323D02*
D03*
D89*
X472300Y821072D02*
D03*
Y830128D02*
D03*
X500000Y625028D02*
D03*
Y615972D02*
D03*
X474100Y758428D02*
D03*
Y749372D02*
D03*
D90*
X147972Y905000D02*
D03*
X157028D02*
D03*
X147972Y896500D02*
D03*
X157028D02*
D03*
X457972Y241878D02*
D03*
X467028D02*
D03*
X519307Y242000D02*
D03*
X510252D02*
D03*
X569307Y242500D02*
D03*
X560252D02*
D03*
X612984D02*
D03*
X622039D02*
D03*
X335609Y241878D02*
D03*
X344664D02*
D03*
X414028Y242000D02*
D03*
X404972D02*
D03*
D91*
X421553Y567181D02*
D03*
X439506D02*
D03*
X468476Y567358D02*
D03*
X450524D02*
D03*
X303053Y568181D02*
D03*
X321006D02*
D03*
X332553Y567858D02*
D03*
X350506D02*
D03*
X366053Y567181D02*
D03*
X384006D02*
D03*
X393500Y567858D02*
D03*
X411453D02*
D03*
D92*
X430529Y591000D02*
D03*
X459500Y591177D02*
D03*
X312029Y592000D02*
D03*
X341529Y591677D02*
D03*
X375029Y591000D02*
D03*
X402476Y591677D02*
D03*
D93*
X368838Y337000D02*
D03*
D94*
X407814D02*
D03*
X368838Y355701D02*
D03*
X407814D02*
D03*
D95*
X575000Y480213D02*
D03*
Y442024D02*
D03*
D96*
X513835Y250224D02*
D03*
X498087D02*
D03*
Y290776D02*
D03*
X513835D02*
D03*
X396555Y289776D02*
D03*
X412303D02*
D03*
Y249224D02*
D03*
X396555D02*
D03*
X372252Y289839D02*
D03*
X388000D02*
D03*
Y249287D02*
D03*
X372252D02*
D03*
X488650Y289839D02*
D03*
X472902D02*
D03*
Y249287D02*
D03*
X488650D02*
D03*
X462000Y289839D02*
D03*
X446252D02*
D03*
Y249287D02*
D03*
X462000D02*
D03*
X315874Y290701D02*
D03*
X300126D02*
D03*
Y250150D02*
D03*
X315874D02*
D03*
X290874Y290339D02*
D03*
X275126D02*
D03*
Y249787D02*
D03*
X290874D02*
D03*
X266374Y290402D02*
D03*
X250626D02*
D03*
Y249850D02*
D03*
X266374D02*
D03*
X241327Y290402D02*
D03*
X225579D02*
D03*
Y249850D02*
D03*
X241327D02*
D03*
X339748Y290339D02*
D03*
X324000D02*
D03*
Y249787D02*
D03*
X339748D02*
D03*
X421126Y249224D02*
D03*
X436874D02*
D03*
Y289776D02*
D03*
X421126D02*
D03*
X348000Y249000D02*
D03*
X363748D02*
D03*
Y289551D02*
D03*
X348000D02*
D03*
D97*
X173658Y191748D02*
D03*
X183500D02*
D03*
X193342D02*
D03*
X173658Y210252D02*
D03*
X183500D02*
D03*
X193342D02*
D03*
D98*
X458201Y467000D02*
D03*
Y472000D02*
D03*
Y477000D02*
D03*
Y482000D02*
D03*
Y487000D02*
D03*
Y492000D02*
D03*
Y497000D02*
D03*
Y502000D02*
D03*
X420799Y467000D02*
D03*
Y472000D02*
D03*
Y477000D02*
D03*
Y482000D02*
D03*
Y487000D02*
D03*
Y492000D02*
D03*
Y497000D02*
D03*
Y502000D02*
D03*
D99*
X304121Y210400D02*
D03*
X322121D02*
D03*
X304121Y235500D02*
D03*
X322121D02*
D03*
X304121Y223000D02*
D03*
X322121D02*
D03*
X304121Y197000D02*
D03*
X322121D02*
D03*
D100*
X637937Y364869D02*
D03*
D101*
X522268Y561291D02*
D03*
Y557551D02*
D03*
Y553811D02*
D03*
X533291Y561291D02*
D03*
Y557551D02*
D03*
Y553811D02*
D03*
D102*
X653827Y565776D02*
D03*
Y550224D02*
D03*
D103*
X620327Y540941D02*
D03*
Y571059D02*
D03*
D104*
X686429Y524000D02*
D03*
X652571D02*
D03*
D105*
X418500Y519000D02*
D03*
Y529000D02*
D03*
Y539000D02*
D03*
Y549000D02*
D03*
X459996Y519000D02*
D03*
Y529000D02*
D03*
Y539000D02*
D03*
Y549000D02*
D03*
D106*
X298400Y645200D02*
D03*
X308400D02*
D03*
X298400Y655200D02*
D03*
X308400D02*
D03*
X298400Y665200D02*
D03*
X308400D02*
D03*
X298400Y675200D02*
D03*
X308400D02*
D03*
X298400Y685200D02*
D03*
X308400D02*
D03*
X298400Y695200D02*
D03*
X308400D02*
D03*
X298400Y705200D02*
D03*
X308400D02*
D03*
X298400Y715200D02*
D03*
X308400D02*
D03*
X298400Y725200D02*
D03*
X308400D02*
D03*
X298400Y735200D02*
D03*
X308400D02*
D03*
X298400Y745200D02*
D03*
X308400D02*
D03*
X298400Y755200D02*
D03*
X308400D02*
D03*
X298400Y765200D02*
D03*
X308400D02*
D03*
X298400Y775200D02*
D03*
X308400D02*
D03*
X298400Y785200D02*
D03*
X308400D02*
D03*
X298400Y795200D02*
D03*
X308400D02*
D03*
X298400Y805200D02*
D03*
X308400D02*
D03*
X298400Y815200D02*
D03*
X308400D02*
D03*
X298400Y825200D02*
D03*
X308400D02*
D03*
X298400Y835200D02*
D03*
X308400D02*
D03*
X298400Y845200D02*
D03*
X308400D02*
D03*
X298400Y855200D02*
D03*
X308400D02*
D03*
X298400Y865200D02*
D03*
X488400D02*
D03*
X498400Y855200D02*
D03*
X488400D02*
D03*
X498400Y845200D02*
D03*
X488400D02*
D03*
X498400Y835200D02*
D03*
X488400D02*
D03*
X498400Y825200D02*
D03*
X488400D02*
D03*
X498400Y815200D02*
D03*
X488400D02*
D03*
X498400Y805200D02*
D03*
X488400D02*
D03*
X498400Y795200D02*
D03*
X488400D02*
D03*
X498400Y785200D02*
D03*
X488400D02*
D03*
X498400Y775200D02*
D03*
X488400D02*
D03*
X498400Y765200D02*
D03*
X488400D02*
D03*
X498400Y755200D02*
D03*
X488400D02*
D03*
X498400Y745200D02*
D03*
X488400D02*
D03*
X498400Y735200D02*
D03*
X488400D02*
D03*
X498400Y725200D02*
D03*
X488400D02*
D03*
X498400Y715200D02*
D03*
X488400D02*
D03*
X498400Y705200D02*
D03*
X488400D02*
D03*
X498400Y695200D02*
D03*
X488400D02*
D03*
X498400Y685200D02*
D03*
X488400D02*
D03*
X498400Y675200D02*
D03*
X488400D02*
D03*
X498400Y665200D02*
D03*
X488400D02*
D03*
X498400Y655200D02*
D03*
X488400D02*
D03*
X498400Y645200D02*
D03*
X488400D02*
D03*
D107*
X308400Y865200D02*
D03*
X498400D02*
D03*
D108*
X180000Y220000D02*
D03*
X190000D02*
D03*
X258000Y366321D02*
D03*
X248000D02*
D03*
X174600Y366989D02*
D03*
X164600D02*
D03*
X635500Y596500D02*
D03*
Y606500D02*
D03*
X490000Y533000D02*
D03*
Y543000D02*
D03*
X502500Y533051D02*
D03*
Y543051D02*
D03*
X179439Y288500D02*
D03*
X189439D02*
D03*
X189500Y300000D02*
D03*
X179500D02*
D03*
X169000Y240500D02*
D03*
Y230500D02*
D03*
X201000Y239500D02*
D03*
Y229500D02*
D03*
X364000Y470000D02*
D03*
Y480000D02*
D03*
X337676Y469689D02*
D03*
Y479689D02*
D03*
X310630Y469352D02*
D03*
Y479352D02*
D03*
X325500Y308000D02*
D03*
X335500D02*
D03*
X635000Y254000D02*
D03*
Y264000D02*
D03*
X618445D02*
D03*
Y254000D02*
D03*
X601000Y254500D02*
D03*
Y264500D02*
D03*
X583551Y254500D02*
D03*
Y264500D02*
D03*
X565370Y254500D02*
D03*
Y264500D02*
D03*
X547500Y254500D02*
D03*
Y264500D02*
D03*
X529500Y254500D02*
D03*
Y264500D02*
D03*
X655000Y482760D02*
D03*
Y492760D02*
D03*
D109*
X566844Y595413D02*
D03*
Y704075D02*
D03*
X519600Y689114D02*
D03*
Y602500D02*
D03*
D110*
X519500Y918500D02*
D03*
X558500D02*
D03*
X519500Y905000D02*
D03*
X558500D02*
D03*
X601728Y635500D02*
D03*
Y596500D02*
D03*
X588228D02*
D03*
Y635500D02*
D03*
X601500Y699000D02*
D03*
Y660000D02*
D03*
X588000D02*
D03*
Y699000D02*
D03*
X624000Y905000D02*
D03*
X585000D02*
D03*
Y918500D02*
D03*
X624000D02*
D03*
Y935000D02*
D03*
X585000D02*
D03*
Y948500D02*
D03*
X624000D02*
D03*
X558500Y935000D02*
D03*
X519500D02*
D03*
Y948500D02*
D03*
X558500D02*
D03*
X239500Y948000D02*
D03*
X278500D02*
D03*
Y934500D02*
D03*
X239500D02*
D03*
X239437Y916000D02*
D03*
X278437D02*
D03*
Y902500D02*
D03*
X239437D02*
D03*
X175437Y916000D02*
D03*
X214437D02*
D03*
Y902500D02*
D03*
X175437D02*
D03*
X175500Y948000D02*
D03*
X214500D02*
D03*
Y934500D02*
D03*
X175500D02*
D03*
D111*
X389000Y528000D02*
D03*
Y512000D02*
D03*
X249500Y692000D02*
D03*
X265500D02*
D03*
X260500Y561728D02*
D03*
X244500D02*
D03*
X257000Y514116D02*
D03*
Y530117D02*
D03*
X198445Y740862D02*
D03*
Y727870D02*
D03*
X198541Y828862D02*
D03*
Y815870D02*
D03*
X523169Y831000D02*
D03*
Y818008D02*
D03*
X523000Y742000D02*
D03*
Y729008D02*
D03*
D112*
X162820Y740799D02*
D03*
X175339Y770299D02*
D03*
Y740799D02*
D03*
X162820Y770299D02*
D03*
X636020Y679500D02*
D03*
X623500Y650000D02*
D03*
Y679500D02*
D03*
X636020Y650000D02*
D03*
X636000Y770500D02*
D03*
X623480Y741000D02*
D03*
Y770500D02*
D03*
X636000Y741000D02*
D03*
X635803Y860000D02*
D03*
X623283Y830500D02*
D03*
Y860000D02*
D03*
X635803Y830500D02*
D03*
X162803Y830299D02*
D03*
X175323Y859799D02*
D03*
Y830299D02*
D03*
X162803Y859799D02*
D03*
D113*
X111127Y722098D02*
D03*
Y789000D02*
D03*
X687713Y698201D02*
D03*
Y631299D02*
D03*
X687693Y789201D02*
D03*
Y722299D02*
D03*
X687496Y878701D02*
D03*
Y811799D02*
D03*
X111110Y811598D02*
D03*
Y878500D02*
D03*
D114*
X307149Y108300D02*
D03*
X319049D02*
D03*
X354449D02*
D03*
X342649D02*
D03*
X366249D02*
D03*
X330849D02*
D03*
Y96500D02*
D03*
X366249D02*
D03*
X342649D02*
D03*
X354449D02*
D03*
X319049D02*
D03*
X378249D02*
D03*
X378049Y108300D02*
D03*
X389849D02*
D03*
Y96500D02*
D03*
X307149D02*
D03*
X401649D02*
D03*
X413449D02*
D03*
Y108300D02*
D03*
X401649D02*
D03*
X511752D02*
D03*
Y96500D02*
D03*
X622500D02*
D03*
Y108300D02*
D03*
X662000Y324700D02*
D03*
Y336500D02*
D03*
X650200D02*
D03*
Y324700D02*
D03*
X187100Y683700D02*
D03*
X175300D02*
D03*
Y695500D02*
D03*
X187100D02*
D03*
X198900D02*
D03*
Y683700D02*
D03*
X210700D02*
D03*
X210500Y695500D02*
D03*
X222500Y680000D02*
D03*
X163500D02*
D03*
X139500Y556500D02*
D03*
X151300D02*
D03*
X150300Y151000D02*
D03*
X138500D02*
D03*
Y139000D02*
D03*
X150300Y139200D02*
D03*
Y127400D02*
D03*
X138500D02*
D03*
Y115600D02*
D03*
Y103300D02*
D03*
X150300D02*
D03*
Y115600D02*
D03*
X149749Y193900D02*
D03*
Y182100D02*
D03*
X137949D02*
D03*
Y193900D02*
D03*
Y217500D02*
D03*
Y205700D02*
D03*
X149749D02*
D03*
Y217500D02*
D03*
X149363Y260900D02*
D03*
Y249100D02*
D03*
X137563D02*
D03*
Y260900D02*
D03*
X149000Y303900D02*
D03*
Y292100D02*
D03*
X137200D02*
D03*
Y303900D02*
D03*
Y327500D02*
D03*
Y315700D02*
D03*
X149000D02*
D03*
Y327500D02*
D03*
X150300Y371000D02*
D03*
Y359200D02*
D03*
X138500D02*
D03*
Y371000D02*
D03*
X150300Y414312D02*
D03*
Y402512D02*
D03*
X138500D02*
D03*
Y414312D02*
D03*
X150300Y457024D02*
D03*
Y445224D02*
D03*
X138500D02*
D03*
Y457024D02*
D03*
Y480624D02*
D03*
Y468824D02*
D03*
X150300D02*
D03*
Y480624D02*
D03*
X150800Y523900D02*
D03*
Y512100D02*
D03*
X139000D02*
D03*
Y523900D02*
D03*
X175323Y97200D02*
D03*
Y109000D02*
D03*
X231200Y108500D02*
D03*
X243000D02*
D03*
Y96700D02*
D03*
X231200D02*
D03*
X207600D02*
D03*
X219400D02*
D03*
Y108500D02*
D03*
X207600D02*
D03*
X274500Y108800D02*
D03*
Y97000D02*
D03*
X468100Y107800D02*
D03*
X479900D02*
D03*
Y96000D02*
D03*
X468100D02*
D03*
X444500D02*
D03*
X456300D02*
D03*
Y107800D02*
D03*
X444500D02*
D03*
X543500Y108300D02*
D03*
Y96500D02*
D03*
X555500D02*
D03*
X555300Y108300D02*
D03*
X567100D02*
D03*
Y96500D02*
D03*
X578900D02*
D03*
X591200D02*
D03*
Y108300D02*
D03*
X578900D02*
D03*
X650200Y248500D02*
D03*
X662000D02*
D03*
X649527Y102000D02*
D03*
X661327D02*
D03*
Y114000D02*
D03*
X649527Y113800D02*
D03*
Y125600D02*
D03*
X661327D02*
D03*
Y137400D02*
D03*
Y149700D02*
D03*
X649527D02*
D03*
Y137400D02*
D03*
X650027Y203600D02*
D03*
Y215400D02*
D03*
X661827D02*
D03*
Y203600D02*
D03*
Y180000D02*
D03*
Y191800D02*
D03*
X650027D02*
D03*
Y180000D02*
D03*
X650200Y281549D02*
D03*
Y293349D02*
D03*
X662000D02*
D03*
Y281549D02*
D03*
X650200Y600500D02*
D03*
X662000D02*
D03*
X119500Y908200D02*
D03*
Y920000D02*
D03*
D115*
X315649Y79500D02*
D03*
X405049D02*
D03*
X511752D02*
D03*
X622500D02*
D03*
X679000Y330600D02*
D03*
X122500Y556500D02*
D03*
X121000Y142000D02*
D03*
X121500Y111700D02*
D03*
X120949Y190500D02*
D03*
Y209000D02*
D03*
X120563Y255000D02*
D03*
X120200Y300500D02*
D03*
Y319000D02*
D03*
X121500Y365100D02*
D03*
Y408412D02*
D03*
Y453624D02*
D03*
Y472124D02*
D03*
X122000Y518000D02*
D03*
X175323Y80200D02*
D03*
X234600Y79700D02*
D03*
X216100D02*
D03*
X274500Y80000D02*
D03*
X471500Y79000D02*
D03*
X453000D02*
D03*
X552500D02*
D03*
X582800Y79500D02*
D03*
X679000Y248500D02*
D03*
X678827Y111000D02*
D03*
X678327Y141300D02*
D03*
X678827Y207000D02*
D03*
Y188500D02*
D03*
X679000Y287449D02*
D03*
Y600500D02*
D03*
X119500Y937000D02*
D03*
D116*
X115500Y73500D02*
D03*
X684500D02*
D03*
X679500Y941000D02*
D03*
X148500Y939500D02*
D03*
D117*
X601780Y129528D02*
D03*
X631307D02*
D03*
X601780Y149213D02*
D03*
X631307D02*
D03*
X601780Y168898D02*
D03*
X631307D02*
D03*
Y227953D02*
D03*
X601780D02*
D03*
X551279Y129528D02*
D03*
X580807D02*
D03*
X551279Y149213D02*
D03*
X580807D02*
D03*
X551279Y168898D02*
D03*
X580807D02*
D03*
Y227953D02*
D03*
X551279D02*
D03*
X499780Y129575D02*
D03*
X529307D02*
D03*
X499780Y149260D02*
D03*
X529307D02*
D03*
X499780Y168945D02*
D03*
X529307D02*
D03*
Y228000D02*
D03*
X499780D02*
D03*
X447780Y129528D02*
D03*
X477307D02*
D03*
X447780Y149213D02*
D03*
X477307D02*
D03*
X447780Y168898D02*
D03*
X477307D02*
D03*
Y227953D02*
D03*
X447780D02*
D03*
X396472Y129500D02*
D03*
X426000D02*
D03*
X396472Y149185D02*
D03*
X426000D02*
D03*
X396472Y168870D02*
D03*
X426000D02*
D03*
Y227925D02*
D03*
X396472D02*
D03*
X344972Y129575D02*
D03*
X374500D02*
D03*
X344972Y149260D02*
D03*
X374500D02*
D03*
X344972Y168945D02*
D03*
X374500D02*
D03*
Y228000D02*
D03*
X344972D02*
D03*
D118*
X238602Y740862D02*
D03*
X222067D02*
D03*
X238699Y828862D02*
D03*
X222163D02*
D03*
X563327Y831000D02*
D03*
X546791D02*
D03*
X563158Y742000D02*
D03*
X546622D02*
D03*
D119*
X261437Y732201D02*
D03*
X261533Y820201D02*
D03*
X586161Y822339D02*
D03*
X585992Y733339D02*
D03*
D120*
X250807Y788500D02*
D03*
X207500D02*
D03*
X250903Y876500D02*
D03*
X207596D02*
D03*
X575531Y878638D02*
D03*
X532224D02*
D03*
X575362Y789638D02*
D03*
X532055D02*
D03*
D121*
X469949Y812000D02*
D03*
X418386Y712000D02*
D03*
X406886D02*
D03*
X395386D02*
D03*
X421449Y757500D02*
D03*
X409949D02*
D03*
X398386D02*
D03*
X380449Y757000D02*
D03*
M02*
