G04*
G04 #@! TF.GenerationSoftware,Altium Limited,Altium Designer,18.1.11 (251)*
G04*
G04 Layer_Physical_Order=2*
G04 Layer_Color=32768*
%FSLAX25Y25*%
%MOIN*%
G70*
G01*
G75*
%ADD12C,0.01000*%
%ADD107C,0.04000*%
%ADD108C,0.07937*%
G04:AMPARAMS|DCode=109|XSize=99.37mil|YSize=99.37mil|CornerRadius=0mil|HoleSize=0mil|Usage=FLASHONLY|Rotation=0.000|XOffset=0mil|YOffset=0mil|HoleType=Round|Shape=Relief|Width=10mil|Gap=10mil|Entries=4|*
%AMTHD109*
7,0,0,0.09937,0.07937,0.01000,45*
%
%ADD109THD109*%
%ADD110C,0.08000*%
%ADD111C,0.15800*%
G04:AMPARAMS|DCode=112|XSize=100mil|YSize=100mil|CornerRadius=0mil|HoleSize=0mil|Usage=FLASHONLY|Rotation=0.000|XOffset=0mil|YOffset=0mil|HoleType=Round|Shape=Relief|Width=10mil|Gap=10mil|Entries=4|*
%AMTHD112*
7,0,0,0.10000,0.08000,0.01000,45*
%
%ADD112THD112*%
%ADD113C,0.18764*%
%ADD114C,0.08016*%
G04:AMPARAMS|DCode=115|XSize=100.157mil|YSize=100.157mil|CornerRadius=0mil|HoleSize=0mil|Usage=FLASHONLY|Rotation=0.000|XOffset=0mil|YOffset=0mil|HoleType=Round|Shape=Relief|Width=10mil|Gap=10mil|Entries=4|*
%AMTHD115*
7,0,0,0.10016,0.08016,0.01000,45*
%
%ADD115THD115*%
G04:AMPARAMS|DCode=116|XSize=178mil|YSize=178mil|CornerRadius=0mil|HoleSize=0mil|Usage=FLASHONLY|Rotation=0.000|XOffset=0mil|YOffset=0mil|HoleType=Round|Shape=Relief|Width=10mil|Gap=10mil|Entries=4|*
%AMTHD116*
7,0,0,0.17800,0.15800,0.01000,45*
%
%ADD116THD116*%
%ADD117C,0.05500*%
D12*
X105500Y570500D02*
X705500D01*
X105500Y186500D02*
X705500D01*
Y570500D01*
X105500Y186500D02*
Y570500D01*
D107*
Y186500D02*
Y570500D01*
X705500D01*
Y186500D02*
Y570500D01*
X105500Y186500D02*
X705500D01*
D108*
X411000Y527500D02*
D03*
Y537500D02*
D03*
X450000Y251000D02*
D03*
X436500Y458500D02*
D03*
Y469500D02*
D03*
Y481000D02*
D03*
X583500Y536500D02*
D03*
Y526500D02*
D03*
X595000Y536500D02*
D03*
Y526500D02*
D03*
X481500Y543000D02*
D03*
D109*
X411000Y547500D02*
D03*
X450000Y261000D02*
D03*
X426500Y458500D02*
D03*
Y469500D02*
D03*
Y481000D02*
D03*
X481500Y553000D02*
D03*
D110*
X382500Y518700D02*
D03*
X370700D02*
D03*
Y530500D02*
D03*
X382500D02*
D03*
X358900D02*
D03*
X347100D02*
D03*
X484100Y233300D02*
D03*
X495900D02*
D03*
X460500Y221500D02*
D03*
X472300D02*
D03*
Y233300D02*
D03*
X460500D02*
D03*
X612500Y222000D02*
D03*
X190100Y518700D02*
D03*
X178300D02*
D03*
Y530500D02*
D03*
X190100D02*
D03*
X201900D02*
D03*
Y518700D02*
D03*
X213700D02*
D03*
X213500Y530500D02*
D03*
X237300D02*
D03*
X249100D02*
D03*
X225500D02*
D03*
X260900D02*
D03*
Y518700D02*
D03*
X225500D02*
D03*
X249100D02*
D03*
X237300D02*
D03*
X145500Y404100D02*
D03*
Y392100D02*
D03*
Y380500D02*
D03*
Y368700D02*
D03*
Y356400D02*
D03*
Y445100D02*
D03*
Y456900D02*
D03*
Y480500D02*
D03*
Y468700D02*
D03*
X157300Y480500D02*
D03*
X564900Y233800D02*
D03*
X553100D02*
D03*
X541300D02*
D03*
X541500Y222000D02*
D03*
X529500D02*
D03*
Y233800D02*
D03*
X517400Y520700D02*
D03*
X505100D02*
D03*
X529200D02*
D03*
X541000D02*
D03*
X552800Y532500D02*
D03*
Y520700D02*
D03*
D111*
X374000Y547500D02*
D03*
X355500D02*
D03*
X487500Y204500D02*
D03*
X469000D02*
D03*
X612500Y205000D02*
D03*
X128000Y395100D02*
D03*
X128500Y364800D02*
D03*
Y453500D02*
D03*
Y472000D02*
D03*
X568800Y205000D02*
D03*
X538500Y204500D02*
D03*
X513500Y549500D02*
D03*
X543800Y550000D02*
D03*
D112*
X347100Y518700D02*
D03*
X358900D02*
D03*
X495900Y221500D02*
D03*
X484100D02*
D03*
X612500Y233800D02*
D03*
X308200Y518700D02*
D03*
X296400D02*
D03*
Y530500D02*
D03*
X308200D02*
D03*
X284600D02*
D03*
X272700D02*
D03*
Y518700D02*
D03*
X284600D02*
D03*
X157300Y404100D02*
D03*
Y392300D02*
D03*
Y380500D02*
D03*
Y356400D02*
D03*
Y368700D02*
D03*
Y456900D02*
D03*
Y445100D02*
D03*
Y468700D02*
D03*
X577200Y233800D02*
D03*
Y222000D02*
D03*
X564900D02*
D03*
X553100D02*
D03*
X505100Y532500D02*
D03*
X517400D02*
D03*
X529200D02*
D03*
X540800D02*
D03*
D113*
X130500Y545500D02*
D03*
X680500D02*
D03*
X130000Y220500D02*
D03*
X680000D02*
D03*
D114*
X463500Y374500D02*
D03*
Y434500D02*
D03*
X473500Y374500D02*
D03*
X483500D02*
D03*
Y434500D02*
D03*
X493500D02*
D03*
X503500Y374500D02*
D03*
Y434500D02*
D03*
X513500Y374500D02*
D03*
Y434500D02*
D03*
X523500Y374500D02*
D03*
Y434500D02*
D03*
X533500Y374500D02*
D03*
Y434500D02*
D03*
X543500Y374500D02*
D03*
Y434500D02*
D03*
X553500Y374500D02*
D03*
Y434500D02*
D03*
X563500Y374500D02*
D03*
Y434500D02*
D03*
X573500Y374500D02*
D03*
Y434500D02*
D03*
X583500Y374500D02*
D03*
Y434500D02*
D03*
X593500Y374500D02*
D03*
Y434500D02*
D03*
X603500Y374500D02*
D03*
Y434500D02*
D03*
D115*
X473500D02*
D03*
X493500Y374500D02*
D03*
D116*
X186700Y547500D02*
D03*
X299700D02*
D03*
D117*
X390721Y406000D02*
D03*
X442500D02*
D03*
X426065Y431935D02*
D03*
X390000Y426000D02*
D03*
X400646Y426063D02*
D03*
X400500Y444000D02*
D03*
X337130Y388000D02*
D03*
X413500Y408500D02*
D03*
X421000Y400500D02*
D03*
X395839Y409000D02*
D03*
X366240Y444500D02*
D03*
X375344Y425702D02*
D03*
X353000Y401000D02*
D03*
X349100Y407500D02*
D03*
X393280Y393220D02*
D03*
X399000Y390000D02*
D03*
X345000Y401500D02*
D03*
X322500Y403500D02*
D03*
X307063Y413697D02*
D03*
X373500Y468700D02*
D03*
X375000Y459500D02*
D03*
X434500Y370000D02*
D03*
X387000Y245000D02*
D03*
X424063Y247126D02*
D03*
X192500Y276740D02*
D03*
X212500Y225500D02*
D03*
X600500Y260500D02*
D03*
X221500Y492500D02*
D03*
X191500Y489000D02*
D03*
X362000Y379500D02*
D03*
X591000Y344500D02*
D03*
X601000Y343500D02*
D03*
X586250Y342500D02*
D03*
X561000Y340500D02*
D03*
X571000Y341000D02*
D03*
X596000Y340500D02*
D03*
X581000Y345500D02*
D03*
X573500Y328000D02*
D03*
X546000Y342500D02*
D03*
X566000Y344500D02*
D03*
X384000Y482250D02*
D03*
X135000Y200000D02*
D03*
X307500Y479500D02*
D03*
X332000Y487000D02*
D03*
X252000Y411500D02*
D03*
X259000D02*
D03*
X266000D02*
D03*
X415000Y494000D02*
D03*
X184000Y463500D02*
D03*
X589000Y191000D02*
D03*
X338500Y376000D02*
D03*
X395754Y369754D02*
D03*
X501500Y357000D02*
D03*
Y350500D02*
D03*
X508500D02*
D03*
X515000Y344871D02*
D03*
X508500Y345000D02*
D03*
X547500Y285500D02*
D03*
X406000Y481500D02*
D03*
X176000Y320500D02*
D03*
X204000Y466000D02*
D03*
X194500Y468000D02*
D03*
X217500Y417000D02*
D03*
X640000Y436500D02*
D03*
X633000Y432000D02*
D03*
X528500Y429000D02*
D03*
X490000Y448000D02*
D03*
X370000Y286000D02*
D03*
X377500Y282500D02*
D03*
X385000Y279000D02*
D03*
X370500Y347500D02*
D03*
X123500Y338000D02*
D03*
X313000Y477500D02*
D03*
X483000Y448562D02*
D03*
X307500Y494000D02*
D03*
X500500Y386500D02*
D03*
X496000Y391500D02*
D03*
X512500Y384500D02*
D03*
X333000Y382000D02*
D03*
X349100Y368000D02*
D03*
X332000Y370850D02*
D03*
X361510Y367790D02*
D03*
X522500Y352500D02*
D03*
X528000Y363500D02*
D03*
X520000Y316500D02*
D03*
X520250Y325250D02*
D03*
X610000Y328500D02*
D03*
X605500Y323000D02*
D03*
X490500Y389000D02*
D03*
X474000D02*
D03*
X364000Y352500D02*
D03*
X342500Y363500D02*
D03*
X212000Y360500D02*
D03*
X169625Y242125D02*
D03*
X173500Y247500D02*
D03*
X208250Y197250D02*
D03*
X217000Y381000D02*
D03*
X231000Y269500D02*
D03*
X232000Y284000D02*
D03*
X627000Y334500D02*
D03*
X634500D02*
D03*
X619000Y333500D02*
D03*
X647500Y368000D02*
D03*
X658000Y256500D02*
D03*
X684000Y278500D02*
D03*
X469000Y450500D02*
D03*
X633000Y523500D02*
D03*
X637500Y531000D02*
D03*
X476500Y449000D02*
D03*
X562000Y453000D02*
D03*
X578500Y439000D02*
D03*
X552000Y451500D02*
D03*
X430500Y364000D02*
D03*
X427000Y369000D02*
D03*
X639500Y451000D02*
D03*
X583000Y453000D02*
D03*
X471500Y467500D02*
D03*
X526500Y462000D02*
D03*
X266000Y405000D02*
D03*
X259000D02*
D03*
X252000D02*
D03*
X245000D02*
D03*
X448500Y446500D02*
D03*
X642000Y356500D02*
D03*
X647500Y362500D02*
D03*
Y356000D02*
D03*
X642000Y362000D02*
D03*
X637000Y356500D02*
D03*
X599000Y390000D02*
D03*
X548500Y430000D02*
D03*
X606000Y297000D02*
D03*
X451000Y209500D02*
D03*
Y204000D02*
D03*
Y198500D02*
D03*
X444500Y209500D02*
D03*
Y204000D02*
D03*
Y198500D02*
D03*
X430500Y204000D02*
D03*
X438000D02*
D03*
X430500Y198500D02*
D03*
X438000D02*
D03*
X430500Y209500D02*
D03*
X438000D02*
D03*
X378000Y207500D02*
D03*
X370500D02*
D03*
X502000Y366000D02*
D03*
X243500Y489500D02*
D03*
X235500D02*
D03*
X228000Y490000D02*
D03*
X194000Y473500D02*
D03*
Y478500D02*
D03*
Y483000D02*
D03*
X191500Y462500D02*
D03*
X191000Y424500D02*
D03*
X196000Y423500D02*
D03*
X194500Y414500D02*
D03*
X180000Y444000D02*
D03*
X164500Y462500D02*
D03*
X547784Y267500D02*
D03*
X390500Y358500D02*
D03*
X376579Y365000D02*
D03*
X373500Y368000D02*
D03*
X322500Y542000D02*
D03*
X337500Y482500D02*
D03*
X539500Y298000D02*
D03*
X409000Y289000D02*
D03*
X401500D02*
D03*
X368000Y308000D02*
D03*
Y322500D02*
D03*
X402000Y363500D02*
D03*
X646000Y431500D02*
D03*
X625500Y440000D02*
D03*
X507000Y451500D02*
D03*
X495500Y489500D02*
D03*
X643500Y441000D02*
D03*
X622500Y431000D02*
D03*
X495500Y451500D02*
D03*
X649000Y348000D02*
D03*
X663500Y473500D02*
D03*
X550500Y483500D02*
D03*
X606000Y478500D02*
D03*
X518500Y381500D02*
D03*
X404000Y266500D02*
D03*
X629000Y284500D02*
D03*
X604000Y279000D02*
D03*
X544000Y396000D02*
D03*
X334500Y311000D02*
D03*
X301500Y286000D02*
D03*
X355200Y368000D02*
D03*
X367400D02*
D03*
X491784Y274500D02*
D03*
X572500Y290000D02*
D03*
X516500Y296500D02*
D03*
X423437Y395437D02*
D03*
X362000Y392000D02*
D03*
X378468Y494000D02*
D03*
X342250D02*
D03*
X416500Y502000D02*
D03*
X378532D02*
D03*
X342250D02*
D03*
X307500D02*
D03*
X328000Y536000D02*
D03*
X333500Y530500D02*
D03*
X318000Y547000D02*
D03*
X288500Y506500D02*
D03*
X255500Y513000D02*
D03*
X348500Y279500D02*
D03*
X355500D02*
D03*
Y286000D02*
D03*
X348500D02*
D03*
Y273000D02*
D03*
X355500D02*
D03*
Y266500D02*
D03*
X348500D02*
D03*
X374949Y274449D02*
D03*
X392000Y227500D02*
D03*
X426063Y227563D02*
D03*
X443500Y330500D02*
D03*
X453500Y331000D02*
D03*
X116500Y199000D02*
D03*
X122773Y202773D02*
D03*
X621500Y386500D02*
D03*
Y395500D02*
D03*
Y405000D02*
D03*
Y414500D02*
D03*
X651000Y553500D02*
D03*
X629246Y531246D02*
D03*
X368000Y315500D02*
D03*
X336000Y349000D02*
D03*
X642000Y335250D02*
D03*
X471500Y354500D02*
D03*
X501500Y344500D02*
D03*
X194500Y333000D02*
D03*
X202000D02*
D03*
X194500Y326750D02*
D03*
X202000D02*
D03*
X179000Y333000D02*
D03*
X186500D02*
D03*
X179000Y326750D02*
D03*
X186500D02*
D03*
X169532Y209032D02*
D03*
X186760Y308000D02*
D03*
X216000Y372000D02*
D03*
X247000Y384500D02*
D03*
X218000Y286750D02*
D03*
X210500D02*
D03*
X218000Y293000D02*
D03*
X210500D02*
D03*
Y305500D02*
D03*
X218000D02*
D03*
X210500Y299250D02*
D03*
X218000D02*
D03*
Y311750D02*
D03*
X210500D02*
D03*
X218000Y318000D02*
D03*
X210500D02*
D03*
X378000Y196500D02*
D03*
X370500D02*
D03*
X378000Y202000D02*
D03*
X370500D02*
D03*
X384500Y196500D02*
D03*
Y202000D02*
D03*
Y207500D02*
D03*
X391000Y196500D02*
D03*
Y202000D02*
D03*
Y207500D02*
D03*
M02*
