G04*
G04 #@! TF.GenerationSoftware,Altium Limited,Altium Designer,18.1.11 (251)*
G04*
G04 Layer_Color=8421504*
%FSLAX25Y25*%
%MOIN*%
G70*
G01*
G75*
%ADD12C,0.01000*%
%ADD18R,0.06102X0.02559*%
%ADD19R,0.05906X0.04331*%
%ADD20R,0.03543X0.05315*%
%ADD21R,0.11024X0.08898*%
%ADD22R,0.05315X0.03543*%
%ADD23C,0.03000*%
%ADD24R,0.04134X0.05512*%
%ADD25R,0.07008X0.01654*%
%ADD26R,0.02400X0.09000*%
%ADD27C,0.07874*%
%ADD28R,0.05709X0.06890*%
%ADD29R,0.05512X0.04134*%
%ADD30R,0.04921X0.06299*%
%ADD31R,0.02362X0.05709*%
%ADD32R,0.07087X0.05709*%
%ADD33R,0.23622X0.21260*%
%ADD34R,0.02756X0.03937*%
%ADD35R,0.03740X0.03543*%
%ADD36R,0.03543X0.03740*%
%ADD37R,0.19685X0.19685*%
%ADD38R,0.02559X0.06102*%
%ADD39R,0.01772X0.05906*%
%ADD40R,0.05709X0.07087*%
%ADD41R,0.23622X0.19685*%
%ADD42R,0.18504X0.12598*%
%ADD43R,0.06890X0.05709*%
%ADD44R,0.01772X0.05512*%
%ADD45R,0.14094X0.11575*%
%ADD46R,0.05709X0.02362*%
%ADD47R,0.10630X0.06693*%
%ADD48R,0.13780X0.20079*%
%ADD49R,0.09449X0.12795*%
%ADD50R,0.06299X0.08071*%
%ADD51R,0.19685X0.19685*%
%ADD52R,0.06693X0.10630*%
%ADD53R,0.12795X0.09449*%
D12*
X105500Y570500D02*
X705500D01*
X105500Y186500D02*
X705500D01*
Y570500D01*
X105500Y186500D02*
Y570500D01*
D18*
X178740Y277000D02*
D03*
Y272000D02*
D03*
Y267000D02*
D03*
Y262000D02*
D03*
X200000Y277000D02*
D03*
Y272000D02*
D03*
Y267000D02*
D03*
Y262000D02*
D03*
X219500Y210500D02*
D03*
Y215500D02*
D03*
Y220500D02*
D03*
Y225500D02*
D03*
X198240Y210500D02*
D03*
Y215500D02*
D03*
Y220500D02*
D03*
Y225500D02*
D03*
X612937Y276500D02*
D03*
Y271500D02*
D03*
Y266500D02*
D03*
Y261500D02*
D03*
X634197Y276500D02*
D03*
Y271500D02*
D03*
Y266500D02*
D03*
Y261500D02*
D03*
X668653Y271000D02*
D03*
Y266000D02*
D03*
Y261000D02*
D03*
Y256000D02*
D03*
X689913Y271000D02*
D03*
Y266000D02*
D03*
Y261000D02*
D03*
Y256000D02*
D03*
X557154Y282000D02*
D03*
Y277000D02*
D03*
Y272000D02*
D03*
Y267000D02*
D03*
X578413Y282000D02*
D03*
Y277000D02*
D03*
Y272000D02*
D03*
Y267000D02*
D03*
X500153Y289000D02*
D03*
Y284000D02*
D03*
Y279000D02*
D03*
Y274000D02*
D03*
X521413Y289000D02*
D03*
Y284000D02*
D03*
Y279000D02*
D03*
Y274000D02*
D03*
X541630Y469000D02*
D03*
Y474000D02*
D03*
Y479000D02*
D03*
Y484000D02*
D03*
X520370Y469000D02*
D03*
Y474000D02*
D03*
Y479000D02*
D03*
Y484000D02*
D03*
X654130Y458000D02*
D03*
Y463000D02*
D03*
Y468000D02*
D03*
Y473000D02*
D03*
X632870Y458000D02*
D03*
Y463000D02*
D03*
Y468000D02*
D03*
Y473000D02*
D03*
X597130Y464000D02*
D03*
Y469000D02*
D03*
Y474000D02*
D03*
Y479000D02*
D03*
X575870Y464000D02*
D03*
Y469000D02*
D03*
Y474000D02*
D03*
Y479000D02*
D03*
X355870Y323000D02*
D03*
Y318000D02*
D03*
Y313000D02*
D03*
Y308000D02*
D03*
X377130Y323000D02*
D03*
Y318000D02*
D03*
Y313000D02*
D03*
Y308000D02*
D03*
X499500Y324500D02*
D03*
Y329500D02*
D03*
Y334500D02*
D03*
Y339500D02*
D03*
X478240Y324500D02*
D03*
Y329500D02*
D03*
Y334500D02*
D03*
Y339500D02*
D03*
X486630Y475000D02*
D03*
Y480000D02*
D03*
Y485000D02*
D03*
Y490000D02*
D03*
X465370Y475000D02*
D03*
Y480000D02*
D03*
Y485000D02*
D03*
Y490000D02*
D03*
X266622Y325500D02*
D03*
Y330500D02*
D03*
Y335500D02*
D03*
Y340500D02*
D03*
X245362Y325500D02*
D03*
Y330500D02*
D03*
Y335500D02*
D03*
Y340500D02*
D03*
D19*
X474784Y259095D02*
D03*
Y270905D02*
D03*
X643000Y251905D02*
D03*
Y240094D02*
D03*
X587567Y258405D02*
D03*
Y246595D02*
D03*
X531783Y263906D02*
D03*
Y252095D02*
D03*
X679500Y476094D02*
D03*
Y487906D02*
D03*
X622500Y482094D02*
D03*
Y493905D02*
D03*
X567000Y488095D02*
D03*
Y499905D02*
D03*
X512000Y493094D02*
D03*
Y504906D02*
D03*
D20*
X214437Y263000D02*
D03*
X206563D02*
D03*
X430437Y537500D02*
D03*
X422563D02*
D03*
X430437Y527500D02*
D03*
X422563D02*
D03*
X216937Y233000D02*
D03*
X209063D02*
D03*
X179063Y240500D02*
D03*
X186937D02*
D03*
X186386Y233000D02*
D03*
X178512D02*
D03*
X186386Y225500D02*
D03*
X178512D02*
D03*
X209063Y203000D02*
D03*
X216937D02*
D03*
X201937D02*
D03*
X194063D02*
D03*
X628437Y517000D02*
D03*
X620563D02*
D03*
X642437D02*
D03*
X634563D02*
D03*
X665000Y248500D02*
D03*
X657126D02*
D03*
X609500Y253284D02*
D03*
X601626D02*
D03*
X600130Y284098D02*
D03*
X608004D02*
D03*
X553240Y260500D02*
D03*
X545366D02*
D03*
X488126Y266760D02*
D03*
X496000D02*
D03*
X501847Y296598D02*
D03*
X509721D02*
D03*
X487347D02*
D03*
X495221D02*
D03*
X539937Y461402D02*
D03*
X532063D02*
D03*
X423563Y266558D02*
D03*
X431437D02*
D03*
X389063D02*
D03*
X396937D02*
D03*
X652437Y450402D02*
D03*
X644563D02*
D03*
X666937D02*
D03*
X659063D02*
D03*
X658626Y481000D02*
D03*
X666500D02*
D03*
X609937Y456402D02*
D03*
X602063D02*
D03*
X601063Y486024D02*
D03*
X608937D02*
D03*
X595937Y456000D02*
D03*
X588063D02*
D03*
X554437Y461402D02*
D03*
X546563D02*
D03*
X545563Y491500D02*
D03*
X553437D02*
D03*
X414937Y401000D02*
D03*
X407063D02*
D03*
X369063Y399500D02*
D03*
X376937D02*
D03*
X369063Y392000D02*
D03*
X376937D02*
D03*
X369063Y384500D02*
D03*
X376937D02*
D03*
X369063Y377000D02*
D03*
X376937D02*
D03*
X385437Y358500D02*
D03*
X377563D02*
D03*
X340563Y358000D02*
D03*
X348437D02*
D03*
X340563Y350500D02*
D03*
X348437D02*
D03*
X340563Y343000D02*
D03*
X348437D02*
D03*
X340563Y335500D02*
D03*
X348437D02*
D03*
X298374Y251000D02*
D03*
X290500D02*
D03*
X266937Y348000D02*
D03*
X259063D02*
D03*
X274937Y355500D02*
D03*
X267063D02*
D03*
X246563Y363000D02*
D03*
X254437D02*
D03*
X185437Y489000D02*
D03*
X177563D02*
D03*
X169563Y460500D02*
D03*
X177437D02*
D03*
Y452500D02*
D03*
X169563D02*
D03*
X301437Y502000D02*
D03*
X293563D02*
D03*
X301437Y494000D02*
D03*
X293563D02*
D03*
X313563D02*
D03*
X321437D02*
D03*
X336437D02*
D03*
X328563D02*
D03*
X348063D02*
D03*
X355937D02*
D03*
X344563Y455760D02*
D03*
X352437D02*
D03*
X368374Y464000D02*
D03*
X360500D02*
D03*
X352437D02*
D03*
X344563D02*
D03*
X352437Y474000D02*
D03*
X344563D02*
D03*
X313563Y502000D02*
D03*
X321437D02*
D03*
X336437D02*
D03*
X328563D02*
D03*
X348063D02*
D03*
X355937D02*
D03*
X344563Y482260D02*
D03*
X352437D02*
D03*
X370500Y502000D02*
D03*
X362626D02*
D03*
X367697Y482000D02*
D03*
X359823D02*
D03*
X386563Y494000D02*
D03*
X394437D02*
D03*
X386563Y502000D02*
D03*
X394437D02*
D03*
X408937Y494000D02*
D03*
X401063D02*
D03*
X408937Y502000D02*
D03*
X401063D02*
D03*
X420063Y494500D02*
D03*
X427937D02*
D03*
X421563Y502000D02*
D03*
X429437D02*
D03*
X370374Y494000D02*
D03*
X362500D02*
D03*
X611563Y309500D02*
D03*
X619437D02*
D03*
X611563Y302000D02*
D03*
X619437D02*
D03*
X612437Y386500D02*
D03*
X604563D02*
D03*
X612437Y395500D02*
D03*
X604563D02*
D03*
X612437Y405000D02*
D03*
X604563D02*
D03*
X612437Y414500D02*
D03*
X604563D02*
D03*
X592937Y386500D02*
D03*
X585063D02*
D03*
X592937Y395500D02*
D03*
X585063D02*
D03*
X592937Y405000D02*
D03*
X585063D02*
D03*
X592937Y414500D02*
D03*
X585063D02*
D03*
X507063Y317000D02*
D03*
X514937D02*
D03*
X507063Y325000D02*
D03*
X514937D02*
D03*
X495937Y347000D02*
D03*
X488063D02*
D03*
X495937Y355000D02*
D03*
X488063D02*
D03*
X491500Y497000D02*
D03*
X499374D02*
D03*
X499437Y467402D02*
D03*
X491563D02*
D03*
X484937D02*
D03*
X477063D02*
D03*
X251937Y348000D02*
D03*
X244063D02*
D03*
X206563Y270500D02*
D03*
X214437D02*
D03*
X206563Y255500D02*
D03*
X214437D02*
D03*
X176091D02*
D03*
X183965D02*
D03*
X198000D02*
D03*
X190126D02*
D03*
X678221Y278500D02*
D03*
X670346D02*
D03*
X622504Y284098D02*
D03*
X614630D02*
D03*
X663721Y278598D02*
D03*
X655847D02*
D03*
X566720Y289598D02*
D03*
X558847D02*
D03*
X551937Y291500D02*
D03*
X544063D02*
D03*
X194063Y233000D02*
D03*
X201937D02*
D03*
D21*
X223799Y502500D02*
D03*
X211201D02*
D03*
X143500Y506000D02*
D03*
X156098D02*
D03*
X143000Y524500D02*
D03*
X155598D02*
D03*
X118201Y506000D02*
D03*
X130799D02*
D03*
X118201Y524240D02*
D03*
X130799D02*
D03*
X265095Y502000D02*
D03*
X277694D02*
D03*
X238701D02*
D03*
X251299D02*
D03*
X183701D02*
D03*
X196299D02*
D03*
D22*
X434000Y235437D02*
D03*
Y227563D02*
D03*
X414500Y468563D02*
D03*
Y476437D02*
D03*
X478000Y354874D02*
D03*
Y347000D02*
D03*
X523500Y395937D02*
D03*
Y388063D02*
D03*
X533500Y395937D02*
D03*
Y388063D02*
D03*
X308500Y281500D02*
D03*
Y289374D02*
D03*
X400000Y235437D02*
D03*
Y227563D02*
D03*
X185500Y216937D02*
D03*
Y209063D02*
D03*
X178000D02*
D03*
Y216937D02*
D03*
X228000Y209437D02*
D03*
Y201563D02*
D03*
X168500Y467563D02*
D03*
Y475437D02*
D03*
X664401Y528437D02*
D03*
Y520563D02*
D03*
X654500D02*
D03*
Y528437D02*
D03*
X659784Y270437D02*
D03*
Y262563D02*
D03*
X604067Y273437D02*
D03*
Y265563D02*
D03*
X548283Y280437D02*
D03*
Y272563D02*
D03*
X491284Y287437D02*
D03*
Y279563D02*
D03*
X400000Y245409D02*
D03*
Y253284D02*
D03*
X435500Y247126D02*
D03*
Y255000D02*
D03*
X663000Y460563D02*
D03*
Y468437D02*
D03*
X606000Y465563D02*
D03*
Y473437D02*
D03*
X550500Y470563D02*
D03*
Y478437D02*
D03*
X406000Y461437D02*
D03*
Y453563D02*
D03*
Y476437D02*
D03*
Y468563D02*
D03*
X392500Y461437D02*
D03*
Y453563D02*
D03*
Y476437D02*
D03*
Y468563D02*
D03*
X384000Y476437D02*
D03*
Y468563D02*
D03*
X413000Y421437D02*
D03*
Y413563D02*
D03*
X405000D02*
D03*
Y421437D02*
D03*
X396500Y413563D02*
D03*
Y421437D02*
D03*
X371000Y413563D02*
D03*
Y421437D02*
D03*
X362500Y413563D02*
D03*
Y421437D02*
D03*
X344786Y413626D02*
D03*
Y421500D02*
D03*
X318857Y413626D02*
D03*
Y421500D02*
D03*
X415500Y395437D02*
D03*
Y387563D02*
D03*
X408000Y395437D02*
D03*
Y387563D02*
D03*
X378500Y343063D02*
D03*
Y350937D02*
D03*
X386500Y343063D02*
D03*
Y350937D02*
D03*
Y329563D02*
D03*
Y337437D02*
D03*
X378500Y329563D02*
D03*
Y337437D02*
D03*
X283000Y251091D02*
D03*
Y258965D02*
D03*
Y274437D02*
D03*
Y266563D02*
D03*
X223000Y379063D02*
D03*
Y386937D02*
D03*
Y371937D02*
D03*
Y364063D02*
D03*
X318857Y430626D02*
D03*
Y438500D02*
D03*
X327500D02*
D03*
Y430626D02*
D03*
X336143D02*
D03*
Y438500D02*
D03*
X344786D02*
D03*
Y430626D02*
D03*
X354000D02*
D03*
Y438500D02*
D03*
X362500D02*
D03*
Y430626D02*
D03*
X371000Y438500D02*
D03*
Y430626D02*
D03*
X379500D02*
D03*
Y438500D02*
D03*
X388000Y430626D02*
D03*
Y438500D02*
D03*
X396500D02*
D03*
Y430626D02*
D03*
X405000Y438500D02*
D03*
Y430626D02*
D03*
X408000Y381937D02*
D03*
Y374063D02*
D03*
X415500Y381937D02*
D03*
Y374063D02*
D03*
X641500Y348437D02*
D03*
Y340563D02*
D03*
X634000Y348437D02*
D03*
Y340563D02*
D03*
X626500Y348437D02*
D03*
Y340563D02*
D03*
X618500Y348437D02*
D03*
Y340563D02*
D03*
X619000Y328437D02*
D03*
Y320563D02*
D03*
X627000Y328437D02*
D03*
Y320563D02*
D03*
X634500Y328437D02*
D03*
Y320563D02*
D03*
X642000Y328437D02*
D03*
Y320563D02*
D03*
X508000Y339937D02*
D03*
Y332063D02*
D03*
X494500Y476563D02*
D03*
Y484437D02*
D03*
D23*
X522500Y359000D02*
D03*
X118500Y338500D02*
D03*
X528000Y354000D02*
D03*
X481000Y530000D02*
D03*
Y523000D02*
D03*
X164500Y279500D02*
D03*
X301500Y281000D02*
D03*
X239500Y202500D02*
D03*
X231000Y247000D02*
D03*
X169500Y237000D02*
D03*
X168000Y217000D02*
D03*
X622500Y505500D02*
D03*
X628500Y255500D02*
D03*
X541500Y243000D02*
D03*
X514500Y250000D02*
D03*
X539000Y511000D02*
D03*
X344786Y407214D02*
D03*
X327598Y407000D02*
D03*
X431500Y193500D02*
D03*
X397000Y195500D02*
D03*
X637000Y415000D02*
D03*
Y407000D02*
D03*
Y398500D02*
D03*
Y391000D02*
D03*
X418500Y482500D02*
D03*
X397500Y339000D02*
D03*
X330500Y314500D02*
D03*
X169000Y415500D02*
D03*
X148500Y424500D02*
D03*
X392500Y483000D02*
D03*
X470000Y496500D02*
D03*
X147500Y562000D02*
D03*
X156000D02*
D03*
Y540000D02*
D03*
Y547333D02*
D03*
X147500Y554667D02*
D03*
X156000Y554500D02*
D03*
X147500Y540000D02*
D03*
Y547333D02*
D03*
X612000Y549500D02*
D03*
X652500Y544000D02*
D03*
X607000Y545500D02*
D03*
X656500Y541500D02*
D03*
X612000Y542000D02*
D03*
X652500Y537500D02*
D03*
X605500Y540500D02*
D03*
X656500Y535000D02*
D03*
X609000Y536500D02*
D03*
X356500Y328500D02*
D03*
X571000Y305500D02*
D03*
X566000D02*
D03*
X686283Y249500D02*
D03*
X551000Y305500D02*
D03*
X536000D02*
D03*
X526000Y492000D02*
D03*
X541000Y305500D02*
D03*
X556000D02*
D03*
X579500Y490500D02*
D03*
X638000Y480500D02*
D03*
X561000Y305500D02*
D03*
X546000D02*
D03*
X570500Y250000D02*
D03*
X516500Y266000D02*
D03*
X377130Y464260D02*
D03*
X375500Y474000D02*
D03*
X419000Y433500D02*
D03*
X412500Y483035D02*
D03*
X373000Y485000D02*
D03*
X292000Y398000D02*
D03*
X235000Y295500D02*
D03*
X456000Y444500D02*
D03*
X274500Y340500D02*
D03*
X231500Y360000D02*
D03*
X222000Y197000D02*
D03*
X309500Y228000D02*
D03*
X348500Y285500D02*
D03*
X294000Y257500D02*
D03*
X158000Y228000D02*
D03*
X181000Y320500D02*
D03*
X221750Y269250D02*
D03*
X192500Y249000D02*
D03*
D24*
X645240Y553500D02*
D03*
X637760D02*
D03*
X441000Y296500D02*
D03*
X433520D02*
D03*
X454740D02*
D03*
X447260D02*
D03*
X468740D02*
D03*
X461260D02*
D03*
X433520Y357000D02*
D03*
X441000D02*
D03*
X194240Y320500D02*
D03*
X186760D02*
D03*
X224260Y233000D02*
D03*
X231740D02*
D03*
X179260Y248000D02*
D03*
X186740D02*
D03*
X657043Y240500D02*
D03*
X664524D02*
D03*
X601327Y246000D02*
D03*
X608807D02*
D03*
X520043Y296500D02*
D03*
X527524D02*
D03*
X545760Y251500D02*
D03*
X553240D02*
D03*
X488760Y258500D02*
D03*
X496240D02*
D03*
X522240Y461500D02*
D03*
X514760D02*
D03*
X665740Y488500D02*
D03*
X658260D02*
D03*
X635240Y450000D02*
D03*
X627760D02*
D03*
X608740Y494500D02*
D03*
X601260D02*
D03*
X577740Y456500D02*
D03*
X570260D02*
D03*
X553240Y499500D02*
D03*
X545760D02*
D03*
X407260Y359500D02*
D03*
X414740D02*
D03*
X407260Y367000D02*
D03*
X414740D02*
D03*
X406260Y342000D02*
D03*
X413740D02*
D03*
X406260Y334500D02*
D03*
X413740D02*
D03*
X407260Y296500D02*
D03*
X414740D02*
D03*
X401240D02*
D03*
X393760D02*
D03*
X372260Y300500D02*
D03*
X379740D02*
D03*
X372260Y293000D02*
D03*
X379740D02*
D03*
X366240Y300500D02*
D03*
X358760D02*
D03*
X366240Y293000D02*
D03*
X358760D02*
D03*
X348240Y327000D02*
D03*
X340760D02*
D03*
X348240Y319500D02*
D03*
X340760D02*
D03*
X197760Y489000D02*
D03*
X205240D02*
D03*
X211240Y472000D02*
D03*
X203760D02*
D03*
X178740Y436500D02*
D03*
X171260D02*
D03*
X204260Y417000D02*
D03*
X211740D02*
D03*
X188240Y472000D02*
D03*
X180760D02*
D03*
X360760Y456000D02*
D03*
X368240D02*
D03*
X367740Y474000D02*
D03*
X360260D02*
D03*
X577260Y305500D02*
D03*
X584740D02*
D03*
X490740Y317000D02*
D03*
X483260D02*
D03*
X498240Y505500D02*
D03*
X490760D02*
D03*
X467240Y467500D02*
D03*
X459760D02*
D03*
X311760Y235500D02*
D03*
X319240D02*
D03*
X244260Y253000D02*
D03*
X251740D02*
D03*
X281760Y386500D02*
D03*
X289240D02*
D03*
X214240Y278000D02*
D03*
X206760D02*
D03*
X695524Y278500D02*
D03*
X688043D02*
D03*
X640307Y284673D02*
D03*
X632827D02*
D03*
X584024Y290173D02*
D03*
X576543D02*
D03*
X324260Y298000D02*
D03*
X331740D02*
D03*
X472240Y418500D02*
D03*
X464760D02*
D03*
D25*
X644693Y523484D02*
D03*
Y526043D02*
D03*
Y528602D02*
D03*
Y531161D02*
D03*
Y533720D02*
D03*
Y536279D02*
D03*
Y538839D02*
D03*
Y541398D02*
D03*
Y543957D02*
D03*
Y546516D02*
D03*
X621307Y523484D02*
D03*
Y526043D02*
D03*
Y528602D02*
D03*
Y531161D02*
D03*
Y533720D02*
D03*
Y536279D02*
D03*
Y538839D02*
D03*
Y541398D02*
D03*
Y543957D02*
D03*
Y546516D02*
D03*
D26*
X536000Y316500D02*
D03*
X541000D02*
D03*
X546000D02*
D03*
X551000D02*
D03*
X556000D02*
D03*
X561000D02*
D03*
X566000D02*
D03*
X571000D02*
D03*
X576000D02*
D03*
X581000D02*
D03*
X586000D02*
D03*
X591000D02*
D03*
X596000D02*
D03*
X601000D02*
D03*
Y352500D02*
D03*
X596000D02*
D03*
X591000D02*
D03*
X586000D02*
D03*
X581000D02*
D03*
X576000D02*
D03*
X571000D02*
D03*
X566000D02*
D03*
X561000D02*
D03*
X556000D02*
D03*
X551000D02*
D03*
X546000D02*
D03*
X541000D02*
D03*
X536000D02*
D03*
D27*
X692500Y525500D02*
D03*
X115500Y560000D02*
D03*
X656000Y210500D02*
D03*
X149500Y214000D02*
D03*
D28*
X322488Y265500D02*
D03*
X333512D02*
D03*
X281012Y398000D02*
D03*
X269988D02*
D03*
X196012Y288000D02*
D03*
X184988D02*
D03*
D29*
X308551Y274240D02*
D03*
Y266760D02*
D03*
X228000Y224240D02*
D03*
Y216760D02*
D03*
X610000Y531240D02*
D03*
Y523760D02*
D03*
X530283Y275260D02*
D03*
Y282740D02*
D03*
X624000Y471740D02*
D03*
Y464260D02*
D03*
X567000Y477740D02*
D03*
Y470260D02*
D03*
X511500Y482740D02*
D03*
Y475260D02*
D03*
X414500Y461339D02*
D03*
Y453858D02*
D03*
X384000Y461240D02*
D03*
Y453760D02*
D03*
X388000Y421240D02*
D03*
Y413760D02*
D03*
X379500Y413760D02*
D03*
Y421240D02*
D03*
X354000Y413760D02*
D03*
Y421240D02*
D03*
X336286Y413823D02*
D03*
Y421303D02*
D03*
X327598Y413724D02*
D03*
Y421205D02*
D03*
X424500Y324240D02*
D03*
Y316760D02*
D03*
X430000Y413760D02*
D03*
Y421240D02*
D03*
X413000Y430760D02*
D03*
Y438240D02*
D03*
X516000Y339740D02*
D03*
Y332260D02*
D03*
X456500Y488740D02*
D03*
Y481260D02*
D03*
X238000Y386740D02*
D03*
Y379260D02*
D03*
Y371740D02*
D03*
Y364260D02*
D03*
X266917Y309260D02*
D03*
Y316740D02*
D03*
X223000Y254909D02*
D03*
Y262390D02*
D03*
X698783Y264740D02*
D03*
Y257260D02*
D03*
X643067Y270240D02*
D03*
Y262760D02*
D03*
X587284Y275740D02*
D03*
Y268260D02*
D03*
D30*
X410552Y217449D02*
D03*
X426300D02*
D03*
Y258000D02*
D03*
X410552D02*
D03*
X375500Y217617D02*
D03*
X391248D02*
D03*
Y258168D02*
D03*
X375500D02*
D03*
D31*
X468500Y346284D02*
D03*
X463500D02*
D03*
X458500D02*
D03*
X453500D02*
D03*
X448500D02*
D03*
X443500D02*
D03*
X438500D02*
D03*
X433500D02*
D03*
X468500Y306716D02*
D03*
X463500D02*
D03*
X458500D02*
D03*
X453500D02*
D03*
X448500D02*
D03*
X443500D02*
D03*
X438500D02*
D03*
X433500D02*
D03*
X245500Y372272D02*
D03*
X250500D02*
D03*
X255500D02*
D03*
X260500D02*
D03*
X245500Y393728D02*
D03*
X250500D02*
D03*
X255500D02*
D03*
X260500D02*
D03*
D32*
X223000Y277488D02*
D03*
Y288512D02*
D03*
X235500Y327488D02*
D03*
Y338512D02*
D03*
X226563Y327488D02*
D03*
Y338512D02*
D03*
X218000Y327488D02*
D03*
Y338512D02*
D03*
X169500Y482988D02*
D03*
Y494012D02*
D03*
D33*
X289595Y220500D02*
D03*
X251406D02*
D03*
D34*
X676445Y240535D02*
D03*
X672390Y249000D02*
D03*
X680500D02*
D03*
X619555Y247035D02*
D03*
X615500Y255500D02*
D03*
X623610D02*
D03*
X564055Y251535D02*
D03*
X560000Y260000D02*
D03*
X568110D02*
D03*
X506555Y259087D02*
D03*
X502500Y267551D02*
D03*
X510610D02*
D03*
X647500Y488000D02*
D03*
X651555Y479535D02*
D03*
X643445D02*
D03*
X534945Y499965D02*
D03*
X539000Y491500D02*
D03*
X530890D02*
D03*
X480000Y505000D02*
D03*
X484055Y496535D02*
D03*
X475945D02*
D03*
X585945Y483535D02*
D03*
X594055D02*
D03*
X590000Y492000D02*
D03*
D35*
X652500Y267551D02*
D03*
Y261449D02*
D03*
X597000Y273551D02*
D03*
Y267449D02*
D03*
X541000Y278551D02*
D03*
Y272449D02*
D03*
X483284Y285551D02*
D03*
Y279449D02*
D03*
X671000Y461449D02*
D03*
Y467551D02*
D03*
X614000Y467449D02*
D03*
Y473551D02*
D03*
X557500Y472449D02*
D03*
Y478551D02*
D03*
X230500Y383000D02*
D03*
Y389102D02*
D03*
Y371051D02*
D03*
Y364949D02*
D03*
X501500Y478449D02*
D03*
Y484551D02*
D03*
D36*
X381051Y267000D02*
D03*
X374949D02*
D03*
X410449D02*
D03*
X416551D02*
D03*
D37*
X673000Y335571D02*
D03*
Y369429D02*
D03*
Y430429D02*
D03*
Y396571D02*
D03*
X188000Y387429D02*
D03*
Y353571D02*
D03*
D38*
X411500Y326130D02*
D03*
X406500D02*
D03*
X401500D02*
D03*
X396500D02*
D03*
X411500Y304870D02*
D03*
X406500D02*
D03*
X401500D02*
D03*
X396500D02*
D03*
X275500Y273630D02*
D03*
X270500D02*
D03*
X265500D02*
D03*
X260500D02*
D03*
X275500Y252370D02*
D03*
X270500D02*
D03*
X265500D02*
D03*
X260500D02*
D03*
D39*
X371957Y358311D02*
D03*
X369398D02*
D03*
X366839D02*
D03*
X364280D02*
D03*
X361720D02*
D03*
X359161D02*
D03*
X356602D02*
D03*
X354043D02*
D03*
X371957Y334689D02*
D03*
X369398D02*
D03*
X366839D02*
D03*
X364280D02*
D03*
X361720D02*
D03*
X359161D02*
D03*
X356602D02*
D03*
X354043D02*
D03*
X383043Y376189D02*
D03*
X385602D02*
D03*
X388161D02*
D03*
X390721D02*
D03*
X393280D02*
D03*
X395839D02*
D03*
X398398D02*
D03*
X400957D02*
D03*
X383043Y399811D02*
D03*
X385602D02*
D03*
X388161D02*
D03*
X390721D02*
D03*
X393280D02*
D03*
X395839D02*
D03*
X398398D02*
D03*
X400957D02*
D03*
D40*
X273512Y283079D02*
D03*
X262488D02*
D03*
X209512Y480500D02*
D03*
X198488D02*
D03*
X178488D02*
D03*
X189512D02*
D03*
X168988Y428000D02*
D03*
X180012D02*
D03*
X211012Y408000D02*
D03*
X199988D02*
D03*
X179488Y417000D02*
D03*
X190512D02*
D03*
X179488Y408000D02*
D03*
X190512D02*
D03*
X321012Y255500D02*
D03*
X309988D02*
D03*
X321012Y245500D02*
D03*
X309988D02*
D03*
X334988Y255500D02*
D03*
X346012D02*
D03*
X334988Y245500D02*
D03*
X346012D02*
D03*
X334988Y234713D02*
D03*
X346012D02*
D03*
X262488Y293000D02*
D03*
X273512D02*
D03*
X288512Y378000D02*
D03*
X277488D02*
D03*
X288512Y369000D02*
D03*
X277488D02*
D03*
X299988Y387000D02*
D03*
X311012D02*
D03*
X299988Y369000D02*
D03*
X311012D02*
D03*
X299988Y378000D02*
D03*
X311012D02*
D03*
D41*
X303000Y351799D02*
D03*
Y314201D02*
D03*
D42*
X228000Y461358D02*
D03*
Y427500D02*
D03*
D43*
X118000Y298512D02*
D03*
Y287488D02*
D03*
D44*
X204457Y456114D02*
D03*
X201898D02*
D03*
X199339D02*
D03*
X196780D02*
D03*
X194220D02*
D03*
X191661D02*
D03*
X189102D02*
D03*
X186543D02*
D03*
X204457Y432886D02*
D03*
X201898D02*
D03*
X199339D02*
D03*
X196780D02*
D03*
X194220D02*
D03*
X191661D02*
D03*
X189102D02*
D03*
X186543D02*
D03*
D45*
X195500Y444500D02*
D03*
D46*
X179772Y313000D02*
D03*
Y308000D02*
D03*
Y303000D02*
D03*
Y298000D02*
D03*
X201228Y313000D02*
D03*
Y308000D02*
D03*
Y303000D02*
D03*
Y298000D02*
D03*
X338728Y275500D02*
D03*
Y280500D02*
D03*
Y285500D02*
D03*
Y290500D02*
D03*
X317272Y275500D02*
D03*
Y280500D02*
D03*
Y285500D02*
D03*
Y290500D02*
D03*
D47*
X255874Y313000D02*
D03*
X240126D02*
D03*
D48*
X135441Y320500D02*
D03*
X165559D02*
D03*
D49*
X421760Y204500D02*
D03*
X404240D02*
D03*
D50*
X138000Y293000D02*
D03*
X153551D02*
D03*
D51*
X157429Y258000D02*
D03*
X123571D02*
D03*
D52*
X248000Y265126D02*
D03*
Y280874D02*
D03*
D53*
X118000Y310205D02*
D03*
Y327724D02*
D03*
M02*
