G04*
G04 #@! TF.GenerationSoftware,Altium Limited,Altium Designer,18.1.11 (251)*
G04*
G04 Layer_Physical_Order=1*
G04 Layer_Color=255*
%FSLAX25Y25*%
%MOIN*%
G70*
G01*
G75*
%ADD12C,0.01000*%
%ADD18R,0.06102X0.02559*%
%ADD19R,0.05906X0.04331*%
%ADD20R,0.03543X0.05315*%
%ADD21R,0.11024X0.08898*%
%ADD22R,0.05315X0.03543*%
%ADD23C,0.03000*%
%ADD24R,0.04134X0.05512*%
%ADD25R,0.07008X0.01654*%
%ADD26R,0.02400X0.09000*%
%ADD27C,0.07874*%
%ADD28R,0.05709X0.06890*%
%ADD29R,0.05512X0.04134*%
%ADD30R,0.04921X0.06299*%
%ADD31R,0.02362X0.05709*%
%ADD32R,0.07087X0.05709*%
%ADD33R,0.23622X0.21260*%
%ADD34R,0.02756X0.03937*%
%ADD35R,0.03740X0.03543*%
%ADD36R,0.03543X0.03740*%
%ADD37R,0.19685X0.19685*%
%ADD38R,0.02559X0.06102*%
%ADD39R,0.01772X0.05906*%
%ADD40R,0.05709X0.07087*%
%ADD41R,0.23622X0.19685*%
%ADD42R,0.18504X0.12598*%
%ADD43R,0.06890X0.05709*%
%ADD44R,0.01772X0.05512*%
%ADD45R,0.14094X0.11575*%
%ADD46R,0.05709X0.02362*%
%ADD47R,0.10630X0.06693*%
%ADD48R,0.13780X0.20079*%
%ADD49R,0.09449X0.12795*%
%ADD50R,0.06299X0.08071*%
%ADD51R,0.19685X0.19685*%
%ADD52R,0.06693X0.10630*%
%ADD53R,0.12795X0.09449*%
%ADD95C,0.00700*%
%ADD96C,0.00800*%
%ADD97C,0.01500*%
%ADD98C,0.01200*%
%ADD99C,0.02000*%
%ADD100C,0.02500*%
%ADD101C,0.07087*%
%ADD102C,0.07000*%
%ADD103C,0.14800*%
%ADD104C,0.19685*%
%ADD105R,0.06024X0.06024*%
%ADD106C,0.06024*%
G36*
X540800Y493043D02*
X540800Y489876D01*
X540424Y489500D01*
X539405Y489500D01*
X537500Y487595D01*
X537500Y477500D01*
Y476500D01*
X537906Y476094D01*
X544165D01*
X545000Y475260D01*
X545000Y472240D01*
X544260Y471500D01*
X536500Y471500D01*
X535000Y470000D01*
X534945D01*
Y458500D01*
X534445Y458000D01*
X530500D01*
X530000Y458500D01*
Y464500D01*
X531783Y466284D01*
Y484784D01*
X536000Y489000D01*
Y492500D01*
X537405Y493905D01*
X539937D01*
X540800Y493043D01*
D02*
G37*
G36*
X469000Y487500D02*
X461000D01*
X458500Y485000D01*
X454923Y485000D01*
X453373Y486550D01*
Y491873D01*
X454000Y492500D01*
X469000D01*
Y487500D01*
D02*
G37*
G36*
X462000Y482000D02*
X469000D01*
Y478000D01*
X454000D01*
X453000Y479000D01*
Y483000D01*
X454000Y484000D01*
X454824D01*
X454923Y483980D01*
X454923D01*
D01*
X458500Y483980D01*
X458599Y484000D01*
X460000D01*
X462000Y482000D01*
D02*
G37*
G36*
X524000Y482020D02*
X517000Y482020D01*
X517000D01*
X517000D01*
X516845Y481989D01*
X516610Y481942D01*
X516610Y481942D01*
X516610D01*
X516443Y481831D01*
X516279Y481721D01*
Y481721D01*
X516279D01*
X516058Y481500D01*
X516000D01*
X513520Y479020D01*
X509480D01*
X508774Y479727D01*
Y484795D01*
X510205Y486227D01*
X521184D01*
X521770Y486343D01*
X522005Y486500D01*
X524000D01*
Y482020D01*
D02*
G37*
G36*
X579500Y477020D02*
X572500Y477020D01*
X572500D01*
X572500D01*
X572345Y476989D01*
X572110Y476942D01*
X572110Y476942D01*
X572110D01*
X571943Y476831D01*
X571779Y476721D01*
Y476721D01*
X571779D01*
X571558Y476500D01*
X571500D01*
X569020Y474020D01*
X564980D01*
X564274Y474726D01*
Y479795D01*
X565705Y481226D01*
X572756D01*
X573341Y481343D01*
X573576Y481500D01*
X579500D01*
Y477020D01*
D02*
G37*
G36*
X223000Y483500D02*
X223000Y478500D01*
X222020Y477520D01*
X213366D01*
X212976Y477442D01*
X212645Y477221D01*
X212497Y477000D01*
X207000D01*
Y483500D01*
X204500Y486000D01*
X202000D01*
Y492000D01*
X214500D01*
X223000Y483500D01*
D02*
G37*
G36*
X168073Y498000D02*
Y494012D01*
X168181Y493466D01*
X168491Y493003D01*
X168954Y492693D01*
X169500Y492584D01*
X170046Y492693D01*
X170509Y493003D01*
X170819Y493466D01*
X170927Y494012D01*
Y498000D01*
X175500D01*
X179000Y494500D01*
X181500D01*
X182500Y493500D01*
Y468000D01*
X172158D01*
Y470335D01*
X164842D01*
Y468000D01*
X164000D01*
X162500Y466500D01*
Y465500D01*
Y464007D01*
X162145Y463476D01*
X161951Y462500D01*
X162145Y461524D01*
X162500Y460993D01*
Y459500D01*
X164500Y457500D01*
Y457000D01*
X166791D01*
Y456843D01*
X172158D01*
X173000Y456000D01*
Y444000D01*
Y442500D01*
Y424500D01*
X175000Y422500D01*
X182500D01*
X184000Y421000D01*
Y402500D01*
X187000Y399500D01*
X199000D01*
X199500Y399000D01*
Y376500D01*
X198500Y375500D01*
X177000D01*
X174500Y378000D01*
Y410401D01*
X174520Y410500D01*
Y416500D01*
X174500Y416599D01*
Y418500D01*
X172500Y420500D01*
X140500D01*
X140000Y421000D01*
Y432000D01*
X150500Y442500D01*
Y465500D01*
X150500Y484700D01*
X150962Y484892D01*
X153286Y482568D01*
X152916Y481675D01*
X152761Y480500D01*
X152916Y479325D01*
X153369Y478231D01*
X154091Y477291D01*
X155031Y476569D01*
X156125Y476116D01*
X157300Y475961D01*
X158475Y476116D01*
X159569Y476569D01*
X160509Y477291D01*
X161231Y478231D01*
X161684Y479325D01*
X161839Y480500D01*
X161684Y481675D01*
X161231Y482769D01*
X160509Y483709D01*
X159569Y484431D01*
X158475Y484884D01*
X157300Y485039D01*
X156125Y484884D01*
X155232Y484514D01*
X150500Y489247D01*
Y495000D01*
X153500Y498000D01*
X168073Y498000D01*
D02*
G37*
G36*
X514996Y477922D02*
X515058Y477610D01*
X515279Y477279D01*
X515279D01*
Y477279D01*
X516779Y475779D01*
X517110Y475558D01*
X517500Y475480D01*
X523617D01*
X523620Y475478D01*
X523700Y475358D01*
X523980Y475078D01*
Y472020D01*
X511000D01*
X510901Y472000D01*
X509000D01*
X508000Y473000D01*
Y477000D01*
X509000Y478000D01*
X514980D01*
X514996Y477922D01*
D02*
G37*
G36*
X636500Y471020D02*
X629500Y471020D01*
X629500D01*
X629500D01*
X629345Y470989D01*
X629110Y470942D01*
X629110Y470942D01*
X629110D01*
X628943Y470831D01*
X628779Y470721D01*
Y470721D01*
X628779D01*
X628558Y470500D01*
X628500D01*
X626020Y468020D01*
X621980D01*
X621029Y468971D01*
Y475029D01*
X621227Y475226D01*
X631319D01*
X631904Y475343D01*
X632139Y475500D01*
X636500D01*
Y471020D01*
D02*
G37*
G36*
X570496Y472922D02*
X570558Y472610D01*
X570779Y472279D01*
X570779D01*
Y472279D01*
X572279Y470779D01*
X572610Y470558D01*
X573000Y470480D01*
X579116D01*
X579120Y470478D01*
X579200Y470358D01*
X579480Y470078D01*
Y467020D01*
X566500D01*
X566401Y467000D01*
X564500D01*
X563500Y468000D01*
Y472000D01*
X564500Y473000D01*
X570480D01*
X570496Y472922D01*
D02*
G37*
G36*
X486000Y498000D02*
Y494500D01*
X485512Y494012D01*
X483512D01*
X482500Y493000D01*
Y482740D01*
X483240Y482000D01*
X489500D01*
X490000Y481500D01*
Y478437D01*
X489563Y478000D01*
X481000D01*
X480000Y477000D01*
Y465000D01*
X479000Y464000D01*
X475000D01*
X474500Y464500D01*
Y465402D01*
X474520Y465500D01*
Y470520D01*
X476500Y472500D01*
Y490000D01*
X481500Y495000D01*
Y498000D01*
X482500Y499000D01*
X485000D01*
X486000Y498000D01*
D02*
G37*
G36*
X469500Y476713D02*
Y473500D01*
X468500Y472500D01*
X464000D01*
X463000Y471500D01*
Y464500D01*
X462000Y463500D01*
X458019D01*
X454000Y467519D01*
Y475000D01*
X455980Y476980D01*
X469000D01*
X469500Y476713D01*
D02*
G37*
G36*
X239000Y472500D02*
Y456500D01*
X237000Y454500D01*
X209000D01*
X207500Y456000D01*
X207500Y459500D01*
X207000Y460000D01*
X206099D01*
X206000Y460020D01*
X203783D01*
X203393Y459942D01*
X203286Y459870D01*
X202571D01*
Y455500D01*
X201224D01*
Y459870D01*
X201000D01*
Y463000D01*
X202198Y464198D01*
X203025Y463645D01*
X204000Y463451D01*
X204976Y463645D01*
X205802Y464198D01*
X206355Y465025D01*
X206549Y466000D01*
X206355Y466975D01*
X205802Y467802D01*
X206244Y468244D01*
X206827D01*
Y468827D01*
X207000Y469000D01*
Y474000D01*
X208957Y475957D01*
X213366D01*
Y476500D01*
X235000D01*
X239000Y472500D01*
D02*
G37*
G36*
X473500Y486500D02*
Y465500D01*
X471000Y463000D01*
X466000D01*
X464500Y464500D01*
Y471000D01*
X464980Y471480D01*
X468500D01*
X468599Y471500D01*
X469000D01*
X470000Y472500D01*
Y472558D01*
X470221Y472779D01*
X470442Y473110D01*
X470520Y473500D01*
Y476713D01*
X470490Y476859D01*
X470476Y477008D01*
X470452Y477053D01*
X470442Y477103D01*
X470359Y477227D01*
X470289Y477359D01*
X470249Y477391D01*
X470221Y477434D01*
X470097Y477517D01*
X470000Y477596D01*
Y477902D01*
X470020Y478000D01*
Y482000D01*
X469942Y482390D01*
X469721Y482721D01*
X469390Y482942D01*
X469000Y483020D01*
X462422D01*
X461000Y484442D01*
X461000Y486000D01*
X461480Y486480D01*
X469000D01*
X469390Y486558D01*
X469721Y486779D01*
X469869Y487000D01*
X473000D01*
X473500Y486500D01*
D02*
G37*
G36*
X627496Y466922D02*
X627558Y466610D01*
X627779Y466279D01*
X627779D01*
Y466279D01*
X629279Y464779D01*
X629610Y464558D01*
X630000Y464480D01*
X636117D01*
X636120Y464478D01*
X636200Y464358D01*
X636480Y464078D01*
Y461020D01*
X621480Y461020D01*
X620500Y462000D01*
Y466000D01*
X621500Y467000D01*
X627480D01*
X627496Y466922D01*
D02*
G37*
G36*
X523980Y466980D02*
X523520Y466520D01*
X520000D01*
X519902Y466500D01*
X519000D01*
X518000Y465500D01*
Y458500D01*
X517000Y457500D01*
X511000D01*
X509000Y459500D01*
Y469000D01*
X511000Y471000D01*
X523980D01*
Y466980D01*
D02*
G37*
G36*
X528500Y480500D02*
Y459500D01*
X526000Y457000D01*
X521000D01*
X519500Y458500D01*
Y465000D01*
X520000Y465500D01*
X524000D01*
X525000Y466500D01*
Y475500D01*
X524421Y476079D01*
Y476279D01*
X524221D01*
X524000Y476500D01*
X517500D01*
X516000Y478000D01*
X516000Y480000D01*
X517000Y481000D01*
X528000Y481000D01*
X528500Y480500D01*
D02*
G37*
G36*
X201000Y485000D02*
X203000Y483000D01*
Y475756D01*
X200693D01*
Y468244D01*
X201959D01*
X202092Y467998D01*
X202159Y467744D01*
X201645Y466975D01*
X201451Y466000D01*
X201640Y465049D01*
X201631Y465045D01*
X201560Y464974D01*
X201477Y464919D01*
X200279Y463721D01*
X200058Y463390D01*
X199980Y463000D01*
Y459870D01*
X200012Y459712D01*
Y454641D01*
X199550Y454450D01*
X198665Y455335D01*
Y459870D01*
X198156D01*
Y465064D01*
X198156Y465064D01*
X198051Y465591D01*
X197753Y466037D01*
X196819Y466971D01*
X196855Y467025D01*
X197049Y468000D01*
X196855Y468975D01*
X196302Y469802D01*
X195475Y470355D01*
X194500Y470549D01*
X193525Y470355D01*
X192698Y469802D01*
X192145Y468975D01*
X191951Y468000D01*
X192105Y467227D01*
X191789Y466726D01*
X185850D01*
X185850Y466726D01*
X185323Y466622D01*
X184877Y466323D01*
X184877Y466323D01*
X184502Y465949D01*
X184000Y466049D01*
X183025Y465855D01*
X182198Y465302D01*
X181645Y464475D01*
X181451Y463500D01*
X181645Y462525D01*
X181931Y462097D01*
X181664Y461596D01*
X180209D01*
Y464157D01*
X174665D01*
Y457000D01*
X173442D01*
X172878Y457563D01*
X172548Y457785D01*
X172158Y457862D01*
X168138D01*
X167500Y458500D01*
Y464757D01*
X167515Y464779D01*
X167517Y464791D01*
X172158D01*
Y465257D01*
X173881Y466980D01*
X182500D01*
X182890Y467058D01*
X183221Y467279D01*
X183442Y467610D01*
X183520Y468000D01*
Y468244D01*
X183827D01*
Y470500D01*
X184000D01*
X184000Y483000D01*
X186000Y485000D01*
X201000Y485000D01*
D02*
G37*
G36*
X595991Y485491D02*
X595991Y485491D01*
X596047Y485453D01*
X596500Y485000D01*
Y481500D01*
X596279Y481280D01*
X593079D01*
Y481260D01*
X593000D01*
X592000Y480260D01*
Y472449D01*
X592949Y471500D01*
X600000D01*
X600500Y471000D01*
Y467563D01*
X599437Y466500D01*
X592000D01*
X591000Y465500D01*
Y453500D01*
X590000Y452500D01*
X586500D01*
X586020Y452980D01*
Y460270D01*
X587284Y461533D01*
X587284Y478775D01*
X589518Y481009D01*
X591500Y483009D01*
X591500Y485000D01*
X592500Y486000D01*
X593500Y486000D01*
X595481Y486000D01*
X595991Y485491D01*
D02*
G37*
G36*
X579480Y461980D02*
X579020Y461520D01*
X575500D01*
X575401Y461500D01*
X574500D01*
X573500Y460500D01*
Y453500D01*
X572500Y452500D01*
X566500D01*
X564500Y454500D01*
Y464000D01*
X566500Y466000D01*
X579480D01*
Y461980D01*
D02*
G37*
G36*
X206000Y429520D02*
X204442D01*
X204442Y429520D01*
X204221Y429851D01*
X203890Y430072D01*
X203783Y430093D01*
Y436642D01*
X192627D01*
X192610Y436728D01*
X192312Y437174D01*
X191521Y437965D01*
X191074Y438263D01*
X190547Y438368D01*
X186953D01*
X186427Y438263D01*
X185980Y437965D01*
X185570Y437555D01*
X185272Y437108D01*
X185179Y436642D01*
X184658D01*
Y432570D01*
X184000D01*
Y433000D01*
X184000Y458844D01*
X187216D01*
Y452358D01*
X203783D01*
Y459000D01*
X206000D01*
X206000Y429520D01*
D02*
G37*
G36*
X585000Y474500D02*
X585000Y451500D01*
X584000Y450500D01*
X578000Y450500D01*
X575000Y453500D01*
Y460000D01*
X575500Y460500D01*
X579500D01*
X580500Y461500D01*
Y470500D01*
X579921Y471079D01*
Y471279D01*
X579720D01*
X579500Y471500D01*
X573000D01*
X571500Y473000D01*
X571500Y475000D01*
X572500Y476000D01*
X583500Y476000D01*
X585000Y474500D01*
D02*
G37*
G36*
X653500Y481000D02*
X653500Y477500D01*
X653000Y477000D01*
X651000D01*
X650000Y476000D01*
Y466000D01*
X650079Y465921D01*
Y465721D01*
X650280D01*
X651000Y465000D01*
X657126D01*
X658000Y464126D01*
Y462000D01*
X657240Y461240D01*
X649740D01*
X648000Y459500D01*
Y448000D01*
X646500Y446500D01*
X642437D01*
X642000Y446937D01*
Y448401D01*
X642020Y448500D01*
Y450852D01*
X642049Y451000D01*
X642020Y451148D01*
Y453520D01*
X643067Y454567D01*
X643067Y473567D01*
X647500Y478000D01*
X647500Y479760D01*
X649740Y482000D01*
X652500D01*
X653500Y481000D01*
D02*
G37*
G36*
X636480Y460000D02*
Y455980D01*
X636020Y455520D01*
X632500D01*
X632402Y455500D01*
X631500D01*
X630500Y454500D01*
Y447500D01*
X629500Y446500D01*
X620791D01*
X618698Y448593D01*
Y458197D01*
X620500Y460000D01*
X636480Y460000D01*
D02*
G37*
G36*
X641000Y469500D02*
Y448500D01*
X638500Y446000D01*
X633500D01*
X632000Y447500D01*
Y454000D01*
X632500Y454500D01*
X636500D01*
X637500Y455500D01*
Y464500D01*
X636921Y465079D01*
Y465279D01*
X636721D01*
X636500Y465500D01*
X630000D01*
X628500Y467000D01*
X628500Y469000D01*
X629500Y470000D01*
X640500Y470000D01*
X641000Y469500D01*
D02*
G37*
G36*
X200012Y429288D02*
X199980Y429130D01*
Y413000D01*
X200058Y412610D01*
X200279Y412279D01*
X200610Y412058D01*
X201000Y411980D01*
X203520D01*
X204000Y411500D01*
Y406500D01*
X209500Y401000D01*
Y360746D01*
X209451Y360500D01*
X209500Y360254D01*
Y335500D01*
X212000Y333000D01*
X213167D01*
X213169Y332999D01*
X213559Y332921D01*
X248000Y332921D01*
X248000Y328925D01*
X241292Y328799D01*
X241107Y328759D01*
X240921Y328721D01*
X240913Y328716D01*
X240903Y328714D01*
X240748Y328606D01*
X240590Y328501D01*
X240585Y328492D01*
X240577Y328487D01*
X240474Y328327D01*
X240369Y328170D01*
X240367Y328160D01*
X240362Y328152D01*
X240328Y327965D01*
X240291Y327780D01*
Y325291D01*
X238000Y323000D01*
X230500D01*
X223000Y315500D01*
X223000Y303000D01*
X228000Y298000D01*
X258000Y298000D01*
X265500D01*
X268000Y295500D01*
X268000Y270500D01*
X267003D01*
X266972Y270521D01*
X266873Y270540D01*
X266781Y270579D01*
X266680D01*
X266582Y270598D01*
X264353D01*
X264000Y270952D01*
X264000Y274500D01*
X262779Y275720D01*
Y277681D01*
X260819D01*
X258000Y280500D01*
Y285500D01*
X254500Y289000D01*
X253099D01*
X253000Y289020D01*
X240500Y289020D01*
X240402Y289000D01*
X234000D01*
X231437Y286437D01*
X231025Y286355D01*
X230198Y285802D01*
X229645Y284976D01*
X229563Y284563D01*
X228000Y283000D01*
X193000D01*
Y288000D01*
X198000Y293000D01*
X203000D01*
X205500Y295500D01*
Y323000D01*
X205000Y323500D01*
X200500D01*
X199500Y324500D01*
X181000Y324500D01*
X171000Y334500D01*
Y360500D01*
X175000Y364500D01*
X200000D01*
X200500Y365000D01*
Y376401D01*
X200520Y376500D01*
Y399000D01*
X200500Y399098D01*
Y400500D01*
X199000Y402000D01*
X187500D01*
X185020Y404480D01*
Y421000D01*
X185000Y421099D01*
Y428000D01*
X186000Y429000D01*
X187000D01*
X187130Y429130D01*
X188429D01*
Y435500D01*
X189776D01*
Y429130D01*
X192844D01*
Y428291D01*
X191502Y426949D01*
X191000Y427049D01*
X190024Y426855D01*
X189198Y426302D01*
X188645Y425476D01*
X188451Y424500D01*
X188645Y423525D01*
X189198Y422698D01*
X190024Y422145D01*
X191000Y421951D01*
X191975Y422145D01*
X192802Y422698D01*
X193032Y423042D01*
X193563Y422936D01*
X193645Y422524D01*
X194198Y421698D01*
X195025Y421145D01*
X196000Y420951D01*
X196976Y421145D01*
X197802Y421698D01*
X198355Y422524D01*
X198549Y423500D01*
X198355Y424475D01*
X198136Y424803D01*
X198156Y424902D01*
X198156Y424902D01*
Y429130D01*
X198665D01*
Y435500D01*
X200012D01*
Y429288D01*
D02*
G37*
G36*
X202571Y429130D02*
X203500D01*
Y428500D01*
X206500D01*
X212000Y434000D01*
X248000D01*
X250500Y431500D01*
Y421000D01*
X242500Y413000D01*
X215206D01*
X214807Y413244D01*
X214807Y413500D01*
Y415471D01*
X215515D01*
X215698Y415198D01*
X216525Y414645D01*
X217500Y414451D01*
X218476Y414645D01*
X219302Y415198D01*
X219855Y416024D01*
X220049Y417000D01*
X219855Y417976D01*
X219302Y418802D01*
X218476Y419355D01*
X217500Y419549D01*
X216525Y419355D01*
X215698Y418802D01*
X215515Y418529D01*
X214807D01*
Y420756D01*
X208673D01*
Y413500D01*
X208673Y413244D01*
X208274Y413000D01*
X201000D01*
Y429130D01*
X201224D01*
Y435000D01*
X202571D01*
Y429130D01*
D02*
G37*
G36*
X464764Y440077D02*
X465211Y439778D01*
X465737Y439674D01*
X472548D01*
X473000Y439222D01*
Y438481D01*
X472453Y438409D01*
X471477Y438004D01*
X470639Y437361D01*
X469996Y436523D01*
X469591Y435547D01*
X469454Y434500D01*
X469591Y433453D01*
X469996Y432477D01*
X470639Y431639D01*
X471477Y430996D01*
X472453Y430591D01*
X473000Y430519D01*
Y422256D01*
X469173D01*
Y414744D01*
X470813D01*
Y412813D01*
X470500Y412500D01*
X456500D01*
X451000Y418000D01*
Y443500D01*
X452500Y445000D01*
X455500Y448000D01*
X456841D01*
X464764Y440077D01*
D02*
G37*
G36*
X272500Y417500D02*
Y397768D01*
X272000Y397561D01*
X271507Y398054D01*
X271401Y398585D01*
X271070Y399081D01*
X270573Y399413D01*
X269988Y399529D01*
X269403Y399413D01*
X268907Y399081D01*
X268575Y398585D01*
X268459Y398000D01*
Y397410D01*
X268575Y396824D01*
X268907Y396328D01*
X270273Y394962D01*
X270081Y394500D01*
X267000D01*
X263500Y398000D01*
X248500Y398000D01*
X247965Y397465D01*
X247681Y397583D01*
Y397583D01*
X243319D01*
Y392819D01*
X240307Y389807D01*
X234244D01*
Y383744D01*
X233832Y383332D01*
X233370Y383523D01*
Y385772D01*
X227630D01*
Y380228D01*
X229123D01*
Y379587D01*
X228698Y379302D01*
X228145Y378475D01*
X227951Y377500D01*
X227959Y377459D01*
X226500Y376000D01*
X218000D01*
X214500Y379500D01*
X214500Y400500D01*
X224500Y410500D01*
X244000D01*
X252500Y419000D01*
X271000D01*
X272500Y417500D01*
D02*
G37*
G36*
X327000Y394500D02*
Y365500D01*
X325500Y364000D01*
X315599D01*
X315500Y364020D01*
X315500D01*
D01*
D01*
X308980Y364020D01*
X306000Y367000D01*
Y393000D01*
X309500Y396500D01*
X325000D01*
X327000Y394500D01*
D02*
G37*
G36*
X284480Y389520D02*
Y367172D01*
X280828Y363520D01*
X274000D01*
X273610Y363442D01*
X273279Y363221D01*
X273058Y363000D01*
X265000D01*
Y376500D01*
X267599Y379099D01*
X267629D01*
X268214Y379216D01*
X268710Y379547D01*
X277581Y388419D01*
X277913Y388915D01*
X278029Y389500D01*
Y389529D01*
X279500Y391000D01*
X283000D01*
X284480Y389520D01*
D02*
G37*
G36*
X263500Y354500D02*
Y342779D01*
X262571D01*
Y338221D01*
X262571D01*
Y337779D01*
X262571D01*
Y333221D01*
X262571D01*
Y332780D01*
X262571D01*
Y328221D01*
X262571D01*
Y327780D01*
X262571D01*
Y323220D01*
X263500D01*
Y319807D01*
X263161D01*
Y313673D01*
X263500D01*
Y312327D01*
X263161D01*
Y309626D01*
X262189Y308653D01*
X249559D01*
Y330612D01*
X251973Y333027D01*
X251973Y333027D01*
X252272Y333473D01*
X252377Y334000D01*
Y344342D01*
X254709D01*
Y351658D01*
X249165D01*
Y344342D01*
X249623D01*
Y343193D01*
X249413Y342779D01*
X249124Y342779D01*
X245592D01*
Y344342D01*
X246835D01*
Y351658D01*
X241291D01*
Y344342D01*
X242534D01*
Y342779D01*
X241311D01*
Y338221D01*
X249124D01*
X249413Y338221D01*
X249623Y337807D01*
Y334570D01*
X248994Y333941D01*
X213559Y333941D01*
X212000Y335500D01*
Y356500D01*
X214000Y358500D01*
X229496D01*
X229698Y358198D01*
X230524Y357645D01*
X231500Y357451D01*
X232475Y357645D01*
X233302Y358198D01*
X233505Y358500D01*
X259500D01*
X263500Y354500D01*
D02*
G37*
G36*
X424500Y369500D02*
Y369246D01*
X424451Y369000D01*
X424500Y368754D01*
Y359500D01*
X421500Y356500D01*
X412500D01*
Y370000D01*
X424000D01*
X424500Y369500D01*
D02*
G37*
G36*
X410000Y356500D02*
X402500D01*
X400000Y359000D01*
Y369500D01*
X400500Y370000D01*
X410000D01*
Y356500D01*
D02*
G37*
G36*
X698000Y403500D02*
Y363000D01*
X684281Y349281D01*
X650965Y349559D01*
X650802Y349802D01*
X649975Y350355D01*
X649000Y350549D01*
X648025Y350355D01*
X647498Y350003D01*
X645157D01*
Y351209D01*
X637843D01*
Y351209D01*
X637657D01*
Y351209D01*
X630342D01*
Y351209D01*
X630158D01*
Y351209D01*
X626362D01*
X626171Y351671D01*
X627123Y352624D01*
X628072D01*
X628599Y352728D01*
X629045Y353027D01*
X657823Y381805D01*
X657823Y381805D01*
X658122Y382251D01*
X658226Y382778D01*
X658226Y382778D01*
Y406226D01*
X662000Y410000D01*
X691500D01*
X698000Y403500D01*
D02*
G37*
G36*
X303000Y395500D02*
X303000Y368000D01*
X308000Y363000D01*
X315500Y363000D01*
X318000Y360500D01*
X318000Y345500D01*
X313000Y340500D01*
X288000D01*
X278500Y350000D01*
X273000D01*
X271500Y351500D01*
Y360000D01*
X274000Y362500D01*
X281500D01*
Y362750D01*
X285500Y366750D01*
Y390500D01*
X281500Y394500D01*
X280919D01*
X280727Y394962D01*
X282093Y396328D01*
X282425Y396824D01*
X282541Y397410D01*
Y398000D01*
X282425Y398585D01*
X282093Y399081D01*
X281597Y399413D01*
X281012Y399529D01*
X280427Y399413D01*
X279930Y399081D01*
X279599Y398585D01*
X279493Y398054D01*
X278962Y397522D01*
X278500Y397714D01*
Y401000D01*
X280500Y403000D01*
X295500D01*
X303000Y395500D01*
D02*
G37*
G36*
X343000Y353500D02*
Y340000D01*
X338895D01*
X333027Y345869D01*
Y353500D01*
X343000Y353500D01*
D02*
G37*
G36*
X507661Y357339D02*
Y357302D01*
X507661Y357302D01*
X507769Y356755D01*
X508079Y356292D01*
X520500Y343871D01*
Y337500D01*
X519500Y336500D01*
X503551D01*
Y336779D01*
X495449D01*
Y336529D01*
X494471D01*
X492000Y339000D01*
Y357000D01*
X493500Y359000D01*
X506000D01*
X507661Y357339D01*
D02*
G37*
G36*
X354717Y338642D02*
Y330736D01*
X359500D01*
Y325279D01*
X351819D01*
Y320721D01*
X359500D01*
Y316000D01*
X345500D01*
X344000Y317500D01*
Y332000D01*
X345203Y333203D01*
X345665Y333012D01*
Y331842D01*
X351209D01*
Y339000D01*
X354374D01*
X354717Y338642D01*
D02*
G37*
G36*
X426000Y346000D02*
Y332000D01*
X425000Y331000D01*
X412000D01*
X411500Y331500D01*
Y346500D01*
X414000Y349000D01*
X423000D01*
X426000Y346000D01*
D02*
G37*
G36*
X364953Y330736D02*
X373843D01*
Y331500D01*
X389500D01*
X390000Y331000D01*
Y326500D01*
X389000Y325500D01*
X384246D01*
X384000Y325549D01*
X383754Y325500D01*
X374000Y325500D01*
X373780Y325279D01*
X373079D01*
Y324579D01*
X373000Y324500D01*
Y320500D01*
X373500Y320000D01*
X381500D01*
X382500Y319000D01*
Y311500D01*
X381553Y310553D01*
X381181Y310280D01*
X381181Y310279D01*
X373079D01*
Y309500D01*
Y305720D01*
X378067D01*
X378258Y305258D01*
X377256Y304256D01*
X376673D01*
Y303673D01*
X374500Y301500D01*
Y289500D01*
X363500D01*
Y309500D01*
Y320000D01*
X363000Y320500D01*
Y330736D01*
X363606D01*
Y337500D01*
X364953D01*
Y330736D01*
D02*
G37*
G36*
X383717Y372236D02*
X387264D01*
X388000Y371500D01*
X393384D01*
X393619Y371059D01*
X393399Y370729D01*
X393205Y369754D01*
X393399Y368778D01*
X393952Y367951D01*
X394778Y367399D01*
X395754Y367205D01*
X396729Y367399D01*
X397556Y367951D01*
X397730Y368211D01*
X398315Y368286D01*
X398500Y368123D01*
Y359000D01*
X402000Y355500D01*
X402401D01*
X402500Y355480D01*
X407020D01*
X410000Y352500D01*
Y331000D01*
X408500Y329500D01*
Y321500D01*
X404500D01*
X402846Y321579D01*
X402858Y322079D01*
X403780D01*
Y330181D01*
X399279D01*
X399220Y330181D01*
X398780D01*
X398721Y330181D01*
X394500D01*
X394220Y330181D01*
X394000Y330590D01*
Y343051D01*
X394476Y343145D01*
X395302Y343698D01*
X395855Y344525D01*
X396049Y345500D01*
X395855Y346476D01*
X395302Y347302D01*
X394877Y347587D01*
Y349500D01*
X394772Y350027D01*
X394473Y350473D01*
X394000Y350947D01*
Y360500D01*
X392000Y362500D01*
X383500D01*
X382000Y364000D01*
Y379500D01*
X383717D01*
Y372236D01*
D02*
G37*
G36*
X248539Y327559D02*
Y308653D01*
X248617Y308263D01*
X248838Y307933D01*
X249169Y307712D01*
X249559Y307634D01*
X262189D01*
X262579Y307712D01*
X262910Y307933D01*
X263882Y308905D01*
X264103Y309236D01*
X264181Y309626D01*
Y311579D01*
X264221Y311606D01*
X264442Y311937D01*
X264520Y312327D01*
Y313000D01*
X268000Y313000D01*
X268673Y313673D01*
X270673D01*
Y315673D01*
X280500Y325500D01*
X318000D01*
X320500Y323000D01*
X328000D01*
X333000Y318000D01*
Y313004D01*
X332698Y312802D01*
X332145Y311976D01*
X331951Y311000D01*
X332145Y310024D01*
X332698Y309198D01*
X332742Y308742D01*
X331394Y307394D01*
X330765Y307269D01*
X329938Y306717D01*
X329793Y306500D01*
X322000Y306500D01*
X320500Y305000D01*
X320500Y302500D01*
X316000Y298000D01*
X280500Y298000D01*
X278000Y300500D01*
X228000D01*
X225500Y303000D01*
Y315500D01*
X230500Y320500D01*
X238000Y320500D01*
X241311Y323811D01*
Y327780D01*
X248183Y327909D01*
X248539Y327559D01*
D02*
G37*
G36*
X173500Y416500D02*
Y410500D01*
X172500Y409500D01*
X163000D01*
X163000Y343000D01*
X160500Y340500D01*
X130500Y340500D01*
X125500Y335500D01*
Y323000D01*
X123000Y320500D01*
X113000D01*
X110500Y323000D01*
Y415500D01*
X113000Y418000D01*
X172000D01*
X173500Y416500D01*
D02*
G37*
G36*
X355693Y290807D02*
Y289244D01*
X357256D01*
X364436Y282064D01*
X364373Y281750D01*
Y264373D01*
X360500Y260500D01*
X360442D01*
X359221Y261721D01*
X358890Y261942D01*
X358500Y262020D01*
X343000Y262020D01*
X342610Y261942D01*
X342279Y261721D01*
X342058Y261390D01*
X341980Y261000D01*
Y260500D01*
X336942D01*
X336221Y261221D01*
X335890Y261442D01*
X335500Y261520D01*
X334480D01*
X333000Y263000D01*
Y263678D01*
X333386Y263996D01*
X333512Y263971D01*
X334097Y264087D01*
X334593Y264419D01*
X334925Y264915D01*
X335041Y265500D01*
Y266090D01*
X334925Y266676D01*
X334593Y267172D01*
X333383Y268383D01*
X335500Y270500D01*
X343000D01*
X345500Y273000D01*
Y280500D01*
X343000Y283000D01*
X328246D01*
X328000Y283049D01*
X327754Y283000D01*
X313000D01*
Y288000D01*
X320500D01*
Y288319D01*
X321126D01*
Y292681D01*
X320500D01*
Y300500D01*
X323000Y303000D01*
X329740D01*
X330211Y302544D01*
Y301756D01*
X328673D01*
Y294244D01*
X334807D01*
Y301756D01*
X333270D01*
Y302929D01*
X333375Y303000D01*
X343500D01*
X355693Y290807D01*
D02*
G37*
G36*
X422500Y306500D02*
Y295500D01*
X420500Y293500D01*
X412500D01*
Y299500D01*
X412000D01*
X410000Y301500D01*
Y309000D01*
X420000D01*
X422500Y306500D01*
D02*
G37*
G36*
X143000Y333000D02*
X145500Y330500D01*
X145500Y305500D01*
X140500Y300500D01*
X125500D01*
X123000Y298000D01*
Y295500D01*
X120500Y293000D01*
X113000D01*
X110500Y295500D01*
Y315500D01*
X113000Y318000D01*
X123000D01*
X128000Y323000D01*
X128000Y330500D01*
X130500Y333000D01*
X143000Y333000D01*
D02*
G37*
G36*
X391500Y301000D02*
X394220D01*
Y300819D01*
X396181D01*
X396500Y300500D01*
Y290500D01*
X396000Y290000D01*
X377500D01*
X377280Y302838D01*
X377394Y302952D01*
X377615Y303283D01*
X377620Y303309D01*
X377646Y303314D01*
X377977Y303535D01*
X378698Y304256D01*
X388244D01*
X391500Y301000D01*
D02*
G37*
G36*
X536500Y298000D02*
Y292409D01*
X536411Y292276D01*
X536303Y291730D01*
X536303Y291730D01*
Y288803D01*
X534500Y287000D01*
X518303D01*
Y291020D01*
X518764Y291480D01*
X522284D01*
X522382Y291500D01*
X523283D01*
X524284Y292500D01*
Y299230D01*
X535271D01*
X536500Y298000D01*
D02*
G37*
G36*
X408500Y308500D02*
Y301000D01*
X410500Y299000D01*
Y293500D01*
X413000Y291000D01*
Y286500D01*
X410500Y284000D01*
X398000D01*
X397500Y284500D01*
Y290402D01*
X397520Y290500D01*
Y291520D01*
X398500Y292500D01*
Y300000D01*
X399500Y301000D01*
Y309000D01*
X400000D01*
X400500Y309500D01*
X407500D01*
X408500Y308500D01*
D02*
G37*
G36*
X143000Y295500D02*
X143000Y285500D01*
X140500Y283000D01*
X113000D01*
X110500Y285500D01*
Y288000D01*
X113000Y290500D01*
X123000D01*
X125500Y293000D01*
Y295500D01*
X128000Y298000D01*
X140500Y298000D01*
X143000Y295500D01*
D02*
G37*
G36*
X280500Y295500D02*
X305500D01*
Y292146D01*
X304842D01*
Y286602D01*
X305500D01*
Y284272D01*
X304842D01*
Y282427D01*
X303553D01*
X303302Y282802D01*
X302927Y283053D01*
Y283947D01*
X303302Y284198D01*
X303855Y285024D01*
X304049Y286000D01*
X303855Y286976D01*
X303302Y287802D01*
X302476Y288355D01*
X301500Y288549D01*
X300524Y288355D01*
X299698Y287802D01*
X299145Y286976D01*
X298951Y286000D01*
X299145Y285024D01*
X299698Y284198D01*
X300073Y283947D01*
Y283053D01*
X299698Y282802D01*
X299145Y281976D01*
X298951Y281000D01*
X299145Y280025D01*
X299698Y279198D01*
X300524Y278645D01*
X301500Y278451D01*
X302476Y278645D01*
X303302Y279198D01*
X303553Y279573D01*
X304842D01*
Y278728D01*
X305500D01*
Y277307D01*
X304795D01*
Y271173D01*
X305500D01*
Y270500D01*
X313000D01*
X315500Y268000D01*
X315500Y232942D01*
X315078Y232520D01*
X304922D01*
X304020Y233422D01*
Y255480D01*
X303942Y255871D01*
X303721Y256201D01*
X303390Y256422D01*
X303000Y256500D01*
X296860D01*
X296449Y257000D01*
X296549Y257500D01*
X296355Y258475D01*
X295802Y259302D01*
X294975Y259855D01*
X294000Y260049D01*
X293024Y259855D01*
X292198Y259302D01*
X291645Y258475D01*
X291451Y257500D01*
X291539Y257058D01*
X290981Y256500D01*
X254807D01*
Y256756D01*
X251520D01*
X251520Y258811D01*
X251442Y259201D01*
X251221Y259532D01*
X250890Y259753D01*
X250500Y259831D01*
X244673D01*
Y270421D01*
X250500D01*
X250890Y270499D01*
X250892Y270500D01*
X258221Y270500D01*
Y269579D01*
X262779D01*
Y269579D01*
X263221D01*
Y269579D01*
X266582D01*
X266599Y269493D01*
X266897Y269046D01*
X267917Y268027D01*
X267917Y268027D01*
X268363Y267728D01*
X268890Y267623D01*
X268890Y267623D01*
X279343D01*
Y263791D01*
X286658D01*
Y269335D01*
X281819D01*
X281666Y269563D01*
X281256Y269973D01*
X280809Y270272D01*
X280282Y270376D01*
X277780D01*
Y272100D01*
X279343D01*
Y271665D01*
X286658D01*
Y277209D01*
X279343D01*
Y275159D01*
X277780D01*
Y277681D01*
X273220D01*
Y270376D01*
X269949D01*
X269500Y270500D01*
Y298000D01*
X278000D01*
X280500Y295500D01*
D02*
G37*
G36*
X588083Y293500D02*
X592000Y289582D01*
X592000Y284717D01*
X587284Y280000D01*
X574303D01*
Y284020D01*
X574764Y284480D01*
X578284D01*
X578382Y284500D01*
X579284D01*
X580283Y285500D01*
Y292500D01*
X581284Y293500D01*
X588083Y293500D01*
D02*
G37*
G36*
X534283Y285000D02*
Y281000D01*
X533284Y280000D01*
X527303D01*
X527288Y280078D01*
X527225Y280390D01*
X527004Y280721D01*
X527004D01*
Y280721D01*
X525504Y282221D01*
X525174Y282442D01*
X524784Y282520D01*
X518667D01*
X518453Y282662D01*
X518329Y282687D01*
X518304Y282811D01*
X518303Y282813D01*
Y285980D01*
X533303D01*
X534283Y285000D01*
D02*
G37*
G36*
X568784Y292500D02*
Y291599D01*
X568764Y291500D01*
Y270500D01*
X568784Y270402D01*
Y268500D01*
X569783Y267500D01*
X573500Y263784D01*
X573500Y248000D01*
X571500Y246000D01*
X570354Y246000D01*
X570000Y246354D01*
X570000Y257031D01*
X570488D01*
Y262968D01*
X566532D01*
X562783Y266717D01*
X562783Y272500D01*
X561205Y274079D01*
Y274279D01*
X561004D01*
X560284Y275000D01*
X553284D01*
Y278646D01*
X553637Y279000D01*
X560283Y279000D01*
X561004Y279720D01*
X561205D01*
Y279921D01*
X562783Y281500D01*
X562783Y293500D01*
X563283Y294000D01*
X567283D01*
X568784Y292500D01*
D02*
G37*
G36*
X522784Y293000D02*
X522284Y292500D01*
X518284D01*
X517283Y291500D01*
Y282500D01*
X517362Y282421D01*
Y281720D01*
X518063D01*
X518284Y281500D01*
X524784D01*
X526284Y280000D01*
X526283Y278000D01*
X525283Y277000D01*
X514284Y277000D01*
X513784Y277500D01*
Y298500D01*
X514513Y299230D01*
X522784D01*
Y293000D01*
D02*
G37*
G36*
X533010Y278540D02*
Y273205D01*
X531803Y271998D01*
X523824D01*
X523238Y271882D01*
X522742Y271550D01*
X522692Y271500D01*
X518284D01*
Y275980D01*
X525283Y275980D01*
X525283D01*
X525283D01*
X525439Y276011D01*
X525674Y276058D01*
X525674Y276058D01*
X525674D01*
X525840Y276169D01*
X526004Y276279D01*
Y276279D01*
X526005D01*
X526225Y276500D01*
X526284D01*
X528764Y278980D01*
X532569D01*
X533010Y278540D01*
D02*
G37*
G36*
X644006Y288000D02*
X647802Y284204D01*
Y278736D01*
X643586Y274520D01*
X630567D01*
X630067Y274787D01*
Y278000D01*
X631067Y279000D01*
X635567D01*
X636567Y280000D01*
Y287000D01*
X637567Y288000D01*
X644006Y288000D01*
D02*
G37*
G36*
X590500Y277783D02*
Y274217D01*
X589284Y273000D01*
X583303D01*
X583288Y273078D01*
X583225Y273390D01*
X583004Y273721D01*
X583004D01*
Y273721D01*
X582465Y274261D01*
Y274279D01*
X582446D01*
X581504Y275221D01*
X581174Y275442D01*
X580784Y275520D01*
X574706D01*
X574303Y275922D01*
Y278980D01*
X587284D01*
X587382Y279000D01*
X589284D01*
X590500Y277783D01*
D02*
G37*
G36*
X256500Y284500D02*
Y280500D01*
X261311Y275689D01*
Y272000D01*
X250500Y272000D01*
Y271441D01*
X243653D01*
Y258811D01*
X250500D01*
X250500Y256756D01*
X248673D01*
Y249244D01*
X251756D01*
X255500Y245500D01*
X265500Y235500D01*
Y203000D01*
X260500Y198000D01*
X238000D01*
X235500Y200500D01*
Y238000D01*
X235500Y283000D01*
X240500Y288000D01*
X253000Y288000D01*
X256500Y284500D01*
D02*
G37*
G36*
X578784Y292500D02*
Y286000D01*
X578284Y285500D01*
X574284D01*
X573283Y284500D01*
Y275500D01*
X574284Y274500D01*
X580784D01*
X582283Y273000D01*
X582283Y271000D01*
X581284Y270000D01*
X570284Y270000D01*
X569783Y270500D01*
Y291500D01*
X572284Y294000D01*
X577283D01*
X578784Y292500D01*
D02*
G37*
G36*
X703000Y281000D02*
X703000Y272716D01*
X699303Y269020D01*
X686283D01*
X685783Y269287D01*
Y272500D01*
X686784Y273500D01*
X691284D01*
X692283Y274500D01*
Y281500D01*
X693284Y282500D01*
X701500D01*
X703000Y281000D01*
D02*
G37*
G36*
X590010Y270774D02*
Y266205D01*
X589078Y265273D01*
X578383D01*
X577894Y265176D01*
X577797Y265157D01*
X577301Y264826D01*
X576976Y264500D01*
X574284D01*
Y268980D01*
X581284Y268980D01*
X581284D01*
X581284D01*
X581439Y269011D01*
X581674Y269058D01*
X581674Y269058D01*
X581674D01*
X581840Y269169D01*
X582004Y269279D01*
Y269279D01*
X582004D01*
X582225Y269500D01*
X582283D01*
X584764Y271980D01*
X588803D01*
X590010Y270774D01*
D02*
G37*
G36*
X646567Y272500D02*
Y268500D01*
X645567Y267500D01*
X645165D01*
X645067Y267520D01*
D01*
X645067D01*
X641067Y267520D01*
X640969Y267500D01*
X639567D01*
X637567Y269500D01*
X630567D01*
Y273500D01*
X645567D01*
X646567Y272500D01*
D02*
G37*
G36*
X512000Y298750D02*
Y294000D01*
X511500Y293500D01*
X509500Y291500D01*
X509500Y272937D01*
X504563Y268000D01*
X504500D01*
Y265563D01*
X503937Y265000D01*
X501500D01*
X501000Y265500D01*
Y267875D01*
X501041Y267936D01*
X501150Y268482D01*
X501150Y268482D01*
Y269650D01*
X501740Y270240D01*
X504500D01*
X505000Y270740D01*
Y281000D01*
X504000Y282000D01*
X497000D01*
X496240Y282760D01*
Y285500D01*
X496740Y286000D01*
X505000D01*
X506783Y287784D01*
Y299000D01*
X507013Y299230D01*
X511520D01*
X512000Y298750D01*
D02*
G37*
G36*
X635067Y287000D02*
Y280500D01*
X634586Y280020D01*
X631067D01*
X630969Y280000D01*
X630567D01*
X629567Y279000D01*
Y278942D01*
X629346Y278721D01*
X629125Y278390D01*
X629047Y278000D01*
Y274787D01*
X629076Y274641D01*
X629091Y274492D01*
X629115Y274447D01*
X629125Y274397D01*
X629208Y274273D01*
X629278Y274141D01*
X629318Y274109D01*
X629346Y274066D01*
X629470Y273983D01*
X629567Y273904D01*
Y273599D01*
X629547Y273500D01*
Y269500D01*
X629625Y269110D01*
X629846Y268779D01*
X630177Y268558D01*
X630567Y268480D01*
X637145D01*
X638567Y267058D01*
X638567Y265500D01*
X638087Y265020D01*
X630567D01*
X630177Y264942D01*
X629846Y264721D01*
X629698Y264500D01*
X626567D01*
X626067Y265000D01*
Y286000D01*
X628567Y288500D01*
X633567D01*
X635067Y287000D01*
D02*
G37*
G36*
X702283Y267000D02*
Y263000D01*
X701284Y262000D01*
X700459D01*
X700361Y262020D01*
D01*
X700361D01*
X696783Y262020D01*
X696685Y262000D01*
X695284D01*
X693284Y264000D01*
X686283D01*
Y268000D01*
X701284D01*
X702283Y267000D01*
D02*
G37*
G36*
X690784Y281500D02*
Y275000D01*
X690303Y274520D01*
X686784D01*
X686685Y274500D01*
X686283D01*
X685284Y273500D01*
Y273442D01*
X685063Y273221D01*
X684841Y272890D01*
X684764Y272500D01*
Y269287D01*
X684793Y269141D01*
X684808Y268992D01*
X684832Y268947D01*
X684841Y268897D01*
X684925Y268773D01*
X684995Y268641D01*
X685034Y268609D01*
X685063Y268566D01*
X685187Y268483D01*
X685284Y268404D01*
Y268098D01*
X685264Y268000D01*
Y264000D01*
X685342Y263610D01*
X685563Y263279D01*
X685893Y263058D01*
X686283Y262980D01*
X692861D01*
X694283Y261558D01*
X694283Y260000D01*
X693803Y259520D01*
X686283D01*
X685893Y259442D01*
X685563Y259221D01*
X685415Y259000D01*
X682283D01*
X681783Y259500D01*
Y280500D01*
X684283Y283000D01*
X689284D01*
X690784Y281500D01*
D02*
G37*
G36*
X645793Y265774D02*
Y260705D01*
X644260Y259171D01*
X634213D01*
X633628Y259055D01*
X633546Y259000D01*
X630567D01*
Y264000D01*
X638567D01*
X641067Y266500D01*
X645067Y266500D01*
X645793Y265774D01*
D02*
G37*
G36*
X543125Y275000D02*
Y264740D01*
X543964Y263902D01*
X546598D01*
X547500Y263000D01*
X547500Y257500D01*
X547083Y257083D01*
X546416D01*
X546416Y257083D01*
X545997Y257000D01*
X528500Y257000D01*
X527000Y258500D01*
Y265000D01*
X529449Y267449D01*
X536189D01*
X538500Y269760D01*
X538500Y275000D01*
X539500Y275000D01*
X543125Y275000D01*
D02*
G37*
G36*
X701971Y259390D02*
Y254187D01*
X701284Y253500D01*
X686283D01*
Y258500D01*
X694283D01*
X696783Y261000D01*
X700361Y261000D01*
X701971Y259390D01*
D02*
G37*
G36*
X625000Y286500D02*
Y281500D01*
X624374Y280874D01*
X622500D01*
X622000Y280374D01*
Y259906D01*
X619000Y256906D01*
Y254500D01*
X617500Y253000D01*
X614000D01*
X613500Y253500D01*
Y257000D01*
X614500Y258000D01*
X615832D01*
X617500Y259668D01*
Y268500D01*
X616750Y269250D01*
X609937D01*
X609500Y269687D01*
Y273000D01*
X610000Y273500D01*
X618370D01*
X620000Y275130D01*
Y286750D01*
X620250Y287000D01*
X624500D01*
X625000Y286500D01*
D02*
G37*
G36*
X680500Y281000D02*
Y275240D01*
X678500Y273240D01*
X678500Y254405D01*
X675000Y250905D01*
X675000Y247626D01*
X673874Y246500D01*
X670000D01*
X669500Y247000D01*
Y250500D01*
X670905Y251905D01*
X671406D01*
X673000Y253500D01*
Y263500D01*
X672594Y263906D01*
X665095D01*
X664524Y264476D01*
X664500Y267000D01*
X665051Y267551D01*
X672500D01*
X676000Y271051D01*
Y281055D01*
X676445Y281500D01*
X680000D01*
X680500Y281000D01*
D02*
G37*
G36*
X173000Y330500D02*
Y295500D01*
X175713Y292787D01*
X183213D01*
X185117Y290883D01*
X183907Y289672D01*
X183575Y289176D01*
X183459Y288591D01*
Y288000D01*
X183575Y287415D01*
X183907Y286919D01*
X184403Y286587D01*
X184988Y286471D01*
X185573Y286587D01*
X186070Y286919D01*
X186401Y287415D01*
X186507Y287946D01*
X187280Y288720D01*
X188000Y288000D01*
X188000Y283000D01*
X175500Y283000D01*
X173000Y280500D01*
Y254163D01*
X168544Y249706D01*
X168212Y249210D01*
X168096Y248625D01*
Y245596D01*
X168000Y245500D01*
X148000Y245500D01*
X145500Y248000D01*
X145500Y268000D01*
Y295500D01*
X153000Y303000D01*
X153000Y330500D01*
X155500Y333000D01*
X170500Y333000D01*
X173000Y330500D01*
D02*
G37*
G36*
X135500Y273000D02*
Y240500D01*
X133000Y238000D01*
X113000D01*
X110500Y240500D01*
Y273000D01*
X113000Y275500D01*
X133000D01*
X135500Y273000D01*
D02*
G37*
G36*
X322218Y267538D02*
X321407Y266727D01*
X321075Y266231D01*
X320959Y265646D01*
Y265500D01*
X321075Y264915D01*
X321407Y264419D01*
X321903Y264087D01*
X322488Y263971D01*
X323074Y264087D01*
X323570Y264419D01*
X323863Y264858D01*
X325003Y265997D01*
X325500Y265500D01*
X325500Y263000D01*
X328000Y260500D01*
X335500D01*
X340500Y255500D01*
X340500Y211500D01*
X332000Y203000D01*
X280500D01*
X275500Y208000D01*
X275500Y230500D01*
X278000Y233000D01*
X292342Y247342D01*
X293272D01*
Y248272D01*
X295500Y250500D01*
Y255374D01*
X295923Y255681D01*
X296353Y255622D01*
X296379Y255601D01*
X296428Y255586D01*
X296470Y255558D01*
X296617Y255529D01*
X296760Y255485D01*
X296810Y255490D01*
X296860Y255480D01*
X303000D01*
Y233000D01*
X304500Y231500D01*
X315500D01*
X317000Y233000D01*
X317000Y264500D01*
X320500Y268000D01*
X322026D01*
X322218Y267538D01*
D02*
G37*
G36*
X358500Y261000D02*
X362000Y257500D01*
Y232000D01*
X355500Y225500D01*
X345500D01*
X343000Y228000D01*
X343000Y261000D01*
X358500Y261000D01*
D02*
G37*
G36*
X407091Y213299D02*
X409701D01*
X410500Y212500D01*
Y197500D01*
X403500Y190500D01*
X364000D01*
X360000Y194500D01*
Y205377D01*
X369123Y214500D01*
X372039D01*
Y213468D01*
X378961D01*
Y214500D01*
X387787D01*
Y213468D01*
X394709D01*
Y214500D01*
X407091D01*
Y213299D01*
D02*
G37*
G36*
X455500Y210500D02*
Y194000D01*
X453000Y191500D01*
X420000D01*
X414000Y197500D01*
Y211500D01*
X416500Y214000D01*
X422839D01*
Y213299D01*
X429760D01*
Y214000D01*
X452000D01*
X455500Y210500D01*
D02*
G37*
%LPC*%
G36*
X174043Y486842D02*
X164957D01*
Y479134D01*
X167124D01*
Y478209D01*
X164842D01*
Y472665D01*
X172158D01*
Y478209D01*
X169876D01*
Y479134D01*
X174043D01*
Y486842D01*
D02*
G37*
G36*
X195500Y445877D02*
X194973Y445772D01*
X194527Y445473D01*
X194228Y445027D01*
X194124Y444500D01*
X194228Y443973D01*
X194527Y443527D01*
X198027Y440027D01*
X198473Y439728D01*
X199000Y439623D01*
X199000Y439623D01*
X203000D01*
X203527Y439728D01*
X203973Y440027D01*
X204272Y440473D01*
X204376Y441000D01*
X204272Y441527D01*
X203973Y441973D01*
X203527Y442272D01*
X203000Y442377D01*
X199570D01*
X196473Y445473D01*
X196027Y445772D01*
X195500Y445877D01*
D02*
G37*
G36*
X233370Y391874D02*
X227630D01*
Y390479D01*
X226051D01*
X226051Y390479D01*
X225524Y390374D01*
X225078Y390076D01*
X225078Y390076D01*
X224711Y389709D01*
X219342D01*
Y384165D01*
X226658D01*
Y387726D01*
X227630D01*
Y386331D01*
X233370D01*
Y391874D01*
D02*
G37*
G36*
X157300Y408639D02*
X156125Y408484D01*
X155031Y408031D01*
X154091Y407309D01*
X153369Y406369D01*
X152916Y405275D01*
X152761Y404100D01*
X152916Y402925D01*
X153369Y401831D01*
X154091Y400891D01*
X155031Y400169D01*
X156125Y399716D01*
X157300Y399561D01*
X158475Y399716D01*
X159569Y400169D01*
X160509Y400891D01*
X161231Y401831D01*
X161684Y402925D01*
X161839Y404100D01*
X161684Y405275D01*
X161231Y406369D01*
X160509Y407309D01*
X159569Y408031D01*
X158475Y408484D01*
X157300Y408639D01*
D02*
G37*
G36*
X145500D02*
X144325Y408484D01*
X143231Y408031D01*
X142291Y407309D01*
X141569Y406369D01*
X141116Y405275D01*
X140961Y404100D01*
X141116Y402925D01*
X141569Y401831D01*
X142291Y400891D01*
X143231Y400169D01*
X144325Y399716D01*
X145500Y399561D01*
X146675Y399716D01*
X147769Y400169D01*
X148709Y400891D01*
X149431Y401831D01*
X149884Y402925D01*
X150039Y404100D01*
X149884Y405275D01*
X149431Y406369D01*
X148709Y407309D01*
X147769Y408031D01*
X146675Y408484D01*
X145500Y408639D01*
D02*
G37*
G36*
X157300Y396839D02*
X156125Y396684D01*
X155031Y396231D01*
X154091Y395509D01*
X153369Y394569D01*
X152916Y393475D01*
X152761Y392300D01*
X152916Y391125D01*
X153369Y390031D01*
X154091Y389091D01*
X155031Y388369D01*
X156125Y387916D01*
X157300Y387761D01*
X158475Y387916D01*
X159569Y388369D01*
X160509Y389091D01*
X161231Y390031D01*
X161684Y391125D01*
X161839Y392300D01*
X161684Y393475D01*
X161231Y394569D01*
X160509Y395509D01*
X159569Y396231D01*
X158475Y396684D01*
X157300Y396839D01*
D02*
G37*
G36*
X128000Y403541D02*
X126353Y403378D01*
X124770Y402898D01*
X123311Y402118D01*
X122032Y401068D01*
X120982Y399789D01*
X120202Y398330D01*
X119721Y396747D01*
X119559Y395100D01*
X119721Y393453D01*
X120202Y391870D01*
X120982Y390411D01*
X122032Y389132D01*
X123311Y388082D01*
X124770Y387302D01*
X126353Y386822D01*
X128000Y386659D01*
X129647Y386822D01*
X131230Y387302D01*
X132689Y388082D01*
X133968Y389132D01*
X135018Y390411D01*
X135798Y391870D01*
X136278Y393453D01*
X136441Y395100D01*
X136278Y396747D01*
X135798Y398330D01*
X135018Y399789D01*
X133968Y401068D01*
X132689Y402118D01*
X131230Y402898D01*
X129647Y403378D01*
X128000Y403541D01*
D02*
G37*
G36*
X157300Y385039D02*
X156125Y384884D01*
X155031Y384431D01*
X154091Y383709D01*
X153369Y382769D01*
X152916Y381675D01*
X152761Y380500D01*
X152916Y379325D01*
X153369Y378231D01*
X154091Y377291D01*
X155031Y376569D01*
X156125Y376116D01*
X157300Y375961D01*
X158475Y376116D01*
X159569Y376569D01*
X160509Y377291D01*
X161231Y378231D01*
X161684Y379325D01*
X161839Y380500D01*
X161684Y381675D01*
X161231Y382769D01*
X160509Y383709D01*
X159569Y384431D01*
X158475Y384884D01*
X157300Y385039D01*
D02*
G37*
G36*
Y373239D02*
X156125Y373084D01*
X155031Y372631D01*
X154091Y371909D01*
X153369Y370969D01*
X152916Y369875D01*
X152761Y368700D01*
X152916Y367525D01*
X153369Y366431D01*
X154091Y365491D01*
X155031Y364769D01*
X156125Y364316D01*
X157300Y364161D01*
X158475Y364316D01*
X159569Y364769D01*
X160509Y365491D01*
X161231Y366431D01*
X161684Y367525D01*
X161839Y368700D01*
X161684Y369875D01*
X161231Y370969D01*
X160509Y371909D01*
X159569Y372631D01*
X158475Y373084D01*
X157300Y373239D01*
D02*
G37*
G36*
X128500Y373241D02*
X126853Y373078D01*
X125270Y372598D01*
X123811Y371818D01*
X122532Y370768D01*
X121482Y369489D01*
X120702Y368030D01*
X120221Y366447D01*
X120059Y364800D01*
X120221Y363153D01*
X120702Y361570D01*
X121482Y360111D01*
X122532Y358832D01*
X123811Y357782D01*
X125270Y357002D01*
X126853Y356522D01*
X128500Y356359D01*
X130147Y356522D01*
X131730Y357002D01*
X133189Y357782D01*
X134468Y358832D01*
X135518Y360111D01*
X136298Y361570D01*
X136778Y363153D01*
X136941Y364800D01*
X136778Y366447D01*
X136298Y368030D01*
X135518Y369489D01*
X134468Y370768D01*
X133189Y371818D01*
X131730Y372598D01*
X130147Y373078D01*
X128500Y373241D01*
D02*
G37*
G36*
X157300Y360939D02*
X156125Y360784D01*
X155031Y360331D01*
X154091Y359609D01*
X153369Y358669D01*
X152916Y357575D01*
X152761Y356400D01*
X152916Y355225D01*
X153369Y354131D01*
X154091Y353191D01*
X155031Y352469D01*
X156125Y352016D01*
X157300Y351861D01*
X158475Y352016D01*
X159569Y352469D01*
X160509Y353191D01*
X161231Y354131D01*
X161684Y355225D01*
X161839Y356400D01*
X161684Y357575D01*
X161231Y358669D01*
X160509Y359609D01*
X159569Y360331D01*
X158475Y360784D01*
X157300Y360939D01*
D02*
G37*
G36*
X342583Y292681D02*
X334874D01*
Y288319D01*
X342583D01*
Y292681D01*
D02*
G37*
%LPD*%
D12*
X175693Y254693D02*
Y255500D01*
X535000Y499000D02*
X535500Y499500D01*
X601500Y448500D02*
Y456402D01*
X595437D02*
X601500D01*
X551721Y289598D02*
X558347D01*
X667033Y278598D02*
X670346D01*
X506783Y258500D02*
X507283Y259000D01*
X496524Y258500D02*
X506783D01*
X495500Y484437D02*
Y489500D01*
X494937Y485000D02*
X495500Y484437D01*
X486630Y485000D02*
X494937D01*
X603067Y261457D02*
Y266063D01*
X658173Y263173D02*
X660347Y261000D01*
X658000Y256500D02*
Y263000D01*
X547784Y272563D02*
X548347Y272000D01*
X547784Y267500D02*
Y272563D01*
X491784Y274500D02*
Y279563D01*
X529200Y520700D02*
X543400Y506500D01*
X651784Y267551D02*
Y273551D01*
X483185Y278949D02*
X483685Y279449D01*
X609937Y457386D02*
X612886D01*
X558500Y465563D02*
Y472449D01*
X491500Y287720D02*
X491784Y287437D01*
X539783Y278551D02*
Y286283D01*
X604067Y278933D02*
Y279000D01*
X483783Y285551D02*
Y292437D01*
X498913Y497024D02*
X510976D01*
X495500Y472500D02*
Y476563D01*
X493051Y475000D02*
X494614Y476563D01*
X596067Y273051D02*
Y279334D01*
X548835Y487272D02*
Y489835D01*
X545563Y484000D02*
X548835Y487272D01*
X541630Y484000D02*
X545563D01*
X153449Y522350D02*
X158150D01*
X168000Y519000D02*
X173500Y524500D01*
X161500Y519000D02*
X168000D01*
X158150Y522350D02*
X161500Y519000D01*
X678610Y488500D02*
X679500Y487610D01*
X658091Y481414D02*
X659335Y482657D01*
X658063Y481000D02*
Y481386D01*
X658091Y481414D01*
X499130Y504610D02*
X512000D01*
X554130Y498610D02*
X567000D01*
X571000Y506500D02*
X574500Y503000D01*
Y484500D02*
Y503000D01*
X572756Y482756D02*
X574500Y484500D01*
X543400Y506500D02*
X571000D01*
X565072Y482756D02*
X572756D01*
X657043Y240543D02*
Y241189D01*
X656153Y241390D02*
X657043Y240500D01*
X587567Y246890D02*
X600437D01*
X698067Y233567D02*
X703500Y239000D01*
X625043D02*
X630476Y233567D01*
X698067D01*
X531284Y252390D02*
X544153D01*
X665740Y488500D02*
X678610D01*
X620256Y476756D02*
X631319D01*
X614000Y458500D02*
Y467449D01*
X612886Y457386D02*
X614000Y458500D01*
X619500Y468071D02*
Y476000D01*
Y468071D02*
X623311Y464260D01*
X609630Y493610D02*
X622500D01*
X550500Y491500D02*
X553437D01*
X548835Y489835D02*
X550500Y491500D01*
X499437Y467402D02*
X500256Y468221D01*
X501941D01*
Y477012D01*
X512000Y493094D02*
Y496000D01*
X510976Y497024D02*
X512000Y496000D01*
X657043Y241189D02*
X658610Y242756D01*
X643284Y241390D02*
X656153D01*
X602110Y260500D02*
X603067Y261457D01*
X600500Y260500D02*
X602110D01*
X562783Y251500D02*
X563283Y252000D01*
X492346Y279000D02*
X500153D01*
X183038Y227588D02*
X185114D01*
X178512Y232114D02*
X183038Y227588D01*
X421000Y241000D02*
X476400D01*
X397724Y217724D02*
X421000Y241000D01*
X476400D02*
X484100Y233300D01*
X211089Y265088D02*
X213165D01*
X206563Y269614D02*
X211089Y265088D01*
X206563Y262183D02*
Y263000D01*
X168000Y514000D02*
X169500Y512500D01*
X132500Y514000D02*
X168000D01*
X130500Y512000D02*
X132500Y514000D01*
X153449Y522350D02*
X155598Y524500D01*
X130799Y518701D02*
Y524240D01*
Y518701D02*
X133449Y516051D01*
X130500Y506299D02*
X130799Y506000D01*
X130500Y506299D02*
Y512000D01*
X165672Y507500D02*
X168672Y510500D01*
X157799Y507500D02*
X165672D01*
X156299Y506000D02*
X157799Y507500D01*
X168672Y510500D02*
X193700D01*
X201900Y518700D01*
X425874Y217724D02*
X440224D01*
X244063Y340500D02*
Y348000D01*
X600437Y246890D02*
X601327Y246000D01*
X600721Y254476D02*
X601130Y254886D01*
X584000Y509000D02*
X587500Y505500D01*
X552700Y509000D02*
X584000D01*
X541000Y520700D02*
X552700Y509000D01*
X587500Y505500D02*
X622500D01*
X643756Y270240D02*
X647323Y266673D01*
Y260072D02*
Y266673D01*
X557449Y478551D02*
X557500D01*
X244063Y340500D02*
X245362D01*
X451843Y506343D02*
X463500Y518000D01*
X451843Y485917D02*
Y506343D01*
Y485917D02*
X456500Y481260D01*
X183900Y512500D02*
X190100Y518700D01*
X169500Y512500D02*
X183900D01*
X207900Y524500D02*
X213700Y518700D01*
X173500Y524500D02*
X207900D01*
X170700Y518700D02*
X178300D01*
X168051Y516051D02*
X170700Y518700D01*
X133449Y516051D02*
X168051D01*
X308551Y274240D02*
Y281465D01*
X317272Y280500D02*
X328000D01*
X338728D01*
X701189Y262334D02*
X703500Y260024D01*
Y239000D02*
Y260024D01*
X651784Y273551D02*
X655847Y277614D01*
X593500Y239000D02*
X625043D01*
X582000Y227500D02*
X593500Y239000D01*
X601500Y456402D02*
X602063D01*
X539783Y286283D02*
X543000Y289500D01*
X543847D01*
X223443Y386494D02*
X223886Y386051D01*
X211740Y417000D02*
X217500D01*
X472000Y345500D02*
X473500Y347000D01*
X472000Y331000D02*
Y345500D01*
Y331000D02*
X473500Y329500D01*
Y347000D02*
X478000D01*
X473500Y329500D02*
X478240D01*
X131723Y524240D02*
X131862D01*
X498500Y429500D02*
Y440000D01*
X169500Y242000D02*
X169625Y242125D01*
Y248625D01*
X175693Y254693D01*
X169500Y237000D02*
Y242000D01*
X658000Y263000D02*
X658173Y263173D01*
X632500Y255928D02*
X634213Y257642D01*
X632500Y244500D02*
Y255928D01*
X629000Y241000D02*
X632500Y244500D01*
X560300Y241000D02*
X629000D01*
X575500Y246000D02*
Y260861D01*
X572500Y243000D02*
X575500Y246000D01*
X550500Y243000D02*
X572500D01*
X575500Y260861D02*
X578383Y263744D01*
X424760Y324500D02*
X433000D01*
X424500Y324240D02*
X424760Y324500D01*
X597000Y390000D02*
X599000D01*
X592937Y394063D02*
X597000Y390000D01*
X592937Y394063D02*
Y395500D01*
X600000Y390000D02*
X604563Y394563D01*
X599000Y390000D02*
X600000D01*
X613937Y246000D02*
X619067D01*
X608807D02*
X613937D01*
X659784Y270437D02*
Y281217D01*
X659000Y282000D02*
X659784Y281217D01*
X481000Y530000D02*
X485000Y526000D01*
X512100D01*
X517400Y520700D01*
X473500Y530500D02*
Y535000D01*
X481500Y543000D01*
X473500Y530500D02*
X481000Y523000D01*
X562744Y480428D02*
X565072Y482756D01*
X562744Y473827D02*
X566311Y470260D01*
X622500Y505500D02*
X629000D01*
X562744Y473827D02*
Y480428D01*
X566311Y470260D02*
X567000D01*
X553240Y499500D02*
X554130Y498610D01*
X629000Y505500D02*
X634500Y500000D01*
Y479937D02*
Y500000D01*
X631319Y476756D02*
X634500Y479937D01*
X619500Y476000D02*
X620256Y476756D01*
X623311Y464260D02*
X624000D01*
X521184Y487756D02*
X522063Y488635D01*
Y509365D01*
X517400Y514028D02*
X522063Y509365D01*
X517400Y514028D02*
Y520700D01*
X521500Y250000D02*
X521721Y249780D01*
Y241580D02*
Y249780D01*
X514500Y250000D02*
X521500D01*
X521721Y241580D02*
X529500Y233800D01*
X523824Y270468D02*
X532436D01*
X521721Y250220D02*
Y268365D01*
X530972Y282740D02*
X534539Y279173D01*
X521500Y250000D02*
X521721Y250220D01*
Y268365D02*
X523824Y270468D01*
X534539Y272572D02*
Y279173D01*
X532436Y270468D02*
X534539Y272572D01*
X530283Y282740D02*
X530972D01*
X541400Y233900D02*
X550500Y243000D01*
X541400Y242900D02*
X541500Y243000D01*
X541300Y233800D02*
X541400Y233900D01*
Y242900D01*
X553100Y233800D02*
X560300Y241000D01*
X587972Y275740D02*
X591539Y272173D01*
X587284Y275740D02*
X587972D01*
X591539Y265572D02*
Y272173D01*
X578383Y263744D02*
X589712D01*
X591539Y265572D01*
X634213Y257642D02*
X644893D01*
X647323Y260072D01*
X643067Y270240D02*
X643756D01*
X564900Y233800D02*
X571200Y227500D01*
X582000D01*
X701189Y262334D02*
Y263023D01*
X699473Y264740D02*
X701189Y263023D01*
X698783Y264740D02*
X699473D01*
X191500Y462500D02*
X191581Y462419D01*
Y456195D02*
X191661Y456114D01*
X191581Y456195D02*
Y462419D01*
X560000Y246000D02*
Y251500D01*
X553240D02*
X560000D01*
X562783D01*
X522240Y332260D02*
X522500Y332000D01*
X547500Y284216D02*
X547784Y284500D01*
X608937Y485713D02*
Y486024D01*
X507244Y485428D02*
X509572Y487756D01*
X510811Y475260D02*
X511500D01*
X507244Y478827D02*
Y485428D01*
Y478827D02*
X510811Y475260D01*
X509572Y487756D02*
X521184D01*
X494614Y476563D02*
X495500D01*
X481000Y518000D02*
X501557D01*
X463500D02*
X481000D01*
Y523000D01*
X501557Y518000D02*
X504257Y520700D01*
X505100D01*
X592937Y405000D02*
X604563D01*
X602224Y479000D02*
X608937Y485713D01*
X652000Y488500D02*
X658260D01*
X648000D02*
X652000D01*
X539500Y499500D02*
X545760D01*
X535500D02*
X539500D01*
X595000Y494500D02*
X601260D01*
X543125Y456125D02*
X543250Y456250D01*
X543000Y456000D02*
X543125Y456125D01*
X655625Y445125D02*
X655750Y445250D01*
X655500Y445000D02*
X655625Y445125D01*
X491500Y287720D02*
Y291216D01*
X659784Y270437D02*
X660347Y271000D01*
X604067Y278933D02*
X606291Y276709D01*
X612728D02*
X612937Y276500D01*
X547500Y281221D02*
Y284216D01*
X596067Y279334D02*
X597259Y280527D01*
X597444D01*
X600130Y283213D01*
Y284000D01*
X566000Y306500D02*
Y316500D01*
X198000Y245000D02*
Y255500D01*
X189740Y245000D02*
X198000D01*
X169532Y209032D02*
X169563Y209063D01*
X169500Y209000D02*
X169532Y209032D01*
X548283Y280437D02*
X549555Y281709D01*
X547500Y281221D02*
X548283Y280437D01*
X552524Y251500D02*
X553240D01*
X500153Y279000D02*
X500654D01*
X499862Y288709D02*
X500153Y289000D01*
X318857Y421500D02*
Y430626D01*
X327500D01*
X571000Y305500D02*
Y316500D01*
X561000Y305500D02*
Y316500D01*
X546000Y305500D02*
Y316500D01*
X536000Y305500D02*
Y316500D01*
X490100Y227500D02*
X495900Y233300D01*
X450000Y227500D02*
X490100D01*
X440224Y217724D02*
X450000Y227500D01*
X375626Y218413D02*
X392650Y235437D01*
X399500D01*
X391374Y217724D02*
X397724D01*
X427150Y235437D02*
X434000D01*
X410126Y218413D02*
X427150Y235437D01*
X410126Y217724D02*
Y218413D01*
X485630Y505500D02*
X490760D01*
X480500D02*
X485630D01*
X468870Y290130D02*
X469000Y290000D01*
X468740Y290260D02*
X468870Y290130D01*
X255500Y383000D02*
Y393728D01*
Y372272D02*
Y383000D01*
X190500Y303000D02*
X201228D01*
X179772D02*
X190500D01*
X440819Y352819D02*
Y356819D01*
X439181Y351181D02*
X440819Y352819D01*
X439181Y348638D02*
Y351181D01*
X477626Y354500D02*
X478000Y354874D01*
X471500Y354500D02*
X477626D01*
X516000Y332260D02*
X522240D01*
X483914Y324500D02*
X484500Y323914D01*
Y318240D02*
Y323914D01*
X478240Y324500D02*
X483914D01*
X483260Y317000D02*
X484500Y318240D01*
X507114Y332063D02*
X508000D01*
X505842Y333335D02*
X507114Y332063D01*
X505842Y333335D02*
Y333914D01*
X505257Y334500D02*
X505842Y333914D01*
X499500Y334500D02*
X505257D01*
X494000Y335000D02*
X499000D01*
X499500Y334500D01*
X490740Y331740D02*
X494000Y335000D01*
X490740Y317000D02*
Y331740D01*
X507063Y317000D02*
Y317886D01*
X505791Y319158D02*
X507063Y317886D01*
X504906Y319158D02*
X505791D01*
X501757Y322306D02*
X504906Y319158D01*
X501757Y322306D02*
Y323721D01*
X500977Y324500D02*
X501757Y323721D01*
X499500Y324500D02*
X500977D01*
X499500Y329500D02*
X500195Y328805D01*
X503258D01*
X504906Y327157D01*
X505791D01*
X507063Y325886D01*
Y325000D02*
Y325886D01*
X221750Y263640D02*
X223000Y262390D01*
X221750Y263640D02*
Y269250D01*
X215687D02*
X221750D01*
X214437Y270500D02*
X215687Y269250D01*
X190126Y254614D02*
Y255500D01*
Y254614D02*
X191398Y253343D01*
X191914D01*
X192500Y252757D01*
Y249000D02*
Y252757D01*
X188996Y245744D02*
X189740Y245000D01*
X188307Y245744D02*
X188996D01*
X186740Y247311D02*
X188307Y245744D01*
X186740Y247311D02*
Y248000D01*
X488000Y339500D02*
Y346937D01*
X488063Y347000D01*
X483000Y334500D02*
X488000Y339500D01*
X478240Y334500D02*
X483000D01*
X484000Y350937D02*
X485906Y352842D01*
X486791D01*
X488063Y354114D01*
Y355000D01*
X484000Y345260D02*
Y350937D01*
X480434Y341694D02*
X484000Y345260D01*
X480434Y340280D02*
Y341694D01*
X479654Y339500D02*
X480434Y340280D01*
X478240Y339500D02*
X479654D01*
X663721Y278598D02*
X667033D01*
Y283750D01*
X660347Y271000D02*
X668653D01*
X655847Y277614D02*
Y278500D01*
X660347Y261000D02*
X668653D01*
X608004Y284098D02*
X611317D01*
X614630D01*
X611317D02*
Y289250D01*
X619067Y246000D02*
X619567Y246500D01*
X606291Y276709D02*
X612728D01*
X604630Y266500D02*
X612937D01*
X548347Y272000D02*
X556653D01*
X556362Y281709D02*
X556653Y282000D01*
X549555Y281709D02*
X556362D01*
X544153Y252390D02*
X545043Y251500D01*
X491784Y279563D02*
X492346Y279000D01*
X487847Y295614D02*
Y296500D01*
X486575Y294342D02*
X487847Y295614D01*
X485689Y294342D02*
X486575D01*
X483783Y292437D02*
X485689Y294342D01*
X493055Y288709D02*
X499862D01*
X491784Y287437D02*
X493055Y288709D01*
X498382Y274000D02*
X500153D01*
X475283Y259390D02*
X488154D01*
X671000Y454563D02*
Y461449D01*
X666937Y450500D02*
Y451386D01*
X668209Y452658D01*
X669095D01*
X671000Y454563D01*
X659335Y482657D02*
X659898D01*
X647500Y488000D02*
X648000Y488500D01*
X655750Y445250D02*
Y450402D01*
X652437D02*
X655750D01*
X659063D01*
X597130Y474000D02*
X605437D01*
X606000Y473437D01*
X609937Y456500D02*
Y457386D01*
X606000Y473437D02*
Y478500D01*
X597130Y479000D02*
X602224D01*
X608740Y494500D02*
X609630Y493610D01*
X541630Y479000D02*
X549937D01*
X550500Y478437D01*
X554437Y461500D02*
Y462386D01*
X555709Y463658D01*
X556595D01*
X558500Y465563D01*
X541630Y469000D02*
X548051D01*
X549614Y470563D01*
X550500D01*
Y466500D02*
Y470563D01*
Y478437D02*
Y483500D01*
X543250Y456250D02*
Y461402D01*
X539937D02*
X543250D01*
X546563D01*
X488250Y467402D02*
X491563D01*
X484937D02*
X488250D01*
X488000Y462000D02*
X488250Y462250D01*
Y467402D01*
X480000Y505000D02*
X480500Y505500D01*
X498240D02*
X499130Y504610D01*
X490563Y497500D02*
Y498386D01*
X486630Y475000D02*
X493051D01*
X499437Y467500D02*
Y468386D01*
X440000Y358000D02*
Y364000D01*
Y358000D02*
X441000Y357000D01*
X438500Y347957D02*
X439181Y348638D01*
X438500Y346284D02*
Y347957D01*
X440819Y356819D02*
X441000Y357000D01*
X433500Y346284D02*
X433520Y346303D01*
Y357000D01*
X435240Y316760D02*
X438500Y313500D01*
X424500Y316760D02*
X435240D01*
X438500Y306716D02*
Y313500D01*
X468740Y290260D02*
Y296500D01*
X461260D02*
Y297189D01*
X459693Y298756D02*
X461260Y297189D01*
X459086Y298756D02*
X459693D01*
X458500Y299342D02*
X459086Y298756D01*
X458500Y299342D02*
Y306716D01*
X453500Y297740D02*
X454740Y296500D01*
X453500Y297740D02*
Y306716D01*
X448500Y297740D02*
Y306716D01*
X447260Y296500D02*
X448500Y297740D01*
X441000Y296500D02*
Y297189D01*
X442567Y298756D01*
X442914D01*
X443500Y299342D01*
Y306716D01*
X433500D02*
X433520Y306697D01*
Y296500D02*
Y306697D01*
X250823Y367500D02*
X254437Y363886D01*
X248500Y367500D02*
X250823D01*
X276500Y389500D02*
Y392898D01*
X267629Y380629D02*
X276500Y389500D01*
Y392898D02*
X281012Y397410D01*
X272414Y395055D02*
X274500Y392969D01*
Y390500D02*
Y392969D01*
X266629Y382629D02*
X274500Y390500D01*
X262371Y382629D02*
X266629D01*
X263129Y380629D02*
X267629D01*
X266622Y340500D02*
X266937Y340815D01*
Y348000D01*
X267063Y348126D01*
Y355500D01*
X169563Y209063D02*
X178000D01*
Y216937D02*
X185500D01*
X177937Y217000D02*
X178000Y216937D01*
X168000Y217000D02*
X177937D01*
X266622Y325500D02*
X266917Y325205D01*
Y316740D02*
Y325205D01*
X216000Y372000D02*
X216063Y371937D01*
X223000D01*
X229614Y364063D02*
X230500Y364949D01*
X223000Y364063D02*
X229614D01*
X238000Y364260D02*
X239260Y363000D01*
X246563D01*
X246181Y369819D02*
X248500Y367500D01*
X246181Y369819D02*
Y371591D01*
X245500Y372272D02*
X246181Y371591D01*
X254437Y363000D02*
Y363886D01*
X240842Y384500D02*
X247000D01*
X240256Y385086D02*
X240842Y384500D01*
X240256Y385086D02*
Y385173D01*
X238689Y386740D02*
X240256Y385173D01*
X238000Y386740D02*
X238689D01*
X247000Y384500D02*
X250500Y381000D01*
Y372272D02*
Y381000D01*
X247000Y384500D02*
X250500Y388000D01*
Y393728D01*
X262371Y382629D02*
X262371Y382629D01*
X260500Y384500D02*
X262371Y382629D01*
X260500Y384500D02*
Y393728D01*
Y378000D02*
X263129Y380629D01*
X281012Y397410D02*
Y398000D01*
X260500Y372272D02*
Y378000D01*
X272342Y395055D02*
X272414D01*
X269988Y397410D02*
X272342Y395055D01*
X269988Y397410D02*
Y398000D01*
X331740Y298000D02*
Y304914D01*
X333000Y275500D02*
X338728D01*
X330500Y273000D02*
X333000Y275500D01*
X330500Y269031D02*
Y273000D01*
Y269031D02*
X331086Y268445D01*
X331157D01*
X333512Y266090D01*
Y265500D02*
Y266090D01*
X317272Y275500D02*
X323000D01*
X325500Y273000D01*
Y269031D02*
Y273000D01*
X324914Y268445D02*
X325500Y269031D01*
X324843Y268445D02*
X324914D01*
X324843Y268000D02*
Y268445D01*
X322488Y265646D02*
X324843Y268000D01*
X322488Y265500D02*
Y265646D01*
X308650Y289437D02*
X309713Y290500D01*
X317272D01*
X175693Y255500D02*
X176091D01*
X166563Y228000D02*
X176906Y238342D01*
X177791D01*
X179063Y239614D01*
Y240500D01*
X158000Y228000D02*
X166563D01*
X227114Y201563D02*
X228000D01*
X179063Y240500D02*
Y247803D01*
X186386Y239949D02*
X186937Y240500D01*
X186386Y233000D02*
Y239949D01*
X178512Y232114D02*
Y233000D01*
X185114Y227588D02*
X186386Y226317D01*
Y225500D02*
Y226317D01*
X201937Y233000D02*
X209063D01*
X227114Y209437D02*
X228000D01*
X275500Y251870D02*
Y252370D01*
Y251870D02*
X276279Y251091D01*
X283000D01*
X223000Y248000D02*
Y254909D01*
X170500Y225500D02*
X178512D01*
X185500Y203000D02*
Y209063D01*
X259870Y253000D02*
X260500Y252370D01*
X282193Y273630D02*
X283000Y274437D01*
X275500Y273630D02*
X282193D01*
X213165Y265088D02*
X214437Y263817D01*
Y263000D02*
Y263817D01*
Y255500D02*
Y256386D01*
X213165Y257658D02*
X214437Y256386D01*
X212280Y257658D02*
X213165D01*
X209025Y260912D02*
X212280Y257658D01*
X207835Y260912D02*
X209025D01*
X206563Y262183D02*
X207835Y260912D01*
X206563Y263000D02*
Y263886D01*
X205500Y248000D02*
Y254437D01*
X206563Y255500D01*
X183965D02*
X190126D01*
X186760Y308000D02*
Y320500D01*
Y308000D02*
X201228D01*
X195500Y298000D02*
X201228D01*
X193000Y295500D02*
X195500Y298000D01*
X193000Y291531D02*
Y295500D01*
Y291531D02*
X193586Y290945D01*
X193658D01*
X196012Y288591D01*
Y288000D02*
Y288591D01*
X179772Y298000D02*
X185500D01*
X188000Y295500D01*
Y291531D02*
Y295500D01*
X187414Y290945D02*
X188000Y291531D01*
X187343Y290945D02*
X187414D01*
X184988Y288591D02*
X187343Y290945D01*
X184988Y288000D02*
Y288591D01*
X105500Y570500D02*
X705500D01*
X105500Y186500D02*
X705500D01*
Y570500D01*
X105500Y186500D02*
Y570500D01*
D18*
X178740Y277000D02*
D03*
Y272000D02*
D03*
Y267000D02*
D03*
Y262000D02*
D03*
X200000Y277000D02*
D03*
Y272000D02*
D03*
Y267000D02*
D03*
Y262000D02*
D03*
X219500Y210500D02*
D03*
Y215500D02*
D03*
Y220500D02*
D03*
Y225500D02*
D03*
X198240Y210500D02*
D03*
Y215500D02*
D03*
Y220500D02*
D03*
Y225500D02*
D03*
X612937Y276500D02*
D03*
Y271500D02*
D03*
Y266500D02*
D03*
Y261500D02*
D03*
X634197Y276500D02*
D03*
Y271500D02*
D03*
Y266500D02*
D03*
Y261500D02*
D03*
X668653Y271000D02*
D03*
Y266000D02*
D03*
Y261000D02*
D03*
Y256000D02*
D03*
X689913Y271000D02*
D03*
Y266000D02*
D03*
Y261000D02*
D03*
Y256000D02*
D03*
X557154Y282000D02*
D03*
Y277000D02*
D03*
Y272000D02*
D03*
Y267000D02*
D03*
X578413Y282000D02*
D03*
Y277000D02*
D03*
Y272000D02*
D03*
Y267000D02*
D03*
X500153Y289000D02*
D03*
Y284000D02*
D03*
Y279000D02*
D03*
Y274000D02*
D03*
X521413Y289000D02*
D03*
Y284000D02*
D03*
Y279000D02*
D03*
Y274000D02*
D03*
X541630Y469000D02*
D03*
Y474000D02*
D03*
Y479000D02*
D03*
Y484000D02*
D03*
X520370Y469000D02*
D03*
Y474000D02*
D03*
Y479000D02*
D03*
Y484000D02*
D03*
X654130Y458000D02*
D03*
Y463000D02*
D03*
Y468000D02*
D03*
Y473000D02*
D03*
X632870Y458000D02*
D03*
Y463000D02*
D03*
Y468000D02*
D03*
Y473000D02*
D03*
X597130Y464000D02*
D03*
Y469000D02*
D03*
Y474000D02*
D03*
Y479000D02*
D03*
X575870Y464000D02*
D03*
Y469000D02*
D03*
Y474000D02*
D03*
Y479000D02*
D03*
X355870Y323000D02*
D03*
Y318000D02*
D03*
Y313000D02*
D03*
Y308000D02*
D03*
X377130Y323000D02*
D03*
Y318000D02*
D03*
Y313000D02*
D03*
Y308000D02*
D03*
X499500Y324500D02*
D03*
Y329500D02*
D03*
Y334500D02*
D03*
Y339500D02*
D03*
X478240Y324500D02*
D03*
Y329500D02*
D03*
Y334500D02*
D03*
Y339500D02*
D03*
X486630Y475000D02*
D03*
Y480000D02*
D03*
Y485000D02*
D03*
Y490000D02*
D03*
X465370Y475000D02*
D03*
Y480000D02*
D03*
Y485000D02*
D03*
Y490000D02*
D03*
X266622Y325500D02*
D03*
Y330500D02*
D03*
Y335500D02*
D03*
Y340500D02*
D03*
X245362Y325500D02*
D03*
Y330500D02*
D03*
Y335500D02*
D03*
Y340500D02*
D03*
D19*
X474784Y259095D02*
D03*
Y270905D02*
D03*
X643000Y251905D02*
D03*
Y240094D02*
D03*
X587567Y258405D02*
D03*
Y246595D02*
D03*
X531783Y263906D02*
D03*
Y252095D02*
D03*
X679500Y476094D02*
D03*
Y487906D02*
D03*
X622500Y482094D02*
D03*
Y493905D02*
D03*
X567000Y488095D02*
D03*
Y499905D02*
D03*
X512000Y493094D02*
D03*
Y504906D02*
D03*
D20*
X214437Y263000D02*
D03*
X206563D02*
D03*
X430437Y537500D02*
D03*
X422563D02*
D03*
X430437Y527500D02*
D03*
X422563D02*
D03*
X216937Y233000D02*
D03*
X209063D02*
D03*
X179063Y240500D02*
D03*
X186937D02*
D03*
X186386Y233000D02*
D03*
X178512D02*
D03*
X186386Y225500D02*
D03*
X178512D02*
D03*
X209063Y203000D02*
D03*
X216937D02*
D03*
X201937D02*
D03*
X194063D02*
D03*
X628437Y517000D02*
D03*
X620563D02*
D03*
X642437D02*
D03*
X634563D02*
D03*
X665000Y248500D02*
D03*
X657126D02*
D03*
X609500Y253284D02*
D03*
X601626D02*
D03*
X600130Y284098D02*
D03*
X608004D02*
D03*
X553240Y260500D02*
D03*
X545366D02*
D03*
X488126Y266760D02*
D03*
X496000D02*
D03*
X501847Y296598D02*
D03*
X509721D02*
D03*
X487347D02*
D03*
X495221D02*
D03*
X539937Y461402D02*
D03*
X532063D02*
D03*
X423563Y266558D02*
D03*
X431437D02*
D03*
X389063D02*
D03*
X396937D02*
D03*
X652437Y450402D02*
D03*
X644563D02*
D03*
X666937D02*
D03*
X659063D02*
D03*
X658626Y481000D02*
D03*
X666500D02*
D03*
X609937Y456402D02*
D03*
X602063D02*
D03*
X601063Y486024D02*
D03*
X608937D02*
D03*
X595937Y456000D02*
D03*
X588063D02*
D03*
X554437Y461402D02*
D03*
X546563D02*
D03*
X545563Y491500D02*
D03*
X553437D02*
D03*
X414937Y401000D02*
D03*
X407063D02*
D03*
X369063Y399500D02*
D03*
X376937D02*
D03*
X369063Y392000D02*
D03*
X376937D02*
D03*
X369063Y384500D02*
D03*
X376937D02*
D03*
X369063Y377000D02*
D03*
X376937D02*
D03*
X385437Y358500D02*
D03*
X377563D02*
D03*
X340563Y358000D02*
D03*
X348437D02*
D03*
X340563Y350500D02*
D03*
X348437D02*
D03*
X340563Y343000D02*
D03*
X348437D02*
D03*
X340563Y335500D02*
D03*
X348437D02*
D03*
X298374Y251000D02*
D03*
X290500D02*
D03*
X266937Y348000D02*
D03*
X259063D02*
D03*
X274937Y355500D02*
D03*
X267063D02*
D03*
X246563Y363000D02*
D03*
X254437D02*
D03*
X185437Y489000D02*
D03*
X177563D02*
D03*
X169563Y460500D02*
D03*
X177437D02*
D03*
Y452500D02*
D03*
X169563D02*
D03*
X301437Y502000D02*
D03*
X293563D02*
D03*
X301437Y494000D02*
D03*
X293563D02*
D03*
X313563D02*
D03*
X321437D02*
D03*
X336437D02*
D03*
X328563D02*
D03*
X348063D02*
D03*
X355937D02*
D03*
X344563Y455760D02*
D03*
X352437D02*
D03*
X368374Y464000D02*
D03*
X360500D02*
D03*
X352437D02*
D03*
X344563D02*
D03*
X352437Y474000D02*
D03*
X344563D02*
D03*
X313563Y502000D02*
D03*
X321437D02*
D03*
X336437D02*
D03*
X328563D02*
D03*
X348063D02*
D03*
X355937D02*
D03*
X344563Y482260D02*
D03*
X352437D02*
D03*
X370500Y502000D02*
D03*
X362626D02*
D03*
X367697Y482000D02*
D03*
X359823D02*
D03*
X386563Y494000D02*
D03*
X394437D02*
D03*
X386563Y502000D02*
D03*
X394437D02*
D03*
X408937Y494000D02*
D03*
X401063D02*
D03*
X408937Y502000D02*
D03*
X401063D02*
D03*
X420063Y494500D02*
D03*
X427937D02*
D03*
X421563Y502000D02*
D03*
X429437D02*
D03*
X370374Y494000D02*
D03*
X362500D02*
D03*
X611563Y309500D02*
D03*
X619437D02*
D03*
X611563Y302000D02*
D03*
X619437D02*
D03*
X612437Y386500D02*
D03*
X604563D02*
D03*
X612437Y395500D02*
D03*
X604563D02*
D03*
X612437Y405000D02*
D03*
X604563D02*
D03*
X612437Y414500D02*
D03*
X604563D02*
D03*
X592937Y386500D02*
D03*
X585063D02*
D03*
X592937Y395500D02*
D03*
X585063D02*
D03*
X592937Y405000D02*
D03*
X585063D02*
D03*
X592937Y414500D02*
D03*
X585063D02*
D03*
X507063Y317000D02*
D03*
X514937D02*
D03*
X507063Y325000D02*
D03*
X514937D02*
D03*
X495937Y347000D02*
D03*
X488063D02*
D03*
X495937Y355000D02*
D03*
X488063D02*
D03*
X491500Y497000D02*
D03*
X499374D02*
D03*
X499437Y467402D02*
D03*
X491563D02*
D03*
X484937D02*
D03*
X477063D02*
D03*
X251937Y348000D02*
D03*
X244063D02*
D03*
X206563Y270500D02*
D03*
X214437D02*
D03*
X206563Y255500D02*
D03*
X214437D02*
D03*
X176091D02*
D03*
X183965D02*
D03*
X198000D02*
D03*
X190126D02*
D03*
X678221Y278500D02*
D03*
X670346D02*
D03*
X622504Y284098D02*
D03*
X614630D02*
D03*
X663721Y278598D02*
D03*
X655847D02*
D03*
X566720Y289598D02*
D03*
X558847D02*
D03*
X551937Y291500D02*
D03*
X544063D02*
D03*
X194063Y233000D02*
D03*
X201937D02*
D03*
D21*
X223799Y502500D02*
D03*
X211201D02*
D03*
X143500Y506000D02*
D03*
X156098D02*
D03*
X143000Y524500D02*
D03*
X155598D02*
D03*
X118201Y506000D02*
D03*
X130799D02*
D03*
X118201Y524240D02*
D03*
X130799D02*
D03*
X265095Y502000D02*
D03*
X277694D02*
D03*
X238701D02*
D03*
X251299D02*
D03*
X183701D02*
D03*
X196299D02*
D03*
D22*
X434000Y235437D02*
D03*
Y227563D02*
D03*
X414500Y468563D02*
D03*
Y476437D02*
D03*
X478000Y354874D02*
D03*
Y347000D02*
D03*
X523500Y395937D02*
D03*
Y388063D02*
D03*
X533500Y395937D02*
D03*
Y388063D02*
D03*
X308500Y281500D02*
D03*
Y289374D02*
D03*
X400000Y235437D02*
D03*
Y227563D02*
D03*
X185500Y216937D02*
D03*
Y209063D02*
D03*
X178000D02*
D03*
Y216937D02*
D03*
X228000Y209437D02*
D03*
Y201563D02*
D03*
X168500Y467563D02*
D03*
Y475437D02*
D03*
X664401Y528437D02*
D03*
Y520563D02*
D03*
X654500D02*
D03*
Y528437D02*
D03*
X659784Y270437D02*
D03*
Y262563D02*
D03*
X604067Y273437D02*
D03*
Y265563D02*
D03*
X548283Y280437D02*
D03*
Y272563D02*
D03*
X491284Y287437D02*
D03*
Y279563D02*
D03*
X400000Y245409D02*
D03*
Y253284D02*
D03*
X435500Y247126D02*
D03*
Y255000D02*
D03*
X663000Y460563D02*
D03*
Y468437D02*
D03*
X606000Y465563D02*
D03*
Y473437D02*
D03*
X550500Y470563D02*
D03*
Y478437D02*
D03*
X406000Y461437D02*
D03*
Y453563D02*
D03*
Y476437D02*
D03*
Y468563D02*
D03*
X392500Y461437D02*
D03*
Y453563D02*
D03*
Y476437D02*
D03*
Y468563D02*
D03*
X384000Y476437D02*
D03*
Y468563D02*
D03*
X413000Y421437D02*
D03*
Y413563D02*
D03*
X405000D02*
D03*
Y421437D02*
D03*
X396500Y413563D02*
D03*
Y421437D02*
D03*
X371000Y413563D02*
D03*
Y421437D02*
D03*
X362500Y413563D02*
D03*
Y421437D02*
D03*
X344786Y413626D02*
D03*
Y421500D02*
D03*
X318857Y413626D02*
D03*
Y421500D02*
D03*
X415500Y395437D02*
D03*
Y387563D02*
D03*
X408000Y395437D02*
D03*
Y387563D02*
D03*
X378500Y343063D02*
D03*
Y350937D02*
D03*
X386500Y343063D02*
D03*
Y350937D02*
D03*
Y329563D02*
D03*
Y337437D02*
D03*
X378500Y329563D02*
D03*
Y337437D02*
D03*
X283000Y251091D02*
D03*
Y258965D02*
D03*
Y274437D02*
D03*
Y266563D02*
D03*
X223000Y379063D02*
D03*
Y386937D02*
D03*
Y371937D02*
D03*
Y364063D02*
D03*
X318857Y430626D02*
D03*
Y438500D02*
D03*
X327500D02*
D03*
Y430626D02*
D03*
X336143D02*
D03*
Y438500D02*
D03*
X344786D02*
D03*
Y430626D02*
D03*
X354000D02*
D03*
Y438500D02*
D03*
X362500D02*
D03*
Y430626D02*
D03*
X371000Y438500D02*
D03*
Y430626D02*
D03*
X379500D02*
D03*
Y438500D02*
D03*
X388000Y430626D02*
D03*
Y438500D02*
D03*
X396500D02*
D03*
Y430626D02*
D03*
X405000Y438500D02*
D03*
Y430626D02*
D03*
X408000Y381937D02*
D03*
Y374063D02*
D03*
X415500Y381937D02*
D03*
Y374063D02*
D03*
X641500Y348437D02*
D03*
Y340563D02*
D03*
X634000Y348437D02*
D03*
Y340563D02*
D03*
X626500Y348437D02*
D03*
Y340563D02*
D03*
X618500Y348437D02*
D03*
Y340563D02*
D03*
X619000Y328437D02*
D03*
Y320563D02*
D03*
X627000Y328437D02*
D03*
Y320563D02*
D03*
X634500Y328437D02*
D03*
Y320563D02*
D03*
X642000Y328437D02*
D03*
Y320563D02*
D03*
X508000Y339937D02*
D03*
Y332063D02*
D03*
X494500Y476563D02*
D03*
Y484437D02*
D03*
D23*
X522500Y359000D02*
D03*
X118500Y338500D02*
D03*
X528000Y354000D02*
D03*
X481000Y530000D02*
D03*
Y523000D02*
D03*
X164500Y279500D02*
D03*
X301500Y281000D02*
D03*
X239500Y202500D02*
D03*
X231000Y247000D02*
D03*
X169500Y237000D02*
D03*
X168000Y217000D02*
D03*
X622500Y505500D02*
D03*
X628500Y255500D02*
D03*
X541500Y243000D02*
D03*
X514500Y250000D02*
D03*
X539000Y511000D02*
D03*
X344786Y407214D02*
D03*
X327598Y407000D02*
D03*
X431500Y193500D02*
D03*
X397000Y195500D02*
D03*
X637000Y415000D02*
D03*
Y407000D02*
D03*
Y398500D02*
D03*
Y391000D02*
D03*
X418500Y482500D02*
D03*
X397500Y339000D02*
D03*
X330500Y314500D02*
D03*
X169000Y415500D02*
D03*
X148500Y424500D02*
D03*
X392500Y483000D02*
D03*
X470000Y496500D02*
D03*
X147500Y562000D02*
D03*
X156000D02*
D03*
Y540000D02*
D03*
Y547333D02*
D03*
X147500Y554667D02*
D03*
X156000Y554500D02*
D03*
X147500Y540000D02*
D03*
Y547333D02*
D03*
X612000Y549500D02*
D03*
X652500Y544000D02*
D03*
X607000Y545500D02*
D03*
X656500Y541500D02*
D03*
X612000Y542000D02*
D03*
X652500Y537500D02*
D03*
X605500Y540500D02*
D03*
X656500Y535000D02*
D03*
X609000Y536500D02*
D03*
X356500Y328500D02*
D03*
X571000Y305500D02*
D03*
X566000D02*
D03*
X686283Y249500D02*
D03*
X551000Y305500D02*
D03*
X536000D02*
D03*
X526000Y492000D02*
D03*
X541000Y305500D02*
D03*
X556000D02*
D03*
X579500Y490500D02*
D03*
X638000Y480500D02*
D03*
X561000Y305500D02*
D03*
X546000D02*
D03*
X570500Y250000D02*
D03*
X516500Y266000D02*
D03*
X377130Y464260D02*
D03*
X375500Y474000D02*
D03*
X419000Y433500D02*
D03*
X412500Y483035D02*
D03*
X373000Y485000D02*
D03*
X292000Y398000D02*
D03*
X235000Y295500D02*
D03*
X456000Y444500D02*
D03*
X274500Y340500D02*
D03*
X231500Y360000D02*
D03*
X222000Y197000D02*
D03*
X309500Y228000D02*
D03*
X348500Y285500D02*
D03*
X294000Y257500D02*
D03*
X158000Y228000D02*
D03*
X181000Y320500D02*
D03*
X221750Y269250D02*
D03*
X192500Y249000D02*
D03*
X390721Y406000D02*
D03*
X442500D02*
D03*
X426065Y431935D02*
D03*
X419000Y415500D02*
D03*
X390000Y426000D02*
D03*
X400646Y426063D02*
D03*
X400500Y444000D02*
D03*
X337130Y388000D02*
D03*
X413500Y408500D02*
D03*
X421000Y400500D02*
D03*
X395839Y409000D02*
D03*
X366240Y444500D02*
D03*
X375344Y425702D02*
D03*
X353000Y401000D02*
D03*
X349100Y407500D02*
D03*
X393280Y393220D02*
D03*
X399000Y390000D02*
D03*
X345000Y401500D02*
D03*
X322500Y403500D02*
D03*
X384000Y426000D02*
D03*
X359968Y487906D02*
D03*
X307063Y413697D02*
D03*
X373500Y468700D02*
D03*
X375000Y459500D02*
D03*
X143000Y532000D02*
D03*
X143500Y498000D02*
D03*
X434500Y370000D02*
D03*
X387000Y245000D02*
D03*
X424063Y247126D02*
D03*
X192500Y276740D02*
D03*
X212500Y225500D02*
D03*
X600500Y260500D02*
D03*
X221500Y492500D02*
D03*
X191500Y489000D02*
D03*
X383000Y258168D02*
D03*
X362000Y379500D02*
D03*
X583000Y328000D02*
D03*
X591000Y344500D02*
D03*
X601000Y343500D02*
D03*
X586250Y342500D02*
D03*
X561000Y340500D02*
D03*
X571000Y341000D02*
D03*
X596000Y340500D02*
D03*
X581000Y345500D02*
D03*
X573500Y328000D02*
D03*
X546000Y342500D02*
D03*
X566000Y344500D02*
D03*
X384000Y482250D02*
D03*
X135000Y200000D02*
D03*
X307500Y479500D02*
D03*
X332000Y487000D02*
D03*
X252000Y411500D02*
D03*
X259000D02*
D03*
X266000D02*
D03*
X415000Y494000D02*
D03*
X184000Y463500D02*
D03*
X203000Y449000D02*
D03*
X195500D02*
D03*
X188500Y441500D02*
D03*
X195500Y441000D02*
D03*
X203000D02*
D03*
X328000Y280500D02*
D03*
X436000Y425500D02*
D03*
X589000Y191000D02*
D03*
X338500Y376000D02*
D03*
X395754Y369754D02*
D03*
X375000Y453500D02*
D03*
X601500Y448500D02*
D03*
X501500Y357000D02*
D03*
Y350500D02*
D03*
X508500D02*
D03*
X515000Y344871D02*
D03*
X508500Y345000D02*
D03*
X547500Y285500D02*
D03*
X558500Y296000D02*
D03*
X406000Y481500D02*
D03*
X176000Y320500D02*
D03*
X204000Y466000D02*
D03*
X637500Y560000D02*
D03*
X230500Y377500D02*
D03*
X194500Y468000D02*
D03*
X217500Y417000D02*
D03*
X640000Y436500D02*
D03*
X633000Y432000D02*
D03*
X528500Y429000D02*
D03*
X490000Y448000D02*
D03*
X621500Y453500D02*
D03*
X370000Y286000D02*
D03*
X377500Y282500D02*
D03*
X385000Y279000D02*
D03*
X495221Y296598D02*
D03*
X361500Y344500D02*
D03*
X370500Y347500D02*
D03*
X123500Y338000D02*
D03*
X313000Y477500D02*
D03*
X483000Y448562D02*
D03*
X307500Y494000D02*
D03*
X500500Y386500D02*
D03*
X496000Y391500D02*
D03*
X512500Y384500D02*
D03*
X333000Y382000D02*
D03*
X349100Y368000D02*
D03*
X332000Y370850D02*
D03*
X361510Y367790D02*
D03*
X522500Y352500D02*
D03*
X528000Y363500D02*
D03*
X520000Y316500D02*
D03*
X520250Y325250D02*
D03*
X610000Y328500D02*
D03*
X605500Y323000D02*
D03*
X490500Y389000D02*
D03*
X474000D02*
D03*
X364000Y352500D02*
D03*
X342500Y363500D02*
D03*
X212000Y360500D02*
D03*
X169625Y242125D02*
D03*
X173500Y247500D02*
D03*
X208250Y197250D02*
D03*
X217000Y381000D02*
D03*
X232000Y240000D02*
D03*
X231000Y269500D02*
D03*
X232000Y284000D02*
D03*
X229500Y277500D02*
D03*
X627000Y334500D02*
D03*
X634500D02*
D03*
X619000Y333500D02*
D03*
X647500Y368000D02*
D03*
X658000Y256500D02*
D03*
X684000Y278500D02*
D03*
X469000Y450500D02*
D03*
X633000Y523500D02*
D03*
X637500Y531000D02*
D03*
X476500Y449000D02*
D03*
X562000Y453000D02*
D03*
X578500Y439000D02*
D03*
X552000Y451500D02*
D03*
X331500Y444500D02*
D03*
X574000Y397000D02*
D03*
X430500Y364000D02*
D03*
X433000Y324500D02*
D03*
X422000Y346500D02*
D03*
X427000Y369000D02*
D03*
X456000Y471500D02*
D03*
X667500Y425858D02*
D03*
X678000D02*
D03*
X678500Y435858D02*
D03*
X668000D02*
D03*
Y341000D02*
D03*
X678500D02*
D03*
X678000Y331000D02*
D03*
X667500D02*
D03*
X639500Y451000D02*
D03*
X583000Y453000D02*
D03*
X471500Y467500D02*
D03*
X526500Y462000D02*
D03*
X266000Y405000D02*
D03*
X259000D02*
D03*
X252000D02*
D03*
X245000D02*
D03*
X448500Y446500D02*
D03*
X642000Y356500D02*
D03*
X647500Y362500D02*
D03*
Y356000D02*
D03*
X642000Y362000D02*
D03*
X637000Y356500D02*
D03*
X599000Y390000D02*
D03*
X548500Y430000D02*
D03*
X613937Y246000D02*
D03*
X606000Y297000D02*
D03*
X451000Y209500D02*
D03*
Y204000D02*
D03*
Y198500D02*
D03*
X444500Y209500D02*
D03*
Y204000D02*
D03*
Y198500D02*
D03*
X430500Y204000D02*
D03*
X438000D02*
D03*
X430500Y198500D02*
D03*
X438000D02*
D03*
X430500Y209500D02*
D03*
X438000D02*
D03*
X378000Y207500D02*
D03*
X370500D02*
D03*
X502000Y366000D02*
D03*
X217000Y408000D02*
D03*
X243500Y489500D02*
D03*
X235500D02*
D03*
X228000Y490000D02*
D03*
X219000Y481000D02*
D03*
X211500Y489500D02*
D03*
X194000Y473500D02*
D03*
Y478500D02*
D03*
Y483000D02*
D03*
X191500Y462500D02*
D03*
X188500Y449000D02*
D03*
X191000Y424500D02*
D03*
X196000Y423500D02*
D03*
X194500Y414500D02*
D03*
X180000Y444000D02*
D03*
X164500Y462500D02*
D03*
X158500Y425000D02*
D03*
X143500Y424500D02*
D03*
X181500Y382500D02*
D03*
X193500D02*
D03*
Y391500D02*
D03*
X182000Y392000D02*
D03*
X338500Y474000D02*
D03*
X547784Y267500D02*
D03*
X390500Y358500D02*
D03*
X376579Y365000D02*
D03*
X373500Y368000D02*
D03*
X260750Y329000D02*
D03*
Y321500D02*
D03*
X254500Y329000D02*
D03*
Y321500D02*
D03*
X260750Y337000D02*
D03*
X254500D02*
D03*
X322500Y542000D02*
D03*
X337500Y482500D02*
D03*
X560000Y246000D02*
D03*
X522500Y332000D02*
D03*
X506783Y253284D02*
D03*
X539500Y298000D02*
D03*
X419000Y305500D02*
D03*
X409000Y289000D02*
D03*
X401500D02*
D03*
X386500Y293000D02*
D03*
Y301000D02*
D03*
X352500Y300500D02*
D03*
X368000Y308000D02*
D03*
Y322500D02*
D03*
X384000Y323000D02*
D03*
X393500Y345500D02*
D03*
X402000Y363500D02*
D03*
X422000Y364000D02*
D03*
X646000Y431500D02*
D03*
X625500Y440000D02*
D03*
X507000Y451500D02*
D03*
X495500Y489500D02*
D03*
X643500Y441000D02*
D03*
X622500Y431000D02*
D03*
X495500Y451500D02*
D03*
X649000Y348000D02*
D03*
X566000Y458000D02*
D03*
X652000Y488500D02*
D03*
X539500Y499500D02*
D03*
X595000Y494500D02*
D03*
X511000Y462000D02*
D03*
X543125Y456125D02*
D03*
X655625Y445125D02*
D03*
X663500Y473500D02*
D03*
X550500Y483500D02*
D03*
X606000Y478500D02*
D03*
X518500Y381500D02*
D03*
X404000Y266500D02*
D03*
X629000Y284500D02*
D03*
X604000Y279000D02*
D03*
X544000Y396000D02*
D03*
X334500Y311000D02*
D03*
X301500Y286000D02*
D03*
X355200Y368000D02*
D03*
X367400D02*
D03*
X698000Y241000D02*
D03*
X491784Y274500D02*
D03*
X700500Y277000D02*
D03*
X650500Y290500D02*
D03*
X611317Y289250D02*
D03*
X646000Y283000D02*
D03*
X589500Y290000D02*
D03*
X572500D02*
D03*
X516500Y296500D02*
D03*
X533500Y294500D02*
D03*
X420000Y438500D02*
D03*
X399250Y453563D02*
D03*
X341000Y313000D02*
D03*
X349180Y426000D02*
D03*
X349500Y443000D02*
D03*
X376000Y444500D02*
D03*
X423437Y395437D02*
D03*
X422282Y374282D02*
D03*
X388000Y387000D02*
D03*
X362000Y392000D02*
D03*
X378468Y494000D02*
D03*
X342250D02*
D03*
X416500Y502000D02*
D03*
X378532D02*
D03*
X342250D02*
D03*
X307500D02*
D03*
X328000Y536000D02*
D03*
X333500Y530500D02*
D03*
X318000Y547000D02*
D03*
X288500Y506500D02*
D03*
X255500Y513000D02*
D03*
X267000Y502000D02*
D03*
X239201D02*
D03*
X211701D02*
D03*
X183000D02*
D03*
X472240Y408740D02*
D03*
X348500Y279500D02*
D03*
X355500D02*
D03*
Y286000D02*
D03*
X348500D02*
D03*
Y273000D02*
D03*
X355500D02*
D03*
Y266500D02*
D03*
X348500D02*
D03*
X374949Y274449D02*
D03*
X418000Y258168D02*
D03*
X392000Y227500D02*
D03*
X426063Y227563D02*
D03*
X443500Y330500D02*
D03*
X453500Y331000D02*
D03*
X116500Y199000D02*
D03*
X122773Y202773D02*
D03*
X621500Y386500D02*
D03*
Y395500D02*
D03*
Y405000D02*
D03*
Y414500D02*
D03*
X575000D02*
D03*
X651000Y553500D02*
D03*
X629246Y531246D02*
D03*
X610000Y518000D02*
D03*
X198000Y245000D02*
D03*
X228000Y196500D02*
D03*
X368000Y315500D02*
D03*
X336000Y349000D02*
D03*
X118201Y515120D02*
D03*
X169750Y502750D02*
D03*
X331786Y426063D02*
D03*
X318857Y444634D02*
D03*
X653500Y320500D02*
D03*
X642000Y335250D02*
D03*
X471500Y354500D02*
D03*
X501500Y344500D02*
D03*
X484500Y323914D02*
D03*
X488000Y462000D02*
D03*
X485630Y505500D02*
D03*
X440000Y364000D02*
D03*
X468870Y290130D02*
D03*
X322000Y368000D02*
D03*
Y375000D02*
D03*
Y382500D02*
D03*
Y391000D02*
D03*
X270000Y376000D02*
D03*
Y368500D02*
D03*
X288250Y290000D02*
D03*
Y282500D02*
D03*
X282000Y290000D02*
D03*
Y282500D02*
D03*
X272500Y266000D02*
D03*
Y259750D02*
D03*
X257000Y266000D02*
D03*
X264500D02*
D03*
X257000Y259750D02*
D03*
X264500D02*
D03*
X194500Y333000D02*
D03*
X202000D02*
D03*
X194500Y326750D02*
D03*
X202000D02*
D03*
X179000Y333000D02*
D03*
X186500D02*
D03*
X179000Y326750D02*
D03*
X186500D02*
D03*
X169532Y209032D02*
D03*
X186760Y308000D02*
D03*
X237000Y344500D02*
D03*
X230333D02*
D03*
X223667D02*
D03*
X217000D02*
D03*
X255500Y383000D02*
D03*
X216000Y372000D02*
D03*
X247000Y384500D02*
D03*
X331740Y304914D02*
D03*
X355500Y235500D02*
D03*
Y243000D02*
D03*
Y250500D02*
D03*
Y258000D02*
D03*
X313000Y260500D02*
D03*
X305500D02*
D03*
X218000Y286750D02*
D03*
X210500D02*
D03*
X218000Y293000D02*
D03*
X210500D02*
D03*
Y305500D02*
D03*
X218000D02*
D03*
X210500Y299250D02*
D03*
X218000D02*
D03*
Y311750D02*
D03*
X210500D02*
D03*
X218000Y318000D02*
D03*
X210500D02*
D03*
X378000Y196500D02*
D03*
X370500D02*
D03*
X378000Y202000D02*
D03*
X370500D02*
D03*
X384500Y196500D02*
D03*
Y202000D02*
D03*
Y207500D02*
D03*
X391000Y196500D02*
D03*
Y202000D02*
D03*
Y207500D02*
D03*
X223000Y248000D02*
D03*
X170500Y225500D02*
D03*
X185500Y203000D02*
D03*
X205500Y248000D02*
D03*
X186386Y267000D02*
D03*
X200500Y320500D02*
D03*
X190500Y303000D02*
D03*
X130500Y271500D02*
D03*
X123000D02*
D03*
X115500D02*
D03*
X130500Y243000D02*
D03*
X123000D02*
D03*
X115500D02*
D03*
D24*
X645240Y553500D02*
D03*
X637760D02*
D03*
X441000Y296500D02*
D03*
X433520D02*
D03*
X454740D02*
D03*
X447260D02*
D03*
X468740D02*
D03*
X461260D02*
D03*
X433520Y357000D02*
D03*
X441000D02*
D03*
X194240Y320500D02*
D03*
X186760D02*
D03*
X224260Y233000D02*
D03*
X231740D02*
D03*
X179260Y248000D02*
D03*
X186740D02*
D03*
X657043Y240500D02*
D03*
X664524D02*
D03*
X601327Y246000D02*
D03*
X608807D02*
D03*
X520043Y296500D02*
D03*
X527524D02*
D03*
X545760Y251500D02*
D03*
X553240D02*
D03*
X488760Y258500D02*
D03*
X496240D02*
D03*
X522240Y461500D02*
D03*
X514760D02*
D03*
X665740Y488500D02*
D03*
X658260D02*
D03*
X635240Y450000D02*
D03*
X627760D02*
D03*
X608740Y494500D02*
D03*
X601260D02*
D03*
X577740Y456500D02*
D03*
X570260D02*
D03*
X553240Y499500D02*
D03*
X545760D02*
D03*
X407260Y359500D02*
D03*
X414740D02*
D03*
X407260Y367000D02*
D03*
X414740D02*
D03*
X406260Y342000D02*
D03*
X413740D02*
D03*
X406260Y334500D02*
D03*
X413740D02*
D03*
X407260Y296500D02*
D03*
X414740D02*
D03*
X401240D02*
D03*
X393760D02*
D03*
X372260Y300500D02*
D03*
X379740D02*
D03*
X372260Y293000D02*
D03*
X379740D02*
D03*
X366240Y300500D02*
D03*
X358760D02*
D03*
X366240Y293000D02*
D03*
X358760D02*
D03*
X348240Y327000D02*
D03*
X340760D02*
D03*
X348240Y319500D02*
D03*
X340760D02*
D03*
X197760Y489000D02*
D03*
X205240D02*
D03*
X211240Y472000D02*
D03*
X203760D02*
D03*
X178740Y436500D02*
D03*
X171260D02*
D03*
X204260Y417000D02*
D03*
X211740D02*
D03*
X188240Y472000D02*
D03*
X180760D02*
D03*
X360760Y456000D02*
D03*
X368240D02*
D03*
X367740Y474000D02*
D03*
X360260D02*
D03*
X577260Y305500D02*
D03*
X584740D02*
D03*
X490740Y317000D02*
D03*
X483260D02*
D03*
X498240Y505500D02*
D03*
X490760D02*
D03*
X467240Y467500D02*
D03*
X459760D02*
D03*
X311760Y235500D02*
D03*
X319240D02*
D03*
X244260Y253000D02*
D03*
X251740D02*
D03*
X281760Y386500D02*
D03*
X289240D02*
D03*
X214240Y278000D02*
D03*
X206760D02*
D03*
X695524Y278500D02*
D03*
X688043D02*
D03*
X640307Y284673D02*
D03*
X632827D02*
D03*
X584024Y290173D02*
D03*
X576543D02*
D03*
X324260Y298000D02*
D03*
X331740D02*
D03*
X472240Y418500D02*
D03*
X464760D02*
D03*
D25*
X644693Y523484D02*
D03*
Y526043D02*
D03*
Y528602D02*
D03*
Y531161D02*
D03*
Y533720D02*
D03*
Y536279D02*
D03*
Y538839D02*
D03*
Y541398D02*
D03*
Y543957D02*
D03*
Y546516D02*
D03*
X621307Y523484D02*
D03*
Y526043D02*
D03*
Y528602D02*
D03*
Y531161D02*
D03*
Y533720D02*
D03*
Y536279D02*
D03*
Y538839D02*
D03*
Y541398D02*
D03*
Y543957D02*
D03*
Y546516D02*
D03*
D26*
X536000Y316500D02*
D03*
X541000D02*
D03*
X546000D02*
D03*
X551000D02*
D03*
X556000D02*
D03*
X561000D02*
D03*
X566000D02*
D03*
X571000D02*
D03*
X576000D02*
D03*
X581000D02*
D03*
X586000D02*
D03*
X591000D02*
D03*
X596000D02*
D03*
X601000D02*
D03*
Y352500D02*
D03*
X596000D02*
D03*
X591000D02*
D03*
X586000D02*
D03*
X581000D02*
D03*
X576000D02*
D03*
X571000D02*
D03*
X566000D02*
D03*
X561000D02*
D03*
X556000D02*
D03*
X551000D02*
D03*
X546000D02*
D03*
X541000D02*
D03*
X536000D02*
D03*
D27*
X692500Y525500D02*
D03*
X115500Y560000D02*
D03*
X656000Y210500D02*
D03*
X149500Y214000D02*
D03*
D28*
X322488Y265500D02*
D03*
X333512D02*
D03*
X281012Y398000D02*
D03*
X269988D02*
D03*
X196012Y288000D02*
D03*
X184988D02*
D03*
D29*
X308551Y274240D02*
D03*
Y266760D02*
D03*
X228000Y224240D02*
D03*
Y216760D02*
D03*
X610000Y531240D02*
D03*
Y523760D02*
D03*
X530283Y275260D02*
D03*
Y282740D02*
D03*
X624000Y471740D02*
D03*
Y464260D02*
D03*
X567000Y477740D02*
D03*
Y470260D02*
D03*
X511500Y482740D02*
D03*
Y475260D02*
D03*
X414500Y461339D02*
D03*
Y453858D02*
D03*
X384000Y461240D02*
D03*
Y453760D02*
D03*
X388000Y421240D02*
D03*
Y413760D02*
D03*
X379500Y413760D02*
D03*
Y421240D02*
D03*
X354000Y413760D02*
D03*
Y421240D02*
D03*
X336286Y413823D02*
D03*
Y421303D02*
D03*
X327598Y413724D02*
D03*
Y421205D02*
D03*
X424500Y324240D02*
D03*
Y316760D02*
D03*
X430000Y413760D02*
D03*
Y421240D02*
D03*
X413000Y430760D02*
D03*
Y438240D02*
D03*
X516000Y339740D02*
D03*
Y332260D02*
D03*
X456500Y488740D02*
D03*
Y481260D02*
D03*
X238000Y386740D02*
D03*
Y379260D02*
D03*
Y371740D02*
D03*
Y364260D02*
D03*
X266917Y309260D02*
D03*
Y316740D02*
D03*
X223000Y254909D02*
D03*
Y262390D02*
D03*
X698783Y264740D02*
D03*
Y257260D02*
D03*
X643067Y270240D02*
D03*
Y262760D02*
D03*
X587284Y275740D02*
D03*
Y268260D02*
D03*
D30*
X410552Y217449D02*
D03*
X426300D02*
D03*
Y258000D02*
D03*
X410552D02*
D03*
X375500Y217617D02*
D03*
X391248D02*
D03*
Y258168D02*
D03*
X375500D02*
D03*
D31*
X468500Y346284D02*
D03*
X463500D02*
D03*
X458500D02*
D03*
X453500D02*
D03*
X448500D02*
D03*
X443500D02*
D03*
X438500D02*
D03*
X433500D02*
D03*
X468500Y306716D02*
D03*
X463500D02*
D03*
X458500D02*
D03*
X453500D02*
D03*
X448500D02*
D03*
X443500D02*
D03*
X438500D02*
D03*
X433500D02*
D03*
X245500Y372272D02*
D03*
X250500D02*
D03*
X255500D02*
D03*
X260500D02*
D03*
X245500Y393728D02*
D03*
X250500D02*
D03*
X255500D02*
D03*
X260500D02*
D03*
D32*
X223000Y277488D02*
D03*
Y288512D02*
D03*
X235500Y327488D02*
D03*
Y338512D02*
D03*
X226563Y327488D02*
D03*
Y338512D02*
D03*
X218000Y327488D02*
D03*
Y338512D02*
D03*
X169500Y482988D02*
D03*
Y494012D02*
D03*
D33*
X289595Y220500D02*
D03*
X251406D02*
D03*
D34*
X676445Y240535D02*
D03*
X672390Y249000D02*
D03*
X680500D02*
D03*
X619555Y247035D02*
D03*
X615500Y255500D02*
D03*
X623610D02*
D03*
X564055Y251535D02*
D03*
X560000Y260000D02*
D03*
X568110D02*
D03*
X506555Y259087D02*
D03*
X502500Y267551D02*
D03*
X510610D02*
D03*
X647500Y488000D02*
D03*
X651555Y479535D02*
D03*
X643445D02*
D03*
X534945Y499965D02*
D03*
X539000Y491500D02*
D03*
X530890D02*
D03*
X480000Y505000D02*
D03*
X484055Y496535D02*
D03*
X475945D02*
D03*
X585945Y483535D02*
D03*
X594055D02*
D03*
X590000Y492000D02*
D03*
D35*
X652500Y267551D02*
D03*
Y261449D02*
D03*
X597000Y273551D02*
D03*
Y267449D02*
D03*
X541000Y278551D02*
D03*
Y272449D02*
D03*
X483284Y285551D02*
D03*
Y279449D02*
D03*
X671000Y461449D02*
D03*
Y467551D02*
D03*
X614000Y467449D02*
D03*
Y473551D02*
D03*
X557500Y472449D02*
D03*
Y478551D02*
D03*
X230500Y383000D02*
D03*
Y389102D02*
D03*
Y371051D02*
D03*
Y364949D02*
D03*
X501500Y478449D02*
D03*
Y484551D02*
D03*
D36*
X381051Y267000D02*
D03*
X374949D02*
D03*
X410449D02*
D03*
X416551D02*
D03*
D37*
X673000Y335571D02*
D03*
Y369429D02*
D03*
Y430429D02*
D03*
Y396571D02*
D03*
X188000Y387429D02*
D03*
Y353571D02*
D03*
D38*
X411500Y326130D02*
D03*
X406500D02*
D03*
X401500D02*
D03*
X396500D02*
D03*
X411500Y304870D02*
D03*
X406500D02*
D03*
X401500D02*
D03*
X396500D02*
D03*
X275500Y273630D02*
D03*
X270500D02*
D03*
X265500D02*
D03*
X260500D02*
D03*
X275500Y252370D02*
D03*
X270500D02*
D03*
X265500D02*
D03*
X260500D02*
D03*
D39*
X371957Y358311D02*
D03*
X369398D02*
D03*
X366839D02*
D03*
X364280D02*
D03*
X361720D02*
D03*
X359161D02*
D03*
X356602D02*
D03*
X354043D02*
D03*
X371957Y334689D02*
D03*
X369398D02*
D03*
X366839D02*
D03*
X364280D02*
D03*
X361720D02*
D03*
X359161D02*
D03*
X356602D02*
D03*
X354043D02*
D03*
X383043Y376189D02*
D03*
X385602D02*
D03*
X388161D02*
D03*
X390721D02*
D03*
X393280D02*
D03*
X395839D02*
D03*
X398398D02*
D03*
X400957D02*
D03*
X383043Y399811D02*
D03*
X385602D02*
D03*
X388161D02*
D03*
X390721D02*
D03*
X393280D02*
D03*
X395839D02*
D03*
X398398D02*
D03*
X400957D02*
D03*
D40*
X273512Y283079D02*
D03*
X262488D02*
D03*
X209512Y480500D02*
D03*
X198488D02*
D03*
X178488D02*
D03*
X189512D02*
D03*
X168988Y428000D02*
D03*
X180012D02*
D03*
X211012Y408000D02*
D03*
X199988D02*
D03*
X179488Y417000D02*
D03*
X190512D02*
D03*
X179488Y408000D02*
D03*
X190512D02*
D03*
X321012Y255500D02*
D03*
X309988D02*
D03*
X321012Y245500D02*
D03*
X309988D02*
D03*
X334988Y255500D02*
D03*
X346012D02*
D03*
X334988Y245500D02*
D03*
X346012D02*
D03*
X334988Y234713D02*
D03*
X346012D02*
D03*
X262488Y293000D02*
D03*
X273512D02*
D03*
X288512Y378000D02*
D03*
X277488D02*
D03*
X288512Y369000D02*
D03*
X277488D02*
D03*
X299988Y387000D02*
D03*
X311012D02*
D03*
X299988Y369000D02*
D03*
X311012D02*
D03*
X299988Y378000D02*
D03*
X311012D02*
D03*
D41*
X303000Y351799D02*
D03*
Y314201D02*
D03*
D42*
X228000Y461358D02*
D03*
Y427500D02*
D03*
D43*
X118000Y298512D02*
D03*
Y287488D02*
D03*
D44*
X204457Y456114D02*
D03*
X201898D02*
D03*
X199339D02*
D03*
X196780D02*
D03*
X194220D02*
D03*
X191661D02*
D03*
X189102D02*
D03*
X186543D02*
D03*
X204457Y432886D02*
D03*
X201898D02*
D03*
X199339D02*
D03*
X196780D02*
D03*
X194220D02*
D03*
X191661D02*
D03*
X189102D02*
D03*
X186543D02*
D03*
D45*
X195500Y444500D02*
D03*
D46*
X179772Y313000D02*
D03*
Y308000D02*
D03*
Y303000D02*
D03*
Y298000D02*
D03*
X201228Y313000D02*
D03*
Y308000D02*
D03*
Y303000D02*
D03*
Y298000D02*
D03*
X338728Y275500D02*
D03*
Y280500D02*
D03*
Y285500D02*
D03*
Y290500D02*
D03*
X317272Y275500D02*
D03*
Y280500D02*
D03*
Y285500D02*
D03*
Y290500D02*
D03*
D47*
X255874Y313000D02*
D03*
X240126D02*
D03*
D48*
X135441Y320500D02*
D03*
X165559D02*
D03*
D49*
X421760Y204500D02*
D03*
X404240D02*
D03*
D50*
X138000Y293000D02*
D03*
X153551D02*
D03*
D51*
X157429Y258000D02*
D03*
X123571D02*
D03*
D52*
X248000Y265126D02*
D03*
Y280874D02*
D03*
D53*
X118000Y310205D02*
D03*
Y327724D02*
D03*
D95*
X141850Y193150D02*
X339150D01*
X135000Y200000D02*
X141850Y193150D01*
X368240Y455311D02*
X373189D01*
X434500Y424000D02*
X436000Y425500D01*
X433449Y424000D02*
X434500D01*
X432406Y422957D02*
X433449Y424000D01*
X432406Y422957D02*
X432406D01*
X435000Y469383D02*
X451000Y453383D01*
X435000Y469383D02*
Y469500D01*
X423700Y425204D02*
X430800Y432304D01*
X423700Y404300D02*
Y425204D01*
X419000Y452500D02*
X422000Y449500D01*
X427500D01*
X430800Y446200D01*
Y432304D02*
Y446200D01*
X432500Y431600D02*
Y449000D01*
X430000Y451500D02*
X432500Y449000D01*
X422404Y451500D02*
X430000D01*
X425400Y424500D02*
X432500Y431600D01*
X420700Y453204D02*
X422404Y451500D01*
X425400Y405004D02*
Y424500D01*
X418500Y412500D02*
X419000Y413000D01*
X414063Y412500D02*
X418500D01*
X419000Y413000D02*
Y415500D01*
X413000Y413563D02*
X414063Y412500D01*
X279598Y491902D02*
Y502000D01*
X405000Y438500D02*
Y445625D01*
X420700Y453204D02*
Y456794D01*
X419000Y452500D02*
Y456090D01*
X402032Y448593D02*
X405000Y445625D01*
X380811Y448593D02*
X402032D01*
X381548Y419523D02*
X387311Y413760D01*
X249100Y504699D02*
X251799Y502000D01*
Y492444D02*
Y502000D01*
X369598Y449902D02*
X371200Y448300D01*
X378700D02*
X380207Y446793D01*
X371200Y448300D02*
X378700D01*
X379404Y450000D02*
X380811Y448593D01*
X371904Y450000D02*
X379404D01*
X370202Y451702D02*
X371904Y450000D01*
X499400Y386500D02*
X500500Y387600D01*
X368177Y377000D02*
X369063Y377886D01*
X336580Y379500D02*
X362000D01*
X334850Y377770D02*
X336580Y379500D01*
X334850Y358350D02*
Y377770D01*
X371000Y438500D02*
Y444500D01*
X367398Y448102D02*
X371000Y444500D01*
X340720Y448102D02*
X367398D01*
X395839Y369839D02*
Y376189D01*
X381217Y419523D02*
X381548D01*
X347000Y469000D02*
X355949D01*
X191500Y490000D02*
X192500Y489000D01*
X225362Y502000D02*
X231161Y496201D01*
X224931Y502431D02*
X225362Y502000D01*
X231500Y509000D02*
Y512900D01*
X224931Y502431D02*
X231500Y509000D01*
X196299Y503098D02*
X203898Y495500D01*
X229458D01*
X196299Y503098D02*
Y506799D01*
X327057Y438500D02*
Y451057D01*
X131723Y524240D02*
Y530385D01*
X133339Y532000D01*
X136500D01*
X143500Y539000D01*
X413993Y485992D02*
X431088D01*
X412750Y484750D02*
X413993Y485992D01*
X431088D02*
X437950Y492854D01*
X375693Y487692D02*
X430384D01*
X436250Y493558D01*
X431607Y484107D02*
X439650Y492150D01*
X431607Y467473D02*
Y484107D01*
X439650Y492150D02*
Y552350D01*
X437950Y492854D02*
Y528729D01*
X436250Y493558D02*
Y528025D01*
X435000Y469500D02*
X436500D01*
X662235Y443874D02*
Y459798D01*
X660431Y458880D02*
X662114Y460563D01*
X663000D01*
X412500Y483035D02*
X412750Y483285D01*
Y484750D01*
X671098Y467551D02*
X673350D01*
X671000D02*
X671098D01*
X674270Y446770D02*
Y466632D01*
X673350Y467551D02*
X674270Y466632D01*
X617270Y448074D02*
X625344Y440000D01*
X506783Y253284D02*
Y258500D01*
X474313Y242850D02*
X508650D01*
X460000Y257163D02*
X474313Y242850D01*
X475017Y244550D02*
X509354D01*
X461700Y257867D02*
X475017Y244550D01*
X508650Y242850D02*
X529500Y222000D01*
X509354Y244550D02*
X524954Y228950D01*
X311738Y482793D02*
X331700Y462830D01*
X254238Y482793D02*
X311738D01*
X244229Y492801D02*
X254238Y482793D01*
X256050Y488193D02*
X313903D01*
X251799Y492444D02*
X256050Y488193D01*
X313903D02*
X336800Y465296D01*
X281557Y489943D02*
X314628D01*
X279598Y491902D02*
X281557Y489943D01*
X314628D02*
X338500Y466071D01*
X313158Y486392D02*
X335100Y464450D01*
X255446Y486392D02*
X313158D01*
X245638Y496201D02*
X255446Y486392D01*
X143500Y539000D02*
Y562525D01*
X130799Y524240D02*
X131723D01*
X231500Y512900D02*
X237300Y518700D01*
X221500Y492500D02*
X221850Y492850D01*
X229704D01*
X196299Y506799D02*
X201547Y512047D01*
X185437Y489937D02*
X186500Y491000D01*
X189500D01*
X191500Y489000D01*
Y490000D01*
X224299Y502000D02*
X225362D01*
X229458Y495500D02*
X230457Y494501D01*
X279500Y502098D02*
X279598Y502000D01*
X279500Y502098D02*
Y508500D01*
X278000Y510000D02*
X279500Y508500D01*
X269600Y510000D02*
X278000D01*
X254942Y484492D02*
X312442D01*
X244934Y494501D02*
X254942Y484492D01*
X253500Y479500D02*
X307500D01*
X243500Y489500D02*
X253500Y479500D01*
X248800Y476200D02*
X311700D01*
X243500Y474500D02*
X317555D01*
X235500Y489500D02*
X248800Y476200D01*
X228000Y490000D02*
X243500Y474500D01*
X331650Y355150D02*
X334850Y358350D01*
X331650Y345299D02*
Y355150D01*
X364500Y377000D02*
X368177D01*
X362000Y379500D02*
X364500Y377000D01*
X331650Y345299D02*
X340563Y336386D01*
X346500Y382000D02*
X364000Y399500D01*
X333000Y382000D02*
X346500D01*
X606000Y297000D02*
X639500D01*
X541104Y366700D02*
X623943D01*
X536000Y361596D02*
X541104Y366700D01*
X536000Y352500D02*
Y361596D01*
X540400Y368400D02*
X623239D01*
X533450Y361450D02*
X540400Y368400D01*
X533450Y318424D02*
Y361450D01*
X537862Y368862D02*
Y375030D01*
X531750Y362750D02*
X537862Y368862D01*
X531750Y319128D02*
Y362750D01*
X558758Y332258D02*
X605758D01*
X556000Y329500D02*
X558758Y332258D01*
X556000Y316500D02*
Y329500D01*
X553458Y333958D02*
X605054D01*
X551000Y331500D02*
X553458Y333958D01*
X551000Y316500D02*
Y331500D01*
X546158Y335658D02*
X604350D01*
X541000Y330500D02*
X546158Y335658D01*
X541000Y316500D02*
Y330500D01*
X543358Y337358D02*
X603645D01*
X536000Y330000D02*
X543358Y337358D01*
X536000Y319800D02*
Y330000D01*
X576000Y346000D02*
X576500Y345500D01*
X576000Y346000D02*
Y352500D01*
X576500Y345500D02*
X581000D01*
X607509Y341221D02*
Y353317D01*
X603645Y337358D02*
X607509Y341221D01*
X609209Y340517D02*
Y352613D01*
X604350Y335658D02*
X609209Y340517D01*
X610909Y339813D02*
Y351909D01*
X605054Y333958D02*
X610909Y339813D01*
X612609Y339109D02*
Y350609D01*
X605758Y332258D02*
X612609Y339109D01*
X588823Y410000D02*
X592937Y405886D01*
X568500Y410000D02*
X588823D01*
X548500Y430000D02*
X568500Y410000D01*
X623718Y382442D02*
X632275Y391000D01*
X607735Y382442D02*
X623718D01*
X659860Y441500D02*
X662235Y443874D01*
X651500Y441500D02*
X659860D01*
X649150Y443850D02*
X651500Y441500D01*
X669660Y442160D02*
X674270Y446770D01*
X663066Y442160D02*
X669660D01*
X378500Y477000D02*
X379000Y476500D01*
X375000Y477000D02*
X378500D01*
X373000Y479000D02*
X375000Y477000D01*
X349500Y443000D02*
X353500D01*
X354000Y442500D01*
Y438500D02*
Y442500D01*
X192500Y489000D02*
X197760D01*
X379500Y421240D02*
X381217Y419523D01*
X387311Y413760D02*
X388000D01*
X640530Y568000D02*
X663000Y545531D01*
X627404Y568000D02*
X640530D01*
X626254Y569150D02*
X627404Y568000D01*
X455246Y569150D02*
X626254D01*
X454096Y568000D02*
X455246Y569150D01*
X426404Y568000D02*
X454096D01*
X426054Y568350D02*
X426404Y568000D01*
X132350Y568350D02*
X426054D01*
X109639Y545639D02*
X132350Y568350D01*
X133054Y566650D02*
X425350D01*
X111339Y544935D02*
X133054Y566650D01*
X425350D02*
X439650Y552350D01*
X145925Y564950D02*
X424646D01*
X143500Y562525D02*
X145925Y564950D01*
X424646D02*
X430437Y559159D01*
X165700Y563250D02*
X228150D01*
X228400Y563000D01*
X164450Y562000D02*
X165700Y563250D01*
X156000Y562000D02*
X164450D01*
X167150Y559750D02*
X208050D01*
X161900Y554500D02*
X167150Y559750D01*
X156000Y554500D02*
X161900D01*
X208050Y559750D02*
X237300Y530500D01*
X185437Y489000D02*
Y489937D01*
X251000Y347063D02*
X251937Y348000D01*
X251000Y334000D02*
Y347063D01*
X248429Y331430D02*
X251000Y334000D01*
X319200Y511800D02*
X321437Y509563D01*
X270700Y511800D02*
X319200D01*
X266500Y516000D02*
X270700Y511800D01*
X321437Y502000D02*
Y509563D01*
Y494000D02*
Y502000D01*
X111339Y500992D02*
Y544935D01*
X415000Y494000D02*
X419563D01*
X420063Y494500D01*
X216937Y202165D02*
Y203000D01*
Y202165D02*
X218359Y200743D01*
X219194D01*
X221560Y198377D01*
Y197440D02*
Y198377D01*
Y197440D02*
X222000Y197000D01*
X365750Y281750D02*
X370000Y286000D01*
X365750Y219750D02*
Y281750D01*
X339150Y193150D02*
X365750Y219750D01*
X451000Y450500D02*
Y453383D01*
Y450500D02*
X456000Y445500D01*
Y444500D02*
Y445500D01*
X441393Y465394D02*
Y483027D01*
Y465394D02*
X465737Y441050D01*
X444793Y466803D02*
Y484435D01*
X441350Y483070D02*
X441393Y483027D01*
X443050Y483774D02*
Y552146D01*
Y483774D02*
X443093Y483731D01*
X444750Y484479D02*
X444793Y484435D01*
X446450Y485183D02*
X446493Y485139D01*
X448150Y485887D02*
Y550033D01*
Y485887D02*
X448193Y485844D01*
X448150Y550033D02*
X458667Y560550D01*
X448193Y468832D02*
Y485844D01*
Y468832D02*
X466450Y450575D01*
X446450Y550737D02*
X458063Y562350D01*
X446450Y485183D02*
Y550737D01*
X446493Y468128D02*
Y485139D01*
Y468128D02*
X464760Y449861D01*
X444750Y551442D02*
X457358Y564050D01*
X444750Y484479D02*
Y551442D01*
X444793Y466803D02*
X467146Y444450D01*
X443093Y466098D02*
X466442Y442750D01*
X443050Y552146D02*
X456654Y565750D01*
X443093Y466098D02*
Y483731D01*
X441350Y552850D02*
X455950Y567450D01*
X441350Y483070D02*
Y552850D01*
X428500Y509000D02*
X429437Y508063D01*
Y502000D02*
Y508063D01*
Y501114D02*
Y502000D01*
X427937Y499614D02*
X429437Y501114D01*
X427937Y494500D02*
Y499614D01*
X433472Y533208D02*
X437950Y528729D01*
X432768Y531507D02*
X436250Y528025D01*
X466450Y450575D02*
X468925D01*
X469000Y450500D01*
X465737Y441050D02*
X473118D01*
X466442Y442750D02*
X475250D01*
X467146Y444450D02*
X486450D01*
X464760Y449240D02*
Y449861D01*
Y449240D02*
X467850Y446150D01*
X480650D01*
X448500Y446500D02*
Y453420D01*
X437920Y464000D02*
X448500Y453420D01*
X435080Y464000D02*
X437920D01*
X431607Y467473D02*
X435080Y464000D01*
X417797Y469297D02*
X418507Y470008D01*
Y482492D01*
X418500Y482500D02*
X418507Y482492D01*
X415234Y469297D02*
X417797D01*
X568500Y388000D02*
Y404000D01*
X546500Y426000D02*
X568500Y404000D01*
X531500Y426000D02*
X546500D01*
X423500Y521000D02*
X426500Y524000D01*
X395500Y521000D02*
X423500D01*
X392000Y524500D02*
X395500Y521000D01*
X426500Y524000D02*
Y530500D01*
X184000Y463500D02*
X185850Y465350D01*
X177717Y460220D02*
X187988D01*
X627783Y542783D02*
Y558004D01*
X626780Y541780D02*
X627783Y542783D01*
X621689Y541780D02*
X626780D01*
X458063Y562350D02*
X623438D01*
X627783Y558004D01*
X457358Y564050D02*
X624142D01*
X629483Y546983D02*
X637500Y538967D01*
X624142Y564050D02*
X629483Y558708D01*
Y546983D02*
Y558708D01*
X456654Y565750D02*
X624846D01*
X631438Y547433D02*
X637473Y541398D01*
X624846Y565750D02*
X631438Y559158D01*
Y547433D02*
Y559158D01*
X633138Y548138D02*
X637319Y543957D01*
X633138Y548138D02*
Y559862D01*
X625550Y567450D02*
X633138Y559862D01*
X455950Y567450D02*
X625550D01*
X637473Y541398D02*
X644693D01*
X556125Y560550D02*
X559000Y557675D01*
Y538700D02*
Y557675D01*
X552800Y532500D02*
X559000Y538700D01*
X458667Y560550D02*
X556125D01*
X430437Y537500D02*
Y559159D01*
X473118Y441050D02*
X479138Y435030D01*
Y372693D02*
X485831Y366000D01*
X414500Y468563D02*
X415234Y469297D01*
X418519Y458975D02*
X420700Y456794D01*
X417316Y458975D02*
X418519D01*
X416906Y459385D02*
X417316Y458975D01*
X416906Y459385D02*
Y459622D01*
X415189Y461339D02*
X416906Y459622D01*
X414500Y461339D02*
X415189D01*
X417815Y457275D02*
X419000Y456090D01*
X430500Y364000D02*
Y399904D01*
X425400Y405004D02*
X430500Y399904D01*
X231161Y496201D02*
X245638D01*
X230457Y494501D02*
X244934D01*
X331700Y450700D02*
X343900Y438500D01*
X332000Y363000D02*
Y370850D01*
X327500Y358500D02*
X332000Y363000D01*
X327500Y337500D02*
Y358500D01*
X340563Y335500D02*
Y336386D01*
X334500Y311000D02*
Y330500D01*
X327500Y337500D02*
X334500Y330500D01*
X201937Y203835D02*
X203359Y205257D01*
X201937Y203000D02*
Y203835D01*
X267870Y270020D02*
X268890Y269000D01*
X267420Y271710D02*
X267870Y271259D01*
Y270020D02*
Y271259D01*
X605500Y516500D02*
X607000Y515000D01*
X659350Y527150D02*
X661300Y525200D01*
X663000Y529437D02*
Y545531D01*
X662000Y528437D02*
X663000Y529437D01*
X195500Y444500D02*
X199000Y441000D01*
X203000D01*
X617000Y316000D02*
X621000D01*
X610000Y323000D02*
X617000Y316000D01*
X610000Y323000D02*
Y328500D01*
X621000Y316000D02*
X625500Y311500D01*
X616743Y311757D02*
X618015D01*
X612500Y316000D02*
X616743Y311757D01*
X607500Y316000D02*
X612500D01*
X423700Y404300D02*
X427000Y401000D01*
X430689Y421240D02*
X432406Y422957D01*
X430000Y421240D02*
X430689D01*
X427000Y369000D02*
Y401000D01*
X231000Y247000D02*
Y269500D01*
Y245000D02*
Y247000D01*
X616000Y518775D02*
X618232Y521007D01*
X616000Y517500D02*
Y518775D01*
X613500Y515000D02*
X616000Y517500D01*
X607000Y515000D02*
X613500D01*
X625265Y521007D02*
X628437Y517835D01*
X618232Y521007D02*
X625265D01*
X620563Y515937D02*
X623507Y512992D01*
X620563Y515937D02*
Y517000D01*
X656500Y529859D02*
Y535000D01*
X589000Y215500D02*
X595500Y222000D01*
X612500D01*
X589000Y191000D02*
Y215500D01*
X338500Y360718D02*
Y376000D01*
X369063Y377000D02*
Y377886D01*
X317555Y474500D02*
X330000Y462055D01*
X311700Y476200D02*
X313000Y477500D01*
X395754Y369754D02*
X395839Y369839D01*
X342211Y451702D02*
X370202D01*
X341466Y449902D02*
X369598D01*
X380207Y446793D02*
X387321D01*
X373189Y455311D02*
X375000Y453500D01*
X558500Y296000D02*
X558847Y295654D01*
Y289598D02*
Y295654D01*
X406000Y476437D02*
Y481500D01*
X203760Y472000D02*
X204000Y471760D01*
Y466000D02*
Y471760D01*
X230500Y371051D02*
Y377500D01*
X238000Y371740D02*
Y379260D01*
X230500Y377500D02*
X235184D01*
X235227Y377543D01*
X236283D01*
X238000Y379260D01*
X230500Y377500D02*
Y383000D01*
X223443Y386494D02*
Y386494D01*
X225307Y388359D01*
X225307D01*
X226051Y389102D01*
X230500D01*
X196780Y456114D02*
Y465064D01*
X194500Y467344D02*
X196780Y465064D01*
X192681Y465350D02*
X194350Y463681D01*
X185850Y465350D02*
X192681D01*
X194500Y467344D02*
Y468000D01*
X629500Y424000D02*
X638287D01*
X590704Y421700D02*
X638183D01*
X583500Y428904D02*
X590704Y421700D01*
X583500Y428904D02*
Y434500D01*
X638183Y421700D02*
X643250Y416633D01*
X637500Y427500D02*
X639596D01*
X633000Y432000D02*
X637500Y427500D01*
X639596D02*
X648350Y418746D01*
X634200Y425800D02*
X638892D01*
X606000Y454000D02*
X634200Y425800D01*
X640000Y432000D02*
X651750Y420250D01*
X640000Y432000D02*
Y436500D01*
X637479Y420000D02*
X641550Y415929D01*
X638287Y424000D02*
X644950Y417338D01*
X638892Y425800D02*
X646650Y418042D01*
X641550Y389115D02*
Y415929D01*
X643250Y388411D02*
Y416633D01*
X644950Y387707D02*
Y417338D01*
X646650Y387003D02*
Y418042D01*
X648350Y386299D02*
Y418746D01*
X650050Y385595D02*
Y419450D01*
X636150Y433350D02*
X650050Y419450D01*
X636150Y433350D02*
Y440650D01*
X651750Y384890D02*
Y420250D01*
X528500Y429000D02*
X531500Y426000D01*
X486450Y444450D02*
X490000Y448000D01*
X178740Y436500D02*
X180000Y437760D01*
X461700Y274296D02*
X466154Y278750D01*
X461700Y257867D02*
Y274296D01*
X460000Y275000D02*
X465450Y280450D01*
X460000Y257163D02*
Y275000D01*
X473675Y278750D02*
X478263Y283339D01*
X466154Y278750D02*
X473675D01*
X472970Y280450D02*
X476563Y284043D01*
X465450Y280450D02*
X472970D01*
X478263Y283339D02*
Y296399D01*
X476563Y284043D02*
Y297103D01*
X495221Y296598D02*
X501847D01*
X491500Y299216D02*
X492890Y300606D01*
X637000Y415000D02*
X639850Y412150D01*
Y389820D02*
Y412150D01*
X519748Y304723D02*
X533450Y318424D01*
X536894Y300606D02*
X539500Y298000D01*
X491500Y291216D02*
Y299216D01*
X366839Y352839D02*
Y358311D01*
X366500Y352500D02*
X366839Y352839D01*
X364000Y352500D02*
X366500D01*
X333400Y453019D02*
Y463535D01*
X229704Y492850D02*
X229753Y492801D01*
X312442Y484492D02*
X333400Y463535D01*
X530063Y391500D02*
X531243Y390320D01*
X496000Y391500D02*
X530063D01*
X483000Y448500D02*
Y448562D01*
X480650Y446150D02*
X483000Y448500D01*
X605500Y516500D02*
Y540500D01*
X609221Y536279D02*
X621307D01*
X609000Y536500D02*
X609221Y536279D01*
X605500Y540500D02*
X609470D01*
X610819Y539150D01*
X620996D01*
X621307Y538839D01*
X109639Y500288D02*
Y545639D01*
X327057Y451057D02*
X330000Y454000D01*
Y462055D01*
X331700Y450700D02*
Y462830D01*
X333400Y453019D02*
X340016Y446402D01*
X335100Y453723D02*
Y464450D01*
Y453723D02*
X340720Y448102D01*
X336800Y454639D02*
Y465296D01*
Y454639D02*
X340694Y450745D01*
X338500Y455414D02*
Y466071D01*
Y455414D02*
X342211Y451702D01*
X382500Y469000D02*
X383563D01*
X379000Y472500D02*
X382500Y469000D01*
X379000Y472500D02*
Y476500D01*
X383563Y469000D02*
X384000Y468563D01*
X364000Y399500D02*
X369063D01*
X509063Y388063D02*
X523500D01*
X507500Y386500D02*
X509063Y388063D01*
X500500Y386500D02*
X507500D01*
X499400D02*
X500500D01*
Y387600D01*
X531243Y389485D02*
Y390320D01*
Y389485D02*
X532665Y388063D01*
X533500D01*
X338500Y360718D02*
X338910Y360308D01*
X339141D01*
X340563Y358886D01*
Y358000D02*
Y358886D01*
X519044Y306423D02*
X531750Y319128D01*
X522500Y359000D02*
Y366000D01*
Y352500D02*
Y359000D01*
X528000Y354000D02*
Y363500D01*
Y369000D01*
X533500Y374500D01*
X520250Y325250D02*
X520500Y325500D01*
X520000Y325000D02*
X520250Y325250D01*
X514937Y325000D02*
X520000D01*
X515437Y316500D02*
X520000D01*
X514937Y317000D02*
X515437Y316500D01*
X625500Y305000D02*
Y311500D01*
X622500Y302000D02*
X625500Y305000D01*
X619437Y302000D02*
X622500D01*
X605500Y318000D02*
Y323000D01*
Y318000D02*
X607500Y316000D01*
X618015Y311757D02*
X619437Y310335D01*
Y309500D02*
Y310335D01*
X522500Y366000D02*
X523500Y367000D01*
Y374500D01*
X212000Y360500D02*
X212500Y360000D01*
X231500D01*
X233740D01*
X235594Y361854D01*
Y362543D01*
X237311Y364260D01*
X238000D01*
X179063Y247803D02*
X179260Y248000D01*
X178760Y247500D02*
X179063Y247803D01*
X173500Y247500D02*
X178760D01*
X208250Y202187D02*
X209063Y203000D01*
X208250Y197250D02*
Y202187D01*
X231740Y239740D02*
X232000Y240000D01*
X231740Y233000D02*
Y239740D01*
X185500Y203000D02*
X194063D01*
X232350Y276320D02*
Y283650D01*
X223000Y262390D02*
X223689D01*
X232000Y284000D02*
X232350Y283650D01*
X225406Y269375D02*
X232350Y276320D01*
X223689Y262390D02*
X225406Y264107D01*
Y269375D01*
X229488Y277488D02*
X229500Y277500D01*
X223000Y277488D02*
X229488D01*
X214240Y278000D02*
X214752Y277488D01*
X223000D01*
X224260Y238260D02*
X231000Y245000D01*
X224260Y233000D02*
Y238260D01*
X216937Y233000D02*
X224260D01*
X644693Y538839D02*
X649500D01*
X642878Y517441D02*
X667618D01*
X668409Y518232D01*
Y522894D01*
X661300Y525200D02*
X666103D01*
X642437Y517000D02*
X642878Y517441D01*
X666103Y525200D02*
X668409Y522894D01*
X659350Y527150D02*
Y536180D01*
X657681Y537850D02*
X659350Y536180D01*
X652850Y537850D02*
X657681D01*
X652500Y537500D02*
X652850Y537850D01*
X622535Y370100D02*
X641550Y389115D01*
X551731Y370100D02*
X622535D01*
X547331Y374500D02*
X551731Y370100D01*
X623239Y368400D02*
X643250Y388411D01*
X623943Y366700D02*
X644950Y387707D01*
X624647Y365000D02*
X646650Y387003D01*
X545000Y365000D02*
X624647D01*
X625351Y363300D02*
X648350Y386299D01*
X552800Y363300D02*
X625351D01*
X557100Y361600D02*
X626055D01*
X556000Y360500D02*
X557100Y361600D01*
X626055D02*
X650050Y385595D01*
X556000Y352500D02*
Y360500D01*
X551000Y361500D02*
X552800Y363300D01*
X551000Y352500D02*
Y361500D01*
X613692Y359500D02*
X626360D01*
X607509Y353317D02*
X613692Y359500D01*
X626360D02*
X651750Y384890D01*
X614296Y357700D02*
X626964D01*
X609209Y352613D02*
X614296Y357700D01*
X626964D02*
X653450Y384186D01*
X618500Y340563D02*
X619000Y340063D01*
Y333500D02*
Y340063D01*
X627668Y356000D02*
X655150Y383482D01*
X615000Y356000D02*
X627668D01*
X610909Y351909D02*
X615000Y356000D01*
X616000Y354000D02*
X628072D01*
X612609Y350609D02*
X616000Y354000D01*
X628072D02*
X656850Y382778D01*
X653450Y384186D02*
Y424050D01*
X655150Y383482D02*
Y429350D01*
X656850Y382778D02*
Y435944D01*
X643500Y441000D02*
X655150Y429350D01*
X656850Y435944D02*
X663066Y442160D01*
X646000Y431500D02*
X653450Y424050D01*
X636150Y440650D02*
X639350Y443850D01*
X543500Y374500D02*
X547331D01*
X426500Y530500D02*
X427507Y531507D01*
X407080Y530500D02*
X409187Y532607D01*
X413027D01*
X413628Y533208D02*
X433472D01*
X413027Y532607D02*
X413628Y533208D01*
X427507Y531507D02*
X432768D01*
X596500Y549500D02*
X612000D01*
X583500Y536500D02*
X596500Y549500D01*
X604000Y545500D02*
X607000D01*
X595000Y536500D02*
X604000Y545500D01*
X612000Y542000D02*
X612301Y541699D01*
X621006D01*
X621307Y541398D01*
X612000Y549500D02*
X614984Y546516D01*
X621307D01*
X608560Y545000D02*
X613500D01*
X608500Y545060D02*
X608560Y545000D01*
X607440Y545060D02*
X608500D01*
X607000Y545500D02*
X607440Y545060D01*
X613500Y545000D02*
X614543Y543957D01*
X621307D01*
Y541398D02*
X621689Y541780D01*
X637319Y543957D02*
X644693D01*
X655078Y528437D02*
X656500Y529859D01*
X654500Y528437D02*
X655078D01*
X648777Y521257D02*
X649471Y520563D01*
X654500D01*
X662000D01*
X628437Y517000D02*
X634563D01*
X628437D02*
Y517835D01*
X633000Y523500D02*
X635000D01*
X639000Y519500D01*
Y513403D02*
Y519500D01*
X638590Y512992D02*
X639000Y513403D01*
X623507Y512992D02*
X638590D01*
X479138Y372693D02*
Y435030D01*
X637500Y531000D02*
Y538967D01*
X475250Y442750D02*
X483500Y434500D01*
X578500Y431500D02*
Y439000D01*
Y431500D02*
X590000Y420000D01*
X637479D01*
X622500Y431000D02*
X629500Y424000D01*
X606000Y454000D02*
Y465563D01*
X485883Y306423D02*
X519044D01*
X476563Y297103D02*
X485883Y306423D01*
X542631Y379800D02*
X629831D01*
X331500Y444500D02*
X335088Y440912D01*
Y439554D02*
Y440912D01*
Y439554D02*
X336143Y438500D01*
X386500Y337437D02*
Y343063D01*
X368240Y455311D02*
Y456000D01*
X592937Y386500D02*
X604563D01*
X592937Y405000D02*
Y405886D01*
X605431Y275849D02*
X606291Y276709D01*
X605431Y274801D02*
Y275849D01*
X604067Y273437D02*
X605431Y274801D01*
X639500Y297000D02*
X653894Y282606D01*
X658394D01*
X659000Y282000D01*
X541000Y361000D02*
X545000Y365000D01*
X541000Y352500D02*
Y361000D01*
X537862Y375030D02*
X542631Y379800D01*
X534550Y228950D02*
X541500Y222000D01*
X629831Y379800D02*
X639850Y389820D01*
X486587Y304723D02*
X519748D01*
X478263Y296399D02*
X486587Y304723D01*
X524954Y228950D02*
X534550D01*
X485831Y366000D02*
X502000D01*
X217000Y408000D02*
X217500Y408500D01*
X211012Y408000D02*
X217000D01*
X340016Y446402D02*
X353712D01*
X361614Y438500D01*
X194350Y456244D02*
Y463681D01*
X188779Y456437D02*
Y459429D01*
X187988Y460220D02*
X188779Y459429D01*
X186543Y432886D02*
Y436582D01*
Y431729D02*
Y432886D01*
X191000Y424500D02*
X194220Y427720D01*
Y456114D02*
X194350Y456244D01*
X191338Y433209D02*
X191661Y432886D01*
X196000Y424122D02*
X196780Y424902D01*
X186543Y436582D02*
X186953Y436992D01*
X196000Y423500D02*
Y424122D01*
X191338Y432563D02*
X191661Y432886D01*
X186953Y436992D02*
X190547D01*
X196780Y424902D02*
Y432886D01*
X194220Y427720D02*
Y432886D01*
X190547Y436992D02*
X191338Y436201D01*
Y433209D02*
Y436201D01*
X177437Y452500D02*
Y460500D01*
X180000Y437760D02*
Y444000D01*
X164500Y462500D02*
X164940Y462940D01*
Y464003D01*
X166243Y465306D01*
Y466141D01*
X167665Y467563D01*
X168500D01*
Y481988D02*
X169500Y482988D01*
X168500Y475437D02*
Y481988D01*
X340694Y450674D02*
Y450745D01*
X338500Y474000D02*
X344563D01*
X345297Y467297D02*
X347000Y469000D01*
X345297Y464734D02*
Y467297D01*
X344563Y464000D02*
X345297Y464734D01*
Y470703D02*
X347000Y469000D01*
X345297Y470703D02*
Y473266D01*
X344563Y474000D02*
X345297Y473266D01*
X355949Y469000D02*
X360260Y473311D01*
Y474000D01*
X373000Y485000D02*
X375693Y487692D01*
X373000Y479000D02*
Y485000D01*
X370700Y530500D02*
X376700Y524500D01*
X392000D01*
X382500Y530500D02*
X407080D01*
X376937Y392000D02*
Y399500D01*
X384404Y385500D02*
X385000D01*
X383704Y386200D02*
X384404Y385500D01*
X382737Y386200D02*
X383704D01*
X379194Y389743D02*
X382737Y386200D01*
X378359Y389743D02*
X379194D01*
X376937Y391165D02*
X378359Y389743D01*
X376937Y391165D02*
Y392000D01*
X385000Y385500D02*
X388161Y382339D01*
Y376189D02*
Y382339D01*
X385602Y376189D02*
Y381898D01*
X383000Y384500D02*
X385602Y381898D01*
X376937Y384500D02*
X383000D01*
X376937Y377000D02*
Y384500D01*
X385437Y358500D02*
X390500D01*
X369721Y364221D02*
X373500Y368000D01*
X369721Y358634D02*
Y364221D01*
X371957Y360378D02*
X376579Y365000D01*
X280282Y269000D02*
X280693Y268590D01*
Y267985D02*
Y268590D01*
Y267985D02*
X282114Y266563D01*
X283000D01*
X268890Y269000D02*
X280282D01*
X266429Y271710D02*
X267420D01*
X265500Y272640D02*
X266429Y271710D01*
X265500Y272640D02*
Y273630D01*
X246292Y331430D02*
X248429D01*
X245362Y330500D02*
X246292Y331430D01*
X361614Y438500D02*
X362500D01*
X109639Y500288D02*
X129177Y480750D01*
X145250D01*
X145500Y480500D01*
X111339Y500992D02*
X120982Y491349D01*
X146451D01*
X157300Y480500D01*
X568500Y388000D02*
X575000Y381500D01*
X588500D01*
X591192Y384192D01*
X591515D01*
X592937Y385614D01*
Y386500D01*
X506783Y258500D02*
Y259000D01*
X506500Y253000D02*
X506783Y253284D01*
X639350Y443850D02*
X649150D01*
X665937Y479614D02*
Y480500D01*
X492890Y300606D02*
X536894D01*
X423120Y267000D02*
X423563Y266558D01*
X416551Y267000D02*
X423120D01*
X352500Y300500D02*
X358760D01*
Y293000D02*
Y300500D01*
X377130Y323000D02*
X384000D01*
X393500Y345500D02*
Y349500D01*
X392063Y350937D02*
X393500Y349500D01*
X386500Y350937D02*
X392063D01*
X387321Y446793D02*
X395614Y438500D01*
X396500D01*
X398500Y459500D02*
X400725Y457275D01*
X417815D01*
X369398Y358311D02*
X369721Y358634D01*
X371957Y358311D02*
Y360378D01*
X632492Y410493D02*
X637000Y415000D01*
X632275Y391000D02*
X637000D01*
X625344Y440000D02*
X625500D01*
X604563Y385614D02*
X607735Y382442D01*
X604563Y385614D02*
Y386500D01*
X654130Y458000D02*
X655010Y458880D01*
X660431D01*
X662235Y459798D02*
X663000Y460563D01*
X361510Y358521D02*
X361720Y358311D01*
X361510Y358521D02*
Y367790D01*
X392500Y461437D02*
Y468563D01*
X384000D02*
X392500D01*
X218847Y512047D02*
X225500Y518700D01*
X229753Y492801D02*
X244229D01*
X343900Y438500D02*
X344786D01*
X254900Y523600D02*
X264900D01*
X252900Y525600D02*
X254900Y523600D01*
X242200Y525600D02*
X252900D01*
X266500Y516000D02*
Y522000D01*
X264900Y523600D02*
X266500Y522000D01*
X237300Y530500D02*
X242200Y525600D01*
X340694Y450674D02*
X341466Y449902D01*
X260900Y518700D02*
X269600Y510000D01*
X249100Y504699D02*
Y518700D01*
X201547Y512047D02*
X218847D01*
X607685Y410493D02*
X632492D01*
X604563Y413614D02*
X607685Y410493D01*
X604563Y413614D02*
Y414500D01*
X556000Y305500D02*
Y316500D01*
X551000Y305500D02*
Y316500D01*
X541000Y305500D02*
Y316500D01*
X592937Y414500D02*
X604563D01*
X654130Y473000D02*
X654910Y473779D01*
X671098Y467551D02*
X672370Y468823D01*
X597130Y464000D02*
X597421Y464291D01*
X604728D01*
X606000Y465563D01*
X180012Y428000D02*
Y428689D01*
X182516Y431193D01*
X186007D02*
X186543Y431729D01*
X182516Y431193D02*
X186007D01*
X180012Y428000D02*
X180792Y428780D01*
X188779Y456437D02*
X189102Y456114D01*
X177437Y460500D02*
X177717Y460220D01*
X202543Y418717D02*
X204260Y417000D01*
D96*
X406000Y399811D02*
X407063Y400874D01*
X404811Y399811D02*
X406000D01*
X403500Y398500D02*
X404811Y399811D01*
X403500Y394546D02*
Y398500D01*
X637260Y554000D02*
X637500Y554240D01*
X676445Y241000D02*
X698000D01*
X170000Y502500D02*
X183701D01*
X169500Y494012D02*
Y503000D01*
X227114Y201563D02*
X228486Y202935D01*
X383000Y258168D02*
X391248D01*
X398500Y253000D02*
X399500Y254000D01*
X375500Y257500D02*
Y258168D01*
Y257500D02*
X380000Y253000D01*
X410552Y253448D02*
Y258000D01*
X430437Y253000D02*
X432437Y255000D01*
X411000Y253000D02*
X430437D01*
X410552Y253448D02*
X411000Y253000D01*
X432437Y255000D02*
X435500D01*
X380000Y253000D02*
X398500D01*
X390721Y399811D02*
Y406000D01*
X415500Y395437D02*
Y402437D01*
X387000Y245000D02*
X400000D01*
X307063Y413626D02*
X318857D01*
X409437Y493500D02*
X409937Y494000D01*
X545366Y263000D02*
X546598D01*
X424500Y433500D02*
X426065Y431935D01*
X419000Y433500D02*
X424500D01*
X416980D02*
X419000D01*
X414240Y430760D02*
X416980Y433500D01*
X413000Y430760D02*
X414240D01*
X417058Y419086D02*
Y427943D01*
X414240Y430760D02*
X417058Y427943D01*
X415472Y417500D02*
X417058Y419086D01*
X406000Y417500D02*
X415472D01*
X405000Y416500D02*
X406000Y417500D01*
X405000Y421437D02*
X413000D01*
X405000Y413563D02*
Y416500D01*
X389642Y426000D02*
X390000D01*
X388000Y424358D02*
X389642Y426000D01*
X388000Y421240D02*
Y424358D01*
X400646Y426063D02*
Y443854D01*
X400291Y425709D02*
X400646Y426063D01*
X400500Y444000D02*
X400646Y443854D01*
X413000Y438240D02*
X419740D01*
X402000Y408500D02*
X413500D01*
X398398Y404898D02*
X402000Y408500D01*
X421000Y400500D02*
Y403563D01*
X419063Y405500D02*
X421000Y403563D01*
X405000Y405500D02*
X419063D01*
X398398Y399811D02*
Y404898D01*
X400957Y401457D02*
X405000Y405500D01*
X400957Y399811D02*
Y401457D01*
X407063Y401000D02*
Y403000D01*
Y400874D02*
Y401000D01*
X396500Y421437D02*
Y430626D01*
X395839Y399811D02*
Y409000D01*
X366240Y441169D02*
Y444500D01*
Y441169D02*
X366558Y440852D01*
Y409781D02*
Y440852D01*
X388161Y399811D02*
Y403839D01*
X384842Y407158D02*
X388161Y403839D01*
X369181Y407158D02*
X384842D01*
X366558Y409781D02*
X369181Y407158D01*
X372063Y413563D02*
X379303D01*
X371000D02*
X372063D01*
X375344Y416844D02*
Y425702D01*
X372063Y413563D02*
X375344Y416844D01*
X371000Y430626D02*
X379500D01*
X353000Y412760D02*
X354000Y413760D01*
X353000Y401000D02*
Y412760D01*
X345072Y407500D02*
X349100D01*
X354000Y396000D02*
X363357Y405358D01*
X350500Y396000D02*
X354000D01*
X345000Y401500D02*
X350500Y396000D01*
X393280Y393220D02*
Y399811D01*
Y384279D02*
X399000Y390000D01*
X402142Y389041D02*
Y393188D01*
X395839Y382737D02*
X402142Y389041D01*
X403942Y390442D02*
X405000Y391500D01*
X403942Y387442D02*
Y390442D01*
X402142Y393188D02*
X403500Y394546D01*
X405000Y391500D02*
X410500D01*
X398398Y381898D02*
X403942Y387442D01*
X363357Y405358D02*
X383857D01*
X385602Y399811D02*
Y403613D01*
X383857Y405358D02*
X385602Y403613D01*
X365057Y403557D02*
X381494D01*
X355000Y393500D02*
X365057Y403557D01*
X332500Y393500D02*
X355000D01*
X322500Y403500D02*
X332500Y393500D01*
X381494Y403557D02*
X383043Y402008D01*
Y399811D02*
Y402008D01*
X380500Y426000D02*
X384000D01*
X379500Y425000D02*
X380500Y426000D01*
X344786Y407214D02*
X345072Y407500D01*
X307063Y413626D02*
Y413697D01*
X373500Y469000D02*
X375500Y471000D01*
X373500Y468700D02*
Y469000D01*
X368374Y463000D02*
X371874Y459500D01*
X375000D01*
X376890Y464500D02*
X377130Y464260D01*
X373500Y464500D02*
X376890D01*
X373000Y464000D02*
X373500Y464500D01*
X368374Y464000D02*
X373000D01*
X375500Y471000D02*
Y474000D01*
X368374Y462937D02*
Y463000D01*
Y464000D01*
X344786Y407214D02*
Y413626D01*
X327598Y407000D02*
Y413724D01*
Y406598D02*
Y407000D01*
X344589Y413823D02*
X344786Y413626D01*
X336286Y413823D02*
X344589D01*
X327500Y406500D02*
X327598Y406598D01*
X327500Y413626D02*
X327598Y413724D01*
X318857Y413626D02*
X327500D01*
X367740Y474000D02*
X375500D01*
X367697Y474043D02*
X367740Y474000D01*
X367697Y474043D02*
Y482000D01*
X364937Y459500D02*
X368374Y462937D01*
X363779Y459500D02*
X364937D01*
X360760Y456480D02*
X363779Y459500D01*
X360760Y456000D02*
Y456480D01*
X395437Y413563D02*
X396500D01*
X392031Y416969D02*
X395437Y413563D01*
X392031Y416969D02*
Y417969D01*
X388760Y421240D02*
X392031Y417969D01*
X388000Y421240D02*
X388760D01*
X379303Y413563D02*
X379500Y413760D01*
X362303D02*
X362500Y413563D01*
X354000Y413760D02*
X362303D01*
X560844Y453162D02*
X562007Y452000D01*
X557449Y478551D02*
X560844Y475156D01*
X483185Y278949D02*
Y279449D01*
X546000Y352000D02*
X546250Y352250D01*
X204839Y271339D02*
X206498Y269679D01*
X548156Y264558D02*
X552994D01*
X546598Y263000D02*
X548156Y264558D01*
X545366Y260500D02*
Y263000D01*
X555437Y267000D02*
X557154D01*
X552994Y264558D02*
X555437Y267000D01*
X206498Y269679D02*
X206498D01*
X202661Y271339D02*
X204839D01*
X202000Y272000D02*
X202661Y271339D01*
X200000Y272000D02*
X202000D01*
X204321Y264680D02*
X205769D01*
X202000Y267000D02*
X204321Y264680D01*
X200000Y267000D02*
X202000D01*
X201937Y203835D02*
Y203937D01*
X205563Y207563D02*
X212937D01*
X201937Y203937D02*
X205563Y207563D01*
X216937Y203000D02*
Y203563D01*
X212937Y207563D02*
X216937Y203563D01*
X343803Y482500D02*
X344303Y482000D01*
X362563Y494277D02*
Y502000D01*
X172520Y536279D02*
X178300Y530500D01*
X151221Y536279D02*
X172520D01*
X147500Y540000D02*
X151221Y536279D01*
X143500Y498000D02*
Y506000D01*
X143000Y524500D02*
Y532000D01*
X433520Y357000D02*
Y362000D01*
X434500Y362980D01*
Y370000D01*
X179772Y313000D02*
X181000Y314228D01*
Y320500D01*
X176000D02*
X181000D01*
X366172Y489442D02*
X429659D01*
X434500Y494283D01*
Y522551D01*
X658091Y481414D02*
X659040D01*
X657914D02*
X660844Y484344D01*
X663500Y485000D02*
X665740Y487240D01*
X661563Y485000D02*
X663500D01*
X660907Y484344D02*
X661563Y485000D01*
X665740Y487240D02*
Y488500D01*
X657914Y481414D02*
X658091D01*
X660844Y484344D02*
X660907D01*
X662563Y468000D02*
X663000Y468437D01*
X563000Y263000D02*
Y265500D01*
X560000Y260000D02*
X563000Y263000D01*
X508000Y274240D02*
X512260D01*
X516500Y270000D01*
Y266000D02*
Y270000D01*
X491784Y498283D02*
X496740Y503240D01*
X491784Y497284D02*
Y498283D01*
X491500Y497000D02*
Y498000D01*
X488500Y501000D02*
X491500Y498000D01*
X477500Y501000D02*
X488500D01*
X475500Y489000D02*
X478500D01*
X470000Y494500D02*
X475500Y489000D01*
X542000Y496000D02*
X545563Y492437D01*
X533000Y496000D02*
X542000D01*
X530890Y493890D02*
X533000Y496000D01*
X545563Y491500D02*
Y492437D01*
X530063Y484437D02*
X535000D01*
X526000Y488500D02*
X530063Y484437D01*
X526000Y488500D02*
Y492000D01*
X582500Y480437D02*
Y487500D01*
X579500Y490500D02*
X582500Y487500D01*
X584937Y478000D02*
X589500D01*
X582500Y480437D02*
X584937Y478000D01*
X641937Y473000D02*
X646000D01*
X638000Y476937D02*
X641937Y473000D01*
X638000Y476937D02*
Y480500D01*
X680283Y255500D02*
X686283Y249500D01*
X675500Y255500D02*
X680283D01*
X675500Y244000D02*
X680500Y249000D01*
X668500Y244000D02*
X675500D01*
X665000Y247500D02*
X668500Y244000D01*
X676409Y240500D02*
X676445Y240535D01*
X664524Y240500D02*
X676409D01*
X657126Y248500D02*
Y249626D01*
X663500Y256000D01*
X668653D01*
X658610Y242756D02*
X660854Y245000D01*
X662500D01*
X665000Y247500D01*
Y248500D01*
X657043Y240500D02*
Y240543D01*
X657043Y240500D02*
X657043Y240500D01*
X648595Y251905D02*
X652000Y248500D01*
X643000Y251905D02*
X648595D01*
X652000Y248500D02*
X657126D01*
X644242Y255742D02*
X646793D01*
X652500Y261449D01*
X643000Y254500D02*
X644242Y255742D01*
X643000Y251905D02*
Y254500D01*
X621370Y252370D02*
X623610Y254610D01*
X619370Y252370D02*
X621370D01*
X617153Y250153D02*
X619370Y252370D01*
X620000Y261000D02*
X626510D01*
X628500Y259010D01*
Y255500D02*
Y259010D01*
X605340Y250340D02*
Y252840D01*
X602000Y247000D02*
X605340Y250340D01*
X601327Y246000D02*
X602567D01*
X623610Y254610D02*
Y255500D01*
X611847Y250153D02*
X617153D01*
X609500Y252500D02*
X611847Y250153D01*
X609500Y252500D02*
Y253284D01*
X435500Y255000D02*
Y258449D01*
X431437Y262512D02*
Y266558D01*
Y262512D02*
X435500Y258449D01*
X424063Y247126D02*
X435500D01*
X211701Y215500D02*
X219500D01*
X206000Y221201D02*
X211701Y215500D01*
X206000Y221201D02*
Y224051D01*
X201871Y228180D02*
X206000Y224051D01*
X197820Y228180D02*
X201871D01*
X194063Y231937D02*
X197820Y228180D01*
X194063Y231937D02*
Y233000D01*
X178740Y262000D02*
Y267000D01*
Y272000D01*
Y267000D02*
X186386D01*
X199740Y276740D02*
X200000Y277000D01*
X192500Y276740D02*
X199740D01*
X212500Y225500D02*
X219500D01*
X211500Y220500D02*
X219500D01*
X209063Y222937D02*
X211500Y220500D01*
X209063Y222937D02*
Y233000D01*
X412500Y481240D02*
Y483035D01*
X414500Y476437D02*
Y479240D01*
X412500Y481240D02*
X414500Y479240D01*
X414000Y476937D02*
X414187Y476750D01*
X537500Y271500D02*
X540051D01*
X537000Y272000D02*
X537500Y271500D01*
X537000Y272000D02*
Y275470D01*
X540051Y271500D02*
X541000Y272449D01*
X537000Y275470D02*
X537730Y276200D01*
Y291730D02*
X546500Y300500D01*
X537730Y276200D02*
Y291730D01*
X546416Y255656D02*
X553000D01*
X545760Y255000D02*
X546416Y255656D01*
X553000D02*
X553120Y255776D01*
X563000Y265500D02*
X564000Y266500D01*
X662614Y479614D02*
X665937D01*
X661798Y478798D02*
X662614Y479614D01*
X661798Y477235D02*
Y478798D01*
X657563Y473000D02*
X661798Y477235D01*
X654130Y473000D02*
X657563D01*
X658626Y481000D02*
X659040Y481414D01*
X671000Y467551D02*
Y473437D01*
X673658Y476094D01*
X679500D01*
Y479035D01*
X677535Y481000D02*
X679500Y479035D01*
X666500Y481000D02*
X677535D01*
X658063D02*
X658626D01*
X655594D02*
X658063D01*
X653094Y483500D02*
X655594Y481000D01*
X644740Y483500D02*
X653094D01*
X643445Y482205D02*
X644740Y483500D01*
X643445Y479535D02*
Y482205D01*
X663000Y468437D02*
X663079Y468516D01*
X616449Y473551D02*
X617270Y472730D01*
Y448074D02*
Y472730D01*
X614000Y473551D02*
X616449D01*
X614000D02*
Y479598D01*
X616496Y482094D01*
X622500D01*
Y485524D01*
X622000Y486024D02*
X622500Y485524D01*
X608937Y486024D02*
X622000D01*
X597000Y486500D02*
X601063D01*
X606000Y494500D02*
X608740D01*
X605000Y493500D02*
X606000Y494500D01*
X605000Y487740D02*
Y493500D01*
X603284Y486024D02*
X605000Y487740D01*
X601063Y486024D02*
X603284D01*
X596000Y487500D02*
X597000Y486500D01*
X589910Y487500D02*
X596000D01*
X585945Y483535D02*
X589910Y487500D01*
X592500Y492000D02*
X595000Y494500D01*
X590000Y492000D02*
X592500D01*
X557500Y487500D02*
Y490500D01*
Y478551D02*
Y487500D01*
X566405D02*
X567000Y488095D01*
X557500Y487500D02*
X566405D01*
X553437Y491500D02*
X556500D01*
X557500Y490500D01*
X549500Y493187D02*
Y498500D01*
X547813Y491500D02*
X549500Y493187D01*
X545563Y491500D02*
X547813D01*
X549500Y498500D02*
X550500Y499500D01*
X553240D01*
X530890Y491500D02*
Y493890D01*
X505000Y460500D02*
Y484000D01*
X504449Y484551D02*
X505000Y484000D01*
X501500Y484551D02*
X504449D01*
X501500D02*
Y490500D01*
X504095Y493094D01*
X512000D01*
X486630Y490000D02*
X490784D01*
X499374Y492874D02*
Y497000D01*
X499000Y492500D02*
X499374Y492874D01*
X493284Y492500D02*
X499000D01*
X490784Y490000D02*
X493284Y492500D01*
X470000Y494500D02*
Y496500D01*
X491500Y497000D02*
X491784Y497284D01*
X475945Y499445D02*
X477500Y501000D01*
X475945Y496535D02*
Y499445D01*
X570500Y250000D02*
X572000Y251500D01*
Y262260D01*
X570860Y263400D02*
X572000Y262260D01*
X594551Y267449D02*
X597000D01*
X593500Y268500D02*
X594551Y267449D01*
X595000Y258500D02*
Y260500D01*
Y256500D02*
Y258500D01*
X587567Y258405D02*
X587661Y258500D01*
X595000D01*
Y256500D02*
X598216Y253284D01*
X595000Y260500D02*
X597000Y262500D01*
Y267449D01*
X598216Y253284D02*
X601626D01*
X612937Y258937D02*
Y261500D01*
X611500Y257500D02*
X612937Y258937D01*
X602500Y257500D02*
X611500D01*
X601626Y256626D02*
X602500Y257500D01*
X601626Y253284D02*
Y256626D01*
X605784Y253284D02*
X609500D01*
X605340Y252840D02*
X605784Y253284D01*
X609004Y251004D02*
Y252095D01*
X553000Y255656D02*
X566656D01*
X545760Y251500D02*
Y255000D01*
X568110Y257110D02*
Y260000D01*
X566656Y255656D02*
X568110Y257110D01*
X553120Y255776D02*
Y258880D01*
X553240Y260500D02*
X553990Y259750D01*
X568000Y259890D02*
X568110Y260000D01*
X499722Y268482D02*
Y273569D01*
X488760Y252740D02*
Y258500D01*
Y252740D02*
X492035Y249465D01*
X508965D01*
X510610Y251110D01*
Y267551D01*
X483000Y271000D02*
X495437D01*
X474878D02*
X483000D01*
X483185Y271185D01*
X474784Y270905D02*
X474878Y271000D01*
X496345Y267104D02*
X496689Y267449D01*
X496345Y267104D02*
Y270093D01*
X495437Y271000D02*
X496345Y270093D01*
X483185Y271185D02*
Y278949D01*
X499722Y273569D02*
X500153Y274000D01*
X498689Y267449D02*
X499722Y268482D01*
X496689Y267449D02*
X498689D01*
X488126Y259417D02*
X488154Y259390D01*
X488126Y259417D02*
Y266760D01*
X221000Y204000D02*
Y210000D01*
X220000Y203000D02*
X221000Y204000D01*
X216937Y203000D02*
X220000D01*
X220500Y210500D02*
X221000Y210000D01*
X219500Y210500D02*
X220500D01*
X228000Y209437D02*
Y212000D01*
X227500Y212500D02*
X228000Y212000D01*
X224260Y212500D02*
X227500D01*
X223844Y212916D02*
X224260Y212500D01*
X223844Y212916D02*
Y214656D01*
X223000Y215500D02*
X223844Y214656D01*
X219500Y215500D02*
X223000D01*
X226740Y225500D02*
X228000Y224240D01*
X219500Y225500D02*
X226740D01*
X185500Y209063D02*
X191563D01*
X193000Y210500D02*
X198240D01*
X191563Y209063D02*
X193000Y210500D01*
Y215500D02*
X198240D01*
X191563Y216937D02*
X193000Y215500D01*
X185500Y216937D02*
X191563D01*
X192000Y225500D02*
X198240D01*
X190500Y227000D02*
X192000Y225500D01*
X190500Y227000D02*
Y230512D01*
X189512Y231500D02*
X190500Y230512D01*
X187886Y231500D02*
X189512D01*
X186386Y233000D02*
X187886Y231500D01*
X194000Y220500D02*
X198240D01*
X189000Y225500D02*
X194000Y220500D01*
X186386Y225500D02*
X189000D01*
X205760Y277000D02*
X206760Y278000D01*
X200000Y277000D02*
X205760D01*
X206498Y269679D02*
X206563Y269614D01*
X205769Y264680D02*
X206563Y263886D01*
X193000Y262000D02*
X200000D01*
X190126Y259126D02*
X193000Y262000D01*
X190126Y255500D02*
Y259126D01*
X301437Y494000D02*
X307500D01*
X401126Y494071D02*
Y508100D01*
X206260Y502500D02*
X211201D01*
X400000Y253284D02*
Y256906D01*
X398200Y258705D02*
X400000Y256906D01*
X398200Y258705D02*
Y265295D01*
X426131Y258168D02*
X426300Y258000D01*
X418000Y258168D02*
X426131D01*
X308087Y281000D02*
X308551Y281465D01*
X371957Y333500D02*
X382000D01*
X453500Y331000D02*
Y335250D01*
X448500Y340250D02*
X453500Y335250D01*
X448500Y340250D02*
Y346284D01*
X453500D02*
Y351799D01*
X448500Y356799D02*
X453500Y351799D01*
X448500Y356799D02*
Y376500D01*
X179772Y308000D02*
X186760D01*
X290500Y251000D02*
Y254000D01*
X294000Y257500D01*
X290409Y251091D02*
X290500Y251000D01*
X283000Y251091D02*
X290409D01*
X561000Y340500D02*
Y352500D01*
X546000D02*
X546250Y352250D01*
X571000Y341000D02*
Y352500D01*
X546000Y342500D02*
Y352000D01*
X566000Y344500D02*
Y352500D01*
X576500Y404000D02*
X584063D01*
X574200Y401700D02*
X576500Y404000D01*
X574200Y397200D02*
Y401700D01*
X649223Y264249D02*
Y264270D01*
X649230Y264277D01*
X649223Y264249D02*
X649223Y264249D01*
X649230Y264277D02*
Y284795D01*
X649223Y264249D02*
X651688Y261494D01*
X651685Y261449D02*
X651688Y261494D01*
X384000Y476437D02*
Y482250D01*
X560844Y453162D02*
Y475156D01*
X355937Y502000D02*
Y503063D01*
X352500Y506500D02*
X355937Y503063D01*
X344500Y506500D02*
X352500D01*
X394437Y502000D02*
Y507563D01*
X393300Y508700D02*
X394437Y507563D01*
X362300Y508700D02*
X393300D01*
X414437Y387563D02*
X415500D01*
X410500Y391500D02*
X414437Y387563D01*
X593500Y268500D02*
Y290101D01*
X380500Y439500D02*
Y443500D01*
X379500Y444500D02*
X380500Y443500D01*
X376000Y444500D02*
X379500D01*
Y438500D02*
X380500Y439500D01*
X379500Y421240D02*
Y425000D01*
X354000Y421240D02*
Y425000D01*
X353000Y426000D02*
X354000Y425000D01*
X349180Y426000D02*
X353000D01*
X164025Y559100D02*
X166425Y561500D01*
X147500Y562000D02*
X150400Y559100D01*
X164025D01*
X228400Y563000D02*
X260900Y530500D01*
X218100Y561500D02*
X249100Y530500D01*
X166425Y561500D02*
X218100D01*
X198000Y558000D02*
X225500Y530500D01*
X168000Y558000D02*
X198000D01*
X161000Y551000D02*
X168000Y558000D01*
X328563Y502000D02*
Y519437D01*
X311500Y536500D02*
X328563Y519437D01*
X269446Y536500D02*
X311500D01*
X312500Y538500D02*
X344500Y506500D01*
X268900Y538500D02*
X312500D01*
X267500Y534554D02*
X269446Y536500D01*
X267500Y527500D02*
Y534554D01*
X265350Y525350D02*
X267500Y527500D01*
X255696Y525350D02*
X265350D01*
X250546Y530500D02*
X255696Y525350D01*
X260900Y530500D02*
X268900Y538500D01*
X332000Y475046D02*
X340250Y466796D01*
X332000Y475046D02*
Y487000D01*
X255500Y513000D02*
Y520454D01*
X252154Y523800D02*
X255500Y520454D01*
X232200Y523800D02*
X252154D01*
X409937Y494000D02*
X415000D01*
X369500Y216896D02*
Y275454D01*
X126450Y189050D02*
X341654D01*
X369500Y216896D01*
X339850Y190850D02*
X367500Y218500D01*
X134696Y190850D02*
X339850D01*
X449900Y486612D02*
Y528391D01*
X449943Y469557D02*
Y486568D01*
X449900Y486612D02*
X449943Y486568D01*
X449900Y528391D02*
X479809Y558300D01*
X449943Y469557D02*
X464500Y455000D01*
X424500Y513000D02*
X428500Y509000D01*
X367000Y513000D02*
X424500D01*
X413614Y476437D02*
X414500D01*
X416500Y502000D02*
X421563D01*
X430437Y526614D02*
X434500Y522551D01*
X464500Y455000D02*
X470500D01*
X476500Y449000D01*
X365000Y515000D02*
X367000Y513000D01*
X365000Y515000D02*
Y534000D01*
Y510500D02*
X398726D01*
X363500Y512000D02*
X365000Y510500D01*
X355500Y512000D02*
X363500D01*
X360800Y510200D02*
X362300Y508700D01*
X346800Y510200D02*
X360800D01*
X357112Y508400D02*
X362626Y502886D01*
X346054Y508400D02*
X357112D01*
X398726Y510500D02*
X401126Y508100D01*
X339500Y517500D02*
X346800Y510200D01*
X333500Y520954D02*
X346054Y508400D01*
X151167Y551000D02*
X161000D01*
X147500Y554667D02*
X151167Y551000D01*
X634000Y527867D02*
X640609Y521257D01*
X632721Y536279D02*
X634000Y535000D01*
Y527867D02*
Y535000D01*
X621307Y536279D02*
X632721D01*
X521930Y558300D02*
X547000Y533230D01*
Y526500D02*
Y533230D01*
Y526500D02*
X552800Y520700D01*
X340250Y460959D02*
Y466796D01*
Y460959D02*
X344563Y456646D01*
X122773Y202773D02*
X134696Y190850D01*
X116500Y199000D02*
X126450Y189050D01*
X577000Y386500D02*
X585063D01*
X574000Y389500D02*
X577000Y386500D01*
X574000Y389500D02*
Y397000D01*
X357000Y342500D02*
Y347500D01*
X354000Y350500D02*
X357000Y347500D01*
X348437Y350500D02*
X354000D01*
X561000Y302000D02*
Y305500D01*
X559500Y300500D02*
X561000Y302000D01*
X546500Y300500D02*
X559500D01*
X637500Y554240D02*
Y560000D01*
X371500Y282500D02*
X377500D01*
X367500Y278500D02*
X371500Y282500D01*
X373273Y279227D02*
X384773D01*
X385000Y279000D01*
X472246Y282200D02*
X474813Y284768D01*
X446194Y282200D02*
X472246D01*
X431437Y267443D02*
X446194Y282200D01*
X471500Y284000D02*
X473013Y285513D01*
X413494Y284000D02*
X471500D01*
X396937Y267443D02*
X413494Y284000D01*
X474813Y284768D02*
Y297828D01*
X473013Y285513D02*
Y298574D01*
X509088Y357302D02*
Y381088D01*
X542856Y302356D02*
X546000Y305500D01*
X473013Y298574D02*
X484412Y309973D01*
X509088Y357302D02*
X525400Y340990D01*
Y317799D02*
Y340990D01*
X517574Y309973D02*
X525400Y317799D01*
X361500Y334910D02*
Y344500D01*
Y334910D02*
X361720Y334689D01*
X359161D02*
Y340339D01*
X357000Y342500D02*
X359161Y340339D01*
X366839Y343839D02*
X370500Y347500D01*
X366839Y334689D02*
Y343839D01*
X371563Y343063D02*
X378500D01*
X369398Y340898D02*
X371563Y343063D01*
X369398Y334689D02*
Y340898D01*
X370500Y351000D02*
X377563Y358063D01*
X370500Y347500D02*
Y351000D01*
X377563Y358063D02*
Y358500D01*
X507000Y451500D02*
Y458500D01*
X505000Y460500D02*
X507000Y458500D01*
X307500Y494000D02*
X313563D01*
X483500Y374500D02*
Y434500D01*
X484412Y309973D02*
X517574D01*
X509088Y381088D02*
X512500Y384500D01*
X349100Y368000D02*
X349521Y367579D01*
X350594D01*
X518500Y352399D02*
X527200Y343699D01*
X518319Y308173D02*
X527200Y317053D01*
X518500Y352399D02*
Y381500D01*
X350921Y363500D02*
X354043Y360378D01*
X342500Y363500D02*
X350921D01*
X341779Y364221D02*
X342500Y363500D01*
X649500Y538839D02*
X650566D01*
X640525Y293500D02*
X649230Y284795D01*
X592647Y293500D02*
X640525D01*
X637260Y554000D02*
X637760Y553500D01*
X640609Y521257D02*
X648777D01*
X550500Y458930D02*
X552000Y457430D01*
X550500Y458930D02*
Y466500D01*
X552000Y451500D02*
Y457430D01*
X574000Y397000D02*
X583691D01*
X585063Y395628D01*
Y395500D02*
Y395628D01*
X574000Y397000D02*
X574200Y397200D01*
X604563Y394563D02*
Y395500D01*
Y394437D02*
Y394563D01*
X608000Y391000D02*
X629500D01*
X604563Y394437D02*
X608000Y391000D01*
X630942Y400943D02*
X637000Y407000D01*
X485158Y308173D02*
X518319D01*
X480013Y282621D02*
Y295674D01*
X486695Y302356D01*
X542856D01*
X527200Y317053D02*
Y343699D01*
X480013Y282621D02*
X483185Y279449D01*
X474813Y297828D02*
X485158Y308173D01*
X652478Y543978D02*
X652500Y544000D01*
X586984Y296617D02*
X593500Y290101D01*
X344563Y455760D02*
Y456646D01*
X367500Y218500D02*
Y278500D01*
X369500Y275454D02*
X373273Y279227D01*
X362500Y493114D02*
X366172Y489442D01*
X362626Y502000D02*
Y502886D01*
X362500Y493114D02*
Y494000D01*
X430437Y526614D02*
Y527500D01*
X322500Y542000D02*
X332812D01*
X337913Y536900D01*
X318000Y547000D02*
X333962D01*
X342263Y538700D01*
X337500Y482500D02*
X343803D01*
X396937Y266558D02*
X398200Y265295D01*
X397265Y458265D02*
X398500Y459500D01*
X479809Y558300D02*
X521930D01*
X495500Y451500D02*
Y472500D01*
X663079Y468516D02*
Y473079D01*
X663500Y473500D01*
X654130Y468000D02*
X662563D01*
X396937Y266558D02*
Y267443D01*
X431437Y266558D02*
Y267443D01*
X404000Y266500D02*
X409949D01*
X410449Y267000D01*
X533500Y374500D02*
Y388063D01*
X523500Y374500D02*
Y388063D01*
X543937Y395937D02*
X544000Y396000D01*
X533500Y395937D02*
X543937D01*
X523500D02*
X533500D01*
X301500Y281000D02*
Y286000D01*
X308402Y281402D02*
X308500Y281500D01*
X301500Y281000D02*
X308087D01*
X364280Y364879D02*
X367400Y368000D01*
X355200D02*
X359161Y364039D01*
X350594Y367579D02*
X356329Y361844D01*
Y358584D02*
Y361844D01*
X366839Y358311D02*
X367112Y358584D01*
X364280Y358311D02*
Y364879D01*
X359161Y358311D02*
Y364039D01*
X356329Y358584D02*
X356602Y358311D01*
X354043D02*
Y360378D01*
X412243Y475065D02*
X413614Y476437D01*
X406886Y468563D02*
X412243Y473920D01*
Y475065D01*
X587729Y298417D02*
X592647Y293500D01*
X574883Y296617D02*
X586984D01*
X571000Y304957D02*
Y305500D01*
X577540Y298417D02*
X587729D01*
X571000Y304957D02*
X577540Y298417D01*
X650500Y290500D02*
X660284D01*
X667033Y283750D01*
X566000Y305500D02*
Y306500D01*
Y305500D02*
X574883Y296617D01*
X419740Y438240D02*
X420000Y438500D01*
X406000Y468563D02*
X406886D01*
X414500Y461339D02*
Y468563D01*
X406000Y461437D02*
Y468563D01*
X392500Y476437D02*
Y483000D01*
X399250Y453563D02*
X406000D01*
X392500D02*
X399250D01*
X414205D02*
X414500Y453858D01*
X406000Y453563D02*
X414205D01*
X392303Y453760D02*
X392500Y453563D01*
X384000Y453760D02*
X392303D01*
X352437Y464000D02*
X360500D01*
X352437Y455760D02*
Y464000D01*
Y474000D02*
Y482260D01*
X352697Y482000D01*
X359823D01*
X398500Y459500D02*
Y471323D01*
X393386Y476437D02*
X398500Y471323D01*
X392500Y476437D02*
X393386D01*
X387664Y458265D02*
X397265D01*
X384689Y461240D02*
X387664Y458265D01*
X384000Y461240D02*
X384689D01*
X340760Y313240D02*
X341000Y313000D01*
X340760Y313240D02*
Y319500D01*
Y327000D01*
X405000Y421437D02*
Y430626D01*
X388000D02*
X396500D01*
X371000Y421437D02*
Y430626D01*
X354000D02*
X362500D01*
Y421437D02*
Y430626D01*
X379500Y438500D02*
X388000D01*
X395839Y376189D02*
Y382737D01*
X414937Y403000D02*
X415500Y402437D01*
X423437Y395437D02*
X423500Y395500D01*
X415500Y395437D02*
X423437D01*
X408000D02*
X415500D01*
X422282Y374282D02*
X422500Y374500D01*
X422063Y374063D02*
X422282Y374282D01*
X415500Y374063D02*
X422063D01*
X408000D02*
X415500D01*
Y381937D02*
Y387563D01*
X398398Y376189D02*
Y381898D01*
X408000Y381937D02*
Y387563D01*
X404437Y381937D02*
X408000D01*
X400957Y378457D02*
X404437Y381937D01*
X400957Y376189D02*
Y378457D01*
X388000Y387000D02*
X390721Y384279D01*
Y376189D02*
Y384279D01*
X393280Y376189D02*
Y384279D01*
X362000Y392000D02*
X369063D01*
Y384500D02*
Y392000D01*
X344303Y482000D02*
X344563Y482260D01*
X378468Y494000D02*
X386563D01*
X370374D02*
X378468D01*
X342250D02*
X348063D01*
X336437D02*
X342250D01*
X408937D02*
X409437Y493500D01*
X408937Y502000D02*
X416500D01*
X378532D02*
X386563D01*
X370500D02*
X378532D01*
X394437Y494000D02*
Y502000D01*
X342250D02*
X348063D01*
X336437D02*
X342250D01*
X355937Y494000D02*
Y502000D01*
X353000Y514500D02*
X355500Y512000D01*
X307500Y502000D02*
X313563D01*
X301437D02*
X307500D01*
X333500Y520954D02*
Y530500D01*
X339500Y517500D02*
Y531500D01*
X335000Y536000D02*
X339500Y531500D01*
X328000Y536000D02*
X335000D01*
X360300Y538700D02*
X365000Y534000D01*
X342263Y538700D02*
X360300D01*
X353000Y514500D02*
Y535000D01*
X351100Y536900D02*
X353000Y535000D01*
X337913Y536900D02*
X351100D01*
X328563Y494000D02*
Y502000D01*
X293563D02*
Y502886D01*
Y494000D02*
Y502000D01*
X225500Y530500D02*
X232200Y523800D01*
X288500Y506500D02*
X288921Y506079D01*
X290370D01*
X249100Y530500D02*
X250546D01*
X290370Y506079D02*
X293563Y502886D01*
X175209Y544000D02*
X182309Y536900D01*
X150833Y544000D02*
X175209D01*
X147500Y547333D02*
X150833Y544000D01*
X472000Y408500D02*
X472240Y408740D01*
Y418500D01*
X388620Y267000D02*
X389063Y266558D01*
X381051Y267000D02*
X388620D01*
X374949Y274449D02*
X375000Y274500D01*
X374949Y267000D02*
Y274449D01*
X426000Y227500D02*
X426063Y227563D01*
X434000D01*
X392000Y227500D02*
X392063Y227563D01*
X400000D01*
X458500Y369500D02*
X463500Y374500D01*
X458500Y346284D02*
Y369500D01*
X473500Y374500D02*
Y380500D01*
X469500Y384500D02*
X473500Y380500D01*
X456500Y384500D02*
X469500D01*
X448500Y376500D02*
X456500Y384500D01*
X443500Y330500D02*
Y346284D01*
X612437Y386500D02*
X621500D01*
X612437Y395500D02*
X621500D01*
X612437Y405000D02*
X621500D01*
X612437Y414500D02*
X621500D01*
X584063Y404000D02*
X585063Y405000D01*
X575000Y414500D02*
X585063D01*
X644693Y536279D02*
X649619D01*
X656100Y534600D02*
X656500Y535000D01*
X649619Y536279D02*
X651299Y534600D01*
X656100D01*
X650566Y538839D02*
X651905Y537500D01*
X652500D01*
X644693Y541398D02*
X644991Y541100D01*
X656100D02*
X656500Y541500D01*
X644991Y541100D02*
X656100D01*
X644693Y543957D02*
X644715Y543978D01*
X652478D01*
X645240Y553500D02*
X651000D01*
X644693Y552953D02*
X645240Y553500D01*
X644693Y546516D02*
Y552953D01*
X629161Y531161D02*
X629246Y531246D01*
X621307Y531161D02*
X629161D01*
X621228Y531240D02*
X621307Y531161D01*
X610000Y531240D02*
X621228D01*
X610000Y518000D02*
Y523760D01*
X610276Y523484D01*
X621307D01*
X607735Y400943D02*
X630942D01*
X604563Y404114D02*
Y405000D01*
Y404114D02*
X607735Y400943D01*
X629500Y391000D02*
X637000Y398500D01*
X228486Y202935D02*
X230435D01*
X233000Y205500D01*
Y212500D01*
X228740Y216760D02*
X233000Y212500D01*
X228000Y216760D02*
X228740D01*
X228000Y196500D02*
Y201563D01*
X350209Y341083D02*
X355417D01*
X356602Y339898D01*
Y334689D02*
Y339898D01*
X378500Y350937D02*
X386500D01*
X371957Y333500D02*
Y334689D01*
X385937Y337437D02*
X386500D01*
X382000Y333500D02*
X385937Y337437D01*
X378500D02*
Y343063D01*
X348437Y342854D02*
Y343000D01*
Y335500D02*
Y342854D01*
X350209Y341083D01*
X348437Y350500D02*
Y358000D01*
X411000Y537500D02*
X422563D01*
X411000Y527500D02*
X422563D01*
X266622Y340500D02*
X274500D01*
X118201Y515120D02*
Y524240D01*
Y506000D02*
Y515120D01*
X169750Y502750D02*
X170000Y502500D01*
X169500Y503000D02*
X169750Y502750D01*
X174422Y547333D02*
X183055Y538700D01*
X156000Y547333D02*
X174422D01*
X205300Y538700D02*
X213500Y530500D01*
X183055Y538700D02*
X205300D01*
X195500Y536900D02*
X201900Y530500D01*
X185230D02*
X190100D01*
X156000Y540000D02*
X175730D01*
X182309Y536900D02*
X195500D01*
X175730Y540000D02*
X185230Y530500D01*
D97*
X641500Y348000D02*
X641718Y348218D01*
X634000Y341063D02*
X634500Y340563D01*
Y334500D02*
Y340563D01*
X626500Y341063D02*
X627000Y340563D01*
Y334500D02*
Y340563D01*
X641500Y341063D02*
X642000Y340563D01*
Y335250D02*
Y340563D01*
X596000Y301500D02*
X612063D01*
X601000Y343500D02*
Y348000D01*
X596450Y312750D02*
Y315450D01*
X591000Y344500D02*
Y348000D01*
X581000Y326000D02*
X583000Y328000D01*
X586250Y342500D02*
Y348000D01*
X581000Y321000D02*
Y326000D01*
X596000Y315000D02*
X596450Y315450D01*
X576000Y321000D02*
Y325500D01*
X596000Y315000D02*
Y316500D01*
X573500Y328000D02*
X576000Y325500D01*
X596000Y313200D02*
X596450Y312750D01*
X596000Y340500D02*
Y348000D01*
X627000Y328437D02*
Y334500D01*
X634500Y328437D02*
Y334500D01*
X619000Y328437D02*
Y333500D01*
X642000Y328437D02*
Y335250D01*
X646437Y320563D02*
X653437D01*
X642000D02*
X646437D01*
X646500Y320500D01*
X634000Y348437D02*
X641500D01*
X626500D02*
X634000D01*
X618500D02*
X626500D01*
X648781Y348218D02*
X649000Y348000D01*
X641718Y348218D02*
X648781D01*
X335407Y426063D02*
X336286Y425184D01*
Y421303D02*
Y425184D01*
X331786Y426063D02*
X335407D01*
X327598Y421205D02*
X327697Y421303D01*
X336286D01*
X344786Y421500D02*
X344786Y421500D01*
X344786Y421500D02*
Y430626D01*
X336143D02*
X344786D01*
X318857Y444634D02*
X319286Y445063D01*
X318857Y438500D02*
Y444634D01*
X634500Y320563D02*
X642000D01*
X627000D02*
X634500D01*
X619000D02*
X627000D01*
X581000Y309240D02*
Y312000D01*
Y309240D02*
X584740Y305500D01*
X576000Y306760D02*
Y312000D01*
Y306760D02*
X577260Y305500D01*
X596000Y311000D02*
Y313200D01*
Y311000D02*
X597500Y309500D01*
X611563D01*
X596000Y313200D02*
Y315000D01*
X611563Y302000D02*
X612063Y301500D01*
X591000Y306500D02*
X596000Y301500D01*
X591000Y306500D02*
Y312000D01*
D98*
X596000Y348000D02*
Y352500D01*
X586000D02*
X586250Y352250D01*
X581000Y316500D02*
Y321000D01*
X576000Y316500D02*
Y321000D01*
X591000Y348000D02*
Y352500D01*
X601000Y348000D02*
Y352500D01*
X586250Y348000D02*
Y352250D01*
X576000Y312000D02*
Y316500D01*
X581000Y312000D02*
Y316500D01*
X591000Y312000D02*
Y316500D01*
D99*
X433760Y413760D02*
X441500Y421500D01*
X430000Y413760D02*
X433760D01*
X436500Y441812D02*
X441500Y436812D01*
X436500Y441812D02*
Y458500D01*
X441500Y421500D02*
Y436812D01*
Y421500D02*
X474000Y389000D01*
X498500Y440000D02*
X501000Y442500D01*
X490500Y421500D02*
X498500Y429500D01*
X490500Y389000D02*
Y421500D01*
X501000Y442500D02*
X585500D01*
X593500Y434500D01*
X251740Y253000D02*
X259870D01*
D100*
X194240Y320500D02*
X200500D01*
D101*
X411000Y527500D02*
D03*
Y537500D02*
D03*
Y547500D02*
D03*
X450000Y251000D02*
D03*
Y261000D02*
D03*
X436500Y458500D02*
D03*
X426500D02*
D03*
X436500Y469500D02*
D03*
X426500D02*
D03*
X436500Y481000D02*
D03*
X426500D02*
D03*
X583500Y536500D02*
D03*
Y526500D02*
D03*
X595000Y536500D02*
D03*
Y526500D02*
D03*
X481500Y553000D02*
D03*
Y543000D02*
D03*
D102*
X382500Y518700D02*
D03*
X370700D02*
D03*
Y530500D02*
D03*
X382500D02*
D03*
X358900D02*
D03*
X347100D02*
D03*
Y518700D02*
D03*
X358900D02*
D03*
X484100Y233300D02*
D03*
X495900D02*
D03*
Y221500D02*
D03*
X484100D02*
D03*
X460500D02*
D03*
X472300D02*
D03*
Y233300D02*
D03*
X460500D02*
D03*
X612500Y222000D02*
D03*
Y233800D02*
D03*
X308200Y518700D02*
D03*
X296400D02*
D03*
Y530500D02*
D03*
X308200D02*
D03*
X190100Y518700D02*
D03*
X178300D02*
D03*
Y530500D02*
D03*
X190100D02*
D03*
X284600D02*
D03*
X201900D02*
D03*
Y518700D02*
D03*
X213700D02*
D03*
X213500Y530500D02*
D03*
X272700D02*
D03*
X237300D02*
D03*
X249100D02*
D03*
X225500D02*
D03*
X260900D02*
D03*
Y518700D02*
D03*
X225500D02*
D03*
X249100D02*
D03*
X237300D02*
D03*
X272700D02*
D03*
X284600D02*
D03*
X157300Y404100D02*
D03*
X145500D02*
D03*
Y392100D02*
D03*
X157300Y392300D02*
D03*
Y380500D02*
D03*
X145500D02*
D03*
Y368700D02*
D03*
Y356400D02*
D03*
X157300D02*
D03*
Y368700D02*
D03*
Y456900D02*
D03*
Y445100D02*
D03*
X145500D02*
D03*
Y456900D02*
D03*
Y480500D02*
D03*
Y468700D02*
D03*
X157300D02*
D03*
Y480500D02*
D03*
X564900Y233800D02*
D03*
X577200D02*
D03*
Y222000D02*
D03*
X564900D02*
D03*
X553100D02*
D03*
Y233800D02*
D03*
X541300D02*
D03*
X541500Y222000D02*
D03*
X529500D02*
D03*
Y233800D02*
D03*
X517400Y520700D02*
D03*
X505100D02*
D03*
Y532500D02*
D03*
X517400D02*
D03*
X529200D02*
D03*
Y520700D02*
D03*
X541000D02*
D03*
X540800Y532500D02*
D03*
X552800D02*
D03*
Y520700D02*
D03*
D103*
X374000Y547500D02*
D03*
X355500D02*
D03*
X487500Y204500D02*
D03*
X469000D02*
D03*
X612500Y205000D02*
D03*
X186700Y547500D02*
D03*
X299700D02*
D03*
X128000Y395100D02*
D03*
X128500Y364800D02*
D03*
Y453500D02*
D03*
Y472000D02*
D03*
X568800Y205000D02*
D03*
X538500Y204500D02*
D03*
X513500Y549500D02*
D03*
X543800Y550000D02*
D03*
D104*
X130500Y545500D02*
D03*
X680500D02*
D03*
X130000Y220500D02*
D03*
X680000D02*
D03*
D105*
X463500Y374500D02*
D03*
Y434500D02*
D03*
D106*
X473500Y374500D02*
D03*
Y434500D02*
D03*
X483500Y374500D02*
D03*
Y434500D02*
D03*
X493500Y374500D02*
D03*
Y434500D02*
D03*
X503500Y374500D02*
D03*
Y434500D02*
D03*
X513500Y374500D02*
D03*
Y434500D02*
D03*
X523500Y374500D02*
D03*
Y434500D02*
D03*
X533500Y374500D02*
D03*
Y434500D02*
D03*
X543500Y374500D02*
D03*
Y434500D02*
D03*
X553500Y374500D02*
D03*
Y434500D02*
D03*
X563500Y374500D02*
D03*
Y434500D02*
D03*
X573500Y374500D02*
D03*
Y434500D02*
D03*
X583500Y374500D02*
D03*
Y434500D02*
D03*
X593500Y374500D02*
D03*
Y434500D02*
D03*
X603500Y374500D02*
D03*
Y434500D02*
D03*
M02*
