G04*
G04 #@! TF.GenerationSoftware,Altium Limited,Altium Designer,18.1.11 (251)*
G04*
G04 Layer_Color=8421504*
%FSLAX25Y25*%
%MOIN*%
G70*
G01*
G75*
%ADD10C,0.01000*%
%ADD15R,0.05315X0.03543*%
%ADD16R,0.06890X0.05709*%
%ADD17C,0.03000*%
%ADD18R,0.24016X0.26575*%
%ADD19R,0.25984X0.05906*%
%ADD20R,0.25197X0.05906*%
%ADD21R,0.03543X0.05315*%
%ADD22R,0.03740X0.03543*%
%ADD23R,0.03543X0.03740*%
%ADD24R,0.03543X0.02559*%
%ADD25R,0.26575X0.24016*%
%ADD26R,0.17126X0.08268*%
%ADD27R,0.10236X0.23622*%
D10*
X0Y0D02*
Y361500D01*
Y0D02*
X704500D01*
Y361500D01*
X0D02*
X704500D01*
D15*
X389900Y169937D02*
D03*
Y162063D02*
D03*
X342200Y170437D02*
D03*
Y162563D02*
D03*
X688000Y344437D02*
D03*
Y336563D02*
D03*
X697500Y344437D02*
D03*
Y336563D02*
D03*
X342400Y181263D02*
D03*
Y189137D02*
D03*
X389700Y181163D02*
D03*
Y189037D02*
D03*
X193800Y339137D02*
D03*
Y331263D02*
D03*
X258000Y247374D02*
D03*
Y239500D02*
D03*
X678000Y344437D02*
D03*
Y336563D02*
D03*
X247500Y247437D02*
D03*
Y239563D02*
D03*
D16*
X379700Y174312D02*
D03*
Y163288D02*
D03*
X352300Y174412D02*
D03*
Y163388D02*
D03*
D17*
X355500Y206300D02*
D03*
X369600Y206500D02*
D03*
X4000Y67500D02*
D03*
X625500Y297400D02*
D03*
X502700Y299100D02*
D03*
X98750Y353250D02*
D03*
D18*
X164769Y308500D02*
D03*
X123431D02*
D03*
X94669Y212500D02*
D03*
X53331D02*
D03*
D19*
X207500Y285980D02*
D03*
X475000Y292220D02*
D03*
X440500D02*
D03*
D20*
X207500Y308420D02*
D03*
X475000Y269779D02*
D03*
X440500D02*
D03*
D21*
X529437Y236000D02*
D03*
X521563D02*
D03*
X82063Y354000D02*
D03*
X89937D02*
D03*
D22*
X352300Y182849D02*
D03*
Y188951D02*
D03*
X378900Y182849D02*
D03*
Y188951D02*
D03*
X238000Y245651D02*
D03*
Y239549D02*
D03*
X669000Y337449D02*
D03*
Y343551D02*
D03*
D23*
X506898Y236000D02*
D03*
X513000D02*
D03*
X62551Y354000D02*
D03*
X56449D02*
D03*
D24*
X17028Y355500D02*
D03*
X7972D02*
D03*
X605972Y236000D02*
D03*
X615028D02*
D03*
X44128Y355500D02*
D03*
X35072D02*
D03*
D25*
X16000Y173831D02*
D03*
Y215169D02*
D03*
D26*
X210200Y329890D02*
D03*
Y341110D02*
D03*
D27*
X432795Y331000D02*
D03*
X482205D02*
D03*
M02*
