G04*
G04 #@! TF.GenerationSoftware,Altium Limited,Altium Designer,18.1.11 (251)*
G04*
G04 Layer_Color=8388736*
%FSLAX25Y25*%
%MOIN*%
G70*
G01*
G75*
%ADD10C,0.01000*%
%ADD28C,0.03800*%
%ADD29R,0.04343X0.06115*%
%ADD30R,0.06115X0.04343*%
%ADD31R,0.07690X0.06509*%
%ADD32R,0.04343X0.04540*%
%ADD33R,0.04540X0.04343*%
%ADD34R,0.11036X0.24422*%
%ADD35R,0.17926X0.09068*%
%ADD36R,0.24816X0.27375*%
%ADD37R,0.27375X0.24816*%
%ADD38R,0.04343X0.03359*%
%ADD39R,0.25997X0.06706*%
%ADD40R,0.26784X0.06706*%
%ADD41C,0.15600*%
%ADD42C,0.07800*%
%ADD43C,0.12611*%
%ADD44C,0.09855*%
%ADD45C,0.13398*%
%ADD46C,0.17729*%
%ADD47C,0.05918*%
%ADD48C,0.32296*%
D10*
X0Y0D02*
Y361500D01*
Y0D02*
X704500D01*
Y361500D01*
X0D02*
X704500D01*
D28*
X625500Y297400D02*
D03*
X98750Y353250D02*
D03*
X502700Y299100D02*
D03*
X369600Y209400D02*
D03*
X4000Y67500D02*
D03*
X355500Y206300D02*
D03*
X348600Y260200D02*
D03*
X367500Y140100D02*
D03*
X367200Y174500D02*
D03*
X375400Y214900D02*
D03*
X349100Y214800D02*
D03*
X431900Y233000D02*
D03*
X338800Y357300D02*
D03*
X70000Y358300D02*
D03*
D29*
X82063Y354000D02*
D03*
X89937D02*
D03*
X521563Y236000D02*
D03*
X529437D02*
D03*
D30*
X697500Y336563D02*
D03*
Y344437D02*
D03*
X688000Y336563D02*
D03*
Y344437D02*
D03*
X247500Y247437D02*
D03*
Y239563D02*
D03*
X678000Y336563D02*
D03*
Y344437D02*
D03*
X258000Y247374D02*
D03*
Y239500D02*
D03*
X193800Y331263D02*
D03*
Y339137D02*
D03*
X389700Y189037D02*
D03*
Y181163D02*
D03*
X342400Y189137D02*
D03*
Y181263D02*
D03*
X389900Y169937D02*
D03*
Y162063D02*
D03*
X342200Y170437D02*
D03*
Y162563D02*
D03*
D31*
X379700Y174312D02*
D03*
Y163288D02*
D03*
X352300Y174412D02*
D03*
Y163388D02*
D03*
D32*
X62551Y354000D02*
D03*
X56449D02*
D03*
X513000Y236000D02*
D03*
X506898D02*
D03*
D33*
X669000Y343551D02*
D03*
Y337449D02*
D03*
X238000Y245651D02*
D03*
Y239549D02*
D03*
X378900Y188951D02*
D03*
Y182849D02*
D03*
X352300Y188951D02*
D03*
Y182849D02*
D03*
D34*
X482205Y331000D02*
D03*
X432795D02*
D03*
D35*
X210200Y329890D02*
D03*
Y341110D02*
D03*
D36*
X94669Y212500D02*
D03*
X53331D02*
D03*
X123431Y308500D02*
D03*
X164769D02*
D03*
D37*
X16000Y173831D02*
D03*
Y215169D02*
D03*
D38*
X44128Y355500D02*
D03*
X35072D02*
D03*
X605972Y236000D02*
D03*
X615028D02*
D03*
X17028Y355500D02*
D03*
X7972D02*
D03*
D39*
X475000Y269779D02*
D03*
X440500D02*
D03*
X207500Y308420D02*
D03*
D40*
X475000Y292220D02*
D03*
X440500D02*
D03*
X207500Y285980D02*
D03*
D41*
X684700Y186100D02*
D03*
X398400Y232600D02*
D03*
X326700D02*
D03*
X614000Y337500D02*
D03*
X580500D02*
D03*
X538500D02*
D03*
X520000D02*
D03*
D42*
X667700Y186100D02*
D03*
X655900D02*
D03*
X381400Y226700D02*
D03*
Y238500D02*
D03*
X369600D02*
D03*
Y226700D02*
D03*
X343700Y238500D02*
D03*
Y226700D02*
D03*
X355500D02*
D03*
Y238500D02*
D03*
X614000Y320500D02*
D03*
Y308700D02*
D03*
X580500Y320500D02*
D03*
Y308700D02*
D03*
X547000D02*
D03*
X535200D02*
D03*
Y320500D02*
D03*
X547000D02*
D03*
X523400D02*
D03*
X511600D02*
D03*
Y308700D02*
D03*
X523400D02*
D03*
D43*
X411598Y268116D02*
D03*
Y289769D02*
D03*
Y333076D02*
D03*
Y311423D02*
D03*
X229000Y332092D02*
D03*
Y269100D02*
D03*
X397000Y37000D02*
D03*
Y21000D02*
D03*
X62500Y20500D02*
D03*
X78500D02*
D03*
D44*
X229000Y284336D02*
D03*
Y306029D02*
D03*
Y295163D02*
D03*
X63500Y339555D02*
D03*
X93028D02*
D03*
Y280500D02*
D03*
X63500D02*
D03*
X93028Y260815D02*
D03*
X63500D02*
D03*
X93028Y241130D02*
D03*
X63500D02*
D03*
X11972Y339555D02*
D03*
X41500D02*
D03*
Y280500D02*
D03*
X11972D02*
D03*
X41500Y260815D02*
D03*
X11972D02*
D03*
X41500Y241130D02*
D03*
X11972D02*
D03*
X612000Y281000D02*
D03*
Y251472D02*
D03*
X552945D02*
D03*
Y281000D02*
D03*
X533260Y251472D02*
D03*
Y281000D02*
D03*
X513575Y251472D02*
D03*
Y281000D02*
D03*
D45*
X16000Y95342D02*
D03*
Y135500D02*
D03*
X317500Y20500D02*
D03*
X357658D02*
D03*
D46*
X650000Y19500D02*
D03*
X15500Y14500D02*
D03*
X650000Y344500D02*
D03*
X116400Y337600D02*
D03*
D47*
X639200Y219300D02*
D03*
Y229300D02*
D03*
Y239300D02*
D03*
X688610Y219300D02*
D03*
Y229300D02*
D03*
Y239300D02*
D03*
X639200Y249300D02*
D03*
X688610D02*
D03*
X640191Y283700D02*
D03*
Y293700D02*
D03*
Y303700D02*
D03*
X689600Y283700D02*
D03*
Y293700D02*
D03*
Y303700D02*
D03*
X640191Y313700D02*
D03*
X689600D02*
D03*
D48*
X668898Y114500D02*
D03*
X400000D02*
D03*
X335500D02*
D03*
X66602D02*
D03*
M02*
