G04*
G04 #@! TF.GenerationSoftware,Altium Limited,Altium Designer,18.1.11 (251)*
G04*
G04 Layer_Physical_Order=1*
G04 Layer_Color=255*
%FSLAX25Y25*%
%MOIN*%
G70*
G01*
G75*
%ADD10C,0.01000*%
%ADD15R,0.05315X0.03543*%
%ADD16R,0.06890X0.05709*%
%ADD17C,0.03000*%
%ADD18R,0.24016X0.26575*%
%ADD19R,0.25984X0.05906*%
%ADD20R,0.25197X0.05906*%
%ADD21R,0.03543X0.05315*%
%ADD22R,0.03740X0.03543*%
%ADD23R,0.03543X0.03740*%
%ADD24R,0.03543X0.02559*%
%ADD25R,0.26575X0.24016*%
%ADD26R,0.17126X0.08268*%
%ADD27R,0.10236X0.23622*%
%ADD49C,0.02000*%
%ADD50C,0.05000*%
%ADD51C,0.04000*%
%ADD52C,0.11811*%
%ADD53C,0.05118*%
%ADD54C,0.07000*%
%ADD55C,0.14800*%
%ADD56C,0.12598*%
%ADD57C,0.09055*%
%ADD58C,0.16929*%
%ADD59C,0.31496*%
G36*
X701500Y346000D02*
X701500Y342500D01*
X700500Y341500D01*
X676000D01*
X675008Y342492D01*
X675000Y342534D01*
X675000Y346000D01*
X676000Y347000D01*
X700500D01*
X701500Y346000D01*
D02*
G37*
G36*
X701900Y337600D02*
X701900Y214900D01*
X699500Y212500D01*
X687100Y212500D01*
X684800Y214800D01*
X684800Y250200D01*
X697000Y262400D01*
X697000Y331985D01*
X694385Y334298D01*
Y339000D01*
X697000Y339000D01*
X700500Y339000D01*
X701900Y337600D01*
D02*
G37*
G36*
X220500Y347200D02*
Y337300D01*
X219300Y336100D01*
Y336000D01*
X215400Y336000D01*
X182000Y336000D01*
X177300Y331300D01*
X177300Y296600D01*
X175800Y295100D01*
X153400Y295100D01*
X152400Y296100D01*
Y339400D01*
X161100Y348100D01*
X219600D01*
X220500Y347200D01*
D02*
G37*
G36*
X235300Y339900D02*
X239300Y336300D01*
Y328400D01*
X235100Y324200D01*
X224100D01*
X222100Y322200D01*
X222100Y306900D01*
X220717Y305517D01*
X213581D01*
X213509Y305511D01*
X213437Y305517D01*
X193947Y305342D01*
X192734Y305235D01*
X192208Y305192D01*
X189100Y308300D01*
X189100Y310500D01*
X189100Y332500D01*
X191300Y334700D01*
X220200Y334700D01*
Y335000D01*
X225200Y340000D01*
X229900D01*
X235300Y339900D01*
D02*
G37*
G36*
X416600Y322100D02*
X418500Y320200D01*
X418500Y306500D01*
X414490Y302490D01*
X402000Y302490D01*
X402000Y282300D01*
X405800Y278500D01*
X492000Y278500D01*
X492000Y267500D01*
X484700Y260200D01*
X403800Y260200D01*
X396500Y267500D01*
X396500Y321000D01*
X397600Y322100D01*
X416600Y322100D01*
D02*
G37*
G36*
X440000Y341500D02*
X440000Y303000D01*
X445500Y297500D01*
X490000Y297500D01*
X492000Y295500D01*
X492000Y289000D01*
X485200Y282200D01*
X407500Y282200D01*
X404500Y285200D01*
X404500Y294400D01*
X407600Y297500D01*
X418300Y297500D01*
X422000Y301200D01*
X422000Y323700D01*
X420400Y325300D01*
X407900Y325300D01*
X403200Y329999D01*
X403200Y341637D01*
X407063Y345500D01*
X436000Y345500D01*
X440000Y341500D01*
D02*
G37*
G36*
X690800Y339000D02*
X691700Y338100D01*
X691700Y333400D01*
X693500Y331600D01*
X693500Y277300D01*
X691700Y275500D01*
X686000D01*
X684500Y277000D01*
X684400D01*
Y338500D01*
X685200Y339300D01*
X687700D01*
X690800Y339000D01*
D02*
G37*
G36*
X248200Y241800D02*
X250500D01*
X250900Y241500D01*
Y237700D01*
X250200Y237000D01*
X235500Y237000D01*
X235100Y237400D01*
Y241330D01*
X235570Y241800D01*
X248200Y241800D01*
D02*
G37*
G36*
X104900Y247200D02*
X107500Y244600D01*
Y194400D01*
X104300Y191200D01*
X84700D01*
X81800Y194100D01*
Y244400D01*
X81700Y244500D01*
X84400Y247200D01*
X94600D01*
X104900Y247200D01*
D02*
G37*
G36*
X66140Y226038D02*
X66000Y225898D01*
X66000Y147500D01*
X46500Y128000D01*
X10500Y128000D01*
X7000Y131500D01*
Y149000D01*
X11000Y153000D01*
X34000D01*
X40500Y159500D01*
Y226500D01*
X65949D01*
X66140Y226038D01*
D02*
G37*
G36*
X221218Y282438D02*
X226039Y277700D01*
X232300Y277700D01*
X241357Y268643D01*
X241190Y244293D01*
X240147Y243242D01*
X232513Y243130D01*
X230500Y241087D01*
Y237500D01*
X233000Y235000D01*
X252000D01*
X255000Y238000D01*
X255000Y241500D01*
X261000D01*
X262000Y240500D01*
Y207000D01*
X262000Y146000D01*
X355000Y53000D01*
X412700Y53000D01*
X416000Y49700D01*
X416000Y15700D01*
X412800Y12500D01*
X352000D01*
X349000Y15500D01*
Y28500D01*
X193100Y184400D01*
X193206Y288400D01*
X194091Y289293D01*
X213581Y289468D01*
X221095D01*
X221218Y282438D01*
D02*
G37*
G36*
X120500Y263500D02*
X120500Y17000D01*
X112500Y9000D01*
X76000Y9000D01*
X72000Y13000D01*
Y30000D01*
X109500Y67500D01*
Y247500D01*
X104500Y252500D01*
X91700Y252500D01*
X87700Y256500D01*
X87700Y263800D01*
X91400Y267500D01*
X116500Y267500D01*
X120500Y263500D01*
D02*
G37*
G36*
X69000Y70500D02*
X69000Y13000D01*
X65000Y9000D01*
X47100Y9000D01*
X37500Y18600D01*
X28600Y27500D01*
X2900Y53200D01*
X2900Y109900D01*
X6000Y113000D01*
X26500D01*
X69000Y70500D01*
D02*
G37*
D10*
X338800Y270000D02*
X348600Y260200D01*
X338800Y270000D02*
Y357300D01*
X349400Y222800D02*
Y231700D01*
Y222800D02*
X353500Y218700D01*
X343700Y237400D02*
X349400Y231700D01*
X343700Y237400D02*
Y238500D01*
X328900Y212100D02*
X343700Y226700D01*
X328900Y187500D02*
Y212100D01*
X354700Y149000D02*
X386700D01*
X352200Y151500D02*
X354700Y149000D01*
X352200Y151500D02*
Y160863D01*
X335137Y181263D02*
X342400D01*
X328900Y187500D02*
X335137Y181263D01*
X349100Y212700D02*
X355500Y206300D01*
X349100Y212700D02*
Y214800D01*
X369600Y206800D02*
X375400Y212600D01*
Y214900D01*
X369600Y206500D02*
Y206800D01*
X389700Y181163D02*
X395763D01*
X388500Y202700D02*
Y231400D01*
X395763Y181163D02*
X398600Y184000D01*
Y192700D01*
X388600Y202700D02*
X398600Y192700D01*
X388500Y202700D02*
X388600D01*
X363400Y246400D02*
X415300D01*
X355500Y238500D02*
X363400Y246400D01*
X428700Y233000D02*
X431900D01*
X415300Y246400D02*
X428700Y233000D01*
X381400Y238500D02*
X388500Y231400D01*
X373400Y218700D02*
X381400Y226700D01*
X353500Y218700D02*
X373400D01*
X504000Y266300D02*
Y279949D01*
X386700Y149000D02*
X504000Y266300D01*
X501000Y266128D02*
Y280000D01*
X396935Y162063D02*
X501000Y266128D01*
X389900Y162063D02*
X396935D01*
X379600Y174212D02*
X379700Y174312D01*
X352300Y174412D02*
X379600D01*
X343025Y163388D02*
X349400D01*
X352300Y174412D02*
Y182849D01*
X378900Y175112D02*
X379700Y174312D01*
X378900Y175112D02*
Y182849D01*
X389614Y188951D02*
X389700Y189037D01*
X378900Y188951D02*
X389614D01*
X342400Y189137D02*
X352114D01*
X342400Y170637D02*
Y181263D01*
X380925Y162063D02*
X389900D01*
X389700Y170137D02*
Y181163D01*
X512900Y349500D02*
X542600D01*
X505700Y342300D02*
X512900Y349500D01*
X505700Y314600D02*
Y342300D01*
X529437Y236000D02*
Y243463D01*
X521428Y251472D02*
X529437Y243463D01*
X513575Y251472D02*
X521428D01*
X618400Y297400D02*
X625500D01*
X614000Y301800D02*
X618400Y297400D01*
X614000Y301800D02*
Y308700D01*
X503200Y299800D02*
X511600Y308200D01*
X229201Y309433D02*
X232534Y306100D01*
X9645Y359700D02*
X25500D01*
X7972Y358028D02*
X9645Y359700D01*
X29700Y355500D02*
X35072D01*
X25500Y359700D02*
X29700Y355500D01*
X669000Y327600D02*
Y337449D01*
X665000Y323600D02*
X669000Y327600D01*
X642600Y323600D02*
X665000D01*
X640191Y321191D02*
X642600Y323600D01*
X640191Y313700D02*
Y321191D01*
X505700Y314600D02*
X511600Y308700D01*
X229201Y287740D02*
X231941Y285000D01*
X529000Y314300D02*
X535200Y320500D01*
X529000Y305500D02*
Y314300D01*
X542600Y349500D02*
X550200Y341900D01*
Y331929D02*
Y341900D01*
Y331929D02*
X580629Y301500D01*
X56449Y354000D02*
Y356949D01*
Y351051D02*
Y354000D01*
X51900D02*
X56449D01*
X46000Y359900D02*
X51900Y354000D01*
X36500Y359900D02*
X46000D01*
X35072Y358472D02*
X36500Y359900D01*
X35072Y355500D02*
Y358472D01*
X89937Y355500D02*
X96500D01*
X56445Y339555D02*
X63500D01*
X44028Y351972D02*
Y354300D01*
Y351972D02*
X56445Y339555D01*
X225805Y332100D02*
X229201Y335496D01*
X56449Y356949D02*
X57800Y358300D01*
X70000D01*
X96500Y355500D02*
X98750Y353250D01*
X62551Y354000D02*
X82063D01*
X98750Y353250D02*
X101000Y351000D01*
Y335500D02*
Y351000D01*
X7972Y355500D02*
Y358028D01*
X674437Y336563D02*
X678000D01*
X673500Y337500D02*
X674437Y336563D01*
X673500Y337500D02*
Y342387D01*
X672387Y343500D02*
X673500Y342387D01*
X669051Y343500D02*
X672387D01*
X669000Y343551D02*
X669051Y343500D01*
X94000Y213169D02*
X94669Y212500D01*
X513051Y289000D02*
X524500D01*
X504000Y279949D02*
X513051Y289000D01*
X516000Y292500D02*
X529000Y305500D01*
X513500Y292500D02*
X516000D01*
X501000Y280000D02*
X513500Y292500D01*
X524500Y289000D02*
X541000Y305500D01*
X511600Y308200D02*
Y308700D01*
X541000Y305500D02*
Y315000D01*
X546500Y320500D01*
X547000D01*
X563480Y276000D02*
X563500D01*
X580629Y301500D02*
X591500D01*
X612000Y281000D01*
X60000Y347500D02*
X85083D01*
X56449Y351051D02*
X60000Y347500D01*
X85083D02*
X93028Y339555D01*
X63500D02*
X72555Y330500D01*
X96000D01*
X101000Y335500D01*
X82063Y355500D02*
X82449Y355114D01*
X605972Y236000D02*
Y274972D01*
X612000Y281000D01*
X16000Y173831D02*
X17279D01*
X97339Y210500D02*
Y211779D01*
X11972Y339555D02*
Y347000D01*
X7972Y351000D02*
X11972Y347000D01*
X7972Y351000D02*
Y355500D01*
X25500D02*
X41445Y339555D01*
X41500D01*
X17028Y355500D02*
X25500D01*
X513000Y236000D02*
X521563D01*
X0Y0D02*
Y361500D01*
Y0D02*
X704500D01*
Y361500D01*
X0D02*
X704500D01*
D15*
X389900Y169937D02*
D03*
Y162063D02*
D03*
X342200Y170437D02*
D03*
Y162563D02*
D03*
X688000Y344437D02*
D03*
Y336563D02*
D03*
X697500Y344437D02*
D03*
Y336563D02*
D03*
X342400Y181263D02*
D03*
Y189137D02*
D03*
X389700Y181163D02*
D03*
Y189037D02*
D03*
X193800Y339137D02*
D03*
Y331263D02*
D03*
X258000Y247374D02*
D03*
Y239500D02*
D03*
X678000Y344437D02*
D03*
Y336563D02*
D03*
X247500Y247437D02*
D03*
Y239563D02*
D03*
D16*
X379700Y174312D02*
D03*
Y163288D02*
D03*
X352300Y174412D02*
D03*
Y163388D02*
D03*
D17*
X355500Y206300D02*
D03*
X369600Y206500D02*
D03*
X4000Y67500D02*
D03*
X625500Y297400D02*
D03*
X502700Y299100D02*
D03*
X98750Y353250D02*
D03*
X348600Y260200D02*
D03*
X367500Y140100D02*
D03*
X367200Y174500D02*
D03*
X375400Y214900D02*
D03*
X349100Y214800D02*
D03*
X431900Y233000D02*
D03*
X338800Y357300D02*
D03*
X70000Y358300D02*
D03*
D18*
X164769Y308500D02*
D03*
X123431D02*
D03*
X94669Y212500D02*
D03*
X53331D02*
D03*
D19*
X207500Y285980D02*
D03*
X475000Y292220D02*
D03*
X440500D02*
D03*
D20*
X207500Y308420D02*
D03*
X475000Y269779D02*
D03*
X440500D02*
D03*
D21*
X529437Y236000D02*
D03*
X521563D02*
D03*
X82063Y354000D02*
D03*
X89937D02*
D03*
D22*
X352300Y182849D02*
D03*
Y188951D02*
D03*
X378900Y182849D02*
D03*
Y188951D02*
D03*
X238000Y245651D02*
D03*
Y239549D02*
D03*
X669000Y337449D02*
D03*
Y343551D02*
D03*
D23*
X506898Y236000D02*
D03*
X513000D02*
D03*
X62551Y354000D02*
D03*
X56449D02*
D03*
D24*
X17028Y355500D02*
D03*
X7972D02*
D03*
X605972Y236000D02*
D03*
X615028D02*
D03*
X44128Y355500D02*
D03*
X35072D02*
D03*
D25*
X16000Y173831D02*
D03*
Y215169D02*
D03*
D26*
X210200Y329890D02*
D03*
Y341110D02*
D03*
D27*
X432795Y331000D02*
D03*
X482205D02*
D03*
D49*
X367500Y140100D02*
X381335D01*
X471435Y230200D02*
X507000D01*
X381335Y140100D02*
X471435Y230200D01*
X553880Y266400D02*
X563480Y276000D01*
X515300Y266400D02*
X553880D01*
X506898Y257998D02*
X515300Y266400D01*
X507000Y230200D02*
Y236000D01*
X506898D02*
Y257998D01*
X564500Y336500D02*
Y348400D01*
X557400Y355500D02*
X564500Y348400D01*
X405000Y355500D02*
X557400D01*
X398300Y348800D02*
X405000Y355500D01*
X398300Y316200D02*
Y348800D01*
X530100Y327200D02*
X550300D01*
X523400Y320500D02*
X530100Y327200D01*
X550300D02*
X563500Y314000D01*
X615028Y236000D02*
Y240572D01*
X612000Y243600D02*
X615028Y240572D01*
X612000Y243600D02*
Y251472D01*
X507000Y230000D02*
X613000D01*
X615028Y232028D01*
Y236000D01*
X563500Y276000D02*
Y314000D01*
X560500Y328700D02*
Y345914D01*
X553914Y352500D02*
X560500Y345914D01*
X486000Y352500D02*
X553914D01*
X482205Y348705D02*
X486000Y352500D01*
X482205Y331000D02*
Y348705D01*
X560500Y328700D02*
X580500Y308700D01*
X564500Y336500D02*
X580500Y320500D01*
Y308700D02*
X614000D01*
X678000Y344437D02*
Y356500D01*
X676000Y358500D02*
X678000Y356500D01*
X631500Y358500D02*
X676000D01*
X627000Y354000D02*
X631500Y358500D01*
X627000Y312500D02*
Y354000D01*
X623200Y308700D02*
X627000Y312500D01*
X614000Y308700D02*
X623200D01*
X580500Y320500D02*
X614000D01*
D50*
X41500Y280500D02*
X52800Y269200D01*
Y254600D02*
Y269200D01*
X49300Y251100D02*
X52800Y254600D01*
X35100Y251100D02*
X49300D01*
X16000Y232000D02*
X35100Y251100D01*
X40200Y232700D02*
X70300D01*
X34800Y227300D02*
X40200Y232700D01*
X34800Y191351D02*
Y227300D01*
X70300Y232700D02*
X73700Y236100D01*
X17279Y173831D02*
X34800Y191351D01*
X63500Y280500D02*
X73700Y270300D01*
Y236100D02*
Y270300D01*
X94000Y213169D02*
Y214700D01*
X35800Y308500D02*
X123431D01*
X27600Y300300D02*
X35800Y308500D01*
X27600Y274715D02*
Y300300D01*
Y274715D02*
X41500Y260815D01*
X16000Y215169D02*
Y232000D01*
D51*
X251800Y306100D02*
X258000Y299900D01*
X232534Y306100D02*
X251800D01*
X240400Y285000D02*
X247500Y277900D01*
Y248600D02*
Y277900D01*
X231941Y285000D02*
X240400D01*
X258000Y248700D02*
Y299900D01*
D52*
X62500Y20500D02*
D03*
X78500D02*
D03*
X397000Y21000D02*
D03*
Y37000D02*
D03*
X229000Y269100D02*
D03*
Y332092D02*
D03*
X411598Y311423D02*
D03*
Y333076D02*
D03*
Y289769D02*
D03*
Y268116D02*
D03*
D53*
X640191Y283700D02*
D03*
Y293700D02*
D03*
Y303700D02*
D03*
X689600Y283700D02*
D03*
Y293700D02*
D03*
Y303700D02*
D03*
X640191Y313700D02*
D03*
X689600D02*
D03*
X688600Y246400D02*
D03*
X639190D02*
D03*
X688600Y236400D02*
D03*
Y226400D02*
D03*
Y216400D02*
D03*
X639190Y236400D02*
D03*
Y226400D02*
D03*
Y216400D02*
D03*
D54*
X355500Y238500D02*
D03*
Y226700D02*
D03*
X343700D02*
D03*
Y238500D02*
D03*
X369600Y226700D02*
D03*
Y238500D02*
D03*
X381400D02*
D03*
Y226700D02*
D03*
X523400Y308700D02*
D03*
X511600D02*
D03*
Y320500D02*
D03*
X523400D02*
D03*
X547000D02*
D03*
X535200D02*
D03*
Y308700D02*
D03*
X547000D02*
D03*
X580500D02*
D03*
Y320500D02*
D03*
X614000D02*
D03*
Y308700D02*
D03*
D55*
X326700Y232600D02*
D03*
X398400D02*
D03*
X520000Y337500D02*
D03*
X538500D02*
D03*
X580500D02*
D03*
X614000D02*
D03*
D56*
X317500Y20500D02*
D03*
X357658D02*
D03*
X16000Y95342D02*
D03*
Y135500D02*
D03*
D57*
X229000Y295163D02*
D03*
Y306029D02*
D03*
Y284336D02*
D03*
X513575Y281000D02*
D03*
X533260D02*
D03*
X612000D02*
D03*
X552945D02*
D03*
X513575Y251472D02*
D03*
X533260D02*
D03*
X552945D02*
D03*
X612000D02*
D03*
X11972Y241130D02*
D03*
Y260815D02*
D03*
Y339555D02*
D03*
Y280500D02*
D03*
X41500Y241130D02*
D03*
Y260815D02*
D03*
Y280500D02*
D03*
Y339555D02*
D03*
X63500Y241130D02*
D03*
Y260815D02*
D03*
Y339555D02*
D03*
Y280500D02*
D03*
X93028Y241130D02*
D03*
Y260815D02*
D03*
Y280500D02*
D03*
Y339555D02*
D03*
D58*
X15500Y14500D02*
D03*
X650000Y19500D02*
D03*
X116400Y337600D02*
D03*
X650000Y344500D02*
D03*
D59*
X335500Y114500D02*
D03*
X66602D02*
D03*
X668898D02*
D03*
X400000D02*
D03*
M02*
