G04*
G04 #@! TF.GenerationSoftware,Altium Limited,Altium Designer,18.1.11 (251)*
G04*
G04 Layer_Color=16711935*
%FSLAX25Y25*%
%MOIN*%
G70*
G01*
G75*
%ADD10C,0.01000*%
%ADD30C,0.03800*%
%ADD41C,0.12611*%
%ADD42C,0.05918*%
%ADD43C,0.07800*%
%ADD44C,0.15600*%
%ADD45C,0.13398*%
%ADD46C,0.09855*%
%ADD47C,0.17729*%
%ADD48C,0.32296*%
D10*
X0Y0D02*
Y361500D01*
Y0D02*
X704500D01*
Y361500D01*
X0D02*
X704500D01*
D30*
X348600Y260200D02*
D03*
X367500Y140100D02*
D03*
X367200Y174500D02*
D03*
X375400Y214900D02*
D03*
X349100Y214800D02*
D03*
X431900Y233000D02*
D03*
X338800Y357300D02*
D03*
X70000Y358300D02*
D03*
D41*
X62500Y20500D02*
D03*
X78500D02*
D03*
X397000Y21000D02*
D03*
Y37000D02*
D03*
X229000Y269100D02*
D03*
Y332092D02*
D03*
X411598Y311423D02*
D03*
Y333076D02*
D03*
Y289769D02*
D03*
Y268116D02*
D03*
D42*
X640191Y283700D02*
D03*
Y293700D02*
D03*
Y303700D02*
D03*
X689600Y283700D02*
D03*
Y293700D02*
D03*
Y303700D02*
D03*
X640191Y313700D02*
D03*
X689600D02*
D03*
X688600Y246400D02*
D03*
X639190D02*
D03*
X688600Y236400D02*
D03*
Y226400D02*
D03*
Y216400D02*
D03*
X639190Y236400D02*
D03*
Y226400D02*
D03*
Y216400D02*
D03*
D43*
X355500Y238500D02*
D03*
Y226700D02*
D03*
X343700D02*
D03*
Y238500D02*
D03*
X369600Y226700D02*
D03*
Y238500D02*
D03*
X381400D02*
D03*
Y226700D02*
D03*
X523400Y308700D02*
D03*
X511600D02*
D03*
Y320500D02*
D03*
X523400D02*
D03*
X547000D02*
D03*
X535200D02*
D03*
Y308700D02*
D03*
X547000D02*
D03*
X580500D02*
D03*
Y320500D02*
D03*
X614000D02*
D03*
Y308700D02*
D03*
D44*
X326700Y232600D02*
D03*
X398400D02*
D03*
X520000Y337500D02*
D03*
X538500D02*
D03*
X580500D02*
D03*
X614000D02*
D03*
D45*
X317500Y20500D02*
D03*
X357658D02*
D03*
X16000Y95342D02*
D03*
Y135500D02*
D03*
D46*
X229000Y295163D02*
D03*
Y306029D02*
D03*
Y284336D02*
D03*
X513575Y281000D02*
D03*
X533260D02*
D03*
X612000D02*
D03*
X552945D02*
D03*
X513575Y251472D02*
D03*
X533260D02*
D03*
X552945D02*
D03*
X612000D02*
D03*
X11972Y241130D02*
D03*
Y260815D02*
D03*
Y339555D02*
D03*
Y280500D02*
D03*
X41500Y241130D02*
D03*
Y260815D02*
D03*
Y280500D02*
D03*
Y339555D02*
D03*
X63500Y241130D02*
D03*
Y260815D02*
D03*
Y339555D02*
D03*
Y280500D02*
D03*
X93028Y241130D02*
D03*
Y260815D02*
D03*
Y280500D02*
D03*
Y339555D02*
D03*
D47*
X15500Y14500D02*
D03*
X650000Y19500D02*
D03*
X116400Y337600D02*
D03*
X650000Y344500D02*
D03*
D48*
X335500Y114500D02*
D03*
X66602D02*
D03*
X668898D02*
D03*
X400000D02*
D03*
M02*
